<?xml version="1.0" encoding="UTF-8" standalone="no"?><svg xmlns="http://www.w3.org/2000/svg" xmlns:xlink="http://www.w3.org/1999/xlink" contentScriptType="application/ecmascript" contentStyleType="text/css" height="700px" preserveAspectRatio="none" style="width:355px;height:700px;" version="1.1" viewBox="0 0 355 700" width="355px" zoomAndPan="magnify"><defs><filter height="300%" id="fj2eligdl9ank" width="300%" x="-1" y="-1"><feGaussianBlur result="blurOut" stdDeviation="2.0"/><feColorMatrix in="blurOut" result="blurOut2" type="matrix" values="0 0 0 0 0 0 0 0 0 0 0 0 0 0 0 0 0 0 .4 0"/><feOffset dx="4.0" dy="4.0" in="blurOut2" result="blurOut3"/><feBlend in="SourceGraphic" in2="blurOut3" mode="normal"/></filter></defs><g><text fill="#000000" font-family="sans-serif" font-size="18" lengthAdjust="spacingAndGlyphs" textLength="92" x="130.5" y="26.708">Build Flow</text><ellipse cx="162.5" cy="40.9531" fill="#000000" filter="url(#fj2eligdl9ank)" rx="10" ry="10" style="stroke: none; stroke-width: 1.0;"/><path d="M15,70.9531 L10,87.9375 L15,104.9219 M310,70.9531 L315,87.9375 L310,104.9219 " fill="#FEFECE" filter="url(#fj2eligdl9ank)" style="stroke: #A80036; stroke-width: 1.5;"/><text fill="#000000" font-family="sans-serif" font-size="12" lengthAdjust="spacingAndGlyphs" textLength="285" x="20" y="92.0918">Supported Node.js versions: 6,7,8,9,10,11,12</text><polygon fill="#FEFECE" filter="url(#fj2eligdl9ank)" points="142,507.7383,193,507.7383,183,541.707,132,541.707" style="stroke: #A80036; stroke-width: 1.5;"/><text fill="#000000" font-family="sans-serif" font-size="12" lengthAdjust="spacingAndGlyphs" textLength="41" x="142" y="528.877">stdout</text><polygon fill="#FEFECE" filter="url(#fj2eligdl9ank)" points="127.5,459.3359,197.5,459.3359,209.5,471.3359,197.5,483.3359,127.5,483.3359,115.5,471.3359,127.5,459.3359" style="stroke: #A80036; stroke-width: 1.5;"/><text fill="#000000" font-family="sans-serif" font-size="11" lengthAdjust="spacingAndGlyphs" textLength="42" x="166.5" y="493.5464">passed</text><text fill="#000000" font-family="sans-serif" font-size="11" lengthAdjust="spacingAndGlyphs" textLength="70" x="127.5" y="475.144">npm publish</text><text fill="#000000" font-family="sans-serif" font-size="11" lengthAdjust="spacingAndGlyphs" textLength="31" x="209.5" y="468.7417">failed</text><ellipse cx="260.5" cy="471.3359" fill="#FEFECE" filter="url(#fj2eligdl9ank)" rx="10" ry="10" style="stroke: #A80036; stroke-width: 1.5;"/><path d="M260.6094,467.5078 L259,471.8516 L262.2188,471.8516 L260.6094,467.5078 Z M259.9375,466.3359 L261.2813,466.3359 L264.6094,475.0859 L263.375,475.0859 L262.5781,472.8359 L258.6406,472.8359 L257.8438,475.0859 L256.5938,475.0859 L259.9375,466.3359 Z "/><polygon fill="#FEFECE" filter="url(#fj2eligdl9ank)" points="138,410.9336,187,410.9336,199,422.9336,187,434.9336,138,434.9336,126,422.9336,138,410.9336" style="stroke: #A80036; stroke-width: 1.5;"/><text fill="#000000" font-family="sans-serif" font-size="11" lengthAdjust="spacingAndGlyphs" textLength="42" x="166.5" y="445.144">passed</text><text fill="#000000" font-family="sans-serif" font-size="11" lengthAdjust="spacingAndGlyphs" textLength="49" x="138" y="426.7417">webpack</text><text fill="#000000" font-family="sans-serif" font-size="11" lengthAdjust="spacingAndGlyphs" textLength="31" x="199" y="420.3394">failed</text><ellipse cx="250" cy="422.9336" fill="#FEFECE" filter="url(#fj2eligdl9ank)" rx="10" ry="10" style="stroke: #A80036; stroke-width: 1.5;"/><path d="M250.1094,419.1055 L248.5,423.4492 L251.7188,423.4492 L250.1094,419.1055 Z M249.4375,417.9336 L250.7813,417.9336 L254.1094,426.6836 L252.875,426.6836 L252.0781,424.4336 L248.1406,424.4336 L247.3438,426.6836 L246.0938,426.6836 L249.4375,417.9336 Z "/><polygon fill="#FEFECE" filter="url(#fj2eligdl9ank)" points="147.5,362.5313,177.5,362.5313,189.5,374.5313,177.5,386.5313,147.5,386.5313,135.5,374.5313,147.5,362.5313" style="stroke: #A80036; stroke-width: 1.5;"/><text fill="#000000" font-family="sans-serif" font-size="11" lengthAdjust="spacingAndGlyphs" textLength="42" x="166.5" y="396.7417">passed</text><text fill="#000000" font-family="sans-serif" font-size="11" lengthAdjust="spacingAndGlyphs" textLength="30" x="147.5" y="378.3394">jsdoc</text><text fill="#000000" font-family="sans-serif" font-size="11" lengthAdjust="spacingAndGlyphs" textLength="31" x="189.5" y="371.937">failed</text><ellipse cx="240.5" cy="374.5313" fill="#FEFECE" filter="url(#fj2eligdl9ank)" rx="10" ry="10" style="stroke: #A80036; stroke-width: 1.5;"/><path d="M240.6094,370.7031 L239,375.0469 L242.2188,375.0469 L240.6094,370.7031 Z M239.9375,369.5313 L241.2813,369.5313 L244.6094,378.2813 L243.375,378.2813 L242.5781,376.0313 L238.6406,376.0313 L237.8438,378.2813 L236.5938,378.2813 L239.9375,369.5313 Z "/><polygon fill="#FEFECE" filter="url(#fj2eligdl9ank)" points="137,314.1289,188,314.1289,200,326.1289,188,338.1289,137,338.1289,125,326.1289,137,314.1289" style="stroke: #A80036; stroke-width: 1.5;"/><text fill="#000000" font-family="sans-serif" font-size="11" lengthAdjust="spacingAndGlyphs" textLength="42" x="166.5" y="348.3394">passed</text><text fill="#000000" font-family="sans-serif" font-size="11" lengthAdjust="spacingAndGlyphs" textLength="51" x="137" y="329.937">coveralls</text><text fill="#000000" font-family="sans-serif" font-size="11" lengthAdjust="spacingAndGlyphs" textLength="31" x="200" y="323.5347">failed</text><ellipse cx="251" cy="326.1289" fill="#FEFECE" filter="url(#fj2eligdl9ank)" rx="10" ry="10" style="stroke: #A80036; stroke-width: 1.5;"/><path d="M251.1094,322.3008 L249.5,326.6445 L252.7188,326.6445 L251.1094,322.3008 Z M250.4375,321.1289 L251.7813,321.1289 L255.1094,329.8789 L253.875,329.8789 L253.0781,327.6289 L249.1406,327.6289 L248.3438,329.8789 L247.0938,329.8789 L250.4375,321.1289 Z "/><polygon fill="#FEFECE" filter="url(#fj2eligdl9ank)" points="150.5,265.7266,174.5,265.7266,186.5,277.7266,174.5,289.7266,150.5,289.7266,138.5,277.7266,150.5,265.7266" style="stroke: #A80036; stroke-width: 1.5;"/><text fill="#000000" font-family="sans-serif" font-size="11" lengthAdjust="spacingAndGlyphs" textLength="42" x="166.5" y="299.937">passed</text><text fill="#000000" font-family="sans-serif" font-size="11" lengthAdjust="spacingAndGlyphs" textLength="21" x="152" y="281.5347">jest</text><text fill="#000000" font-family="sans-serif" font-size="11" lengthAdjust="spacingAndGlyphs" textLength="31" x="186.5" y="275.1323">failed</text><ellipse cx="237.5" cy="277.7266" fill="#FEFECE" filter="url(#fj2eligdl9ank)" rx="10" ry="10" style="stroke: #A80036; stroke-width: 1.5;"/><path d="M237.6094,273.8984 L236,278.2422 L239.2188,278.2422 L237.6094,273.8984 Z M236.9375,272.7266 L238.2813,272.7266 L241.6094,281.4766 L240.375,281.4766 L239.5781,279.2266 L235.6406,279.2266 L234.8438,281.4766 L233.5938,281.4766 L236.9375,272.7266 Z "/><polygon fill="#FEFECE" filter="url(#fj2eligdl9ank)" points="147,217.3242,178,217.3242,190,229.3242,178,241.3242,147,241.3242,135,229.3242,147,217.3242" style="stroke: #A80036; stroke-width: 1.5;"/><text fill="#000000" font-family="sans-serif" font-size="11" lengthAdjust="spacingAndGlyphs" textLength="42" x="166.5" y="251.5347">passed</text><text fill="#000000" font-family="sans-serif" font-size="11" lengthAdjust="spacingAndGlyphs" textLength="31" x="147" y="233.1323">eslint</text><text fill="#000000" font-family="sans-serif" font-size="11" lengthAdjust="spacingAndGlyphs" textLength="31" x="190" y="226.73">failed</text><ellipse cx="241" cy="229.3242" fill="#FEFECE" filter="url(#fj2eligdl9ank)" rx="10" ry="10" style="stroke: #A80036; stroke-width: 1.5;"/><path d="M241.1094,225.4961 L239.5,229.8398 L242.7188,229.8398 L241.1094,225.4961 Z M240.4375,224.3242 L241.7813,224.3242 L245.1094,233.0742 L243.875,233.0742 L243.0781,230.8242 L239.1406,230.8242 L238.3438,233.0742 L237.0938,233.0742 L240.4375,224.3242 Z "/><polygon fill="#FEFECE" filter="url(#fj2eligdl9ank)" points="146.5,168.9219,178.5,168.9219,190.5,180.9219,178.5,192.9219,146.5,192.9219,134.5,180.9219,146.5,168.9219" style="stroke: #A80036; stroke-width: 1.5;"/><text fill="#000000" font-family="sans-serif" font-size="11" lengthAdjust="spacingAndGlyphs" textLength="42" x="166.5" y="203.1323">passed</text><text fill="#000000" font-family="sans-serif" font-size="11" lengthAdjust="spacingAndGlyphs" textLength="32" x="146.5" y="184.73">npm i</text><text fill="#000000" font-family="sans-serif" font-size="11" lengthAdjust="spacingAndGlyphs" textLength="31" x="190.5" y="178.3276">failed</text><ellipse cx="241.5" cy="180.9219" fill="#FEFECE" filter="url(#fj2eligdl9ank)" rx="10" ry="10" style="stroke: #A80036; stroke-width: 1.5;"/><path d="M241.6094,177.0938 L240,181.4375 L243.2188,181.4375 L241.6094,177.0938 Z M240.9375,175.9219 L242.2813,175.9219 L245.6094,184.6719 L244.375,184.6719 L243.5781,182.4219 L239.6406,182.4219 L238.8438,184.6719 L237.5938,184.6719 L240.9375,175.9219 Z "/><polygon fill="#FEFECE" filter="url(#fj2eligdl9ank)" points="116,124.9219,209,124.9219,221,136.9219,209,148.9219,116,148.9219,104,136.9219,116,124.9219" style="stroke: #A80036; stroke-width: 1.5;"/><text fill="#000000" font-family="sans-serif" font-size="11" lengthAdjust="spacingAndGlyphs" textLength="93" x="116" y="140.73">for each version</text><ellipse cx="33.5" cy="178.9219" fill="#FFFFFF" filter="url(#fj2eligdl9ank)" rx="10" ry="10" style="stroke: #000000; stroke-width: 1.5;"/><line style="stroke: #000000; stroke-width: 2.5;" x1="27.3128" x2="39.6872" y1="172.7347" y2="185.1091"/><line style="stroke: #000000; stroke-width: 2.5;" x1="39.6872" x2="27.3128" y1="172.7347" y2="185.1091"/><ellipse cx="162.5" cy="583.707" fill="#FEFECE" filter="url(#fj2eligdl9ank)" rx="10" ry="10" style="stroke: #A80036; stroke-width: 1.5;"/><path d="M162.6094,579.8789 L161,584.2227 L164.2188,584.2227 L162.6094,579.8789 Z M161.9375,578.707 L163.2813,578.707 L166.6094,587.457 L165.375,587.457 L164.5781,585.207 L160.6406,585.207 L159.8438,587.457 L158.5938,587.457 L161.9375,578.707 Z "/><polygon fill="#FEFECE" filter="url(#fj2eligdl9ank)" points="143.5,613.707,191.5,613.707,181.5,647.6758,133.5,647.6758" style="stroke: #A80036; stroke-width: 1.5;"/><text fill="#000000" font-family="sans-serif" font-size="12" lengthAdjust="spacingAndGlyphs" textLength="38" x="143.5" y="634.8457">stderr</text><ellipse cx="162.5" cy="678.6758" fill="#FFFFFF" filter="url(#fj2eligdl9ank)" rx="11" ry="11" style="stroke: #000000; stroke-width: 1.0;"/><ellipse cx="162.5" cy="678.6758" fill="#000000" rx="6" ry="6" style="stroke: #7F7F7F; stroke-width: 1.0;"/><line style="stroke: #A80036; stroke-width: 1.5;" x1="162.5" x2="162.5" y1="50.9531" y2="70.9531"/><polygon fill="#A80036" points="158.5,60.9531,162.5,70.9531,166.5,60.9531,162.5,64.9531" style="stroke: #A80036; stroke-width: 1.0;"/><line style="stroke: #008000; stroke-width: 1.5;" x1="162.5" x2="162.5" y1="483.3359" y2="507.7383"/><polygon fill="#008000" points="158.5,497.7383,162.5,507.7383,166.5,497.7383,162.5,501.7383" style="stroke: #008000; stroke-width: 1.0;"/><line style="stroke: #A80036; stroke-width: 1.5;" x1="209.5" x2="250.5" y1="471.3359" y2="471.3359"/><polygon fill="#A80036" points="240.5,467.3359,250.5,471.3359,240.5,475.3359,244.5,471.3359" style="stroke: #A80036; stroke-width: 1.0;"/><line style="stroke: #A80036; stroke-width: 1.5;" x1="162.5" x2="162.5" y1="541.707" y2="551.707"/><line style="stroke: #A80036; stroke-width: 1.5;" x1="162.5" x2="329" y1="551.707" y2="551.707"/><polygon fill="#A80036" points="325,438.7227,329,428.7227,333,438.7227,329,434.7227" style="stroke: #A80036; stroke-width: 1.5;"/><line style="stroke: #A80036; stroke-width: 1.5;" x1="329" x2="329" y1="136.9219" y2="551.707"/><line style="stroke: #A80036; stroke-width: 1.5;" x1="329" x2="221" y1="136.9219" y2="136.9219"/><polygon fill="#A80036" points="231,132.9219,221,136.9219,231,140.9219,227,136.9219" style="stroke: #A80036; stroke-width: 1.0;"/><line style="stroke: #008000; stroke-width: 1.5;" x1="162.5" x2="162.5" y1="434.9336" y2="459.3359"/><polygon fill="#008000" points="158.5,449.3359,162.5,459.3359,166.5,449.3359,162.5,453.3359" style="stroke: #008000; stroke-width: 1.0;"/><line style="stroke: #A80036; stroke-width: 1.5;" x1="199" x2="240" y1="422.9336" y2="422.9336"/><polygon fill="#A80036" points="230,418.9336,240,422.9336,230,426.9336,234,422.9336" style="stroke: #A80036; stroke-width: 1.0;"/><line style="stroke: #008000; stroke-width: 1.5;" x1="162.5" x2="162.5" y1="386.5313" y2="410.9336"/><polygon fill="#008000" points="158.5,400.9336,162.5,410.9336,166.5,400.9336,162.5,404.9336" style="stroke: #008000; stroke-width: 1.0;"/><line style="stroke: #A80036; stroke-width: 1.5;" x1="189.5" x2="230.5" y1="374.5313" y2="374.5313"/><polygon fill="#A80036" points="220.5,370.5313,230.5,374.5313,220.5,378.5313,224.5,374.5313" style="stroke: #A80036; stroke-width: 1.0;"/><line style="stroke: #008000; stroke-width: 1.5;" x1="162.5" x2="162.5" y1="338.1289" y2="362.5313"/><polygon fill="#008000" points="158.5,352.5313,162.5,362.5313,166.5,352.5313,162.5,356.5313" style="stroke: #008000; stroke-width: 1.0;"/><line style="stroke: #A80036; stroke-width: 1.5;" x1="200" x2="241" y1="326.1289" y2="326.1289"/><polygon fill="#A80036" points="231,322.1289,241,326.1289,231,330.1289,235,326.1289" style="stroke: #A80036; stroke-width: 1.0;"/><line style="stroke: #008000; stroke-width: 1.5;" x1="162.5" x2="162.5" y1="289.7266" y2="314.1289"/><polygon fill="#008000" points="158.5,304.1289,162.5,314.1289,166.5,304.1289,162.5,308.1289" style="stroke: #008000; stroke-width: 1.0;"/><line style="stroke: #A80036; stroke-width: 1.5;" x1="186.5" x2="227.5" y1="277.7266" y2="277.7266"/><polygon fill="#A80036" points="217.5,273.7266,227.5,277.7266,217.5,281.7266,221.5,277.7266" style="stroke: #A80036; stroke-width: 1.0;"/><line style="stroke: #008000; stroke-width: 1.5;" x1="162.5" x2="162.5" y1="241.3242" y2="265.7266"/><polygon fill="#008000" points="158.5,255.7266,162.5,265.7266,166.5,255.7266,162.5,259.7266" style="stroke: #008000; stroke-width: 1.0;"/><line style="stroke: #A80036; stroke-width: 1.5;" x1="190" x2="231" y1="229.3242" y2="229.3242"/><polygon fill="#A80036" points="221,225.3242,231,229.3242,221,233.3242,225,229.3242" style="stroke: #A80036; stroke-width: 1.0;"/><line style="stroke: #008000; stroke-width: 1.5;" x1="162.5" x2="162.5" y1="192.9219" y2="217.3242"/><polygon fill="#008000" points="158.5,207.3242,162.5,217.3242,166.5,207.3242,162.5,211.3242" style="stroke: #008000; stroke-width: 1.0;"/><line style="stroke: #A80036; stroke-width: 1.5;" x1="190.5" x2="231.5" y1="180.9219" y2="180.9219"/><polygon fill="#A80036" points="221.5,176.9219,231.5,180.9219,221.5,184.9219,225.5,180.9219" style="stroke: #A80036; stroke-width: 1.0;"/><line style="stroke: #A80036; stroke-width: 1.5;" x1="162.5" x2="162.5" y1="148.9219" y2="168.9219"/><polygon fill="#A80036" points="158.5,158.9219,162.5,168.9219,166.5,158.9219,162.5,162.9219" style="stroke: #A80036; stroke-width: 1.0;"/><line style="stroke: #A80036; stroke-width: 1.5;" x1="104" x2="33.5" y1="136.9219" y2="136.9219"/><line style="stroke: #A80036; stroke-width: 1.5;" x1="33.5" x2="33.5" y1="136.9219" y2="168.9219"/><polygon fill="#A80036" points="29.5,158.9219,33.5,168.9219,37.5,158.9219,33.5,162.9219" style="stroke: #A80036; stroke-width: 1.0;"/><line style="stroke: #A80036; stroke-width: 1.5;" x1="162.5" x2="162.5" y1="104.9219" y2="124.9219"/><polygon fill="#A80036" points="158.5,114.9219,162.5,124.9219,166.5,114.9219,162.5,118.9219" style="stroke: #A80036; stroke-width: 1.0;"/><line style="stroke: #A80036; stroke-width: 1.5;" x1="162.5" x2="162.5" y1="593.707" y2="613.707"/><polygon fill="#A80036" points="158.5,603.707,162.5,613.707,166.5,603.707,162.5,607.707" style="stroke: #A80036; stroke-width: 1.0;"/><line style="stroke: #A80036; stroke-width: 1.5;" x1="162.5" x2="162.5" y1="647.6758" y2="667.6758"/><polygon fill="#A80036" points="158.5,657.6758,162.5,667.6758,166.5,657.6758,162.5,661.6758" style="stroke: #A80036; stroke-width: 1.0;"/><!--
@startuml build_flow
    title Build Flow
    start
        :Supported Node.js versions: 6,7,8,9,10,11,12}
        while (for each version)
            if (npm i) then (passed)
                -[#green]->
                if (eslint) then (passed)
                    -[#green]->
                    if (jest) then (passed)
                        -[#green]->
                        if (coveralls) then (passed)
                            -[#green]->
                            if (jsdoc) then (passed)
                                -[#green]->
                                if (webpack) then (passed)
                                    -[#green]->
                                    if (npm publish) then (passed)
                                        -[#green]->
                                        :stdout/
                                    else (failed)
                                        (A)
                                    endif
                                else (failed)
                                    (A)
                                endif
                            else (failed)
                                (A)
                            endif
                        else (failed)
                            (A)
                        endif
                    else (failed)
                        (A)
                    endif
                else (failed)
                    (A)
                endif
            else (failed)
                (A)
            endif
        endwhile
    end
    detach
    (A)
    :stderr/
    stop
@enduml

PlantUML version 1.2019.09(Mon Aug 26 19:19:51 EEST 2019)
(GPL source distribution)
Java Runtime: Java(TM) SE Runtime Environment
JVM: Java HotSpot(TM) 64-Bit Server VM
Java Version: 1.8.0_201-b09
Operating System: Linux
OS Version: 4.15.0-55-generic
Default Encoding: UTF-8
Language: en
Country: US
--></g></svg>