<?xml version="1.0" encoding="UTF-8" standalone="no"?><svg xmlns="http://www.w3.org/2000/svg" xmlns:xlink="http://www.w3.org/1999/xlink" contentScriptType="application/ecmascript" contentStyleType="text/css" height="420px" preserveAspectRatio="none" style="width:531px;height:420px;" version="1.1" viewBox="0 0 531 420" width="531px" zoomAndPan="magnify"><defs><filter height="300%" id="f2utek44vxi9y" width="300%" x="-1" y="-1"><feGaussianBlur result="blurOut" stdDeviation="2.0"/><feColorMatrix in="blurOut" result="blurOut2" type="matrix" values="0 0 0 0 0 0 0 0 0 0 0 0 0 0 0 0 0 0 .4 0"/><feOffset dx="4.0" dy="4.0" in="blurOut2" result="blurOut3"/><feBlend in="SourceGraphic" in2="blurOut3" mode="normal"/></filter></defs><g><text fill="#000000" font-family="sans-serif" font-size="18" lengthAdjust="spacingAndGlyphs" textLength="152" x="191" y="16.708">Devices Network</text><!--cluster Internet--><path d="M41.9713,53.0928 C51.9421,41.1818 60.6862,41.22 70.7903,52.9303 C79.7999,38.7498 94.8289,38.0742 104.4414,52.2139 C116.303,39.8203 128.1585,40.1701 137.3397,55.4055 C145.4966,41.4299 155.2703,40.24 165.1551,53.6505 C172.9722,38.222 187.5924,37.2164 197.0544,51.9085 C207.5837,35.9753 224.0749,35.0299 234.877,51.591 C241.9147,37.8577 252.6856,37.2308 261.4907,49.8029 C269.5561,31.2949 285.4757,34.065 295.8477,47.3068 C308.4603,34.731 322.834,34.1488 328.9722,53.934 C339.0193,38.5956 349.0044,39.0237 359.9717,52.9596 C367.4666,36.9788 382.3086,37.7589 391.6049,51.0102 C401.771,38.4088 413.0054,36.0182 421.465,52.7475 C432.9537,37.2611 446.7429,39.5995 454.4251,56.6084 C467.2946,41.3277 482.0119,42.8636 492,59.9531 C495.3757,59.4969 497.1861,60.4727 496.2558,64.2657 C511.7301,70.8404 512.3714,85.4488 499.0905,94.7017 C516.2595,107.1139 512.117,118.5226 496.3245,128.2143 C510.4345,136.2445 509.3516,147.7668 498.0247,157.2847 C513.6306,165.2335 514.9096,177.472 501.1701,188.3883 C519.2582,195.4224 518.9158,211.8467 503.7033,221.4336 C518.6432,230.8575 517.6901,244.5933 502.4212,252.7816 C515.3466,262.5255 512.8021,277.6616 498.7411,284.2495 C510.408,293.6484 513.5512,303.227 499.0288,312.889 C511.1945,323.0684 509.2712,338.7838 494.245,344.8997 C510.6036,361.1986 505.6245,374.8817 485,381.9531 C489.2535,381.9303 490.3379,384.0324 489.4137,387.8711 C478.9881,403.8655 464.2034,404.6212 454.6505,386.9695 C444.7917,398.5853 431.5781,399.9517 424.1777,384.2293 C416.9941,401.7278 400.3794,402.9826 389.9408,387.6206 C381.57,403.1759 370.7814,402.695 361.085,388.925 C350.2201,400.9429 336.2448,402.9901 328.8134,385.2068 C321.0956,401.2665 308.4155,403.8373 296.9978,389.0191 C287.4542,403.0298 272.2622,404.0266 263.1977,388.4715 C254.39,403.8059 244.362,402.4735 233.7532,390.407 C220.6424,406.8281 209.5352,408.5306 197.3359,389.4715 C186.4297,403.8511 176.2928,404.7791 165.571,389.2754 C154.2106,402.6909 143.1678,400.5036 137.5568,383.9085 C129.9575,398.791 117.7335,402.8647 106.5368,387.6114 C93.0709,402.4885 82.1457,401.7522 72.1419,383.9658 C56.2434,400.0151 37.3402,398.9213 30,374.9531 C31.1373,374.1236 32.1126,374.3664 32.3521,375.8615 C16.821,365.1161 19.1081,354.0832 34.9416,346.0634 C20.7802,336.4757 19.2977,325.7821 33.4346,314.829 C16.2324,308.5868 14.0879,293.0836 29.9616,283.2086 C15.8701,271.9038 20.7177,262.1084 33.5418,254.1159 C18.9772,246.0311 13.5708,233.0724 30.1914,221.7585 C14.7512,211.8278 14.2149,200.0615 31.2978,191.3126 C11.9967,180.1062 13.4973,166.2943 31.077,154.8645 C15.644,146.5539 17.2157,136.5001 29.9874,127.0831 C15.9131,118.5313 16.098,105.2736 29.6995,96.4616 C10.3193,81.2204 14.1368,61.1061 37,52.9531 C38.546,50.5078 40.5601,50.7432 41.9713,53.0928 " fill="#FFFFFF" style="stroke: #000000; stroke-width: 1.5;"/><text fill="#000000" font-family="sans-serif" font-size="14" font-weight="bold" lengthAdjust="spacingAndGlyphs" textLength="63" x="229.5" y="70.9482">Internet</text><!--entity VCServer--><path d="M110,195.9531 C110,185.9531 159,185.9531 159,185.9531 C159,185.9531 208,185.9531 208,195.9531 L208,221.25 C208,231.25 159,231.25 159,231.25 C159,231.25 110,231.25 110,221.25 L110,195.9531 " fill="#FEFECE" filter="url(#f2utek44vxi9y)" style="stroke: #000000; stroke-width: 1.5;"/><path d="M110,195.9531 C110,205.9531 159,205.9531 159,205.9531 C159,205.9531 208,205.9531 208,195.9531 " fill="none" style="stroke: #000000; stroke-width: 1.5;"/><text fill="#000000" font-family="sans-serif" font-size="14" lengthAdjust="spacingAndGlyphs" textLength="78" x="120" y="222.9482">github.com</text><!--entity PackageServer--><path d="M296,195.9531 C296,185.9531 344,185.9531 344,185.9531 C344,185.9531 392,185.9531 392,195.9531 L392,221.25 C392,231.25 344,231.25 344,231.25 C344,231.25 296,231.25 296,221.25 L296,195.9531 " fill="#FEFECE" filter="url(#f2utek44vxi9y)" style="stroke: #000000; stroke-width: 1.5;"/><path d="M296,195.9531 C296,205.9531 344,205.9531 344,205.9531 C344,205.9531 392,205.9531 392,195.9531 " fill="none" style="stroke: #000000; stroke-width: 1.5;"/><text fill="#000000" font-family="sans-serif" font-size="14" lengthAdjust="spacingAndGlyphs" textLength="76" x="306" y="222.9482">npmjs.com</text><!--entity ContainerServer--><path d="M350.5,90.4531 C350.5,80.4531 417,80.4531 417,80.4531 C417,80.4531 483.5,80.4531 483.5,90.4531 L483.5,115.75 C483.5,125.75 417,125.75 417,125.75 C417,125.75 350.5,125.75 350.5,115.75 L350.5,90.4531 " fill="#FEFECE" filter="url(#f2utek44vxi9y)" style="stroke: #000000; stroke-width: 1.5;"/><path d="M350.5,90.4531 C350.5,100.4531 417,100.4531 417,100.4531 C417,100.4531 483.5,100.4531 483.5,90.4531 " fill="none" style="stroke: #000000; stroke-width: 1.5;"/><text fill="#000000" font-family="sans-serif" font-size="14" lengthAdjust="spacingAndGlyphs" textLength="113" x="360.5" y="117.4482">hub.docker.com</text><!--entity CICDServer--><polygon fill="#FEFECE" filter="url(#f2utek44vxi9y)" points="189,89.9531,199,79.9531,315,79.9531,315,116.25,305,126.25,189,126.25,189,89.9531" style="stroke: #000000; stroke-width: 1.5;"/><line style="stroke: #000000; stroke-width: 1.5;" x1="305" x2="314" y1="89.9531" y2="80.9531"/><line style="stroke: #000000; stroke-width: 1.5;" x1="189" x2="305" y1="89.9531" y2="89.9531"/><line style="stroke: #000000; stroke-width: 1.5;" x1="305" x2="305" y1="89.9531" y2="126.25"/><text fill="#000000" font-family="sans-serif" font-size="14" lengthAdjust="spacingAndGlyphs" textLength="86" x="204" y="112.9482">travis-ci.com</text><!--entity CoverageServer--><polygon fill="#FEFECE" filter="url(#f2utek44vxi9y)" points="38,89.9531,48,79.9531,154,79.9531,154,116.25,144,126.25,38,126.25,38,89.9531" style="stroke: #000000; stroke-width: 1.5;"/><line style="stroke: #000000; stroke-width: 1.5;" x1="144" x2="153" y1="89.9531" y2="80.9531"/><line style="stroke: #000000; stroke-width: 1.5;" x1="38" x2="144" y1="89.9531" y2="89.9531"/><line style="stroke: #000000; stroke-width: 1.5;" x1="144" x2="144" y1="89.9531" y2="126.25"/><text fill="#000000" font-family="sans-serif" font-size="14" lengthAdjust="spacingAndGlyphs" textLength="76" x="53" y="112.9482">coveralls.io</text><!--entity Producer--><ellipse cx="200" cy="300.9531" fill="#FEFECE" filter="url(#f2utek44vxi9y)" rx="8" ry="8" style="stroke: #A80036; stroke-width: 2.0;"/><path d="M200,308.9531 L200,335.9531 M187,316.9531 L213,316.9531 M200,335.9531 L187,350.9531 M200,335.9531 L213,350.9531 " fill="none" filter="url(#f2utek44vxi9y)" style="stroke: #A80036; stroke-width: 2.0;"/><text fill="#000000" font-family="sans-serif" font-size="14" lengthAdjust="spacingAndGlyphs" textLength="63" x="168.5" y="370.9482">Producer</text><!--entity Consumer--><ellipse cx="303" cy="300.9531" fill="#FEFECE" filter="url(#f2utek44vxi9y)" rx="8" ry="8" style="stroke: #A80036; stroke-width: 2.0;"/><path d="M303,308.9531 L303,335.9531 M290,316.9531 L316,316.9531 M303,335.9531 L290,350.9531 M303,335.9531 L316,350.9531 " fill="none" filter="url(#f2utek44vxi9y)" style="stroke: #A80036; stroke-width: 2.0;"/><text fill="#000000" font-family="sans-serif" font-size="14" lengthAdjust="spacingAndGlyphs" textLength="72" x="267" y="370.9482">Consumer</text><!--entity Ethernet--><ellipse cx="252" cy="208.4531" fill="#FEFECE" filter="url(#f2utek44vxi9y)" rx="8" ry="8" style="stroke: #A80036; stroke-width: 2.0;"/><text fill="#000000" font-family="sans-serif" font-size="14" lengthAdjust="spacingAndGlyphs" textLength="60" x="222" y="238.4482">Ethernet</text><!--link VCServer to Ethernet--><path d="M208.043,208.4531 C216.263,208.4531 224.482,208.4531 232.702,208.4531 " fill="none" id="VCServer-Ethernet" style="stroke: #A80036; stroke-width: 1.0;"/><path d="M239.6498,199.9959 A9,9 0 0 0 239.6498 216.9104" fill="none" style="stroke: #A80036; stroke-width: 1.5;"/><!--link CICDServer to Ethernet--><path d="M252,126.1561 C252,144.8671 252,171.3261 252,188.9181 " fill="none" id="CICDServer-Ethernet" style="stroke: #A80036; stroke-width: 1.0;"/><path d="M260.4572,195.9489 A9,9 0 0 0 243.5428 195.9489" fill="none" style="stroke: #A80036; stroke-width: 1.5;"/><!--link ContainerServer to Ethernet--><path d="M377.451,125.5491 C349.368,141.3391 311.106,163.7841 279,185.9531 C275.752,188.1961 272.387,190.7081 269.182,193.2021 " fill="none" id="ContainerServer-Ethernet" style="stroke: #A80036; stroke-width: 1.0;"/><path d="M268.9515,204.2339 A9,9 0 0 0 258.3607 191.0456" fill="none" style="stroke: #A80036; stroke-width: 1.5;"/><!--link CoverageServer to Ethernet--><path d="M133.103,126.0911 C159.259,142.0441 194.856,164.4631 225,185.9531 C228.214,188.2441 231.562,190.7801 234.762,193.2831 " fill="none" id="CoverageServer-Ethernet" style="stroke: #A80036; stroke-width: 1.0;"/><path d="M245.5798,191.1157 A9,9 0 0 0 235.0022 204.3147" fill="none" style="stroke: #A80036; stroke-width: 1.5;"/><!--link Ethernet to PackageServer--><path d="M271.6,208.4531 C279.697,208.4531 287.794,208.4531 295.891,208.4531 " fill="none" id="Ethernet-PackageServer" style="stroke: #A80036; stroke-width: 1.0;"/><path d="M264.4222,216.9104 A9,9 0 0 0 264.4222 199.9959" fill="none" style="stroke: #A80036; stroke-width: 1.5;"/><!--link Ethernet to Producer--><path d="M244.55,226.9321 C237.482,243.5151 226.597,269.0531 217.356,290.7331 " fill="none" id="Ethernet-Producer" style="stroke: #A80036; stroke-width: 1.0;"/><path d="M239.601,216.9748 A9,9 0 0 0 255.1618 223.6051" fill="none" style="stroke: #A80036; stroke-width: 1.5;"/><!--link Ethernet to Consumer--><path d="M259.307,226.9321 C266.239,243.5151 276.915,269.0531 285.978,290.7331 " fill="none" id="Ethernet-Consumer" style="stroke: #A80036; stroke-width: 1.0;"/><path d="M248.7306,223.5603 A9,9 0 0 0 264.3361 217.0359" fill="none" style="stroke: #A80036; stroke-width: 1.5;"/><!--
@startuml devices_network
    title Devices Network

    cloud "Internet" as Internet {
        database "github.com" as VCServer
        database "npmjs.com" as PackageServer
        database "hub.docker.com" as ContainerServer
        node "travis-ci.com" as CICDServer
        node "coveralls.io" as CoverageServer
        actor "Producer" as Producer
        actor "Consumer" as Consumer
        interface "Ethernet" as Ethernet
        VCServer -( Ethernet
        CICDServer - -( Ethernet
        ContainerServer - -( Ethernet
        CoverageServer - -( Ethernet
        Ethernet )- PackageServer
        Ethernet )- - Producer
        Ethernet )- - Consumer
    }
@enduml

PlantUML version 1.2019.06(Fri May 24 20:10:25 EEST 2019)
(GPL source distribution)
Java Runtime: Java(TM) SE Runtime Environment
JVM: Java HotSpot(TM) 64-Bit Server VM
Java Version: 1.8.0_201-b09
Operating System: Linux
OS Version: 4.15.0-47-generic
Default Encoding: UTF-8
Language: en
Country: US
--></g></svg>