<?xml version="1.0" encoding="UTF-8" standalone="no"?><svg xmlns="http://www.w3.org/2000/svg" xmlns:xlink="http://www.w3.org/1999/xlink" contentScriptType="application/ecmascript" contentStyleType="text/css" height="893px" preserveAspectRatio="none" style="width:866px;height:893px;" version="1.1" viewBox="0 0 866 893" width="866px" zoomAndPan="magnify"><defs><filter height="300%" id="f1shty2uktdwrp" width="300%" x="-1" y="-1"><feGaussianBlur result="blurOut" stdDeviation="2.0"/><feColorMatrix in="blurOut" result="blurOut2" type="matrix" values="0 0 0 0 0 0 0 0 0 0 0 0 0 0 0 0 0 0 .4 0"/><feOffset dx="4.0" dy="4.0" in="blurOut2" result="blurOut3"/><feBlend in="SourceGraphic" in2="blurOut3" mode="normal"/></filter></defs><g><text fill="#000000" font-family="sans-serif" font-size="14" font-weight="bold" lengthAdjust="spacingAndGlyphs" textLength="209" x="329.5" y="22.9951">Devices Deployment Cycle</text><rect fill="#FFFFFF" filter="url(#f1shty2uktdwrp)" height="656" style="stroke: #000000; stroke-width: 2.0;" width="842" x="13" y="133.5938"/><rect fill="#FFFFFF" filter="url(#f1shty2uktdwrp)" height="379.9375" style="stroke: #000000; stroke-width: 2.0;" width="636" x="209" y="374.6563"/><rect fill="#FFFFFF" height="176.1406" style="stroke: none; stroke-width: 1.0;" width="636" x="209" y="578.4531"/><rect fill="#FFFFFF" filter="url(#f1shty2uktdwrp)" height="90.2031" style="stroke: #000000; stroke-width: 2.0;" width="227" x="608" y="657.3906"/><rect fill="#FFFFFF" height="43.9375" style="stroke: none; stroke-width: 1.0;" width="227" x="608" y="703.6563"/><line style="stroke: #A80036; stroke-width: 1.0;" x1="57" x2="57" y1="116.5938" y2="492.1875"/><line style="stroke: #A80036; stroke-width: 1.0; stroke-dasharray: 1.0,4.0;" x1="57" x2="57" y1="492.1875" y2="520.1875"/><line style="stroke: #A80036; stroke-width: 1.0;" x1="57" x2="57" y1="520.1875" y2="593.2578"/><line style="stroke: #A80036; stroke-width: 1.0; stroke-dasharray: 1.0,4.0;" x1="57" x2="57" y1="593.2578" y2="621.2578"/><line style="stroke: #A80036; stroke-width: 1.0;" x1="57" x2="57" y1="621.2578" y2="761.5938"/><line style="stroke: #A80036; stroke-width: 1.0; stroke-dasharray: 1.0,4.0;" x1="57" x2="57" y1="761.5938" y2="789.5938"/><line style="stroke: #A80036; stroke-width: 1.0;" x1="57" x2="57" y1="789.5938" y2="806.5938"/><line style="stroke: #A80036; stroke-width: 1.0;" x1="144" x2="144" y1="116.5938" y2="492.1875"/><line style="stroke: #A80036; stroke-width: 1.0; stroke-dasharray: 1.0,4.0;" x1="144" x2="144" y1="492.1875" y2="520.1875"/><line style="stroke: #A80036; stroke-width: 1.0;" x1="144" x2="144" y1="520.1875" y2="593.2578"/><line style="stroke: #A80036; stroke-width: 1.0; stroke-dasharray: 1.0,4.0;" x1="144" x2="144" y1="593.2578" y2="621.2578"/><line style="stroke: #A80036; stroke-width: 1.0;" x1="144" x2="144" y1="621.2578" y2="761.5938"/><line style="stroke: #A80036; stroke-width: 1.0; stroke-dasharray: 1.0,4.0;" x1="144" x2="144" y1="761.5938" y2="789.5938"/><line style="stroke: #A80036; stroke-width: 1.0;" x1="144" x2="144" y1="789.5938" y2="806.5938"/><line style="stroke: #A80036; stroke-width: 1.0;" x1="271" x2="271" y1="116.5938" y2="492.1875"/><line style="stroke: #A80036; stroke-width: 1.0; stroke-dasharray: 1.0,4.0;" x1="271" x2="271" y1="492.1875" y2="520.1875"/><line style="stroke: #A80036; stroke-width: 1.0;" x1="271" x2="271" y1="520.1875" y2="593.2578"/><line style="stroke: #A80036; stroke-width: 1.0; stroke-dasharray: 1.0,4.0;" x1="271" x2="271" y1="593.2578" y2="621.2578"/><line style="stroke: #A80036; stroke-width: 1.0;" x1="271" x2="271" y1="621.2578" y2="761.5938"/><line style="stroke: #A80036; stroke-width: 1.0; stroke-dasharray: 1.0,4.0;" x1="271" x2="271" y1="761.5938" y2="789.5938"/><line style="stroke: #A80036; stroke-width: 1.0;" x1="271" x2="271" y1="789.5938" y2="806.5938"/><line style="stroke: #A80036; stroke-width: 1.0;" x1="392" x2="392" y1="116.5938" y2="492.1875"/><line style="stroke: #A80036; stroke-width: 1.0; stroke-dasharray: 1.0,4.0;" x1="392" x2="392" y1="492.1875" y2="520.1875"/><line style="stroke: #A80036; stroke-width: 1.0;" x1="392" x2="392" y1="520.1875" y2="593.2578"/><line style="stroke: #A80036; stroke-width: 1.0; stroke-dasharray: 1.0,4.0;" x1="392" x2="392" y1="593.2578" y2="621.2578"/><line style="stroke: #A80036; stroke-width: 1.0;" x1="392" x2="392" y1="621.2578" y2="761.5938"/><line style="stroke: #A80036; stroke-width: 1.0; stroke-dasharray: 1.0,4.0;" x1="392" x2="392" y1="761.5938" y2="789.5938"/><line style="stroke: #A80036; stroke-width: 1.0;" x1="392" x2="392" y1="789.5938" y2="806.5938"/><line style="stroke: #A80036; stroke-width: 1.0;" x1="509" x2="509" y1="116.5938" y2="492.1875"/><line style="stroke: #A80036; stroke-width: 1.0; stroke-dasharray: 1.0,4.0;" x1="509" x2="509" y1="492.1875" y2="520.1875"/><line style="stroke: #A80036; stroke-width: 1.0;" x1="509" x2="509" y1="520.1875" y2="593.2578"/><line style="stroke: #A80036; stroke-width: 1.0; stroke-dasharray: 1.0,4.0;" x1="509" x2="509" y1="593.2578" y2="621.2578"/><line style="stroke: #A80036; stroke-width: 1.0;" x1="509" x2="509" y1="621.2578" y2="761.5938"/><line style="stroke: #A80036; stroke-width: 1.0; stroke-dasharray: 1.0,4.0;" x1="509" x2="509" y1="761.5938" y2="789.5938"/><line style="stroke: #A80036; stroke-width: 1.0;" x1="509" x2="509" y1="789.5938" y2="806.5938"/><line style="stroke: #A80036; stroke-width: 1.0;" x1="659" x2="659" y1="116.5938" y2="492.1875"/><line style="stroke: #A80036; stroke-width: 1.0; stroke-dasharray: 1.0,4.0;" x1="659" x2="659" y1="492.1875" y2="520.1875"/><line style="stroke: #A80036; stroke-width: 1.0;" x1="659" x2="659" y1="520.1875" y2="593.2578"/><line style="stroke: #A80036; stroke-width: 1.0; stroke-dasharray: 1.0,4.0;" x1="659" x2="659" y1="593.2578" y2="621.2578"/><line style="stroke: #A80036; stroke-width: 1.0;" x1="659" x2="659" y1="621.2578" y2="761.5938"/><line style="stroke: #A80036; stroke-width: 1.0; stroke-dasharray: 1.0,4.0;" x1="659" x2="659" y1="761.5938" y2="789.5938"/><line style="stroke: #A80036; stroke-width: 1.0;" x1="659" x2="659" y1="789.5938" y2="806.5938"/><line style="stroke: #A80036; stroke-width: 1.0;" x1="786" x2="786" y1="116.5938" y2="492.1875"/><line style="stroke: #A80036; stroke-width: 1.0; stroke-dasharray: 1.0,4.0;" x1="786" x2="786" y1="492.1875" y2="520.1875"/><line style="stroke: #A80036; stroke-width: 1.0;" x1="786" x2="786" y1="520.1875" y2="593.2578"/><line style="stroke: #A80036; stroke-width: 1.0; stroke-dasharray: 1.0,4.0;" x1="786" x2="786" y1="593.2578" y2="621.2578"/><line style="stroke: #A80036; stroke-width: 1.0;" x1="786" x2="786" y1="621.2578" y2="761.5938"/><line style="stroke: #A80036; stroke-width: 1.0; stroke-dasharray: 1.0,4.0;" x1="786" x2="786" y1="761.5938" y2="789.5938"/><line style="stroke: #A80036; stroke-width: 1.0;" x1="786" x2="786" y1="789.5938" y2="806.5938"/><text fill="#000000" font-family="sans-serif" font-size="14" lengthAdjust="spacingAndGlyphs" textLength="63" x="23" y="113.292">Producer</text><ellipse cx="57.5" cy="43.2969" fill="#FEFECE" filter="url(#f1shty2uktdwrp)" rx="8" ry="8" style="stroke: #A80036; stroke-width: 2.0;"/><path d="M57.5,51.2969 L57.5,78.2969 M44.5,59.2969 L70.5,59.2969 M57.5,78.2969 L44.5,93.2969 M57.5,78.2969 L70.5,93.2969 " fill="none" filter="url(#f1shty2uktdwrp)" style="stroke: #A80036; stroke-width: 2.0;"/><text fill="#000000" font-family="sans-serif" font-size="14" lengthAdjust="spacingAndGlyphs" textLength="63" x="23" y="818.5889">Producer</text><ellipse cx="57.5" cy="831.8906" fill="#FEFECE" filter="url(#f1shty2uktdwrp)" rx="8" ry="8" style="stroke: #A80036; stroke-width: 2.0;"/><path d="M57.5,839.8906 L57.5,866.8906 M44.5,847.8906 L70.5,847.8906 M57.5,866.8906 L44.5,881.8906 M57.5,866.8906 L70.5,881.8906 " fill="none" filter="url(#f1shty2uktdwrp)" style="stroke: #A80036; stroke-width: 2.0;"/><text fill="#000000" font-family="sans-serif" font-size="14" lengthAdjust="spacingAndGlyphs" textLength="78" x="102" y="113.292">github.com</text><path d="M126,64.2969 C126,54.2969 144,54.2969 144,54.2969 C144,54.2969 162,54.2969 162,64.2969 L162,90.2969 C162,100.2969 144,100.2969 144,100.2969 C144,100.2969 126,100.2969 126,90.2969 L126,64.2969 " fill="#FEFECE" filter="url(#f1shty2uktdwrp)" style="stroke: #000000; stroke-width: 1.5;"/><path d="M126,64.2969 C126,74.2969 144,74.2969 144,74.2969 C144,74.2969 162,74.2969 162,64.2969 " fill="none" style="stroke: #000000; stroke-width: 1.5;"/><text fill="#000000" font-family="sans-serif" font-size="14" lengthAdjust="spacingAndGlyphs" textLength="78" x="102" y="818.5889">github.com</text><path d="M126,831.8906 C126,821.8906 144,821.8906 144,821.8906 C144,821.8906 162,821.8906 162,831.8906 L162,857.8906 C162,867.8906 144,867.8906 144,867.8906 C144,867.8906 126,867.8906 126,857.8906 L126,831.8906 " fill="#FEFECE" filter="url(#f1shty2uktdwrp)" style="stroke: #000000; stroke-width: 1.5;"/><path d="M126,831.8906 C126,841.8906 144,841.8906 144,841.8906 C144,841.8906 162,841.8906 162,831.8906 " fill="none" style="stroke: #000000; stroke-width: 1.5;"/><rect fill="#FEFECE" filter="url(#f1shty2uktdwrp)" height="30.2969" style="stroke: #A80036; stroke-width: 1.5;" width="100" x="219" y="81.2969"/><text fill="#000000" font-family="sans-serif" font-size="14" lengthAdjust="spacingAndGlyphs" textLength="86" x="226" y="101.292">travis-ci.com</text><rect fill="#FEFECE" filter="url(#f1shty2uktdwrp)" height="30.2969" style="stroke: #A80036; stroke-width: 1.5;" width="100" x="219" y="805.5938"/><text fill="#000000" font-family="sans-serif" font-size="14" lengthAdjust="spacingAndGlyphs" textLength="86" x="226" y="825.5889">travis-ci.com</text><text fill="#000000" font-family="sans-serif" font-size="14" lengthAdjust="spacingAndGlyphs" textLength="113" x="333" y="113.292">hub.docker.com</text><path d="M374.5,64.2969 C374.5,54.2969 392.5,54.2969 392.5,54.2969 C392.5,54.2969 410.5,54.2969 410.5,64.2969 L410.5,90.2969 C410.5,100.2969 392.5,100.2969 392.5,100.2969 C392.5,100.2969 374.5,100.2969 374.5,90.2969 L374.5,64.2969 " fill="#FEFECE" filter="url(#f1shty2uktdwrp)" style="stroke: #000000; stroke-width: 1.5;"/><path d="M374.5,64.2969 C374.5,74.2969 392.5,74.2969 392.5,74.2969 C392.5,74.2969 410.5,74.2969 410.5,64.2969 " fill="none" style="stroke: #000000; stroke-width: 1.5;"/><text fill="#000000" font-family="sans-serif" font-size="14" lengthAdjust="spacingAndGlyphs" textLength="113" x="333" y="818.5889">hub.docker.com</text><path d="M374.5,831.8906 C374.5,821.8906 392.5,821.8906 392.5,821.8906 C392.5,821.8906 410.5,821.8906 410.5,831.8906 L410.5,857.8906 C410.5,867.8906 392.5,867.8906 392.5,867.8906 C392.5,867.8906 374.5,867.8906 374.5,857.8906 L374.5,831.8906 " fill="#FEFECE" filter="url(#f1shty2uktdwrp)" style="stroke: #000000; stroke-width: 1.5;"/><path d="M374.5,831.8906 C374.5,841.8906 392.5,841.8906 392.5,841.8906 C392.5,841.8906 410.5,841.8906 410.5,831.8906 " fill="none" style="stroke: #000000; stroke-width: 1.5;"/><rect fill="#FEFECE" filter="url(#f1shty2uktdwrp)" height="30.2969" style="stroke: #A80036; stroke-width: 1.5;" width="90" x="462" y="81.2969"/><text fill="#000000" font-family="sans-serif" font-size="14" lengthAdjust="spacingAndGlyphs" textLength="76" x="469" y="101.292">coveralls.io</text><rect fill="#FEFECE" filter="url(#f1shty2uktdwrp)" height="30.2969" style="stroke: #A80036; stroke-width: 1.5;" width="90" x="462" y="805.5938"/><text fill="#000000" font-family="sans-serif" font-size="14" lengthAdjust="spacingAndGlyphs" textLength="76" x="469" y="825.5889">coveralls.io</text><text fill="#000000" font-family="sans-serif" font-size="14" lengthAdjust="spacingAndGlyphs" textLength="76" x="618" y="113.292">npmjs.com</text><path d="M641,64.2969 C641,54.2969 659,54.2969 659,54.2969 C659,54.2969 677,54.2969 677,64.2969 L677,90.2969 C677,100.2969 659,100.2969 659,100.2969 C659,100.2969 641,100.2969 641,90.2969 L641,64.2969 " fill="#FEFECE" filter="url(#f1shty2uktdwrp)" style="stroke: #000000; stroke-width: 1.5;"/><path d="M641,64.2969 C641,74.2969 659,74.2969 659,74.2969 C659,74.2969 677,74.2969 677,64.2969 " fill="none" style="stroke: #000000; stroke-width: 1.5;"/><text fill="#000000" font-family="sans-serif" font-size="14" lengthAdjust="spacingAndGlyphs" textLength="76" x="618" y="818.5889">npmjs.com</text><path d="M641,831.8906 C641,821.8906 659,821.8906 659,821.8906 C659,821.8906 677,821.8906 677,831.8906 L677,857.8906 C677,867.8906 659,867.8906 659,867.8906 C659,867.8906 641,867.8906 641,857.8906 L641,831.8906 " fill="#FEFECE" filter="url(#f1shty2uktdwrp)" style="stroke: #000000; stroke-width: 1.5;"/><path d="M641,831.8906 C641,841.8906 659,841.8906 659,841.8906 C659,841.8906 677,841.8906 677,831.8906 " fill="none" style="stroke: #000000; stroke-width: 1.5;"/><text fill="#000000" font-family="sans-serif" font-size="14" lengthAdjust="spacingAndGlyphs" textLength="72" x="747" y="113.292">Consumer</text><ellipse cx="786" cy="43.2969" fill="#FEFECE" filter="url(#f1shty2uktdwrp)" rx="8" ry="8" style="stroke: #A80036; stroke-width: 2.0;"/><path d="M786,51.2969 L786,78.2969 M773,59.2969 L799,59.2969 M786,78.2969 L773,93.2969 M786,78.2969 L799,93.2969 " fill="none" filter="url(#f1shty2uktdwrp)" style="stroke: #A80036; stroke-width: 2.0;"/><text fill="#000000" font-family="sans-serif" font-size="14" lengthAdjust="spacingAndGlyphs" textLength="72" x="747" y="818.5889">Consumer</text><ellipse cx="786" cy="831.8906" fill="#FEFECE" filter="url(#f1shty2uktdwrp)" rx="8" ry="8" style="stroke: #A80036; stroke-width: 2.0;"/><path d="M786,839.8906 L786,866.8906 M773,847.8906 L799,847.8906 M786,866.8906 L773,881.8906 M786,866.8906 L799,881.8906 " fill="none" filter="url(#f1shty2uktdwrp)" style="stroke: #A80036; stroke-width: 2.0;"/><path d="M13,133.5938 L90,133.5938 L90,140.5938 L80,150.5938 L13,150.5938 L13,133.5938 " fill="#EEEEEE" style="stroke: #000000; stroke-width: 1.0;"/><rect fill="none" height="656" style="stroke: #000000; stroke-width: 2.0;" width="842" x="13" y="133.5938"/><text fill="#000000" font-family="sans-serif" font-size="13" font-weight="bold" lengthAdjust="spacingAndGlyphs" textLength="32" x="28" y="146.6606">loop</text><polygon fill="#A80036" points="132,167.8594,142,171.8594,132,175.8594,136,171.8594" style="stroke: #A80036; stroke-width: 1.0;"/><line style="stroke: #A80036; stroke-width: 1.0;" x1="57.5" x2="138" y1="171.8594" y2="171.8594"/><text fill="#000000" font-family="sans-serif" font-size="13" lengthAdjust="spacingAndGlyphs" textLength="50" x="64.5" y="166.7935">sources</text><polygon fill="#A80036" points="259,196.9922,269,200.9922,259,204.9922,263,200.9922" style="stroke: #A80036; stroke-width: 1.0;"/><line style="stroke: #A80036; stroke-width: 1.0;" x1="144" x2="265" y1="200.9922" y2="200.9922"/><text fill="#000000" font-family="sans-serif" font-size="13" lengthAdjust="spacingAndGlyphs" textLength="83" x="151" y="195.9263">build request</text><polygon fill="#A80036" points="155,226.125,145,230.125,155,234.125,151,230.125" style="stroke: #A80036; stroke-width: 1.0;"/><line style="stroke: #A80036; stroke-width: 1.0;" x1="149" x2="270" y1="230.125" y2="230.125"/><text fill="#000000" font-family="sans-serif" font-size="13" lengthAdjust="spacingAndGlyphs" textLength="103" x="161" y="225.0591">sources request</text><polygon fill="#A80036" points="259,255.2578,269,259.2578,259,263.2578,263,259.2578" style="stroke: #A80036; stroke-width: 1.0;"/><line style="stroke: #A80036; stroke-width: 1.0;" x1="144" x2="265" y1="259.2578" y2="259.2578"/><text fill="#000000" font-family="sans-serif" font-size="13" lengthAdjust="spacingAndGlyphs" textLength="50" x="151" y="254.1919">sources</text><polygon fill="#A80036" points="380.5,284.3906,390.5,288.3906,380.5,292.3906,384.5,288.3906" style="stroke: #A80036; stroke-width: 1.0;"/><line style="stroke: #A80036; stroke-width: 1.0;" x1="271" x2="386.5" y1="288.3906" y2="288.3906"/><text fill="#000000" font-family="sans-serif" font-size="13" lengthAdjust="spacingAndGlyphs" textLength="93" x="278" y="283.3247">image request</text><polygon fill="#A80036" points="282,313.5234,272,317.5234,282,321.5234,278,317.5234" style="stroke: #A80036; stroke-width: 1.0;"/><line style="stroke: #A80036; stroke-width: 1.0;" x1="276" x2="391.5" y1="317.5234" y2="317.5234"/><text fill="#000000" font-family="sans-serif" font-size="13" lengthAdjust="spacingAndGlyphs" textLength="40" x="288" y="312.4575">image</text><line style="stroke: #A80036; stroke-width: 1.0;" x1="271" x2="313" y1="346.6563" y2="346.6563"/><line style="stroke: #A80036; stroke-width: 1.0;" x1="313" x2="313" y1="346.6563" y2="359.6563"/><line style="stroke: #A80036; stroke-width: 1.0;" x1="272" x2="313" y1="359.6563" y2="359.6563"/><polygon fill="#A80036" points="282,355.6563,272,359.6563,282,363.6563,278,359.6563" style="stroke: #A80036; stroke-width: 1.0;"/><text fill="#000000" font-family="sans-serif" font-size="13" lengthAdjust="spacingAndGlyphs" textLength="30" x="278" y="341.5903">build</text><path d="M209,374.6563 L273,374.6563 L273,381.6563 L263,391.6563 L209,391.6563 L209,374.6563 " fill="#EEEEEE" style="stroke: #000000; stroke-width: 1.0;"/><rect fill="none" height="379.9375" style="stroke: #000000; stroke-width: 2.0;" width="636" x="209" y="374.6563"/><text fill="#000000" font-family="sans-serif" font-size="13" font-weight="bold" lengthAdjust="spacingAndGlyphs" textLength="19" x="224" y="387.7231">alt</text><text fill="#000000" font-family="sans-serif" font-size="11" font-weight="bold" lengthAdjust="spacingAndGlyphs" textLength="97" x="288" y="386.8667">[build success]</text><polygon fill="#A80036" points="497,408.9219,507,412.9219,497,416.9219,501,412.9219" style="stroke: #A80036; stroke-width: 1.0;"/><line style="stroke: #A80036; stroke-width: 1.0;" x1="271" x2="503" y1="412.9219" y2="412.9219"/><text fill="#000000" font-family="sans-serif" font-size="13" lengthAdjust="spacingAndGlyphs" textLength="155" x="278" y="407.856">coverage report request</text><line style="stroke: #A80036; stroke-width: 1.0;" x1="509" x2="551" y1="442.0547" y2="442.0547"/><line style="stroke: #A80036; stroke-width: 1.0;" x1="551" x2="551" y1="442.0547" y2="455.0547"/><line style="stroke: #A80036; stroke-width: 1.0;" x1="510" x2="551" y1="455.0547" y2="455.0547"/><polygon fill="#A80036" points="520,451.0547,510,455.0547,520,459.0547,516,455.0547" style="stroke: #A80036; stroke-width: 1.0;"/><text fill="#000000" font-family="sans-serif" font-size="13" lengthAdjust="spacingAndGlyphs" textLength="136" x="516" y="436.9888">build coverage report</text><polygon fill="#A80036" points="647,480.1875,657,484.1875,647,488.1875,651,484.1875" style="stroke: #A80036; stroke-width: 1.0;"/><line style="stroke: #A80036; stroke-width: 1.0;" x1="271" x2="653" y1="484.1875" y2="484.1875"/><text fill="#000000" font-family="sans-serif" font-size="13" lengthAdjust="spacingAndGlyphs" textLength="50" x="278" y="479.1216">binaries</text><polygon fill="#A80036" points="670,537.3203,660,541.3203,670,545.3203,666,541.3203" style="stroke: #A80036; stroke-width: 1.0;"/><line style="stroke: #A80036; stroke-width: 1.0;" x1="664" x2="785" y1="541.3203" y2="541.3203"/><text fill="#000000" font-family="sans-serif" font-size="13" lengthAdjust="spacingAndGlyphs" textLength="103" x="676" y="536.2544">binaries request</text><polygon fill="#A80036" points="774,566.4531,784,570.4531,774,574.4531,778,570.4531" style="stroke: #A80036; stroke-width: 1.0;"/><line style="stroke: #A80036; stroke-width: 1.0;" x1="659" x2="780" y1="570.4531" y2="570.4531"/><text fill="#000000" font-family="sans-serif" font-size="13" lengthAdjust="spacingAndGlyphs" textLength="50" x="666" y="565.3872">binaries</text><line style="stroke: #000000; stroke-width: 1.0; stroke-dasharray: 2.0,2.0;" x1="209" x2="845" y1="579.4531" y2="579.4531"/><text fill="#000000" font-family="sans-serif" font-size="11" font-weight="bold" lengthAdjust="spacingAndGlyphs" textLength="77" x="214" y="589.6636">[build error]</text><polygon fill="#A80036" points="670,638.3906,660,642.3906,670,646.3906,666,642.3906" style="stroke: #A80036; stroke-width: 1.0;"/><line style="stroke: #A80036; stroke-width: 1.0;" x1="664" x2="785" y1="642.3906" y2="642.3906"/><text fill="#000000" font-family="sans-serif" font-size="13" lengthAdjust="spacingAndGlyphs" textLength="103" x="676" y="637.3247">binaries request</text><path d="M608,657.3906 L672,657.3906 L672,664.3906 L662,674.3906 L608,674.3906 L608,657.3906 " fill="#EEEEEE" style="stroke: #000000; stroke-width: 1.0;"/><rect fill="none" height="90.2031" style="stroke: #000000; stroke-width: 2.0;" width="227" x="608" y="657.3906"/><text fill="#000000" font-family="sans-serif" font-size="13" font-weight="bold" lengthAdjust="spacingAndGlyphs" textLength="19" x="623" y="670.4575">alt</text><text fill="#000000" font-family="sans-serif" font-size="11" font-weight="bold" lengthAdjust="spacingAndGlyphs" textLength="121" x="687" y="669.6011">[old binaries exist]</text><polygon fill="#A80036" points="774,691.6563,784,695.6563,774,699.6563,778,695.6563" style="stroke: #A80036; stroke-width: 1.0;"/><line style="stroke: #A80036; stroke-width: 1.0;" x1="659" x2="780" y1="695.6563" y2="695.6563"/><text fill="#000000" font-family="sans-serif" font-size="13" lengthAdjust="spacingAndGlyphs" textLength="73" x="666" y="690.5903">old binaries</text><line style="stroke: #000000; stroke-width: 1.0; stroke-dasharray: 2.0,2.0;" x1="608" x2="835" y1="704.6563" y2="704.6563"/><text fill="#000000" font-family="sans-serif" font-size="11" font-weight="bold" lengthAdjust="spacingAndGlyphs" textLength="82" x="613" y="714.8667">[no binaries]</text><polygon fill="#A80036" points="774,735.5938,784,739.5938,774,743.5938,778,739.5938" style="stroke: #A80036; stroke-width: 1.0;"/><line style="stroke: #A80036; stroke-width: 1.0;" x1="659" x2="780" y1="739.5938" y2="739.5938"/><text fill="#000000" font-family="sans-serif" font-size="13" lengthAdjust="spacingAndGlyphs" textLength="31" x="666" y="734.5278">error</text><!--
@startuml devices_deployment_cycle
    title Devices Deployment Cycle
    
    actor "Producer" as Producer
    database "github.com" as VCServer
    participant "travis-ci.com" as CICDServer
    database "hub.docker.com" as ContainerServer
    participant "coveralls.io" as CoverageServer
    database "npmjs.com" as PackageServer
    actor "Consumer" as Consumer

    loop
        Producer -> VCServer: sources
        VCServer -> CICDServer: build request
        VCServer <- CICDServer: sources request
        VCServer -> CICDServer: sources
        CICDServer -> ContainerServer: image request
        CICDServer <- ContainerServer: image
        CICDServer -> CICDServer: build
        alt build success
            CICDServer -> CoverageServer: coverage report request
            CoverageServer -> CoverageServer: build coverage report
            CICDServer -> PackageServer: binaries
            ...
            PackageServer <- Consumer: binaries request
            PackageServer -> Consumer: binaries
        else build error
            ...
            PackageServer <- Consumer: binaries request
            alt old binaries exist
                PackageServer -> Consumer: old binaries
            else no binaries
                PackageServer -> Consumer: error
            end
        end
        ...
    end
@enduml

PlantUML version 1.2019.06(Fri May 24 20:10:25 EEST 2019)
(GPL source distribution)
Java Runtime: Java(TM) SE Runtime Environment
JVM: Java HotSpot(TM) 64-Bit Server VM
Java Version: 1.8.0_201-b09
Operating System: Linux
OS Version: 4.15.0-47-generic
Default Encoding: UTF-8
Language: en
Country: US
--></g></svg>