<?xml version="1.0" encoding="UTF-8" standalone="no"?><svg xmlns="http://www.w3.org/2000/svg" xmlns:xlink="http://www.w3.org/1999/xlink" contentScriptType="application/ecmascript" contentStyleType="text/css" height="813px" preserveAspectRatio="none" style="width:919px;height:813px;" version="1.1" viewBox="0 0 919 813" width="919px" zoomAndPan="magnify"><defs><filter height="300%" id="f1udp6iqhdihlh" width="300%" x="-1" y="-1"><feGaussianBlur result="blurOut" stdDeviation="2.0"/><feColorMatrix in="blurOut" result="blurOut2" type="matrix" values="0 0 0 0 0 0 0 0 0 0 0 0 0 0 0 0 0 0 .4 0"/><feOffset dx="4.0" dy="4.0" in="blurOut2" result="blurOut3"/><feBlend in="SourceGraphic" in2="blurOut3" mode="normal"/></filter></defs><g><text fill="#000000" font-family="sans-serif" font-size="18" lengthAdjust="spacingAndGlyphs" textLength="157" x="387" y="16.708">Services Network</text><!--cluster GITServer--><polygon fill="#FFFFFF" filter="url(#f1udp6iqhdihlh)" points="22,54.9531,32,44.9531,353,44.9531,353,136.9531,343,146.9531,22,146.9531,22,54.9531" style="stroke: #000000; stroke-width: 1.5;"/><line style="stroke: #000000; stroke-width: 1.5;" x1="343" x2="352" y1="54.9531" y2="45.9531"/><line style="stroke: #000000; stroke-width: 1.5;" x1="22" x2="343" y1="54.9531" y2="54.9531"/><line style="stroke: #000000; stroke-width: 1.5;" x1="343" x2="343" y1="54.9531" y2="146.9531"/><text fill="#000000" font-family="sans-serif" font-size="14" font-weight="bold" lengthAdjust="spacingAndGlyphs" textLength="88" x="139.5" y="70.9482">github.com</text><!--cluster NPMServer--><polygon fill="#FFFFFF" filter="url(#f1udp6iqhdihlh)" points="566,308.9531,576,298.9531,897,298.9531,897,390.9531,887,400.9531,566,400.9531,566,308.9531" style="stroke: #000000; stroke-width: 1.5;"/><line style="stroke: #000000; stroke-width: 1.5;" x1="887" x2="896" y1="308.9531" y2="299.9531"/><line style="stroke: #000000; stroke-width: 1.5;" x1="566" x2="887" y1="308.9531" y2="308.9531"/><line style="stroke: #000000; stroke-width: 1.5;" x1="887" x2="887" y1="308.9531" y2="400.9531"/><text fill="#000000" font-family="sans-serif" font-size="14" font-weight="bold" lengthAdjust="spacingAndGlyphs" textLength="85" x="685" y="324.9482">npmjs.com</text><!--cluster CICDServer--><polygon fill="#FFFFFF" filter="url(#f1udp6iqhdihlh)" points="365,308.9531,375,298.9531,542,298.9531,542,390.9531,532,400.9531,365,400.9531,365,308.9531" style="stroke: #000000; stroke-width: 1.5;"/><line style="stroke: #000000; stroke-width: 1.5;" x1="532" x2="541" y1="308.9531" y2="299.9531"/><line style="stroke: #000000; stroke-width: 1.5;" x1="365" x2="532" y1="308.9531" y2="308.9531"/><line style="stroke: #000000; stroke-width: 1.5;" x1="532" x2="532" y1="308.9531" y2="400.9531"/><text fill="#000000" font-family="sans-serif" font-size="14" font-weight="bold" lengthAdjust="spacingAndGlyphs" textLength="101" x="399" y="324.9482">travis-ci.com</text><!--cluster ContainerServer--><polygon fill="#FFFFFF" filter="url(#f1udp6iqhdihlh)" points="593,54.9531,603,44.9531,797,44.9531,797,136.9531,787,146.9531,593,146.9531,593,54.9531" style="stroke: #000000; stroke-width: 1.5;"/><line style="stroke: #000000; stroke-width: 1.5;" x1="787" x2="796" y1="54.9531" y2="45.9531"/><line style="stroke: #000000; stroke-width: 1.5;" x1="593" x2="787" y1="54.9531" y2="54.9531"/><line style="stroke: #000000; stroke-width: 1.5;" x1="787" x2="787" y1="54.9531" y2="146.9531"/><text fill="#000000" font-family="sans-serif" font-size="14" font-weight="bold" lengthAdjust="spacingAndGlyphs" textLength="128" x="627" y="70.9482">hub.docker.com</text><!--cluster CoverageServer--><polygon fill="#FFFFFF" filter="url(#f1udp6iqhdihlh)" points="377,54.9531,387,44.9531,569,44.9531,569,136.9531,559,146.9531,377,146.9531,377,54.9531" style="stroke: #000000; stroke-width: 1.5;"/><line style="stroke: #000000; stroke-width: 1.5;" x1="559" x2="568" y1="54.9531" y2="45.9531"/><line style="stroke: #000000; stroke-width: 1.5;" x1="377" x2="559" y1="54.9531" y2="54.9531"/><line style="stroke: #000000; stroke-width: 1.5;" x1="559" x2="559" y1="54.9531" y2="146.9531"/><text fill="#000000" font-family="sans-serif" font-size="14" font-weight="bold" lengthAdjust="spacingAndGlyphs" textLength="90" x="424" y="70.9482">coveralls.io</text><!--cluster Producer--><polygon fill="#FFFFFF" filter="url(#f1udp6iqhdihlh)" points="58,443.9531,68,433.9531,422,433.9531,422,670.9531,412,680.9531,58,680.9531,58,443.9531" style="stroke: #000000; stroke-width: 1.5;"/><line style="stroke: #000000; stroke-width: 1.5;" x1="412" x2="421" y1="443.9531" y2="434.9531"/><line style="stroke: #000000; stroke-width: 1.5;" x1="58" x2="412" y1="443.9531" y2="443.9531"/><line style="stroke: #000000; stroke-width: 1.5;" x1="412" x2="412" y1="443.9531" y2="680.9531"/><text fill="#000000" font-family="sans-serif" font-size="14" font-weight="bold" lengthAdjust="spacingAndGlyphs" textLength="73" x="199.5" y="459.9482">Producer</text><!--cluster Consumer--><polygon fill="#FFFFFF" filter="url(#f1udp6iqhdihlh)" points="566,582.9531,576,572.9531,860,572.9531,860,791.9531,850,801.9531,566,801.9531,566,582.9531" style="stroke: #000000; stroke-width: 1.5;"/><line style="stroke: #000000; stroke-width: 1.5;" x1="850" x2="859" y1="582.9531" y2="573.9531"/><line style="stroke: #000000; stroke-width: 1.5;" x1="566" x2="850" y1="582.9531" y2="582.9531"/><line style="stroke: #000000; stroke-width: 1.5;" x1="850" x2="850" y1="582.9531" y2="801.9531"/><text fill="#000000" font-family="sans-serif" font-size="14" font-weight="bold" lengthAdjust="spacingAndGlyphs" textLength="81" x="668.5" y="598.9482">Consumer</text><!--entity GITRepo--><path d="M215.5,95.4531 C215.5,85.4531 276,85.4531 276,85.4531 C276,85.4531 336.5,85.4531 336.5,95.4531 L336.5,120.75 C336.5,130.75 276,130.75 276,130.75 C276,130.75 215.5,130.75 215.5,120.75 L215.5,95.4531 " fill="#FEFECE" filter="url(#f1udp6iqhdihlh)" style="stroke: #000000; stroke-width: 1.5;"/><path d="M215.5,95.4531 C215.5,105.4531 276,105.4531 276,105.4531 C276,105.4531 336.5,105.4531 336.5,95.4531 " fill="none" style="stroke: #000000; stroke-width: 1.5;"/><text fill="#000000" font-family="sans-serif" font-size="14" lengthAdjust="spacingAndGlyphs" textLength="101" x="225.5" y="122.4482">GIT Repository</text><!--entity GITService--><polygon fill="#FEFECE" filter="url(#f1udp6iqhdihlh)" points="38.5,94.9531,48.5,84.9531,155.5,84.9531,155.5,121.25,145.5,131.25,38.5,131.25,38.5,94.9531" style="stroke: #000000; stroke-width: 1.5;"/><line style="stroke: #000000; stroke-width: 1.5;" x1="145.5" x2="154.5" y1="94.9531" y2="85.9531"/><line style="stroke: #000000; stroke-width: 1.5;" x1="38.5" x2="145.5" y1="94.9531" y2="94.9531"/><line style="stroke: #000000; stroke-width: 1.5;" x1="145.5" x2="145.5" y1="94.9531" y2="131.25"/><text fill="#000000" font-family="sans-serif" font-size="14" lengthAdjust="spacingAndGlyphs" textLength="77" x="53.5" y="117.9482">GIT Service</text><!--entity NPMService--><polygon fill="#FEFECE" filter="url(#f1udp6iqhdihlh)" points="582.5,348.9531,592.5,338.9531,707.5,338.9531,707.5,375.25,697.5,385.25,582.5,385.25,582.5,348.9531" style="stroke: #000000; stroke-width: 1.5;"/><line style="stroke: #000000; stroke-width: 1.5;" x1="697.5" x2="706.5" y1="348.9531" y2="339.9531"/><line style="stroke: #000000; stroke-width: 1.5;" x1="582.5" x2="697.5" y1="348.9531" y2="348.9531"/><line style="stroke: #000000; stroke-width: 1.5;" x1="697.5" x2="697.5" y1="348.9531" y2="385.25"/><text fill="#000000" font-family="sans-serif" font-size="14" lengthAdjust="spacingAndGlyphs" textLength="85" x="597.5" y="371.9482">NPM Service</text><!--entity NPMPackage--><path d="M767,349.4531 C767,339.4531 824,339.4531 824,339.4531 C824,339.4531 881,339.4531 881,349.4531 L881,374.75 C881,384.75 824,384.75 824,384.75 C824,384.75 767,384.75 767,374.75 L767,349.4531 " fill="#FEFECE" filter="url(#f1udp6iqhdihlh)" style="stroke: #000000; stroke-width: 1.5;"/><path d="M767,349.4531 C767,359.4531 824,359.4531 824,359.4531 C824,359.4531 881,359.4531 881,349.4531 " fill="none" style="stroke: #000000; stroke-width: 1.5;"/><text fill="#000000" font-family="sans-serif" font-size="14" lengthAdjust="spacingAndGlyphs" textLength="94" x="777" y="376.4482">NPM Package</text><!--entity CICDService--><polygon fill="#FEFECE" filter="url(#f1udp6iqhdihlh)" points="392.5,348.9531,402.5,338.9531,525.5,338.9531,525.5,375.25,515.5,385.25,392.5,385.25,392.5,348.9531" style="stroke: #000000; stroke-width: 1.5;"/><line style="stroke: #000000; stroke-width: 1.5;" x1="515.5" x2="524.5" y1="348.9531" y2="339.9531"/><line style="stroke: #000000; stroke-width: 1.5;" x1="392.5" x2="515.5" y1="348.9531" y2="348.9531"/><line style="stroke: #000000; stroke-width: 1.5;" x1="515.5" x2="515.5" y1="348.9531" y2="385.25"/><text fill="#000000" font-family="sans-serif" font-size="14" lengthAdjust="spacingAndGlyphs" textLength="93" x="407.5" y="371.9482">CI/CD Service</text><!--entity ContainerService--><polygon fill="#FEFECE" filter="url(#f1udp6iqhdihlh)" points="609.5,94.9531,619.5,84.9531,762.5,84.9531,762.5,121.25,752.5,131.25,609.5,131.25,609.5,94.9531" style="stroke: #000000; stroke-width: 1.5;"/><line style="stroke: #000000; stroke-width: 1.5;" x1="752.5" x2="761.5" y1="94.9531" y2="85.9531"/><line style="stroke: #000000; stroke-width: 1.5;" x1="609.5" x2="752.5" y1="94.9531" y2="94.9531"/><line style="stroke: #000000; stroke-width: 1.5;" x1="752.5" x2="752.5" y1="94.9531" y2="131.25"/><text fill="#000000" font-family="sans-serif" font-size="14" lengthAdjust="spacingAndGlyphs" textLength="113" x="624.5" y="117.9482">Continer Service</text><!--entity CoverageService--><polygon fill="#FEFECE" filter="url(#f1udp6iqhdihlh)" points="393,94.9531,403,84.9531,553,84.9531,553,121.25,543,131.25,393,131.25,393,94.9531" style="stroke: #000000; stroke-width: 1.5;"/><line style="stroke: #000000; stroke-width: 1.5;" x1="543" x2="552" y1="94.9531" y2="85.9531"/><line style="stroke: #000000; stroke-width: 1.5;" x1="393" x2="543" y1="94.9531" y2="94.9531"/><line style="stroke: #000000; stroke-width: 1.5;" x1="543" x2="543" y1="94.9531" y2="131.25"/><text fill="#000000" font-family="sans-serif" font-size="14" lengthAdjust="spacingAndGlyphs" textLength="120" x="408" y="117.9482">Coverage Service</text><!--entity GITClient--><polygon fill="#FEFECE" filter="url(#f1udp6iqhdihlh)" points="74,483.9531,84,473.9531,180,473.9531,180,510.25,170,520.25,74,520.25,74,483.9531" style="stroke: #000000; stroke-width: 1.5;"/><line style="stroke: #000000; stroke-width: 1.5;" x1="170" x2="179" y1="483.9531" y2="474.9531"/><line style="stroke: #000000; stroke-width: 1.5;" x1="74" x2="170" y1="483.9531" y2="483.9531"/><line style="stroke: #000000; stroke-width: 1.5;" x1="170" x2="170" y1="483.9531" y2="520.25"/><text fill="#000000" font-family="sans-serif" font-size="14" lengthAdjust="spacingAndGlyphs" textLength="66" x="89" y="506.9482">GIT Client</text><!--entity GIT_CLI--><ellipse cx="105" cy="635.9531" fill="#FEFECE" filter="url(#f1udp6iqhdihlh)" rx="8" ry="8" style="stroke: #A80036; stroke-width: 2.0;"/><text fill="#000000" font-family="sans-serif" font-size="14" lengthAdjust="spacingAndGlyphs" textLength="47" x="81.5" y="665.9482">GIT CLI</text><!--entity Sources--><polygon fill="#FEFECE" filter="url(#f1udp6iqhdihlh)" points="243,478.9531,243,515.25,343,515.25,343,488.9531,333,478.9531,243,478.9531" style="stroke: #000000; stroke-width: 1.5;"/><path d="M333,478.9531 L333,488.9531 L343,488.9531 " fill="#FEFECE" style="stroke: #000000; stroke-width: 1.5;"/><text fill="#000000" font-family="sans-serif" font-size="14" lengthAdjust="spacingAndGlyphs" textLength="80" x="253" y="501.9482">Source files</text><!--entity CICDConf--><polygon fill="#FEFECE" filter="url(#f1udp6iqhdihlh)" points="171.5,617.9531,171.5,654.25,258.5,654.25,258.5,627.9531,248.5,617.9531,171.5,617.9531" style="stroke: #000000; stroke-width: 1.5;"/><path d="M248.5,617.9531 L248.5,627.9531 L258.5,627.9531 " fill="#FEFECE" style="stroke: #000000; stroke-width: 1.5;"/><text fill="#000000" font-family="sans-serif" font-size="14" lengthAdjust="spacingAndGlyphs" textLength="67" x="181.5" y="640.9482">.travis.yml</text><!--entity NPMConfig--><polygon fill="#FEFECE" filter="url(#f1udp6iqhdihlh)" points="294,617.9531,294,654.25,406,654.25,406,627.9531,396,617.9531,294,617.9531" style="stroke: #000000; stroke-width: 1.5;"/><path d="M396,617.9531 L396,627.9531 L406,627.9531 " fill="#FEFECE" style="stroke: #000000; stroke-width: 1.5;"/><text fill="#000000" font-family="sans-serif" font-size="14" lengthAdjust="spacingAndGlyphs" textLength="92" x="304" y="640.9482">package.json</text><!--entity NPMClient--><polygon fill="#FEFECE" filter="url(#f1udp6iqhdihlh)" points="582,622.9531,592,612.9531,696,612.9531,696,649.25,686,659.25,582,659.25,582,622.9531" style="stroke: #000000; stroke-width: 1.5;"/><line style="stroke: #000000; stroke-width: 1.5;" x1="686" x2="695" y1="622.9531" y2="613.9531"/><line style="stroke: #000000; stroke-width: 1.5;" x1="582" x2="686" y1="622.9531" y2="622.9531"/><line style="stroke: #000000; stroke-width: 1.5;" x1="686" x2="686" y1="622.9531" y2="659.25"/><text fill="#000000" font-family="sans-serif" font-size="14" lengthAdjust="spacingAndGlyphs" textLength="74" x="597" y="645.9482">NPM Client</text><!--entity BIN--><ellipse cx="639" cy="756.9531" fill="#FEFECE" filter="url(#f1udp6iqhdihlh)" rx="8" ry="8" style="stroke: #A80036; stroke-width: 2.0;"/><text fill="#000000" font-family="sans-serif" font-size="14" lengthAdjust="spacingAndGlyphs" textLength="55" x="611.5" y="786.9482">NPM CLI</text><!--entity Binaries--><polygon fill="#FEFECE" filter="url(#f1udp6iqhdihlh)" points="769.5,617.9531,769.5,654.25,844.5,654.25,844.5,627.9531,834.5,617.9531,769.5,617.9531" style="stroke: #000000; stroke-width: 1.5;"/><path d="M834.5,617.9531 L834.5,627.9531 L844.5,627.9531 " fill="#FEFECE" style="stroke: #000000; stroke-width: 1.5;"/><text fill="#000000" font-family="sans-serif" font-size="14" lengthAdjust="spacingAndGlyphs" textLength="55" x="779.5" y="640.9482">Binaries</text><!--entity API--><ellipse cx="807" cy="756.9531" fill="#FEFECE" filter="url(#f1udp6iqhdihlh)" rx="8" ry="8" style="stroke: #A80036; stroke-width: 2.0;"/><text fill="#000000" font-family="sans-serif" font-size="14" lengthAdjust="spacingAndGlyphs" textLength="37" x="788.5" y="786.9482">JS API</text><!--entity Webhooks--><ellipse cx="195" cy="222.9531" fill="#FEFECE" filter="url(#f1udp6iqhdihlh)" rx="8" ry="8" style="stroke: #A80036; stroke-width: 2.0;"/><text fill="#000000" font-family="sans-serif" font-size="14" lengthAdjust="spacingAndGlyphs" textLength="74" x="158" y="252.9482">Webhooks</text><!--entity GITInterface--><ellipse cx="127" cy="361.9531" fill="#FEFECE" filter="url(#f1udp6iqhdihlh)" rx="8" ry="8" style="stroke: #A80036; stroke-width: 2.0;"/><text fill="#000000" font-family="sans-serif" font-size="14" lengthAdjust="spacingAndGlyphs" textLength="87" x="83.5" y="391.9482">GIT Interface</text><!--entity NPMInterface--><ellipse cx="613" cy="496.9531" fill="#FEFECE" filter="url(#f1udp6iqhdihlh)" rx="8" ry="8" style="stroke: #A80036; stroke-width: 2.0;"/><text fill="#000000" font-family="sans-serif" font-size="14" lengthAdjust="spacingAndGlyphs" textLength="95" x="565.5" y="526.9482">NPM Interface</text><!--entity CICDInterface--><ellipse cx="478" cy="496.9531" fill="#FEFECE" filter="url(#f1udp6iqhdihlh)" rx="8" ry="8" style="stroke: #A80036; stroke-width: 2.0;"/><text fill="#000000" font-family="sans-serif" font-size="14" lengthAdjust="spacingAndGlyphs" textLength="65" x="445.5" y="526.9482">Travis API</text><!--entity ContainerInterface--><ellipse cx="654" cy="222.9531" fill="#FEFECE" filter="url(#f1udp6iqhdihlh)" rx="8" ry="8" style="stroke: #A80036; stroke-width: 2.0;"/><text fill="#000000" font-family="sans-serif" font-size="14" lengthAdjust="spacingAndGlyphs" textLength="114" x="597" y="252.9482">Docker Interface</text><!--entity CoverageInterface--><ellipse cx="467" cy="222.9531" fill="#FEFECE" filter="url(#f1udp6iqhdihlh)" rx="8" ry="8" style="stroke: #A80036; stroke-width: 2.0;"/><text fill="#000000" font-family="sans-serif" font-size="14" lengthAdjust="spacingAndGlyphs" textLength="101" x="416.5" y="252.9482">node-coveralls</text><!--reverse link GITRepo to GITService--><path d="M210.394,107.9531 C192.454,107.9531 173.133,107.9531 155.611,107.9531 " fill="none" id="GITRepo&lt;-GITService" style="stroke: #A80036; stroke-width: 1.0;"/><polygon fill="#A80036" points="215.414,107.9531,206.414,103.9531,210.414,107.9531,206.414,111.9531,215.414,107.9531" style="stroke: #A80036; stroke-width: 1.0;"/><text fill="#000000" font-family="sans-serif" font-size="13" lengthAdjust="spacingAndGlyphs" textLength="23" x="174" y="101.02">use</text><!--link GITService to Webhooks--><path d="M116.128,131.0091 C138.075,156.3151 172.95,196.5291 187.86,213.7201 " fill="none" id="GITService-Webhooks" style="stroke: #A80036; stroke-width: 1.0;"/><!--link GITService to GITInterface--><path d="M99.6623,131.3161 C106.029,184.7991 121.912,318.2131 126.018,352.7071 " fill="none" id="GITService-GITInterface" style="stroke: #A80036; stroke-width: 1.0;"/><!--link NPMService to NPMPackage--><path d="M707.606,361.9531 C725.056,361.9531 744.011,361.9531 761.458,361.9531 " fill="none" id="NPMService-&gt;NPMPackage" style="stroke: #A80036; stroke-width: 1.0;"/><polygon fill="#A80036" points="766.821,361.9531,757.821,357.9531,761.821,361.9531,757.821,365.9531,766.821,361.9531" style="stroke: #A80036; stroke-width: 1.0;"/><text fill="#000000" font-family="sans-serif" font-size="13" lengthAdjust="spacingAndGlyphs" textLength="23" x="725.75" y="355.02">use</text><!--link NPMService to NPMInterface--><path d="M639.644,385.2141 C632.385,415.3851 619.776,467.7911 614.953,487.8371 " fill="none" id="NPMService-NPMInterface" style="stroke: #A80036; stroke-width: 1.0;"/><!--link CICDService to CICDInterface--><path d="M462.18,385.2141 C466.49,415.3851 473.977,467.7911 476.841,487.8371 " fill="none" id="CICDService-CICDInterface" style="stroke: #A80036; stroke-width: 1.0;"/><!--reverse link Webhooks to CICDService--><path d="M213.038,233.3141 C254.554,254.8581 357.795,308.4341 416.472,338.8841 " fill="none" id="Webhooks&lt;-CICDService" style="stroke: #A80036; stroke-width: 1.0;"/><path d="M202.9233,237.5936 A9,9 0 0 0 210.7149 222.5806" fill="none" style="stroke: #A80036; stroke-width: 1.5;"/><!--reverse link GITInterface to CICDService--><path d="M146.093,361.9531 C228.216,361.9531 310.338,361.9531 392.46,361.9531 " fill="none" id="GITInterface&lt;-CICDService" style="stroke: #A80036; stroke-width: 1.0;"/><path d="M139.1562,370.4104 A9,9 0 0 0 139.1562 353.4959" fill="none" style="stroke: #A80036; stroke-width: 1.5;"/><!--link CICDService to NPMInterface--><path d="M486.3,385.1481 C500.87,397.1031 519.038,412.1841 535,425.9531 C556.39,444.4041 580.523,466.2201 596.205,480.5341 " fill="none" id="CICDService-&gt;NPMInterface" style="stroke: #A80036; stroke-width: 1.0;"/><path d="M607.416,479.3291 A9,9 0 0 0 595.9965 491.8069" fill="none" style="stroke: #A80036; stroke-width: 1.5;"/><!--link ContainerService to ContainerInterface--><path d="M679.754,131.0091 C672.588,156.3151 661.2,196.5291 656.331,213.7201 " fill="none" id="ContainerService-ContainerInterface" style="stroke: #A80036; stroke-width: 1.0;"/><!--reverse link ContainerInterface to CICDService--><path d="M636.259,236.4171 C603.224,259.6261 531.89,309.7431 490.491,338.8291 " fill="none" id="ContainerInterface&lt;-CICDService" style="stroke: #A80036; stroke-width: 1.0;"/><path d="M637.4757,225.2263 A9,9 0 0 0 647.1988 239.0668" fill="none" style="stroke: #A80036; stroke-width: 1.5;"/><!--link CoverageService to CoverageInterface--><path d="M471.829,131.0091 C470.485,156.3151 468.35,196.5291 467.437,213.7201 " fill="none" id="CoverageService-CoverageInterface" style="stroke: #A80036; stroke-width: 1.0;"/><!--reverse link CoverageInterface to CICDService--><path d="M465.924,242.3711 C464.464,267.3901 461.855,312.0591 460.29,338.8541 " fill="none" id="CoverageInterface&lt;-CICDService" style="stroke: #A80036; stroke-width: 1.0;"/><path d="M457.9017,234.6932 A9,9 0 0 0 474.7875 235.6789" fill="none" style="stroke: #A80036; stroke-width: 1.5;"/><!--link GITClient to GIT_CLI--><path d="M123.465,519.9641 C118.485,550.9761 109.64,606.0571 106.314,626.7731 " fill="none" id="GITClient-GIT_CLI" style="stroke: #A80036; stroke-width: 1.0;"/><!--reverse link GITRepo to Sources--><path d="M277.528,143.7401 C281.053,223.9841 289.65,419.6881 292.246,478.7801 " fill="none" id="GITRepo&lt;-Sources" style="stroke: #A80036; stroke-width: 1.0;"/><polygon fill="#FFFFFF" points="276.95,130.5891,273.2169,136.7587,277.4761,142.5776,281.2092,136.408,276.95,130.5891" style="stroke: #A80036; stroke-width: 1.0;"/><text fill="#000000" font-family="sans-serif" font-size="13" lengthAdjust="spacingAndGlyphs" textLength="23" x="251.1147" y="150.733">0..*</text><!--reverse link Sources to CICDConf--><path d="M276.671,526.6331 C261.007,554.1451 237.869,594.7861 224.844,617.6641 " fill="none" id="Sources&lt;-CICDConf" style="stroke: #A80036; stroke-width: 1.0;"/><polygon fill="#A80036" points="283.279,515.0271,276.8341,518.2618,277.3411,525.455,283.786,522.2204,283.279,515.0271" style="stroke: #A80036; stroke-width: 1.0;"/><!--reverse link Sources to NPMConfig--><path d="M305.243,527.3801 C316.683,554.8761 333.374,594.9921 342.807,617.6641 " fill="none" id="Sources&lt;-NPMConfig" style="stroke: #A80036; stroke-width: 1.0;"/><polygon fill="#A80036" points="300.104,515.0271,298.7159,522.1034,304.714,526.1063,306.102,519.0301,300.104,515.0271" style="stroke: #A80036; stroke-width: 1.0;"/><!--reverse link GITInterface to GITClient--><path d="M127,381.5681 C127,405.8051 127,448.1111 127,473.9211 " fill="none" id="GITInterface&lt;-GITClient" style="stroke: #A80036; stroke-width: 1.0;"/><path d="M118.5428,374.3513 A9,9 0 0 0 135.4572 374.3513" fill="none" style="stroke: #A80036; stroke-width: 1.5;"/><!--reverse link CICDInterface to CICDConf--><path d="M459.915,508.1701 C449.147,513.9531 435.073,520.9971 422,525.9531 C359.197,549.7601 332.994,529.4181 276,564.9531 C254.524,578.3431 236.447,601.6371 225.677,617.6511 " fill="none" id="CICDInterface&lt;-CICDConf" style="stroke: #A80036; stroke-width: 1.0;"/><path d="M461.9779,497.3834 A9,9 0 0 0 470.1299 512.2039" fill="none" style="stroke: #A80036; stroke-width: 1.5;"/><!--reverse link NPMInterface to NPMConfig--><path d="M595.037,507.3101 C551.294,530.0961 438.74,588.7271 382.704,617.9171 " fill="none" id="NPMInterface&lt;-NPMConfig" style="stroke: #A80036; stroke-width: 1.0;"/><path d="M597.3097,496.5908 A9,9 0 0 0 605.1244 511.5918" fill="none" style="stroke: #A80036; stroke-width: 1.5;"/><!--reverse link NPMInterface to NPMClient--><path d="M616.431,516.0331 C621.167,540.9851 629.698,585.9381 634.806,612.8541 " fill="none" id="NPMInterface&lt;-NPMClient" style="stroke: #A80036; stroke-width: 1.0;"/><path d="M606.8139,510.7141 A9,9 0 0 0 623.4318 507.5606" fill="none" style="stroke: #A80036; stroke-width: 1.5;"/><!--link NPMClient to BIN--><path d="M639,659.0571 C639,685.9431 639,729.9603 639,747.9314 " fill="none" id="NPMClient-BIN" style="stroke: #A80036; stroke-width: 1.0;"/><!--reverse link NPMPackage to Binaries--><path d="M821.804,398.0901 C818.118,457.0731 810.819,573.8461 808.076,617.7371 " fill="none" id="NPMPackage&lt;-Binaries" style="stroke: #A80036; stroke-width: 1.0;"/><polygon fill="#FFFFFF" points="822.638,384.7521,818.2713,390.4908,821.8891,396.7287,826.2557,390.9901,822.638,384.7521" style="stroke: #A80036; stroke-width: 1.0;"/><text fill="#000000" font-family="sans-serif" font-size="13" lengthAdjust="spacingAndGlyphs" textLength="23" x="796.1813" y="404.9398">0..*</text><!--link NPMClient to Binaries--><path d="M696.346,635.9531 C718.604,635.9531 743.647,635.9531 764.273,635.9531 " fill="none" id="NPMClient-&gt;Binaries" style="stroke: #A80036; stroke-width: 1.0;"/><polygon fill="#A80036" points="769.417,635.9531,760.417,631.9531,764.417,635.9531,760.417,639.9531,769.417,635.9531" style="stroke: #A80036; stroke-width: 1.0;"/><text fill="#000000" font-family="sans-serif" font-size="13" lengthAdjust="spacingAndGlyphs" textLength="37" x="714.25" y="629.02">install</text><!--link Binaries to API--><path d="M807,654.0031 C807,679.9671 807,728.4326 807,747.7239 " fill="none" id="Binaries-API" style="stroke: #A80036; stroke-width: 1.0;"/><!--
@startuml services_network
    title Services Network
    
    node "github.com" as GITServer {
        database "GIT Repository" as GITRepo
        node "GIT Service" as GITService
        GITRepo <- GITService: use
    }
    interface "Webhooks" as Webhooks
    interface "GIT Interface" as GITInterface
    GITService - - Webhooks
    GITService - - GITInterface
    
    node "npmjs.com" as NPMServer {
        node "NPM Service" as NPMService
        database "NPM Package" as NPMPackage
        NPMService -> NPMPackage: use
    }
    interface "NPM Interface" as NPMInterface
    NPMService - - NPMInterface

    node "travis-ci.com" as CICDServer {
        node "CI/CD Service" as CICDService
    }
    interface "Travis API" as CICDInterface
    CICDService - - CICDInterface
    Webhooks )- - CICDService
    GITInterface )- CICDService
    CICDService - -( NPMInterface

    node "hub.docker.com" as ContainerServer {
        node "Continer Service" as ContainerService
    }
    interface "Docker Interface" as ContainerInterface
    ContainerService - - ContainerInterface
    ContainerInterface )- - CICDService
    
    node "coveralls.io" as CoverageServer {
        node "Coverage Service" as CoverageService
    }
    interface "node-coveralls" as CoverageInterface
    CoverageService - - CoverageInterface
    CoverageInterface )- - CICDService
    
    node "Producer" as Producer {
        node "GIT Client" as GITClient
        interface "GIT CLI" as GIT_CLI
        GITClient - - GIT_CLI

        file "Source files" as Sources
        file ".travis.yml" as CICDConf
        file "package.json" as NPMConfig
        GITRepo "0..*" o- - Sources
        Sources *- - CICDConf
        Sources *- - NPMConfig
        GITInterface )- - GITClient
        CICDInterface )- - CICDConf
        NPMInterface )- - NPMConfig
    }

    node "Consumer" as Consumer {
        node "NPM Client" as NPMClient
        interface "NPM CLI" as BIN
        NPMInterface )- - NPMClient
        NPMClient - - BIN

        file "Binaries" as Binaries
        interface "JS API" as API
        NPMPackage "0..*" o- - Binaries
        NPMClient -> Binaries: install
        Binaries - - API
    }
@enduml

PlantUML version 1.2019.09(Mon Aug 26 19:19:51 EEST 2019)
(GPL source distribution)
Java Runtime: Java(TM) SE Runtime Environment
JVM: Java HotSpot(TM) 64-Bit Server VM
Java Version: 1.8.0_201-b09
Operating System: Linux
OS Version: 4.15.0-55-generic
Default Encoding: UTF-8
Language: en
Country: US
--></g></svg>