<?xml version="1.0" encoding="UTF-8" standalone="no"?><svg xmlns="http://www.w3.org/2000/svg" xmlns:xlink="http://www.w3.org/1999/xlink" contentScriptType="application/ecmascript" contentStyleType="text/css" height="989px" preserveAspectRatio="none" style="width:684px;height:989px;" version="1.1" viewBox="0 0 684 989" width="684px" zoomAndPan="magnify"><defs><filter height="300%" id="fmhm603q633in" width="300%" x="-1" y="-1"><feGaussianBlur result="blurOut" stdDeviation="2.0"/><feColorMatrix in="blurOut" result="blurOut2" type="matrix" values="0 0 0 0 0 0 0 0 0 0 0 0 0 0 0 0 0 0 .4 0"/><feOffset dx="4.0" dy="4.0" in="blurOut2" result="blurOut3"/><feBlend in="SourceGraphic" in2="blurOut3" mode="normal"/></filter></defs><g><!--cluster Internet/Intranet--><path d="M73,31.5 C73,28.5 75,26.5 78,26.5 C81,26.5 83,28.5 83,31.5 C83,28.5 85,26.5 88,26.5 C91,26.5 93,28.5 93,31.5 C93,28.5 95,26.5 98,26.5 C101,26.5 103,28.5 103,31.5 C103,28.5 105,26.5 108,26.5 C111,26.5 113,28.5 113,31.5 C113,28.5 115,26.5 118,26.5 C121,26.5 123,28.5 123,31.5 C123,28.5 125,26.5 128,26.5 C131,26.5 133,28.5 133,31.5 C133,28.5 135,26.5 138,26.5 C141,26.5 143,28.5 143,31.5 C143,28.5 145,26.5 148,26.5 C151,26.5 153,28.5 153,31.5 C153,28.5 155,26.5 158,26.5 C161,26.5 163,28.5 163,31.5 C163,28.5 165,26.5 168,26.5 C171,26.5 173,28.5 173,31.5 C173,28.5 175,26.5 178,26.5 C181,26.5 183,28.5 183,31.5 C183,28.5 185,26.5 188,26.5 C191,26.5 193,28.5 193,31.5 C193,28.5 195,26.5 198,26.5 C201,26.5 203,28.5 203,31.5 C203,28.5 205,26.5 208,26.5 C211,26.5 213,28.5 213,31.5 C213,28.5 215,26.5 218,26.5 C221,26.5 223,28.5 223,31.5 C223,28.5 225,26.5 228,26.5 C231,26.5 233,28.5 233,31.5 C233,28.5 235,26.5 238,26.5 C241,26.5 243,28.5 243,31.5 C243,28.5 245,26.5 248,26.5 C251,26.5 253,28.5 253,31.5 C253,28.5 255,26.5 258,26.5 C261,26.5 263,28.5 263,31.5 C263,28.5 265,26.5 268,26.5 C271,26.5 273,28.5 273,31.5 C273,28.5 275,26.5 278,26.5 C281,26.5 283,28.5 283,31.5 C283,28.5 285,26.5 288,26.5 C291,26.5 293,28.5 293,31.5 C293,28.5 295,26.5 298,26.5 C301,26.5 303,28.5 303,31.5 C303,28.5 305,26.5 308,26.5 C311,26.5 313,28.5 313,31.5 C313,28.5 315,26.5 318,26.5 C321,26.5 323,28.5 323,31.5 C323,28.5 325,26.5 328,26.5 C331,26.5 333,28.5 333,31.5 C333,28.5 335,26.5 338,26.5 C341,26.5 343,28.5 343,31.5 C343,28.5 345,26.5 348,26.5 C351,26.5 353,28.5 353,31.5 C353,28.5 355,26.5 358,26.5 C361,26.5 363,28.5 363,31.5 C363,28.5 365,26.5 368,26.5 C371,26.5 373,28.5 373,31.5 C373,28.5 375,26.5 378,26.5 C381,26.5 383,28.5 383,31.5 C383,28.5 385,26.5 388,26.5 C391,26.5 393,28.5 393,31.5 C393,28.5 395,26.5 398,26.5 C401,26.5 403,28.5 403,31.5 C403,28.5 405,26.5 408,26.5 C411,26.5 413,28.5 413,31.5 C413,28.5 415,26.5 418,26.5 C421,26.5 423,28.5 423,31.5 C423,28.5 425,26.5 428,26.5 C431,26.5 433,28.5 433,31.5 C433,28.5 435,26.5 438,26.5 C441,26.5 443,28.5 443,31.5 C443,28.5 445,26.5 448,26.5 C451,26.5 453,28.5 453,31.5 C453,28.5 455,26.5 458,26.5 C461,26.5 463,28.5 463,31.5 C463,28.5 465,26.5 468,26.5 C471,26.5 473,28.5 473,31.5 C473,28.5 475,26.5 478,26.5 C481,26.5 483,28.5 483,31.5 C483,28.5 485,26.5 488,26.5 C491,26.5 493,28.5 493,31.5 C493,28.5 495,26.5 498,26.5 C501,26.5 503,28.5 503,31.5 C503,28.5 505,26.5 508,26.5 C511,26.5 513,28.5 513,31.5 C513,28.5 515,26.5 518,26.5 C521,26.5 523,28.5 523,31.5 C523,28.5 525,26.5 528,26.5 C531,26.5 533,28.5 533,31.5 C533,28.5 535,26.5 538,26.5 C541,26.5 543,28.5 543,31.5 C543,28.5 545,26.5 548,26.5 C551,26.5 553,28.5 553,31.5 C553,28.5 555,26.5 558,26.5 C561,26.5 563,28.5 563,31.5 C563,28.5 565,26.5 568,26.5 C571,26.5 573,28.5 573,31.5 C573,28.5 575,26.5 578,26.5 C581,26.5 583,28.5 583,31.5 C583,28.5 585,26.5 588,26.5 C591,26.5 593,28.5 593,31.5 C593,28.5 595,26.5 598,26.5 C601,26.5 603,28.5 603,31.5 C603,28.5 605,26.5 608,26.5 C611,26.5 613,28.5 613,31.5 C613,28.5 615,26.5 618,26.5 C621,26.5 623,28.5 623,31.5 C623,28.5 625,26.5 628,26.5 C631,26.5 633,28.5 633,31.5 C633,28.5 635,26.5 638,26.5 C641,26.5 643,28.5 643,31.5 C643,28.5 645,26.5 648,26.5 C651,26.5 653,28.5 653,31.5 C656,31.5 658,33.5 658,36.5 C658,39.5 656,41.5 653,41.5 C656,41.5 658,43.5 658,46.5 C658,49.5 656,51.5 653,51.5 C656,51.5 658,53.5 658,56.5 C658,59.5 656,61.5 653,61.5 C656,61.5 658,63.5 658,66.5 C658,69.5 656,71.5 653,71.5 C656,71.5 658,73.5 658,76.5 C658,79.5 656,81.5 653,81.5 C656,81.5 658,83.5 658,86.5 C658,89.5 656,91.5 653,91.5 C656,91.5 658,93.5 658,96.5 C658,99.5 656,101.5 653,101.5 C656,101.5 658,103.5 658,106.5 C658,109.5 656,111.5 653,111.5 C656,111.5 658,113.5 658,116.5 C658,119.5 656,121.5 653,121.5 C656,121.5 658,123.5 658,126.5 C658,129.5 656,131.5 653,131.5 C656,131.5 658,133.5 658,136.5 C658,139.5 656,141.5 653,141.5 C656,141.5 658,143.5 658,146.5 C658,149.5 656,151.5 653,151.5 C656,151.5 658,153.5 658,156.5 C658,159.5 656,161.5 653,161.5 C656,161.5 658,163.5 658,166.5 C658,169.5 656,171.5 653,171.5 C656,171.5 658,173.5 658,176.5 C658,179.5 656,181.5 653,181.5 C656,181.5 658,183.5 658,186.5 C658,189.5 656,191.5 653,191.5 C656,191.5 658,193.5 658,196.5 C658,199.5 656,201.5 653,201.5 C656,201.5 658,203.5 658,206.5 C658,209.5 656,211.5 653,211.5 C656,211.5 658,213.5 658,216.5 C658,219.5 656,221.5 653,221.5 C656,221.5 658,223.5 658,226.5 C658,229.5 656,231.5 653,231.5 C656,231.5 658,233.5 658,236.5 C658,239.5 656,241.5 653,241.5 C656,241.5 658,243.5 658,246.5 C658,249.5 656,251.5 653,251.5 C656,251.5 658,253.5 658,256.5 C658,259.5 656,261.5 653,261.5 C656,261.5 658,263.5 658,266.5 C658,269.5 656,271.5 653,271.5 C656,271.5 658,273.5 658,276.5 C658,279.5 656,281.5 653,281.5 C656,281.5 658,283.5 658,286.5 C658,289.5 656,291.5 653,291.5 C656,291.5 658,293.5 658,296.5 C658,299.5 656,301.5 653,301.5 C656,301.5 658,303.5 658,306.5 C658,309.5 656,311.5 653,311.5 C656,311.5 658,313.5 658,316.5 C658,319.5 656,321.5 653,321.5 C656,321.5 658,323.5 658,326.5 C658,329.5 656,331.5 653,331.5 C656,331.5 658,333.5 658,336.5 C658,339.5 656,341.5 653,341.5 C656,341.5 658,343.5 658,346.5 C658,349.5 656,351.5 653,351.5 C656,351.5 658,353.5 658,356.5 C658,359.5 656,361.5 653,361.5 C656,361.5 658,363.5 658,366.5 C658,369.5 656,371.5 653,371.5 C656,371.5 658,373.5 658,376.5 C658,379.5 656,381.5 653,381.5 C656,381.5 658,383.5 658,386.5 C658,389.5 656,391.5 653,391.5 C656,391.5 658,393.5 658,396.5 C658,399.5 656,401.5 653,401.5 C656,401.5 658,403.5 658,406.5 C658,409.5 656,411.5 653,411.5 C656,411.5 658,413.5 658,416.5 C658,419.5 656,421.5 653,421.5 C656,421.5 658,423.5 658,426.5 C658,429.5 656,431.5 653,431.5 C656,431.5 658,433.5 658,436.5 C658,439.5 656,441.5 653,441.5 C656,441.5 658,443.5 658,446.5 C658,449.5 656,451.5 653,451.5 C656,451.5 658,453.5 658,456.5 C658,459.5 656,461.5 653,461.5 C656,461.5 658,463.5 658,466.5 C658,469.5 656,471.5 653,471.5 C656,471.5 658,473.5 658,476.5 C658,479.5 656,481.5 653,481.5 C656,481.5 658,483.5 658,486.5 C658,489.5 656,491.5 653,491.5 C656,491.5 658,493.5 658,496.5 C658,499.5 656,501.5 653,501.5 C656,501.5 658,503.5 658,506.5 C658,509.5 656,511.5 653,511.5 C656,511.5 658,513.5 658,516.5 C658,519.5 656,521.5 653,521.5 C656,521.5 658,523.5 658,526.5 C658,529.5 656,531.5 653,531.5 C656,531.5 658,533.5 658,536.5 C658,539.5 656,541.5 653,541.5 C656,541.5 658,543.5 658,546.5 C658,549.5 656,551.5 653,551.5 C656,551.5 658,553.5 658,556.5 C658,559.5 656,561.5 653,561.5 C653,564.5 650,566.5 648,566.5 C645,566.5 643,564.5 643,561.5 C643,564.5 640,566.5 638,566.5 C635,566.5 633,564.5 633,561.5 C633,564.5 630,566.5 628,566.5 C625,566.5 623,564.5 623,561.5 C623,564.5 620,566.5 618,566.5 C615,566.5 613,564.5 613,561.5 C613,564.5 610,566.5 608,566.5 C605,566.5 603,564.5 603,561.5 C603,564.5 600,566.5 598,566.5 C595,566.5 593,564.5 593,561.5 C593,564.5 590,566.5 588,566.5 C585,566.5 583,564.5 583,561.5 C583,564.5 580,566.5 578,566.5 C575,566.5 573,564.5 573,561.5 C573,564.5 570,566.5 568,566.5 C565,566.5 563,564.5 563,561.5 C563,564.5 560,566.5 558,566.5 C555,566.5 553,564.5 553,561.5 C553,564.5 550,566.5 548,566.5 C545,566.5 543,564.5 543,561.5 C543,564.5 540,566.5 538,566.5 C535,566.5 533,564.5 533,561.5 C533,564.5 530,566.5 528,566.5 C525,566.5 523,564.5 523,561.5 C523,564.5 520,566.5 518,566.5 C515,566.5 513,564.5 513,561.5 C513,564.5 510,566.5 508,566.5 C505,566.5 503,564.5 503,561.5 C503,564.5 500,566.5 498,566.5 C495,566.5 493,564.5 493,561.5 C493,564.5 490,566.5 488,566.5 C485,566.5 483,564.5 483,561.5 C483,564.5 480,566.5 478,566.5 C475,566.5 473,564.5 473,561.5 C473,564.5 470,566.5 468,566.5 C465,566.5 463,564.5 463,561.5 C463,564.5 460,566.5 458,566.5 C455,566.5 453,564.5 453,561.5 C453,564.5 450,566.5 448,566.5 C445,566.5 443,564.5 443,561.5 C443,564.5 440,566.5 438,566.5 C435,566.5 433,564.5 433,561.5 C433,564.5 430,566.5 428,566.5 C425,566.5 423,564.5 423,561.5 C423,564.5 420,566.5 418,566.5 C415,566.5 413,564.5 413,561.5 C413,564.5 410,566.5 408,566.5 C405,566.5 403,564.5 403,561.5 C403,564.5 400,566.5 398,566.5 C395,566.5 393,564.5 393,561.5 C393,564.5 390,566.5 388,566.5 C385,566.5 383,564.5 383,561.5 C383,564.5 380,566.5 378,566.5 C375,566.5 373,564.5 373,561.5 C373,564.5 370,566.5 368,566.5 C365,566.5 363,564.5 363,561.5 C363,564.5 360,566.5 358,566.5 C355,566.5 353,564.5 353,561.5 C353,564.5 350,566.5 348,566.5 C345,566.5 343,564.5 343,561.5 C343,564.5 340,566.5 338,566.5 C335,566.5 333,564.5 333,561.5 C333,564.5 330,566.5 328,566.5 C325,566.5 323,564.5 323,561.5 C323,564.5 320,566.5 318,566.5 C315,566.5 313,564.5 313,561.5 C313,564.5 310,566.5 308,566.5 C305,566.5 303,564.5 303,561.5 C303,564.5 300,566.5 298,566.5 C295,566.5 293,564.5 293,561.5 C293,564.5 290,566.5 288,566.5 C285,566.5 283,564.5 283,561.5 C283,564.5 280,566.5 278,566.5 C275,566.5 273,564.5 273,561.5 C273,564.5 270,566.5 268,566.5 C265,566.5 263,564.5 263,561.5 C263,564.5 260,566.5 258,566.5 C255,566.5 253,564.5 253,561.5 C253,564.5 250,566.5 248,566.5 C245,566.5 243,564.5 243,561.5 C243,564.5 240,566.5 238,566.5 C235,566.5 233,564.5 233,561.5 C233,564.5 230,566.5 228,566.5 C225,566.5 223,564.5 223,561.5 C223,564.5 220,566.5 218,566.5 C215,566.5 213,564.5 213,561.5 C213,564.5 210,566.5 208,566.5 C205,566.5 203,564.5 203,561.5 C203,564.5 200,566.5 198,566.5 C195,566.5 193,564.5 193,561.5 C193,564.5 190,566.5 188,566.5 C185,566.5 183,564.5 183,561.5 C183,564.5 180,566.5 178,566.5 C175,566.5 173,564.5 173,561.5 C173,564.5 170,566.5 168,566.5 C165,566.5 163,564.5 163,561.5 C163,564.5 160,566.5 158,566.5 C155,566.5 153,564.5 153,561.5 C153,564.5 150,566.5 148,566.5 C145,566.5 143,564.5 143,561.5 C143,564.5 140,566.5 138,566.5 C135,566.5 133,564.5 133,561.5 C133,564.5 130,566.5 128,566.5 C125,566.5 123,564.5 123,561.5 C123,564.5 120,566.5 118,566.5 C115,566.5 113,564.5 113,561.5 C113,564.5 110,566.5 108,566.5 C105,566.5 103,564.5 103,561.5 C103,564.5 100,566.5 98,566.5 C95,566.5 93,564.5 93,561.5 C93,564.5 90,566.5 88,566.5 C85,566.5 83,564.5 83,561.5 C83,564.5 80,566.5 78,566.5 C75,566.5 73,564.5 73,561.5 C70,561.5 68,559.5 68,556.5 C68,553.5 70,551.5 73,551.5 C70,551.5 68,549.5 68,546.5 C68,543.5 70,541.5 73,541.5 C70,541.5 68,539.5 68,536.5 C68,533.5 70,531.5 73,531.5 C70,531.5 68,529.5 68,526.5 C68,523.5 70,521.5 73,521.5 C70,521.5 68,519.5 68,516.5 C68,513.5 70,511.5 73,511.5 C70,511.5 68,509.5 68,506.5 C68,503.5 70,501.5 73,501.5 C70,501.5 68,499.5 68,496.5 C68,493.5 70,491.5 73,491.5 C70,491.5 68,489.5 68,486.5 C68,483.5 70,481.5 73,481.5 C70,481.5 68,479.5 68,476.5 C68,473.5 70,471.5 73,471.5 C70,471.5 68,469.5 68,466.5 C68,463.5 70,461.5 73,461.5 C70,461.5 68,459.5 68,456.5 C68,453.5 70,451.5 73,451.5 C70,451.5 68,449.5 68,446.5 C68,443.5 70,441.5 73,441.5 C70,441.5 68,439.5 68,436.5 C68,433.5 70,431.5 73,431.5 C70,431.5 68,429.5 68,426.5 C68,423.5 70,421.5 73,421.5 C70,421.5 68,419.5 68,416.5 C68,413.5 70,411.5 73,411.5 C70,411.5 68,409.5 68,406.5 C68,403.5 70,401.5 73,401.5 C70,401.5 68,399.5 68,396.5 C68,393.5 70,391.5 73,391.5 C70,391.5 68,389.5 68,386.5 C68,383.5 70,381.5 73,381.5 C70,381.5 68,379.5 68,376.5 C68,373.5 70,371.5 73,371.5 C70,371.5 68,369.5 68,366.5 C68,363.5 70,361.5 73,361.5 C70,361.5 68,359.5 68,356.5 C68,353.5 70,351.5 73,351.5 C70,351.5 68,349.5 68,346.5 C68,343.5 70,341.5 73,341.5 C70,341.5 68,339.5 68,336.5 C68,333.5 70,331.5 73,331.5 C70,331.5 68,329.5 68,326.5 C68,323.5 70,321.5 73,321.5 C70,321.5 68,319.5 68,316.5 C68,313.5 70,311.5 73,311.5 C70,311.5 68,309.5 68,306.5 C68,303.5 70,301.5 73,301.5 C70,301.5 68,299.5 68,296.5 C68,293.5 70,291.5 73,291.5 C70,291.5 68,289.5 68,286.5 C68,283.5 70,281.5 73,281.5 C70,281.5 68,279.5 68,276.5 C68,273.5 70,271.5 73,271.5 C70,271.5 68,269.5 68,266.5 C68,263.5 70,261.5 73,261.5 C70,261.5 68,259.5 68,256.5 C68,253.5 70,251.5 73,251.5 C70,251.5 68,249.5 68,246.5 C68,243.5 70,241.5 73,241.5 C70,241.5 68,239.5 68,236.5 C68,233.5 70,231.5 73,231.5 C70,231.5 68,229.5 68,226.5 C68,223.5 70,221.5 73,221.5 C70,221.5 68,219.5 68,216.5 C68,213.5 70,211.5 73,211.5 C70,211.5 68,209.5 68,206.5 C68,203.5 70,201.5 73,201.5 C70,201.5 68,199.5 68,196.5 C68,193.5 70,191.5 73,191.5 C70,191.5 68,189.5 68,186.5 C68,183.5 70,181.5 73,181.5 C70,181.5 68,179.5 68,176.5 C68,173.5 70,171.5 73,171.5 C70,171.5 68,169.5 68,166.5 C68,163.5 70,161.5 73,161.5 C70,161.5 68,159.5 68,156.5 C68,153.5 70,151.5 73,151.5 C70,151.5 68,149.5 68,146.5 C68,143.5 70,141.5 73,141.5 C70,141.5 68,139.5 68,136.5 C68,133.5 70,131.5 73,131.5 C70,131.5 68,129.5 68,126.5 C68,123.5 70,121.5 73,121.5 C70,121.5 68,119.5 68,116.5 C68,113.5 70,111.5 73,111.5 C70,111.5 68,109.5 68,106.5 C68,103.5 70,101.5 73,101.5 C70,101.5 68,99.5 68,96.5 C68,93.5 70,91.5 73,91.5 C70,91.5 68,89.5 68,86.5 C68,83.5 70,81.5 73,81.5 C70,81.5 68,79.5 68,76.5 C68,73.5 70,71.5 73,71.5 C70,71.5 68,69.5 68,66.5 C68,63.5 70,61.5 73,61.5 C70,61.5 68,59.5 68,56.5 C68,53.5 70,51.5 73,51.5 C70,51.5 68,49.5 68,46.5 C68,43.5 70,41.5 73,41.5 C70,41.5 68,39.5 68,36.5 C68,33.5 70,31.5 73,31.5 " fill="#FFFFFF" style="stroke: #000000; stroke-width: 1.5;"/><text fill="#000000" font-family="sans-serif" font-size="14" font-weight="bold" lengthAdjust="spacingAndGlyphs" textLength="130" x="297.5" y="50.4951">Internet/Intranet</text><!--cluster gitServer--><polygon fill="#FFFFFF" filter="url(#fmhm603q633in)" points="102,104,112,94,279,94,279,257,269,267,102,267,102,104" style="stroke: #000000; stroke-width: 1.5;"/><line style="stroke: #000000; stroke-width: 1.5;" x1="269" x2="278" y1="104" y2="95"/><line style="stroke: #000000; stroke-width: 1.5;" x1="102" x2="269" y1="104" y2="104"/><line style="stroke: #000000; stroke-width: 1.5;" x1="269" x2="269" y1="104" y2="267"/><text fill="#000000" font-family="sans-serif" font-size="14" font-weight="bold" lengthAdjust="spacingAndGlyphs" textLength="26" x="173.5" y="119.9951">GIT</text><text fill="#000000" font-family="sans-serif" font-size="14" font-weight="bold" lengthAdjust="spacingAndGlyphs" textLength="52" x="160.5" y="136.292">server</text><!--cluster ciServer--><polygon fill="#FFFFFF" filter="url(#fmhm603q633in)" points="94,437,104,427,336,427,336,535,326,545,94,545,94,437" style="stroke: #000000; stroke-width: 1.5;"/><line style="stroke: #000000; stroke-width: 1.5;" x1="326" x2="335" y1="437" y2="428"/><line style="stroke: #000000; stroke-width: 1.5;" x1="94" x2="326" y1="437" y2="437"/><line style="stroke: #000000; stroke-width: 1.5;" x1="326" x2="326" y1="437" y2="545"/><text fill="#000000" font-family="sans-serif" font-size="14" font-weight="bold" lengthAdjust="spacingAndGlyphs" textLength="42" x="190" y="452.9951">CI/CD</text><text fill="#000000" font-family="sans-serif" font-size="14" font-weight="bold" lengthAdjust="spacingAndGlyphs" textLength="52" x="185" y="469.292">server</text><!--cluster npmServer--><polygon fill="#FFFFFF" filter="url(#fmhm603q633in)" points="319,85.5,329,75.5,623,75.5,623,256.5,613,266.5,319,266.5,319,85.5" style="stroke: #000000; stroke-width: 1.5;"/><line style="stroke: #000000; stroke-width: 1.5;" x1="613" x2="622" y1="85.5" y2="76.5"/><line style="stroke: #000000; stroke-width: 1.5;" x1="319" x2="613" y1="85.5" y2="85.5"/><line style="stroke: #000000; stroke-width: 1.5;" x1="613" x2="613" y1="85.5" y2="266.5"/><text fill="#000000" font-family="sans-serif" font-size="14" font-weight="bold" lengthAdjust="spacingAndGlyphs" textLength="34" x="450" y="101.4951">NPM</text><text fill="#000000" font-family="sans-serif" font-size="14" font-weight="bold" lengthAdjust="spacingAndGlyphs" textLength="52" x="441" y="117.792">server</text><!--cluster cli--><polygon fill="#FFFFFF" filter="url(#fmhm603q633in)" points="481,147.5,504,147.5,511,169.7969,591,169.7969,591,234.5,481,234.5,481,147.5" style="stroke: #000000; stroke-width: 1.5;"/><line style="stroke: #000000; stroke-width: 1.5;" x1="481" x2="511" y1="169.7969" y2="169.7969"/><text fill="#000000" font-family="sans-serif" font-size="14" font-weight="bold" lengthAdjust="spacingAndGlyphs" textLength="17" x="485" y="162.4951">cli</text><!--cluster plugins--><polygon fill="#FFFFFF" filter="url(#fmhm603q633in)" points="359,147.5,422,147.5,429,169.7969,457,169.7969,457,234.5,359,234.5,359,147.5" style="stroke: #000000; stroke-width: 1.5;"/><line style="stroke: #000000; stroke-width: 1.5;" x1="359" x2="429" y1="169.7969" y2="169.7969"/><text fill="#000000" font-family="sans-serif" font-size="14" font-weight="bold" lengthAdjust="spacingAndGlyphs" textLength="57" x="363" y="162.4951">plugins</text><!--cluster devPC--><polygon fill="#FFFFFF" filter="url(#fmhm603q633in)" points="30,739,40,729,296,729,296,844,286,854,30,854,30,739" style="stroke: #000000; stroke-width: 1.5;"/><line style="stroke: #000000; stroke-width: 1.5;" x1="286" x2="295" y1="739" y2="730"/><line style="stroke: #000000; stroke-width: 1.5;" x1="30" x2="286" y1="739" y2="739"/><line style="stroke: #000000; stroke-width: 1.5;" x1="286" x2="286" y1="739" y2="854"/><text fill="#000000" font-family="sans-serif" font-size="14" font-weight="bold" lengthAdjust="spacingAndGlyphs" textLength="172" x="73" y="754.9951">Leaders' Environment</text><!--cluster userPC--><polygon fill="#FFFFFF" filter="url(#fmhm603q633in)" points="328,755.5,338,745.5,662,745.5,662,967,652,977,328,977,328,755.5" style="stroke: #000000; stroke-width: 1.5;"/><line style="stroke: #000000; stroke-width: 1.5;" x1="652" x2="661" y1="755.5" y2="746.5"/><line style="stroke: #000000; stroke-width: 1.5;" x1="328" x2="652" y1="755.5" y2="755.5"/><line style="stroke: #000000; stroke-width: 1.5;" x1="652" x2="652" y1="755.5" y2="977"/><text fill="#000000" font-family="sans-serif" font-size="14" font-weight="bold" lengthAdjust="spacingAndGlyphs" textLength="198" x="392" y="771.4951">Developers' Environment</text><!--entity BashInterface--><ellipse cx="206" cy="351" fill="#FEFECE" filter="url(#fmhm603q633in)" rx="8" ry="8" style="stroke: #A80036; stroke-width: 2.0;"/><text fill="#000000" font-family="sans-serif" font-size="14" lengthAdjust="spacingAndGlyphs" textLength="161" x="125.5" y="380.9951">Webhooks + Bash + ...</text><!--entity SourceCode--><polygon fill="#FEFECE" filter="url(#fmhm603q633in)" points="145.5,158,145.5,243.1875,254.5,243.1875,254.5,168,244.5,158,145.5,158" style="stroke: #000000; stroke-width: 1.5;"/><path d="M244.5,158 L244.5,168 L254.5,168 " fill="#FEFECE" style="stroke: #000000; stroke-width: 1.5;"/><text fill="#000000" font-family="sans-serif" font-size="14" lengthAdjust="spacingAndGlyphs" textLength="48" x="155.5" y="180.9951">source</text><text fill="#000000" font-family="sans-serif" font-size="14" lengthAdjust="spacingAndGlyphs" textLength="35" x="155.5" y="197.292">code</text><text fill="#000000" font-family="sans-serif" font-size="14" lengthAdjust="spacingAndGlyphs" textLength="76" x="155.5" y="213.5889">(.travis.yml,</text><text fill="#000000" font-family="sans-serif" font-size="14" lengthAdjust="spacingAndGlyphs" textLength="89" x="155.5" y="229.8857">.gitlab-ci.yml)</text><!--entity ciBuildNode--><polygon fill="#FEFECE" filter="url(#fmhm603q633in)" points="110.5,493,120.5,483,319.5,483,319.5,519.2969,309.5,529.2969,110.5,529.2969,110.5,493" style="stroke: #000000; stroke-width: 1.5;"/><line style="stroke: #000000; stroke-width: 1.5;" x1="309.5" x2="318.5" y1="493" y2="484"/><line style="stroke: #000000; stroke-width: 1.5;" x1="110.5" x2="309.5" y1="493" y2="493"/><line style="stroke: #000000; stroke-width: 1.5;" x1="309.5" x2="309.5" y1="493" y2="529.2969"/><text fill="#000000" font-family="sans-serif" font-size="14" lengthAdjust="spacingAndGlyphs" textLength="169" x="125.5" y="515.9951">Build Container (Docker)</text><!--entity server.js--><polygon fill="#FEFECE" filter="url(#fmhm603q633in)" points="497,182.5,497,218.7969,575,218.7969,575,192.5,565,182.5,497,182.5" style="stroke: #000000; stroke-width: 1.5;"/><path d="M565,182.5 L565,192.5 L575,192.5 " fill="#FEFECE" style="stroke: #000000; stroke-width: 1.5;"/><text fill="#000000" font-family="sans-serif" font-size="14" lengthAdjust="spacingAndGlyphs" textLength="58" x="507" y="205.4951">server.js</text><!--entity cmd.js--><polygon fill="#FEFECE" filter="url(#fmhm603q633in)" points="375.5,182.5,375.5,218.7969,440.5,218.7969,440.5,192.5,430.5,182.5,375.5,182.5" style="stroke: #000000; stroke-width: 1.5;"/><path d="M430.5,182.5 L430.5,192.5 L440.5,192.5 " fill="#FEFECE" style="stroke: #000000; stroke-width: 1.5;"/><text fill="#000000" font-family="sans-serif" font-size="14" lengthAdjust="spacingAndGlyphs" textLength="45" x="385.5" y="205.4951">cmd.js</text><!--entity CLI Server \n sources--><polygon fill="#FEFECE" filter="url(#fmhm603q633in)" points="184,777,184,829.5938,272,829.5938,272,787,262,777,184,777" style="stroke: #000000; stroke-width: 1.5;"/><path d="M262,777 L262,787 L272,787 " fill="#FEFECE" style="stroke: #000000; stroke-width: 1.5;"/><text fill="#000000" font-family="sans-serif" font-size="14" lengthAdjust="spacingAndGlyphs" textLength="68" x="194" y="799.9951">CLI Server</text><text fill="#000000" font-family="sans-serif" font-size="14" lengthAdjust="spacingAndGlyphs" textLength="56" x="194" y="816.292">sources</text><!--entity Plugins \n sources--><polygon fill="#FEFECE" filter="url(#fmhm603q633in)" points="73,777,73,829.5938,149,829.5938,149,787,139,777,73,777" style="stroke: #000000; stroke-width: 1.5;"/><path d="M139,777 L139,787 L149,787 " fill="#FEFECE" style="stroke: #000000; stroke-width: 1.5;"/><text fill="#000000" font-family="sans-serif" font-size="14" lengthAdjust="spacingAndGlyphs" textLength="50" x="83" y="799.9951">Plugins</text><text fill="#000000" font-family="sans-serif" font-size="14" lengthAdjust="spacingAndGlyphs" textLength="56" x="83" y="816.292">sources</text><!--entity npmClient--><rect fill="#FEFECE" filter="url(#fmhm603q633in)" height="36.2969" style="stroke: #A80036; stroke-width: 1.5;" width="94" x="451" y="785.5"/><rect fill="#FEFECE" height="5" style="stroke: #A80036; stroke-width: 1.5;" width="10" x="446" y="790.5"/><rect fill="#FEFECE" height="5" style="stroke: #A80036; stroke-width: 1.5;" width="10" x="446" y="811.7969"/><text fill="#000000" font-family="sans-serif" font-size="14" lengthAdjust="spacingAndGlyphs" textLength="74" x="461" y="808.4951">NPM Client</text><!--entity nodejs--><rect fill="#FEFECE" filter="url(#fmhm603q633in)" height="36.2969" style="stroke: #A80036; stroke-width: 1.5;" width="72" x="344" y="785.5"/><rect fill="#FEFECE" height="5" style="stroke: #A80036; stroke-width: 1.5;" width="10" x="339" y="790.5"/><rect fill="#FEFECE" height="5" style="stroke: #A80036; stroke-width: 1.5;" width="10" x="339" y="811.7969"/><text fill="#000000" font-family="sans-serif" font-size="14" lengthAdjust="spacingAndGlyphs" textLength="52" x="354" y="808.4951">Node.js</text><!--entity CLIServer--><rect fill="#FEFECE" filter="url(#fmhm603q633in)" height="36.2969" style="stroke: #A80036; stroke-width: 1.5;" width="88" x="344" y="925"/><rect fill="#FEFECE" height="5" style="stroke: #A80036; stroke-width: 1.5;" width="10" x="339" y="930"/><rect fill="#FEFECE" height="5" style="stroke: #A80036; stroke-width: 1.5;" width="10" x="339" y="951.2969"/><text fill="#000000" font-family="sans-serif" font-size="14" lengthAdjust="spacingAndGlyphs" textLength="68" x="354" y="947.9951">CLI Server</text><!--entity Plugin--><rect fill="#FEFECE" filter="url(#fmhm603q633in)" height="36.2969" style="stroke: #A80036; stroke-width: 1.5;" width="154" x="492" y="925"/><rect fill="#FEFECE" height="5" style="stroke: #A80036; stroke-width: 1.5;" width="10" x="487" y="930"/><rect fill="#FEFECE" height="5" style="stroke: #A80036; stroke-width: 1.5;" width="10" x="487" y="951.2969"/><text fill="#000000" font-family="sans-serif" font-size="14" lengthAdjust="spacingAndGlyphs" textLength="134" x="502" y="947.9951">Plugable Command</text><!--entity CLI--><ellipse cx="589" cy="803.5" fill="#FEFECE" filter="url(#fmhm603q633in)" rx="8" ry="8" style="stroke: #A80036; stroke-width: 2.0;"/><text fill="#000000" font-family="sans-serif" font-size="14" lengthAdjust="spacingAndGlyphs" textLength="20" x="579" y="833.4951">CLI</text><!--entity gitInterface--><ellipse cx="57" cy="645" fill="#FEFECE" filter="url(#fmhm603q633in)" rx="8" ry="8" style="stroke: #A80036; stroke-width: 2.0;"/><text fill="#000000" font-family="sans-serif" font-size="14" lengthAdjust="spacingAndGlyphs" textLength="23" x="45.5" y="674.9951">GIT</text><!--entity npmInterface--><ellipse cx="373" cy="645" fill="#FEFECE" filter="url(#fmhm603q633in)" rx="8" ry="8" style="stroke: #A80036; stroke-width: 2.0;"/><text fill="#000000" font-family="sans-serif" font-size="14" lengthAdjust="spacingAndGlyphs" textLength="31" x="357.5" y="674.9951">NPM</text><!--link SourceCode to BashInterface--><path d="M201.687,243.261 C202.863,272.348 204.373,309.721 205.259,331.649 " fill="none" id="SourceCode-BashInterface" style="stroke: #A80036; stroke-width: 1.0;"/><path d="M213.9964,338.4216 A9,9 0 0 0 197.0956 339.103" fill="none" style="stroke: #A80036; stroke-width: 1.5;"/><!--link BashInterface to ciBuildNode--><path d="M206.484,360.226 C207.831,383.13 211.66,448.217 213.693,482.788 " fill="none" id="BashInterface-ciBuildNode" style="stroke: #A80036; stroke-width: 1.0;"/><!--link gitServer to gitInterface--><path d="M101.9455,219.9666 C101.8545,220.1866 101.763,220.4081 101.6711,220.6311 C100.2004,224.199 98.6115,228.1549 96.9704,232.4007 C90.4063,249.3842 83.0078,271.0075 79,291 C51.7845,426.764 55.445,597.247 56.7035,635.943 " fill="none" id="gitServer-gitInterface" style="stroke: #A80036; stroke-width: 1.0;"/><!--link ciBuildNode to gitInterface--><path d="M189.615,529.011 C157.044,557.253 101.4528,605.455 73.7375,629.487 " fill="none" id="ciBuildNode-gitInterface" style="stroke: #A80036; stroke-width: 1.0;"/><path d="M73.9534,640.4933 A9,9 0 0 0 62.8728 627.7137" fill="none" style="stroke: #A80036; stroke-width: 1.5;"/><!--link npmServer to npmInterface--><path d="M346.1567,266.961 C346.1935,267.1187 346.2303,267.2765 346.2669,267.4343 C346.3403,267.75 346.4134,268.0658 346.4861,268.3817 C347.068,270.9092 347.6294,273.4446 348.1639,275.9751 C349.233,281.0363 350.195,286.0784 351,291 C373.349,427.65 373.396,597.458 373.089,635.981 " fill="none" id="npmServer-npmInterface" style="stroke: #A80036; stroke-width: 1.0;"/><!--link ciBuildNode to npmInterface--><path d="M240.385,529.011 C272.956,557.253 328.547,605.455 356.263,629.487 " fill="none" id="ciBuildNode-npmInterface" style="stroke: #A80036; stroke-width: 1.0;"/><path d="M367.1277,627.7137 A9,9 0 0 0 356.0469 640.4932" fill="none" style="stroke: #A80036; stroke-width: 1.5;"/><!--link nodejs to CLIServer--><path d="M381.3,826.845 C382.89,854.166 385.546,899.8243 386.99,924.6476 " fill="none" id="nodejs-CLIServer" style="stroke: #A80036; stroke-width: 1.0; stroke-dasharray: 7.0,7.0;"/><polygon fill="#A80036" points="380.997,821.636,377.5282,830.8538,381.2883,826.6275,385.5146,830.3876,380.997,821.636" style="stroke: #A80036; stroke-width: 1.0;"/><text fill="#000000" font-family="sans-serif" font-size="13" lengthAdjust="spacingAndGlyphs" textLength="59" x="387" y="891.0669">based on</text><!--link npmClient to CLIServer--><path d="M492.577,821.634 C485.828,841.001 472.846,872.728 454,895 C445.257,905.3332 433.761,914.5388 422.818,922.0045 " fill="none" id="npmClient-CLIServer" style="stroke: #A80036; stroke-width: 1.0; stroke-dasharray: 7.0,7.0;"/><polygon fill="#A80036" points="418.497,924.8842,428.2045,923.2216,422.6577,922.1114,423.768,916.5645,418.497,924.8842" style="stroke: #A80036; stroke-width: 1.0;"/><text fill="#000000" font-family="sans-serif" font-size="13" lengthAdjust="spacingAndGlyphs" textLength="23" x="467" y="891.0669">use</text><!--link CLIServer to Plugin--><path d="M432.278,943 C448.636,943 467.749,943 486.41,943 " fill="none" id="CLIServer-Plugin" style="stroke: #A80036; stroke-width: 1.0; stroke-dasharray: 7.0,7.0;"/><polygon fill="#A80036" points="491.658,943,482.658,939,486.658,943,482.658,947,491.658,943" style="stroke: #A80036; stroke-width: 1.0;"/><text fill="#000000" font-family="sans-serif" font-size="13" lengthAdjust="spacingAndGlyphs" textLength="23" x="450.5" y="936.0669">use</text><!--link npmClient to CLI--><path d="M545.277,803.5 C556.777,803.5 568.277,803.5 579.777,803.5 " fill="none" id="npmClient-CLI" style="stroke: #A80036; stroke-width: 1.0;"/><!--link gitInterface to devPC--><path d="M54.7433,664.588 C53.5062,674.7775 51.8662,688.2866 50.0959,702.8685 C49.2107,710.1595 48.293,717.7188 47.3768,725.2654 C47.2622,726.2087 47.1477,727.1518 47.0333,728.0942 C47.0047,728.3298 46.9761,728.5654 46.9475,728.8009 " fill="none" id="gitInterface-devPC" style="stroke: #A80036; stroke-width: 1.0;"/><path d="M47.2118,656.45 A9,9 0 0 0 64.0029 658.4894" fill="none" style="stroke: #A80036; stroke-width: 1.5;"/><!--link npmInterface to npmClient--><path d="M387.596,661.384 C400.043,674.716 418.216,694.689 433,713 C452.664,737.355 473.639,766.979 486.283,785.29 " fill="none" id="npmInterface-npmClient" style="stroke: #A80036; stroke-width: 1.0;"/><path d="M376.6156,662.0525 A9,9 0 0 0 388.9364 650.4639" fill="none" style="stroke: #A80036; stroke-width: 1.5;"/><!--
@startuml
cloud "Internet/Intranet" {
    node "GIT\nserver" as gitServer {
        file "source \n code \n (.travis.yml, \n .gitlab-ci.yml)" as SourceCode
    }
    node "<b>CI/CD</b>\n<b>server</b>" as ciServer {
        node "Build Container (Docker)" as ciBuildNode
    }
    node "NPM\nserver" as npmServer  {
        package cli {
            file "server.js"
        }
        package plugins {
            file "cmd.js"
        }
    }
    interface "Webhooks + Bash + ..." as BashInterface

    SourceCode - -( BashInterface
    BashInterface - - ciBuildNode
}
interface "GIT" as gitInterface
interface "NPM" as npmInterface

gitServer - - gitInterface
ciBuildNode - -( gitInterface
npmServer - - npmInterface
ciBuildNode - -( npmInterface

node "Leaders' Environment" as devPC {
    file "CLI Server \n sources"
    file "Plugins \n sources"
}
node "Developers' Environment" as userPC {
    component "NPM Client" as npmClient
    component "Node.js" as nodejs
    component "CLI Server" as CLIServer
    component "Plugable Command" as Plugin
    interface CLI
    nodejs <.. CLIServer: based on
    npmClient ..> CLIServer: use
    CLIServer .> Plugin: use
    npmClient - CLI
}
gitInterface )- - devPC
npmInterface )- - npmClient
@enduml

PlantUML version 1.2019.03(Sun Mar 10 13:04:44 EET 2019)
(GPL source distribution)
Java Runtime: Java(TM) SE Runtime Environment
JVM: Java HotSpot(TM) 64-Bit Server VM
Java Version: 1.8.0_201-b09
Operating System: Linux
OS Version: 4.15.0-46-generic
Default Encoding: UTF-8
Language: en
Country: US
--></g></svg>