<?xml version="1.0" encoding="UTF-8" standalone="no"?><svg xmlns="http://www.w3.org/2000/svg" xmlns:xlink="http://www.w3.org/1999/xlink" contentScriptType="application/ecmascript" contentStyleType="text/css" height="419px" preserveAspectRatio="none" style="width:366px;height:419px;" version="1.1" viewBox="0 0 366 419" width="366px" zoomAndPan="magnify"><defs><filter height="300%" id="fjhr3m6e76ww8" width="300%" x="-1" y="-1"><feGaussianBlur result="blurOut" stdDeviation="2.0"/><feColorMatrix in="blurOut" result="blurOut2" type="matrix" values="0 0 0 0 0 0 0 0 0 0 0 0 0 0 0 0 0 0 .4 0"/><feOffset dx="4.0" dy="4.0" in="blurOut2" result="blurOut3"/><feBlend in="SourceGraphic" in2="blurOut3" mode="normal"/></filter></defs><g><text fill="#000000" font-family="sans-serif" font-size="18" lengthAdjust="spacingAndGlyphs" textLength="115" x="127.5" y="16.708">Nodes Graph</text><!--cluster Internet--><path d="M38.8548,55.0695 C43.5034,42.2521 54.943,43.2506 61.8284,52.7687 C68.4439,39.2177 79.5543,40.2964 86.4148,52.5353 C92.439,42.0411 102.6619,41.2143 110.5379,50.2477 C118.0127,37.7662 125.2845,38.0068 134.4379,48.5016 C140.0228,39.7546 150.0299,39.0752 155.8604,48.2073 C162.9317,35.3447 172.3873,35.4251 180.9069,46.7047 C189.6891,38.6209 198.4368,36.8031 203.6958,50.4069 C211.0906,36.9735 218.8044,37.7658 227.9887,48.6168 C235.8097,38.2998 246.9447,40.591 250.4409,52.9071 C259.4589,42.1069 267.7232,40.2124 276.9135,52.7114 C283.6314,42.2781 292.081,42.5788 297.8267,53.6566 C308.4176,41.2379 322.9597,45.7734 328,59.9531 C329.4269,60.4526 329.8376,61.349 328.6883,62.5352 C339.68,68.7673 340.8667,75.9282 332.163,85.1821 C341.1964,92.0197 343.058,99.6407 331.7396,106.0656 C344.5463,110.8474 344.0591,120.9583 334.1884,128.244 C346.307,134.683 344.8281,142.9227 335.654,150.7483 C348.8657,155.7897 351.8048,168.5662 338.7782,176.7591 C347.9686,181.2864 351.6646,188.577 342.4636,196.5322 C354.2854,204.7767 352.7642,211.776 341.9078,219.471 C352.3044,227.4593 351.2222,236.0447 340.7145,242.9716 C349.038,250.9823 347.059,259.0186 336.9989,263.7405 C348.6251,270.3808 348.5418,278.5454 339.0992,287.0815 C347.9685,294.3092 348.8089,305.3604 336.7149,310.449 C345.3871,317.8942 342.84,327.4465 332.761,331.3433 C345.8074,338.0592 343.5207,348.8318 332.8691,355.6531 C340.1257,369.0213 336.115,378.6812 321,381.9531 C323.7846,381.2668 325.8275,382.6111 324.8352,385.7449 C317.877,395.7648 305.0852,395.6671 299.2298,384.4173 C294.7452,397.4556 283.3382,398.7692 274.6602,388.9187 C268.4408,400.7652 259.5489,400.2678 251.4991,390.9188 C244.0681,401.585 234.5402,401.8113 227.2254,390.7887 C222.749,402.982 212.9697,401.8756 205.8554,393.5339 C198.9813,406.5477 191.4978,404.8303 182.1472,396.2533 C174.8645,407.7001 162.7087,405.7057 157.4419,394.0935 C148.7,405.0437 141.3851,405.4545 134.1402,392.6265 C124.5585,401.6379 116.7554,401.541 110.8163,388.7326 C103.549,399.3587 95.7195,397.7501 88.442,388.7441 C78.3685,398.1147 70.262,398.0828 64.3847,384.3708 C49.7597,400.3877 35.3664,392.74 30,374.9531 C31.4524,373.5881 32.6158,373.7084 33.2648,375.7281 C22.3485,369.882 20.5886,363.1586 30.491,354.5818 C16.9284,347.9979 19.3058,337.4241 29.8174,330.1757 C22.2387,324.3451 21.2929,315.1461 32.036,311.4909 C21.3925,303.8803 19.1511,295.2289 30.6198,286.3718 C20.8797,279.467 18.7679,272.4065 30.1314,265.019 C18.208,258.3296 17.3831,247.0715 30.2158,240.4673 C19.9624,236.9403 16.5861,228.4971 25.9043,220.701 C15.4432,213.669 14.6889,202.1136 27.5399,196.6681 C17.4772,189.4557 17.4549,182.8026 27.6286,175.6758 C18.684,166.7524 20.748,159.5266 31.2326,153.8049 C19.4019,146.5151 20.5746,137.2301 31.9281,130.6363 C19.804,123.91 19.2804,115.5621 31.3363,108.198 C18.736,102.6125 20.4721,93.3788 29.4543,85.9663 C13.8751,72.1575 19.6154,59.2275 37,52.9531 C38.7553,52.6887 39.3336,53.3759 38.8548,55.0695 " fill="#FFFFFF" style="stroke: #000000; stroke-width: 1.5;"/><text fill="#000000" font-family="sans-serif" font-size="14" font-weight="bold" lengthAdjust="spacingAndGlyphs" textLength="63" x="147.5" y="70.9482">Internet</text><!--entity VCServer--><path d="M38,195.9531 C38,185.9531 87,185.9531 87,185.9531 C87,185.9531 136,185.9531 136,195.9531 L136,221.25 C136,231.25 87,231.25 87,231.25 C87,231.25 38,231.25 38,221.25 L38,195.9531 " fill="#FEFECE" filter="url(#fjhr3m6e76ww8)" style="stroke: #000000; stroke-width: 1.5;"/><path d="M38,195.9531 C38,205.9531 87,205.9531 87,205.9531 C87,205.9531 136,205.9531 136,195.9531 " fill="none" style="stroke: #000000; stroke-width: 1.5;"/><text fill="#000000" font-family="sans-serif" font-size="14" lengthAdjust="spacingAndGlyphs" textLength="78" x="48" y="222.9482">github.com</text><!--entity PackageServer--><path d="M224,195.9531 C224,185.9531 272,185.9531 272,185.9531 C272,185.9531 320,185.9531 320,195.9531 L320,221.25 C320,231.25 272,231.25 272,231.25 C272,231.25 224,231.25 224,221.25 L224,195.9531 " fill="#FEFECE" filter="url(#fjhr3m6e76ww8)" style="stroke: #000000; stroke-width: 1.5;"/><path d="M224,195.9531 C224,205.9531 272,205.9531 272,205.9531 C272,205.9531 320,205.9531 320,195.9531 " fill="none" style="stroke: #000000; stroke-width: 1.5;"/><text fill="#000000" font-family="sans-serif" font-size="14" lengthAdjust="spacingAndGlyphs" textLength="76" x="234" y="222.9482">npmjs.com</text><!--entity CICDServer--><polygon fill="#FEFECE" filter="url(#fjhr3m6e76ww8)" points="117,89.9531,127,79.9531,243,79.9531,243,116.25,233,126.25,117,126.25,117,89.9531" style="stroke: #000000; stroke-width: 1.5;"/><line style="stroke: #000000; stroke-width: 1.5;" x1="233" x2="242" y1="89.9531" y2="80.9531"/><line style="stroke: #000000; stroke-width: 1.5;" x1="117" x2="233" y1="89.9531" y2="89.9531"/><line style="stroke: #000000; stroke-width: 1.5;" x1="233" x2="233" y1="89.9531" y2="126.25"/><text fill="#000000" font-family="sans-serif" font-size="14" lengthAdjust="spacingAndGlyphs" textLength="86" x="132" y="112.9482">travis-ci.com</text><!--entity Producer--><ellipse cx="128" cy="300.9531" fill="#FEFECE" filter="url(#fjhr3m6e76ww8)" rx="8" ry="8" style="stroke: #A80036; stroke-width: 2.0;"/><path d="M128,308.9531 L128,335.9531 M115,316.9531 L141,316.9531 M128,335.9531 L115,350.9531 M128,335.9531 L141,350.9531 " fill="none" filter="url(#fjhr3m6e76ww8)" style="stroke: #A80036; stroke-width: 2.0;"/><text fill="#000000" font-family="sans-serif" font-size="14" lengthAdjust="spacingAndGlyphs" textLength="63" x="96.5" y="370.9482">Producer</text><!--entity Consumer--><ellipse cx="231" cy="300.9531" fill="#FEFECE" filter="url(#fjhr3m6e76ww8)" rx="8" ry="8" style="stroke: #A80036; stroke-width: 2.0;"/><path d="M231,308.9531 L231,335.9531 M218,316.9531 L244,316.9531 M231,335.9531 L218,350.9531 M231,335.9531 L244,350.9531 " fill="none" filter="url(#fjhr3m6e76ww8)" style="stroke: #A80036; stroke-width: 2.0;"/><text fill="#000000" font-family="sans-serif" font-size="14" lengthAdjust="spacingAndGlyphs" textLength="72" x="195" y="370.9482">Consumer</text><!--entity Ethernet--><ellipse cx="180" cy="208.4531" fill="#FEFECE" filter="url(#fjhr3m6e76ww8)" rx="8" ry="8" style="stroke: #A80036; stroke-width: 2.0;"/><text fill="#000000" font-family="sans-serif" font-size="14" lengthAdjust="spacingAndGlyphs" textLength="60" x="150" y="238.4482">Ethernet</text><!--link VCServer to Ethernet--><path d="M136.043,208.4531 C144.263,208.4531 152.482,208.4531 160.702,208.4531 " fill="none" id="VCServer-&gt;Ethernet" style="stroke: #A80036; stroke-width: 1.0;"/><path d="M167.6498,199.9959 A9,9 0 0 0 167.6498 216.9104" fill="none" style="stroke: #A80036; stroke-width: 1.5;"/><!--link CICDServer to Ethernet--><path d="M180,126.1561 C180,144.8671 180,171.3261 180,188.9181 " fill="none" id="CICDServer-&gt;Ethernet" style="stroke: #A80036; stroke-width: 1.0;"/><path d="M188.4572,195.9489 A9,9 0 0 0 171.5428 195.9489" fill="none" style="stroke: #A80036; stroke-width: 1.5;"/><!--reverse link Ethernet to PackageServer--><path d="M199.6,208.4531 C207.697,208.4531 215.794,208.4531 223.891,208.4531 " fill="none" id="Ethernet&lt;-PackageServer" style="stroke: #A80036; stroke-width: 1.0;"/><path d="M192.4222,216.9104 A9,9 0 0 0 192.4222 199.9959" fill="none" style="stroke: #A80036; stroke-width: 1.5;"/><!--reverse link Ethernet to Producer--><path d="M172.55,226.9321 C165.482,243.5151 154.597,269.0531 145.356,290.7331 " fill="none" id="Ethernet&lt;-Producer" style="stroke: #A80036; stroke-width: 1.0;"/><path d="M167.601,216.9748 A9,9 0 0 0 183.1618 223.6051" fill="none" style="stroke: #A80036; stroke-width: 1.5;"/><!--reverse link Ethernet to Consumer--><path d="M187.307,226.9321 C194.239,243.5151 204.915,269.0531 213.978,290.7331 " fill="none" id="Ethernet&lt;-Consumer" style="stroke: #A80036; stroke-width: 1.0;"/><path d="M176.7306,223.5603 A9,9 0 0 0 192.3361 217.0359" fill="none" style="stroke: #A80036; stroke-width: 1.5;"/><!--
@startuml nodes_graph
    title Nodes Graph

    cloud "Internet" as Internet {
        database "github.com" as VCServer
        database "npmjs.com" as PackageServer
        node "travis-ci.com" as CICDServer
        actor "Producer" as Producer
        actor "Consumer" as Consumer
        interface "Ethernet" as Ethernet
        VCServer -( Ethernet
        CICDServer - -( Ethernet
        Ethernet )- PackageServer
        Ethernet )- - Producer
        Ethernet )- - Consumer
    }
@enduml

PlantUML version 1.2019.09(Mon Aug 26 19:19:51 EEST 2019)
(GPL source distribution)
Java Runtime: Java(TM) SE Runtime Environment
JVM: Java HotSpot(TM) 64-Bit Server VM
Java Version: 1.8.0_201-b09
Operating System: Linux
OS Version: 4.15.0-55-generic
Default Encoding: UTF-8
Language: en
Country: US
--></g></svg>