<?xml version="1.0" encoding="UTF-8" standalone="no"?><svg xmlns="http://www.w3.org/2000/svg" xmlns:xlink="http://www.w3.org/1999/xlink" contentScriptType="application/ecmascript" contentStyleType="text/css" height="395px" preserveAspectRatio="none" style="width:791px;height:395px;" version="1.1" viewBox="0 0 791 395" width="791px" zoomAndPan="magnify"><defs><filter height="300%" id="fhjvxo2cnzsxh" width="300%" x="-1" y="-1"><feGaussianBlur result="blurOut" stdDeviation="2.0"/><feColorMatrix in="blurOut" result="blurOut2" type="matrix" values="0 0 0 0 0 0 0 0 0 0 0 0 0 0 0 0 0 0 .4 0"/><feOffset dx="4.0" dy="4.0" in="blurOut2" result="blurOut3"/><feBlend in="SourceGraphic" in2="blurOut3" mode="normal"/></filter></defs><g><text fill="#000000" font-family="sans-serif" font-size="18" lengthAdjust="spacingAndGlyphs" textLength="152" x="323" y="16.708">Devices Network</text><!--cluster Internet--><path d="M32.0465,58.9163 C49.1008,34.7875 71.306,31.1515 88.2826,59.0005 C99.8124,34.7289 126.5653,32.1517 142.1547,54.2879 C159.2298,27.4447 177.3262,27.5934 194.6215,54.0711 C210.4349,26.4944 230.7097,28.626 246.5728,54.0224 C264.1509,29.2532 279.9511,30.0384 297.4178,54.1383 C311.8063,32.9287 328.612,31.3461 344.5582,52.4008 C363.4681,25.3799 379.2088,25.7607 396.4843,53.9383 C410.6918,21.7628 435.8815,26.7963 453.7671,50.1436 C469.5751,32.7892 489.1955,37.7177 496.9757,59.0985 C508.3703,27.4797 537.8015,28.9895 556.1335,51.5194 C574.9911,25.9376 591.9852,24.7049 608.1452,54.0727 C623.2086,34.4103 642.4946,31.2405 656.6819,55.0509 C671.0974,28.241 693.0311,25.5859 708.9402,53.628 C771.0365,54.3606 779.3492,92.0037 759.7408,140.5098 C745.6723,160.4277 723.0354,158.5189 713.0714,135.9962 C697.8806,164.7746 679.8332,170.0934 657.0623,143.69 C643.8794,170.143 619.5338,170.7283 604.4843,145.5925 C589.5575,166.8642 569.1445,172.7975 554.2212,145.5887 C535.9299,165.058 518.6995,168.4349 503.9028,141.7765 C486.7023,174.4093 467.6288,169.4795 446.0431,146.3245 C430.6244,169.516 408.5022,169.2847 397.8343,141.8045 C386.0602,165.4219 364.2967,168.6752 349.154,145.2935 C332.9514,173.6107 310.3412,169.9102 292.6555,146.9268 C273.9379,167.9962 251.591,170.5495 240.2122,139.537 C229.1859,168.5246 204.8456,163.2603 189.4518,144.1459 C173.329,172.7401 149.6762,169.8611 135.313,142.445 C119.3784,164.0881 100.3448,164.7131 85.1191,141.6492 C29.006,144.454 3.4964,110.4225 32.0465,58.9163 " fill="#FFFFFF" style="stroke: #000000; stroke-width: 1.5;"/><text fill="#000000" font-family="sans-serif" font-size="14" font-weight="bold" lengthAdjust="spacingAndGlyphs" textLength="63" x="361.5" y="70.9482">Internet</text><!--cluster Intranet--><path d="M221.3406,237.0207 C227.7307,224.2128 239.6895,226.7373 245.7084,237.4059 C255.9188,223.8616 268.2278,225.3478 276.1088,239.9242 C283.2342,224.8112 292.5779,224.6093 302.5396,237.2202 C312.7267,224.7864 322.2971,222.1647 332.8565,236.8033 C341.7433,221.9706 354.2044,220.2306 364.0167,235.8564 C370.3911,222.2529 383.0318,220.6279 391.1637,234.0938 C399.5789,222.3121 411.2935,223.9007 417.7935,236.2107 C427.249,223.7479 437.9857,222.75 447.6335,235.9873 C456.0825,223.2852 468.1124,224.0599 474.8739,237.7301 C484.5855,221.2885 494.9782,225.4562 504.9156,237.4919 C515.1026,223.7129 524.2458,227.3602 532.1754,239.8358 C540.014,224.931 553.7656,222.3405 563.4097,237.9902 C571.6361,225.3892 584.0448,227.3064 591.5048,238.8807 C602.5593,226.0728 617.7316,226.1006 624,243.9531 C627.4283,242.492 629.5557,243.9821 629.0276,247.7541 C657.1167,256.6147 662.6303,281.729 637.2442,299.1402 C654.6375,322.4103 650.4992,350.1426 617,354.9531 C619.2073,355.9013 619.7987,358.0353 617.5522,359.5218 C608.1269,374.0079 599.236,375.7665 588.895,360.4008 C579.886,371.3046 568.9929,371.0324 561.0027,359.1536 C553.52,373.6303 541.9759,372.4369 533.603,360.0619 C526.2854,373.0405 514.3128,375.8534 505.6685,361.4136 C498.0981,375.6729 489.5709,378.5226 478.0566,365.3891 C470.051,377.9673 458.6952,380.6312 449.6155,366.5343 C439.3762,381.8863 425.9031,381.3907 416.8284,365.3192 C409.9163,379.0384 400.0666,380.132 390.6514,367.838 C381.9917,383.9337 367.0254,379.3857 359.7042,366.413 C351.3014,378.2594 339.0735,380.5858 331.1779,365.8684 C321.5228,375.4341 313.2876,373.8791 306.8472,362.1888 C295.5023,377.5242 283.2653,378.4848 273.7066,360.4168 C266.2975,373.5735 254.4928,372.4078 246.2973,361.3052 C230.799,374.778 211.6484,370.375 209,347.9531 C212.348,346.3604 213.9256,347.9493 213.9207,351.2944 C191.2165,336.2402 184.2415,320.9878 208.0298,300.5376 C179.3088,278.4222 187.9077,251.9471 216,236.9531 C217.5576,234.0734 219.8539,234.2988 221.3406,237.0207 " fill="#FFFFFF" style="stroke: #000000; stroke-width: 1.5;"/><text fill="#000000" font-family="sans-serif" font-size="14" font-weight="bold" lengthAdjust="spacingAndGlyphs" textLength="62" x="385.5" y="254.9482">Intranet</text><!--entity VCServer--><path d="M650,90.4531 C650,80.4531 699,80.4531 699,80.4531 C699,80.4531 748,80.4531 748,90.4531 L748,115.75 C748,125.75 699,125.75 699,125.75 C699,125.75 650,125.75 650,115.75 L650,90.4531 " fill="#FEFECE" filter="url(#fhjvxo2cnzsxh)" style="stroke: #000000; stroke-width: 1.5;"/><path d="M650,90.4531 C650,100.4531 699,100.4531 699,100.4531 C699,100.4531 748,100.4531 748,90.4531 " fill="none" style="stroke: #000000; stroke-width: 1.5;"/><text fill="#000000" font-family="sans-serif" font-size="14" lengthAdjust="spacingAndGlyphs" textLength="78" x="660" y="117.4482">github.com</text><!--entity PackageServer--><path d="M519,90.4531 C519,80.4531 567,80.4531 567,80.4531 C567,80.4531 615,80.4531 615,90.4531 L615,115.75 C615,125.75 567,125.75 567,125.75 C567,125.75 519,125.75 519,115.75 L519,90.4531 " fill="#FEFECE" filter="url(#fhjvxo2cnzsxh)" style="stroke: #000000; stroke-width: 1.5;"/><path d="M519,90.4531 C519,100.4531 567,100.4531 567,100.4531 C567,100.4531 615,100.4531 615,90.4531 " fill="none" style="stroke: #000000; stroke-width: 1.5;"/><text fill="#000000" font-family="sans-serif" font-size="14" lengthAdjust="spacingAndGlyphs" textLength="76" x="529" y="117.4482">npmjs.com</text><!--entity CICDServer--><polygon fill="#FEFECE" filter="url(#fhjvxo2cnzsxh)" points="358,89.9531,368,79.9531,484,79.9531,484,116.25,474,126.25,358,126.25,358,89.9531" style="stroke: #000000; stroke-width: 1.5;"/><line style="stroke: #000000; stroke-width: 1.5;" x1="474" x2="483" y1="89.9531" y2="80.9531"/><line style="stroke: #000000; stroke-width: 1.5;" x1="358" x2="474" y1="89.9531" y2="89.9531"/><line style="stroke: #000000; stroke-width: 1.5;" x1="474" x2="474" y1="89.9531" y2="126.25"/><text fill="#000000" font-family="sans-serif" font-size="14" lengthAdjust="spacingAndGlyphs" textLength="86" x="373" y="112.9482">travis-ci.com</text><!--entity ContainerServer--><path d="M189.5,90.4531 C189.5,80.4531 256,80.4531 256,80.4531 C256,80.4531 322.5,80.4531 322.5,90.4531 L322.5,115.75 C322.5,125.75 256,125.75 256,125.75 C256,125.75 189.5,125.75 189.5,115.75 L189.5,90.4531 " fill="#FEFECE" filter="url(#fhjvxo2cnzsxh)" style="stroke: #000000; stroke-width: 1.5;"/><path d="M189.5,90.4531 C189.5,100.4531 256,100.4531 256,100.4531 C256,100.4531 322.5,100.4531 322.5,90.4531 " fill="none" style="stroke: #000000; stroke-width: 1.5;"/><text fill="#000000" font-family="sans-serif" font-size="14" lengthAdjust="spacingAndGlyphs" textLength="113" x="199.5" y="117.4482">hub.docker.com</text><!--entity CoverageServer--><polygon fill="#FEFECE" filter="url(#fhjvxo2cnzsxh)" points="38,89.9531,48,79.9531,154,79.9531,154,116.25,144,126.25,38,126.25,38,89.9531" style="stroke: #000000; stroke-width: 1.5;"/><line style="stroke: #000000; stroke-width: 1.5;" x1="144" x2="153" y1="89.9531" y2="80.9531"/><line style="stroke: #000000; stroke-width: 1.5;" x1="38" x2="144" y1="89.9531" y2="89.9531"/><line style="stroke: #000000; stroke-width: 1.5;" x1="144" x2="144" y1="89.9531" y2="126.25"/><text fill="#000000" font-family="sans-serif" font-size="14" lengthAdjust="spacingAndGlyphs" textLength="76" x="53" y="112.9482">coveralls.io</text><!--entity Producer--><ellipse cx="584" cy="273.9531" fill="#FEFECE" filter="url(#fhjvxo2cnzsxh)" rx="8" ry="8" style="stroke: #A80036; stroke-width: 2.0;"/><path d="M584,281.9531 L584,308.9531 M571,289.9531 L597,289.9531 M584,308.9531 L571,323.9531 M584,308.9531 L597,323.9531 " fill="none" filter="url(#fhjvxo2cnzsxh)" style="stroke: #A80036; stroke-width: 2.0;"/><text fill="#000000" font-family="sans-serif" font-size="14" lengthAdjust="spacingAndGlyphs" textLength="63" x="552.5" y="343.9482">Producer</text><!--entity IntraPackageServer--><path d="M324.5,292.9531 C324.5,282.9531 421,282.9531 421,282.9531 C421,282.9531 517.5,282.9531 517.5,292.9531 L517.5,318.25 C517.5,328.25 421,328.25 421,328.25 C421,328.25 324.5,328.25 324.5,318.25 L324.5,292.9531 " fill="#FEFECE" filter="url(#fhjvxo2cnzsxh)" style="stroke: #000000; stroke-width: 1.5;"/><path d="M324.5,292.9531 C324.5,302.9531 421,302.9531 421,302.9531 C421,302.9531 517.5,302.9531 517.5,292.9531 " fill="none" style="stroke: #000000; stroke-width: 1.5;"/><text fill="#000000" font-family="sans-serif" font-size="14" lengthAdjust="spacingAndGlyphs" textLength="173" x="334.5" y="319.9482">mycompany.com/registry</text><!--entity Consumer--><ellipse cx="253" cy="273.9531" fill="#FEFECE" filter="url(#fhjvxo2cnzsxh)" rx="8" ry="8" style="stroke: #A80036; stroke-width: 2.0;"/><path d="M253,281.9531 L253,308.9531 M240,289.9531 L266,289.9531 M253,308.9531 L240,323.9531 M253,308.9531 L266,323.9531 " fill="none" filter="url(#fhjvxo2cnzsxh)" style="stroke: #A80036; stroke-width: 2.0;"/><text fill="#000000" font-family="sans-serif" font-size="14" lengthAdjust="spacingAndGlyphs" textLength="72" x="217" y="343.9482">Consumer</text><!--entity Ethernet--><ellipse cx="421" cy="194.9531" fill="#FEFECE" filter="url(#fhjvxo2cnzsxh)" rx="8" ry="8" style="stroke: #A80036; stroke-width: 2.0;"/><text fill="#000000" font-family="sans-serif" font-size="14" lengthAdjust="spacingAndGlyphs" textLength="60" x="391" y="224.9482">Ethernet</text><!--link VCServer to Ethernet--><path d="M673.169,125.6061 C661.538,134.3581 647.239,143.8211 633,149.9531 C566.045,178.7891 478.867,189.1861 440.533,192.5331 " fill="none" id="VCServer-Ethernet" style="stroke: #A80036; stroke-width: 1.0;"/><path d="M434.027,201.5415 A9,9 0 0 0 432.6715 184.6814" fill="none" style="stroke: #A80036; stroke-width: 1.5;"/><!--link CICDServer to Ethernet--><path d="M421,126.2001 C421,141.4801 421,161.5081 421,175.8191 " fill="none" id="CICDServer-Ethernet" style="stroke: #A80036; stroke-width: 1.0;"/><path d="M429.4577,182.7932 A9,9 0 0 0 412.5432 182.7907" fill="none" style="stroke: #A80036; stroke-width: 1.5;"/><!--link ContainerServer to Ethernet--><path d="M295.522,125.5101 C329.525,144.0581 377.043,169.9761 402.747,183.9971 " fill="none" id="ContainerServer-Ethernet" style="stroke: #A80036; stroke-width: 1.0;"/><path d="M413.0946,180.0076 A9,9 0 0 0 404.9948 194.8565" fill="none" style="stroke: #A80036; stroke-width: 1.5;"/><!--link CoverageServer to Ethernet--><path d="M126.833,126.1851 C140.15,134.8201 156.264,144.0371 172,149.9531 C253.679,180.6591 358.638,190.2081 401.481,192.9431 " fill="none" id="CoverageServer-Ethernet" style="stroke: #A80036; stroke-width: 1.0;"/><path d="M409.0508,184.9132 A9,9 0 0 0 408.0673 201.7991" fill="none" style="stroke: #A80036; stroke-width: 1.5;"/><!--link Ethernet to PackageServer--><path d="M439.355,184.7711 C456.005,176.2591 481.073,162.9791 502,149.9531 C514.089,142.4291 526.972,133.5121 538.054,125.5431 " fill="none" id="Ethernet-PackageServer" style="stroke: #A80036; stroke-width: 1.0;"/><path d="M436.7534,195.5671 A9,9 0 0 0 429.1156 180.4752" fill="none" style="stroke: #A80036; stroke-width: 1.5;"/><!--link Ethernet to IntraPackageServer--><path d="M421,214.3711 C421,233.3351 421,262.8661 421,282.9035 " fill="none" id="Ethernet-IntraPackageServer" style="stroke: #A80036; stroke-width: 1.0;"/><path d="M412.5428,207.1863 A9,9 0 0 0 429.4572 207.1863" fill="none" style="stroke: #A80036; stroke-width: 1.5;"/><!--link Ethernet to Producer--><path d="M440.38,195.6411 C464.713,196.1981 506.691,200.3991 535,220.9531 C549.689,231.6181 560.706,248.1461 568.533,263.6911 " fill="none" id="Ethernet-Producer" style="stroke: #A80036; stroke-width: 1.0;"/><path d="M433.3153,204.0706 A9,9 0 0 0 433.383 187.1563" fill="none" style="stroke: #A80036; stroke-width: 1.5;"/><!--link Ethernet to Consumer--><path d="M401.76,195.8381 C377.573,196.6011 335.748,201.0181 307,220.9531 C291.678,231.5781 279.674,248.0991 270.914,263.6511 " fill="none" id="Ethernet-Consumer" style="stroke: #A80036; stroke-width: 1.0;"/><path d="M408.6105,187.289 A9,9 0 0 0 408.8377 204.2019" fill="none" style="stroke: #A80036; stroke-width: 1.5;"/><!--
@startuml devices_network
    title Devices Network

    cloud "Internet" as Internet {
        database "github.com" as VCServer
        database "npmjs.com" as PackageServer
        node "travis-ci.com" as CICDServer
        database "hub.docker.com" as ContainerServer
        node "coveralls.io" as CoverageServer
    }
    cloud "Intranet" as Intranet {
        actor "Producer" as Producer
        database "mycompany.com/registry" as IntraPackageServer
        actor "Consumer" as Consumer
    }
    interface "Ethernet" as Ethernet

    VCServer -( Ethernet
    CICDServer - -( Ethernet
    ContainerServer - -( Ethernet
    CoverageServer - -( Ethernet
    Ethernet )- PackageServer
    Ethernet )- - IntraPackageServer
    Ethernet )- - Producer
    Ethernet )- - Consumer
@enduml

PlantUML version 1.2019.06(Fri May 24 20:10:25 EEST 2019)
(GPL source distribution)
Java Runtime: Java(TM) SE Runtime Environment
JVM: Java HotSpot(TM) 64-Bit Server VM
Java Version: 1.8.0_201-b09
Operating System: Linux
OS Version: 4.15.0-47-generic
Default Encoding: UTF-8
Language: en
Country: US
--></g></svg>