<?xml version="1.0" encoding="UTF-8" standalone="no"?><svg xmlns="http://www.w3.org/2000/svg" xmlns:xlink="http://www.w3.org/1999/xlink" contentScriptType="application/ecmascript" contentStyleType="text/css" height="813px" preserveAspectRatio="none" style="width:873px;height:813px;" version="1.1" viewBox="0 0 873 813" width="873px" zoomAndPan="magnify"><defs><filter height="300%" id="f1vjegureks44b" width="300%" x="-1" y="-1"><feGaussianBlur result="blurOut" stdDeviation="2.0"/><feColorMatrix in="blurOut" result="blurOut2" type="matrix" values="0 0 0 0 0 0 0 0 0 0 0 0 0 0 0 0 0 0 .4 0"/><feOffset dx="4.0" dy="4.0" in="blurOut2" result="blurOut3"/><feBlend in="SourceGraphic" in2="blurOut3" mode="normal"/></filter></defs><g><text fill="#000000" font-family="sans-serif" font-size="18" lengthAdjust="spacingAndGlyphs" textLength="296" x="294.5" y="16.708">Deployment Base Services Graph</text><!--cluster github--><polygon fill="#FFFFFF" filter="url(#f1vjegureks44b)" points="150,54.9531,160,44.9531,476,44.9531,476,136.9531,466,146.9531,150,146.9531,150,54.9531" style="stroke: #000000; stroke-width: 1.5;"/><line style="stroke: #000000; stroke-width: 1.5;" x1="466" x2="475" y1="54.9531" y2="45.9531"/><line style="stroke: #000000; stroke-width: 1.5;" x1="150" x2="466" y1="54.9531" y2="54.9531"/><line style="stroke: #000000; stroke-width: 1.5;" x1="466" x2="466" y1="54.9531" y2="146.9531"/><text fill="#000000" font-family="sans-serif" font-size="14" font-weight="bold" lengthAdjust="spacingAndGlyphs" textLength="88" x="265" y="70.9482">github.com</text><!--cluster npmjs--><polygon fill="#FFFFFF" filter="url(#f1vjegureks44b)" points="514,308.9531,524,298.9531,851,298.9531,851,390.9531,841,400.9531,514,400.9531,514,308.9531" style="stroke: #000000; stroke-width: 1.5;"/><line style="stroke: #000000; stroke-width: 1.5;" x1="841" x2="850" y1="308.9531" y2="299.9531"/><line style="stroke: #000000; stroke-width: 1.5;" x1="514" x2="841" y1="308.9531" y2="308.9531"/><line style="stroke: #000000; stroke-width: 1.5;" x1="841" x2="841" y1="308.9531" y2="400.9531"/><text fill="#000000" font-family="sans-serif" font-size="14" font-weight="bold" lengthAdjust="spacingAndGlyphs" textLength="85" x="636" y="324.9482">npmjs.com</text><!--cluster CiCdServer--><polygon fill="#FFFFFF" filter="url(#f1vjegureks44b)" points="313,308.9531,323,298.9531,490,298.9531,490,390.9531,480,400.9531,313,400.9531,313,308.9531" style="stroke: #000000; stroke-width: 1.5;"/><line style="stroke: #000000; stroke-width: 1.5;" x1="480" x2="489" y1="308.9531" y2="299.9531"/><line style="stroke: #000000; stroke-width: 1.5;" x1="313" x2="480" y1="308.9531" y2="308.9531"/><line style="stroke: #000000; stroke-width: 1.5;" x1="480" x2="480" y1="308.9531" y2="400.9531"/><text fill="#000000" font-family="sans-serif" font-size="14" font-weight="bold" lengthAdjust="spacingAndGlyphs" textLength="101" x="347" y="324.9482">travis-ci.com</text><!--cluster Producer--><polygon fill="#FFFFFF" filter="url(#f1vjegureks44b)" points="22,443.9531,32,433.9531,386,433.9531,386,670.9531,376,680.9531,22,680.9531,22,443.9531" style="stroke: #000000; stroke-width: 1.5;"/><line style="stroke: #000000; stroke-width: 1.5;" x1="376" x2="385" y1="443.9531" y2="434.9531"/><line style="stroke: #000000; stroke-width: 1.5;" x1="22" x2="376" y1="443.9531" y2="443.9531"/><line style="stroke: #000000; stroke-width: 1.5;" x1="376" x2="376" y1="443.9531" y2="680.9531"/><text fill="#000000" font-family="sans-serif" font-size="14" font-weight="bold" lengthAdjust="spacingAndGlyphs" textLength="73" x="163.5" y="459.9482">Producer</text><!--cluster Consumer--><polygon fill="#FFFFFF" filter="url(#f1vjegureks44b)" points="523,582.9531,533,572.9531,817,572.9531,817,791.9531,807,801.9531,523,801.9531,523,582.9531" style="stroke: #000000; stroke-width: 1.5;"/><line style="stroke: #000000; stroke-width: 1.5;" x1="807" x2="816" y1="582.9531" y2="573.9531"/><line style="stroke: #000000; stroke-width: 1.5;" x1="523" x2="807" y1="582.9531" y2="582.9531"/><line style="stroke: #000000; stroke-width: 1.5;" x1="807" x2="807" y1="582.9531" y2="801.9531"/><text fill="#000000" font-family="sans-serif" font-size="14" font-weight="bold" lengthAdjust="spacingAndGlyphs" textLength="81" x="625.5" y="598.9482">Consumer</text><!--entity GitRepo--><a href="https://github.com/imazzine/cli/tree/0.0.0" target="_top" xlink:actuate="onRequest" xlink:show="new" xlink:title="https://github.com/imazzine/cli/tree/0.0.0" xlink:type="simple"><path d="M166.5,95.4531 C166.5,85.4531 225,85.4531 225,85.4531 C225,85.4531 283.5,85.4531 283.5,95.4531 L283.5,120.75 C283.5,130.75 225,130.75 225,130.75 C225,130.75 166.5,130.75 166.5,120.75 L166.5,95.4531 " fill="#FEFECE" filter="url(#f1vjegureks44b)" style="stroke: #000000; stroke-width: 1.5;"/><path d="M166.5,95.4531 C166.5,105.4531 225,105.4531 225,105.4531 C225,105.4531 283.5,105.4531 283.5,95.4531 " fill="none" style="stroke: #000000; stroke-width: 1.5;"/><text fill="#000000" font-family="sans-serif" font-size="14" lengthAdjust="spacingAndGlyphs" textLength="97" x="176.5" y="122.4482">Git Repository</text></a><!--entity GitServer--><polygon fill="#FEFECE" filter="url(#f1vjegureks44b)" points="353.5,94.9531,363.5,84.9531,460.5,84.9531,460.5,121.25,450.5,131.25,353.5,131.25,353.5,94.9531" style="stroke: #000000; stroke-width: 1.5;"/><line style="stroke: #000000; stroke-width: 1.5;" x1="450.5" x2="459.5" y1="94.9531" y2="85.9531"/><line style="stroke: #000000; stroke-width: 1.5;" x1="353.5" x2="450.5" y1="94.9531" y2="94.9531"/><line style="stroke: #000000; stroke-width: 1.5;" x1="450.5" x2="450.5" y1="94.9531" y2="131.25"/><text fill="#000000" font-family="sans-serif" font-size="14" lengthAdjust="spacingAndGlyphs" textLength="67" x="368.5" y="117.9482">Git Server</text><!--entity NpmService--><polygon fill="#FEFECE" filter="url(#f1vjegureks44b)" points="530,348.9531,540,338.9531,650,338.9531,650,375.25,640,385.25,530,385.25,530,348.9531" style="stroke: #000000; stroke-width: 1.5;"/><line style="stroke: #000000; stroke-width: 1.5;" x1="640" x2="649" y1="348.9531" y2="339.9531"/><line style="stroke: #000000; stroke-width: 1.5;" x1="530" x2="640" y1="348.9531" y2="348.9531"/><line style="stroke: #000000; stroke-width: 1.5;" x1="640" x2="640" y1="348.9531" y2="385.25"/><text fill="#000000" font-family="sans-serif" font-size="14" lengthAdjust="spacingAndGlyphs" textLength="80" x="545" y="371.9482">Npm Server</text><!--entity NpmPackage--><a href="https://www.npmjs.com/package/@imazzine/cli/v/0.0.0" target="_top" xlink:actuate="onRequest" xlink:show="new" xlink:title="https://www.npmjs.com/package/@imazzine/cli/v/0.0.0" xlink:type="simple"><path d="M719.5,349.4531 C719.5,339.4531 777,339.4531 777,339.4531 C777,339.4531 834.5,339.4531 834.5,349.4531 L834.5,374.75 C834.5,384.75 777,384.75 777,384.75 C777,384.75 719.5,384.75 719.5,374.75 L719.5,349.4531 " fill="#FEFECE" filter="url(#f1vjegureks44b)" style="stroke: #000000; stroke-width: 1.5;"/><path d="M719.5,349.4531 C719.5,359.4531 777,359.4531 777,359.4531 C777,359.4531 834.5,359.4531 834.5,349.4531 " fill="none" style="stroke: #000000; stroke-width: 1.5;"/><text fill="#000000" font-family="sans-serif" font-size="14" lengthAdjust="spacingAndGlyphs" textLength="95" x="729.5" y="376.4482">Npm Package</text></a><!--entity CiCdService--><a href="https://travis-ci.com/imazzine/cli" target="_top" xlink:actuate="onRequest" xlink:show="new" xlink:title="https://travis-ci.com/imazzine/cli" xlink:type="simple"><polygon fill="#FEFECE" filter="url(#f1vjegureks44b)" points="340.5,348.9531,350.5,338.9531,473.5,338.9531,473.5,375.25,463.5,385.25,340.5,385.25,340.5,348.9531" style="stroke: #000000; stroke-width: 1.5;"/><line style="stroke: #000000; stroke-width: 1.5;" x1="463.5" x2="472.5" y1="348.9531" y2="339.9531"/><line style="stroke: #000000; stroke-width: 1.5;" x1="340.5" x2="463.5" y1="348.9531" y2="348.9531"/><line style="stroke: #000000; stroke-width: 1.5;" x1="463.5" x2="463.5" y1="348.9531" y2="385.25"/><text fill="#000000" font-family="sans-serif" font-size="14" lengthAdjust="spacingAndGlyphs" textLength="93" x="355.5" y="371.9482">CI/CD Service</text></a><!--entity GitClient--><a href="https://git-scm.com/downloads" target="_top" xlink:actuate="onRequest" xlink:show="new" xlink:title="https://git-scm.com/downloads" xlink:type="simple"><polygon fill="#FEFECE" filter="url(#f1vjegureks44b)" points="38,483.9531,48,473.9531,144,473.9531,144,510.25,134,520.25,38,520.25,38,483.9531" style="stroke: #000000; stroke-width: 1.5;"/><line style="stroke: #000000; stroke-width: 1.5;" x1="134" x2="143" y1="483.9531" y2="474.9531"/><line style="stroke: #000000; stroke-width: 1.5;" x1="38" x2="134" y1="483.9531" y2="483.9531"/><line style="stroke: #000000; stroke-width: 1.5;" x1="134" x2="134" y1="483.9531" y2="520.25"/><text fill="#000000" font-family="sans-serif" font-size="14" lengthAdjust="spacingAndGlyphs" textLength="66" x="53" y="506.9482">GIT Client</text></a><!--entity GitCli--><a href="https://git-scm.com/book/en/v2/Getting-Started-The-Command-Line" target="_top" xlink:actuate="onRequest" xlink:show="new" xlink:title="https://git-scm.com/book/en/v2/Getting-Started-The-Command-Line" xlink:type="simple"><ellipse cx="69" cy="635.9531" fill="#FEFECE" filter="url(#f1vjegureks44b)" rx="8" ry="8" style="stroke: #A80036; stroke-width: 2.0;"/><text fill="#000000" font-family="sans-serif" font-size="14" lengthAdjust="spacingAndGlyphs" textLength="47" x="45.5" y="665.9482">GIT CLI</text></a><!--entity Sources--><a href="https://github.com/imazzine/cli/tree/0.0.0" target="_top" xlink:actuate="onRequest" xlink:show="new" xlink:title="https://github.com/imazzine/cli/tree/0.0.0" xlink:type="simple"><polygon fill="#FEFECE" filter="url(#f1vjegureks44b)" points="179,478.9531,179,515.25,279,515.25,279,488.9531,269,478.9531,179,478.9531" style="stroke: #000000; stroke-width: 1.5;"/><path d="M269,478.9531 L269,488.9531 L279,488.9531 " fill="#FEFECE" style="stroke: #000000; stroke-width: 1.5;"/><text fill="#000000" font-family="sans-serif" font-size="14" lengthAdjust="spacingAndGlyphs" textLength="80" x="189" y="501.9482">Source files</text></a><!--entity CiCdConf--><a href="https://github.com/imazzine/cli/blob/0.0.0/.travis.yml" target="_top" xlink:actuate="onRequest" xlink:show="new" xlink:title="https://github.com/imazzine/cli/blob/0.0.0/.travis.yml" xlink:type="simple"><polygon fill="#FEFECE" filter="url(#f1vjegureks44b)" points="135.5,617.9531,135.5,654.25,222.5,654.25,222.5,627.9531,212.5,617.9531,135.5,617.9531" style="stroke: #000000; stroke-width: 1.5;"/><path d="M212.5,617.9531 L212.5,627.9531 L222.5,627.9531 " fill="#FEFECE" style="stroke: #000000; stroke-width: 1.5;"/><text fill="#000000" font-family="sans-serif" font-size="14" lengthAdjust="spacingAndGlyphs" textLength="67" x="145.5" y="640.9482">.travis.yml</text></a><!--entity NpmConfig--><a href="https://github.com/imazzine/cli/blob/0.0.0/package.json" target="_top" xlink:actuate="onRequest" xlink:show="new" xlink:title="https://github.com/imazzine/cli/blob/0.0.0/package.json" xlink:type="simple"><polygon fill="#FEFECE" filter="url(#f1vjegureks44b)" points="258,617.9531,258,654.25,370,654.25,370,627.9531,360,617.9531,258,617.9531" style="stroke: #000000; stroke-width: 1.5;"/><path d="M360,617.9531 L360,627.9531 L370,627.9531 " fill="#FEFECE" style="stroke: #000000; stroke-width: 1.5;"/><text fill="#000000" font-family="sans-serif" font-size="14" lengthAdjust="spacingAndGlyphs" textLength="92" x="268" y="640.9482">package.json</text></a><!--entity NpmClient--><a href="https://www.npmjs.com/get-npm" target="_top" xlink:actuate="onRequest" xlink:show="new" xlink:title="https://www.npmjs.com/get-npm" xlink:type="simple"><polygon fill="#FEFECE" filter="url(#f1vjegureks44b)" points="539,622.9531,549,612.9531,653,612.9531,653,649.25,643,659.25,539,659.25,539,622.9531" style="stroke: #000000; stroke-width: 1.5;"/><line style="stroke: #000000; stroke-width: 1.5;" x1="643" x2="652" y1="622.9531" y2="613.9531"/><line style="stroke: #000000; stroke-width: 1.5;" x1="539" x2="643" y1="622.9531" y2="622.9531"/><line style="stroke: #000000; stroke-width: 1.5;" x1="643" x2="643" y1="622.9531" y2="659.25"/><text fill="#000000" font-family="sans-serif" font-size="14" lengthAdjust="spacingAndGlyphs" textLength="74" x="554" y="645.9482">NPM Client</text></a><!--entity BIN--><a href="https://docs.npmjs.com/cli-documentation/" target="_top" xlink:actuate="onRequest" xlink:show="new" xlink:title="https://docs.npmjs.com/cli-documentation/" xlink:type="simple"><ellipse cx="596" cy="756.9531" fill="#FEFECE" filter="url(#f1vjegureks44b)" rx="8" ry="8" style="stroke: #A80036; stroke-width: 2.0;"/><text fill="#000000" font-family="sans-serif" font-size="14" lengthAdjust="spacingAndGlyphs" textLength="55" x="568.5" y="786.9482">NPM CLI</text></a><!--entity Binaries--><polygon fill="#FEFECE" filter="url(#f1vjegureks44b)" points="726.5,617.9531,726.5,654.25,801.5,654.25,801.5,627.9531,791.5,617.9531,726.5,617.9531" style="stroke: #000000; stroke-width: 1.5;"/><path d="M791.5,617.9531 L791.5,627.9531 L801.5,627.9531 " fill="#FEFECE" style="stroke: #000000; stroke-width: 1.5;"/><text fill="#000000" font-family="sans-serif" font-size="14" lengthAdjust="spacingAndGlyphs" textLength="55" x="736.5" y="640.9482">Binaries</text><!--entity Webhooks--><a href="https://developer.github.com/webhooks/" target="_top" xlink:actuate="onRequest" xlink:show="new" xlink:title="https://developer.github.com/webhooks/" xlink:type="simple"><ellipse cx="407" cy="222.9531" fill="#FEFECE" filter="url(#f1vjegureks44b)" rx="8" ry="8" style="stroke: #A80036; stroke-width: 2.0;"/><text fill="#000000" font-family="sans-serif" font-size="14" lengthAdjust="spacingAndGlyphs" textLength="74" x="370" y="252.9482">Webhooks</text></a><!--entity GitRestApi--><a href="https://developer.github.com/v3/" target="_top" xlink:actuate="onRequest" xlink:show="new" xlink:title="https://developer.github.com/v3/" xlink:type="simple"><ellipse cx="288" cy="361.9531" fill="#FEFECE" filter="url(#f1vjegureks44b)" rx="8" ry="8" style="stroke: #A80036; stroke-width: 2.0;"/><text fill="#000000" font-family="sans-serif" font-size="14" lengthAdjust="spacingAndGlyphs" textLength="57" x="259.5" y="391.9482">Rest API</text></a><!--entity NpmInterface--><a href="https://docs.npmjs.com/" target="_top" xlink:actuate="onRequest" xlink:show="new" xlink:title="https://docs.npmjs.com/" xlink:type="simple"><ellipse cx="575" cy="496.9531" fill="#FEFECE" filter="url(#f1vjegureks44b)" rx="8" ry="8" style="stroke: #A80036; stroke-width: 2.0;"/><text fill="#000000" font-family="sans-serif" font-size="14" lengthAdjust="spacingAndGlyphs" textLength="96" x="527" y="526.9482">Npm Interface</text></a><!--entity CiCdInterface--><a href="https://docs.travis-ci.com/user/languages/javascript-with-nodejs/" target="_top" xlink:actuate="onRequest" xlink:show="new" xlink:title="https://docs.travis-ci.com/user/languages/javascript-with-nodejs/" xlink:type="simple"><ellipse cx="442" cy="496.9531" fill="#FEFECE" filter="url(#f1vjegureks44b)" rx="8" ry="8" style="stroke: #A80036; stroke-width: 2.0;"/><text fill="#000000" font-family="sans-serif" font-size="14" lengthAdjust="spacingAndGlyphs" textLength="65" x="409.5" y="526.9482">Travis API</text></a><!--reverse link GitRepo to GitServer--><path d="M288.633,107.9531 C309.795,107.9531 333.134,107.9531 353.455,107.9531 " fill="none" id="GitRepo&lt;-GitServer" style="stroke: #A80036; stroke-width: 1.0;"/><polygon fill="#A80036" points="283.588,107.9531,292.588,111.9531,288.588,107.9531,292.588,103.9531,283.588,107.9531" style="stroke: #A80036; stroke-width: 1.0;"/><text fill="#000000" font-family="sans-serif" font-size="13" lengthAdjust="spacingAndGlyphs" textLength="33" x="302" y="101.02">store</text><!--link GitServer to Webhooks--><path d="M407,131.0091 C407,156.3151 407,196.5291 407,213.7201 " fill="none" id="GitServer-Webhooks" style="stroke: #A80036; stroke-width: 1.0;"/><!--link GitServer to GitRestApi--><path d="M387.532,131.0981 C373.871,147.5351 355.976,170.9891 344,193.9531 C314.024,251.4351 295.291,328.2401 289.738,352.9431 " fill="none" id="GitServer-GitRestApi" style="stroke: #A80036; stroke-width: 1.0;"/><!--link NpmService to NpmPackage--><path d="M650.197,361.9531 C670.67,361.9531 693.594,361.9531 714.261,361.9531 " fill="none" id="NpmService-&gt;NpmPackage" style="stroke: #A80036; stroke-width: 1.0;"/><polygon fill="#A80036" points="719.464,361.9531,710.464,357.9531,714.464,361.9531,710.464,365.9531,719.464,361.9531" style="stroke: #A80036; stroke-width: 1.0;"/><text fill="#000000" font-family="sans-serif" font-size="13" lengthAdjust="spacingAndGlyphs" textLength="33" x="668.25" y="355.02">store</text><!--link NpmService to NpmInterface--><path d="M587.489,385.2141 C584.087,415.3851 578.176,467.7911 575.915,487.8371 " fill="none" id="NpmService-NpmInterface" style="stroke: #A80036; stroke-width: 1.0;"/><!--link CiCdService to CiCdInterface--><path d="M412.858,385.2141 C420.798,415.3851 434.589,467.7911 439.864,487.8371 " fill="none" id="CiCdService-CiCdInterface" style="stroke: #A80036; stroke-width: 1.0;"/><!--reverse link Webhooks to CiCdService--><path d="M407,242.3711 C407,267.3901 407,312.0591 407,338.8541 " fill="none" id="Webhooks&lt;-CiCdService" style="stroke: #A80036; stroke-width: 1.0;"/><path d="M398.5428,235.1913 A9,9 0 0 0 415.4572 235.1913" fill="none" style="stroke: #A80036; stroke-width: 1.5;"/><!--reverse link GitRestApi to CiCdService--><path d="M307.34,361.9531 C318.277,361.9531 329.213,361.9531 340.15,361.9531 " fill="none" id="GitRestApi&lt;-CiCdService" style="stroke: #A80036; stroke-width: 1.0;"/><path d="M300.3752,370.4104 A9,9 0 0 0 300.3752 353.4959" fill="none" style="stroke: #A80036; stroke-width: 1.5;"/><!--link CiCdService to NpmInterface--><path d="M441.92,385.1521 C459.476,396.7371 480.826,411.4841 499,425.9531 C521.024,443.4871 544.607,465.8301 559.561,480.4971 " fill="none" id="CiCdService-&gt;NpmInterface" style="stroke: #A80036; stroke-width: 1.0;"/><path d="M570.6757,479.5985 A9,9 0 0 0 558.7783 491.6215" fill="none" style="stroke: #A80036; stroke-width: 1.5;"/><!--link GitClient to GitCli--><path d="M87.4653,519.9641 C82.4853,550.9761 73.6402,606.0571 70.3136,626.7731 " fill="none" id="GitClient-GitCli" style="stroke: #A80036; stroke-width: 1.0;"/><!--reverse link GitRepo to Sources--><path d="M225.36,143.7401 C226.189,223.9841 228.212,419.6881 228.822,478.7801 " fill="none" id="GitRepo&lt;-Sources" style="stroke: #A80036; stroke-width: 1.0;"/><polygon fill="#FFFFFF" points="225.224,130.5891,221.2862,136.6301,225.3479,142.5885,229.2858,136.5475,225.224,130.5891" style="stroke: #A80036; stroke-width: 1.0;"/><text fill="#000000" font-family="sans-serif" font-size="13" lengthAdjust="spacingAndGlyphs" textLength="23" x="199.1936" y="150.733">0..*</text><!--reverse link Sources to CiCdConf--><path d="M218.26,527.3801 C208.225,554.8761 193.584,594.9921 185.31,617.6641 " fill="none" id="Sources&lt;-CiCdConf" style="stroke: #A80036; stroke-width: 1.0;"/><polygon fill="#A80036" points="222.769,515.0271,216.9544,519.2921,218.655,526.2999,224.4696,522.0348,222.769,515.0271" style="stroke: #A80036; stroke-width: 1.0;"/><!--reverse link Sources to NpmConfig--><path d="M246.564,526.2621 C263.636,553.7791 289.015,594.6831 303.273,617.6641 " fill="none" id="Sources&lt;-NpmConfig" style="stroke: #A80036; stroke-width: 1.0;"/><polygon fill="#A80036" points="239.593,515.0271,239.3574,522.2344,245.9196,525.2239,246.1552,518.0166,239.593,515.0271" style="stroke: #A80036; stroke-width: 1.0;"/><!--reverse link GitRestApi to GitClient--><path d="M269.181,370.0311 C243.415,380.2071 196.331,400.5721 161,425.9531 C141.737,439.7911 122.901,459.0511 109.629,473.8661 " fill="none" id="GitRestApi&lt;-GitClient" style="stroke: #A80036; stroke-width: 1.0;"/><path d="M272.9035,359.5271 A9,9 0 0 0 278.9953 375.3064" fill="none" style="stroke: #A80036; stroke-width: 1.5;"/><!--reverse link CiCdInterface to CiCdConf--><path d="M423.915,508.1701 C413.147,513.9531 399.073,520.9971 386,525.9531 C323.197,549.7601 296.994,529.4181 240,564.9531 C218.524,578.3431 200.447,601.6371 189.677,617.6511 " fill="none" id="CiCdInterface&lt;-CiCdConf" style="stroke: #A80036; stroke-width: 1.0;"/><path d="M425.9779,497.3834 A9,9 0 0 0 434.1299 512.2039" fill="none" style="stroke: #A80036; stroke-width: 1.5;"/><!--reverse link NpmInterface to NpmConfig--><path d="M556.81,507.5011 C513.232,530.3751 402.36,588.5731 346.792,617.7411 " fill="none" id="NpmInterface&lt;-NpmConfig" style="stroke: #A80036; stroke-width: 1.0;"/><path d="M559.0551,496.7712 A9,9 0 0 0 566.9157 511.7481" fill="none" style="stroke: #A80036; stroke-width: 1.5;"/><!--reverse link NpmInterface to NpmClient--><path d="M577.771,516.0331 C581.596,540.9851 588.487,585.9381 592.613,612.8541 " fill="none" id="NpmInterface&lt;-NpmClient" style="stroke: #A80036; stroke-width: 1.0;"/><path d="M568.358,510.4375 A9,9 0 0 0 585.0771 507.874" fill="none" style="stroke: #A80036; stroke-width: 1.5;"/><!--link NpmClient to BIN--><path d="M596,659.0571 C596,685.9431 596,729.9603 596,747.9314 " fill="none" id="NpmClient-BIN" style="stroke: #A80036; stroke-width: 1.0;"/><!--reverse link NpmPackage to Binaries--><path d="M775.321,398.0901 C772.502,457.0731 766.921,573.8461 764.823,617.7371 " fill="none" id="NpmPackage&lt;-Binaries" style="stroke: #A80036; stroke-width: 1.0;"/><polygon fill="#FFFFFF" points="775.958,384.7521,771.6757,390.554,775.3843,396.7384,779.6666,390.9365,775.958,384.7521" style="stroke: #A80036; stroke-width: 1.0;"/><text fill="#000000" font-family="sans-serif" font-size="13" lengthAdjust="spacingAndGlyphs" textLength="23" x="749.5873" y="404.9398">0..*</text><!--link NpmClient to Binaries--><path d="M653.346,635.9531 C675.604,635.9531 700.647,635.9531 721.273,635.9531 " fill="none" id="NpmClient-&gt;Binaries" style="stroke: #A80036; stroke-width: 1.0;"/><polygon fill="#A80036" points="726.417,635.9531,717.417,631.9531,721.417,635.9531,717.417,639.9531,726.417,635.9531" style="stroke: #A80036; stroke-width: 1.0;"/><text fill="#000000" font-family="sans-serif" font-size="13" lengthAdjust="spacingAndGlyphs" textLength="37" x="671.25" y="629.02">install</text><!--
@startuml services_graph

    title Deployment Base Services Graph

    node "github.com" as github {
        database "Git Repository" as GitRepo [[https://github.com/imazzine/cli/tree/0.0.0]]
        node "Git Server" as GitServer
        GitRepo <- GitServer: store
    }
    interface "Webhooks" as Webhooks [[https://developer.github.com/webhooks/]]
    interface "Rest API" as GitRestApi [[https://developer.github.com/v3/]]
    GitServer - - Webhooks
    GitServer - - GitRestApi
    
    node "npmjs.com" as npmjs {
        node "Npm Server" as NpmService
        database "Npm Package" as NpmPackage [[https://www.npmjs.com/package/@imazzine/cli/v/0.0.0]]
        NpmService -> NpmPackage: store
    }
    interface "Npm Interface" as NpmInterface [[https://docs.npmjs.com/]]
    NpmService - - NpmInterface

    node "travis-ci.com" as CiCdServer {
        node "CI/CD Service" as CiCdService [[https://travis-ci.com/imazzine/cli]]
    }
    interface "Travis API" as CiCdInterface [[https://docs.travis-ci.com/user/languages/javascript-with-nodejs/]]
    CiCdService - - CiCdInterface
    Webhooks )- - CiCdService
    GitRestApi )- CiCdService
    CiCdService - -( NpmInterface
    
    node "Producer" as Producer {
        node "GIT Client" as GitClient [[https://git-scm.com/downloads]]
        interface "GIT CLI" as GitCli [[https://git-scm.com/book/en/v2/Getting-Started-The-Command-Line]]
        GitClient - - GitCli

        file "Source files" as Sources [[https://github.com/imazzine/cli/tree/0.0.0]]
        file ".travis.yml" as CiCdConf [[https://github.com/imazzine/cli/blob/0.0.0/.travis.yml]]
        file "package.json" as NpmConfig [[https://github.com/imazzine/cli/blob/0.0.0/package.json]]
        GitRepo "0..*" o- - Sources
        Sources *- - CiCdConf
        Sources *- - NpmConfig
        GitRestApi )- - GitClient
        CiCdInterface )- - CiCdConf
        NpmInterface )- - NpmConfig
    }

    node "Consumer" as Consumer {
        node "NPM Client" as NpmClient [[https://www.npmjs.com/get-npm]]
        interface "NPM CLI" as BIN [[https://docs.npmjs.com/cli-documentation/]]
        NpmInterface )- - NpmClient
        NpmClient - - BIN
        file "Binaries" as Binaries
        NpmPackage "0..*" o- - Binaries
        NpmClient -> Binaries: install
    }
@enduml

PlantUML version 1.2019.09(Mon Aug 26 19:19:51 EEST 2019)
(GPL source distribution)
Java Runtime: Java(TM) SE Runtime Environment
JVM: Java HotSpot(TM) 64-Bit Server VM
Java Version: 1.8.0_201-b09
Operating System: Linux
OS Version: 4.15.0-55-generic
Default Encoding: UTF-8
Language: en
Country: US
--></g></svg>