<?xml version="1.0" encoding="UTF-8" standalone="no"?><svg xmlns="http://www.w3.org/2000/svg" xmlns:xlink="http://www.w3.org/1999/xlink" contentScriptType="application/ecmascript" contentStyleType="text/css" height="686px" preserveAspectRatio="none" style="width:1443px;height:686px;" version="1.1" viewBox="0 0 1443 686" width="1443px" zoomAndPan="magnify"><defs><filter height="300%" id="fa1hnqrym7w1f" width="300%" x="-1" y="-1"><feGaussianBlur result="blurOut" stdDeviation="2.0"/><feColorMatrix in="blurOut" result="blurOut2" type="matrix" values="0 0 0 0 0 0 0 0 0 0 0 0 0 0 0 0 0 0 .4 0"/><feOffset dx="4.0" dy="4.0" in="blurOut2" result="blurOut3"/><feBlend in="SourceGraphic" in2="blurOut3" mode="normal"/></filter></defs><g><!--cluster AWSNetwork--><path d="M39.9589,32.7212 C77.5916,-16.8809 111.1773,-14.091 142.1074,39.3646 C170.4781,-9.1879 214.7864,-1.9132 241.4525,41.2117 C260.3148,-1.4123 297.6856,-7.6729 327.2658,29.717 C366.3043,-18.1911 404.5264,-14.0544 432.6632,40.8886 C452.234,-8.7386 485.477,-5.184 517.4295,28.2534 C542.8978,-20.0835 589.1905,-14.2849 612.6376,30.3238 C641.0127,-15.7674 678.6857,-24.8813 714.3615,22.3675 C748.121,-17.5215 778.1089,-7.1306 798.2247,36.1286 C831.446,-4.6374 862.7467,-3.83 893.1871,39.2772 C918.2374,-18.4116 962.5686,-10.0267 994.6687,32.1105 C1025.1207,-8.8397 1052.8766,-8.0676 1085.7891,29.2459 C1114.5901,-11.5419 1157.2377,-14.1846 1181.4116,34.2074 C1214.2476,-11.9664 1259.1965,-6.768 1281.016,45.3689 C1307.762,-1.5131 1339.5324,4.1451 1372,39 C1384.7549,34.9644 1391.7206,43.156 1387.9956,55.2963 C1427.3765,83.6359 1428.3624,126.2329 1378.0024,144.5216 C1418.7435,167.9595 1424.0988,197.8008 1384.6567,227.6567 C1429.2255,261.4003 1424.1532,298.5446 1380.2275,328.3975 C1429.7378,354.0042 1430.0709,384.3134 1389.5912,419.2 C1429.7076,453.6657 1431.3043,485.5717 1380.9093,511.5262 C1416.7646,550.214 1420.5207,581.8644 1365,605 C1374.2854,600.237 1379.2106,605.2657 1379.8338,614.3078 C1343.4839,658.7217 1311.0784,658.0833 1274.1709,614.981 C1242.1196,652.984 1203.7657,664.3022 1175.8516,610.5479 C1155.5592,649.0955 1115.9927,651.9553 1090.2281,616.915 C1065.351,660.2964 1023.0327,653.1313 998.8351,616.1422 C963.5023,667.4495 927.7339,659.7256 893.4203,615.0232 C862.3917,654.1843 832.6378,655.1477 799.119,618.1047 C770.7191,657.756 735.8485,661.5264 706.3326,619.3705 C683.4307,656.4694 641.6086,656.6301 618.5804,619.52 C582.6858,669.6154 541.0675,671.6084 511.3981,613.3614 C496.4198,657.5135 458.2389,667.4818 429.5411,626.5624 C393.4101,674.7824 351.6382,655.1209 330.2387,610.7612 C304.1558,652.7418 265.0257,650.6416 238.1178,611.7004 C211.025,659.1862 170.89,661.7109 141.1204,614.4405 C101.2473,660.4714 53.6107,661.8858 30,598 C31.8832,596.6729 33.4659,597.0065 34.1034,599.3809 C-2.778,568.4246 -2.7441,537.4321 36.7471,508.7024 C-9.4863,486.2496 -11.0872,454.0853 30.3246,424.9144 C-11.8327,400.8657 -26.2764,360.3468 22.4571,328.854 C-30.6422,299.4834 -21.5018,253.7361 27.275,229.2955 C-10.5048,200.726 -8.9542,167.1994 32.7683,143.7342 C-13.9695,104.2666 -25.8336,67.3179 37,32 C38.3208,31.0193 39.3127,30.9345 39.9589,32.7212 " fill="#FFFFFF" style="stroke: #000000; stroke-width: 1.5;"/><text fill="#000000" font-family="sans-serif" font-size="14" font-weight="bold" lengthAdjust="spacingAndGlyphs" textLength="36" x="683" y="49.9951">AWS</text><!--cluster ZooKeeperCluster--><polygon fill="#FFFFFF" filter="url(#fa1hnqrym7w1f)" points="1027,77,1037,67,1356,67,1356,579,1346,589,1027,589,1027,77" style="stroke: #000000; stroke-width: 1.5;"/><line style="stroke: #000000; stroke-width: 1.5;" x1="1346" x2="1355" y1="77" y2="68"/><line style="stroke: #000000; stroke-width: 1.5;" x1="1027" x2="1346" y1="77" y2="77"/><line style="stroke: #000000; stroke-width: 1.5;" x1="1346" x2="1346" y1="77" y2="589"/><text fill="#000000" font-family="sans-serif" font-size="14" font-weight="bold" lengthAdjust="spacingAndGlyphs" textLength="151" x="1112" y="92.9951">ZooKeeper Cluster</text><!--cluster ZooKeeperServer1--><polygon fill="#FFFFFF" filter="url(#fa1hnqrym7w1f)" points="1059,133,1069,123,1324,123,1324,231,1314,241,1059,241,1059,133" style="stroke: #000000; stroke-width: 1.5;"/><line style="stroke: #000000; stroke-width: 1.5;" x1="1314" x2="1323" y1="133" y2="124"/><line style="stroke: #000000; stroke-width: 1.5;" x1="1059" x2="1314" y1="133" y2="133"/><line style="stroke: #000000; stroke-width: 1.5;" x1="1314" x2="1314" y1="133" y2="241"/><text fill="#000000" font-family="sans-serif" font-size="14" font-weight="bold" lengthAdjust="spacingAndGlyphs" textLength="174" x="1100.5" y="148.9951">ZooKeeper Server #1</text><!--cluster ZooKeeperServer2--><polygon fill="#FFFFFF" filter="url(#fa1hnqrym7w1f)" points="1059,291,1069,281,1324,281,1324,389,1314,399,1059,399,1059,291" style="stroke: #000000; stroke-width: 1.5;"/><line style="stroke: #000000; stroke-width: 1.5;" x1="1314" x2="1323" y1="291" y2="282"/><line style="stroke: #000000; stroke-width: 1.5;" x1="1059" x2="1314" y1="291" y2="291"/><line style="stroke: #000000; stroke-width: 1.5;" x1="1314" x2="1314" y1="291" y2="399"/><text fill="#000000" font-family="sans-serif" font-size="14" font-weight="bold" lengthAdjust="spacingAndGlyphs" textLength="174" x="1100.5" y="306.9951">ZooKeeper Server #2</text><!--cluster ZooKeeperServer3--><polygon fill="#FFFFFF" filter="url(#fa1hnqrym7w1f)" points="1059,449,1069,439,1324,439,1324,547,1314,557,1059,557,1059,449" style="stroke: #000000; stroke-width: 1.5;"/><line style="stroke: #000000; stroke-width: 1.5;" x1="1314" x2="1323" y1="449" y2="440"/><line style="stroke: #000000; stroke-width: 1.5;" x1="1059" x2="1314" y1="449" y2="449"/><line style="stroke: #000000; stroke-width: 1.5;" x1="1314" x2="1314" y1="449" y2="557"/><text fill="#000000" font-family="sans-serif" font-size="14" font-weight="bold" lengthAdjust="spacingAndGlyphs" textLength="174" x="1100.5" y="464.9951">ZooKeeper Server #3</text><!--cluster KuduDBCluster--><polygon fill="#FFFFFF" filter="url(#fa1hnqrym7w1f)" points="670,77.5,680,67.5,1003,67.5,1003,578.5,993,588.5,670,588.5,670,77.5" style="stroke: #000000; stroke-width: 1.5;"/><line style="stroke: #000000; stroke-width: 1.5;" x1="993" x2="1002" y1="77.5" y2="68.5"/><line style="stroke: #000000; stroke-width: 1.5;" x1="670" x2="993" y1="77.5" y2="77.5"/><line style="stroke: #000000; stroke-width: 1.5;" x1="993" x2="993" y1="77.5" y2="588.5"/><text fill="#000000" font-family="sans-serif" font-size="14" font-weight="bold" lengthAdjust="spacingAndGlyphs" textLength="124" x="770.5" y="93.4951">KuduDB Cluster</text><!--cluster KuduDBMasterServer--><polygon fill="#FFFFFF" filter="url(#fa1hnqrym7w1f)" points="706,133.5,716,123.5,961,123.5,961,230.5,951,240.5,706,240.5,706,133.5" style="stroke: #000000; stroke-width: 1.5;"/><line style="stroke: #000000; stroke-width: 1.5;" x1="951" x2="960" y1="133.5" y2="124.5"/><line style="stroke: #000000; stroke-width: 1.5;" x1="706" x2="951" y1="133.5" y2="133.5"/><line style="stroke: #000000; stroke-width: 1.5;" x1="951" x2="951" y1="133.5" y2="240.5"/><text fill="#000000" font-family="sans-serif" font-size="14" font-weight="bold" lengthAdjust="spacingAndGlyphs" textLength="179" x="740" y="149.4951">KuduDB Master Server</text><!--cluster KuduDBNodeServer1--><polygon fill="#FFFFFF" filter="url(#fa1hnqrym7w1f)" points="702,291.5,712,281.5,971,281.5,971,388.5,961,398.5,702,398.5,702,291.5" style="stroke: #000000; stroke-width: 1.5;"/><line style="stroke: #000000; stroke-width: 1.5;" x1="961" x2="970" y1="291.5" y2="282.5"/><line style="stroke: #000000; stroke-width: 1.5;" x1="702" x2="961" y1="291.5" y2="291.5"/><line style="stroke: #000000; stroke-width: 1.5;" x1="961" x2="961" y1="291.5" y2="398.5"/><text fill="#000000" font-family="sans-serif" font-size="14" font-weight="bold" lengthAdjust="spacingAndGlyphs" textLength="193" x="736" y="307.4951">KuduDB Node Server #1</text><!--cluster KuduDBNodeServer2--><polygon fill="#FFFFFF" filter="url(#fa1hnqrym7w1f)" points="702,449.5,712,439.5,971,439.5,971,546.5,961,556.5,702,556.5,702,449.5" style="stroke: #000000; stroke-width: 1.5;"/><line style="stroke: #000000; stroke-width: 1.5;" x1="961" x2="970" y1="449.5" y2="440.5"/><line style="stroke: #000000; stroke-width: 1.5;" x1="702" x2="961" y1="449.5" y2="449.5"/><line style="stroke: #000000; stroke-width: 1.5;" x1="961" x2="961" y1="449.5" y2="556.5"/><text fill="#000000" font-family="sans-serif" font-size="14" font-weight="bold" lengthAdjust="spacingAndGlyphs" textLength="193" x="736" y="465.4951">KuduDB Node Server #2</text><!--cluster DrillCluster--><polygon fill="#FFFFFF" filter="url(#fa1hnqrym7w1f)" points="353,77,363,67,646,67,646,579,636,589,353,589,353,77" style="stroke: #000000; stroke-width: 1.5;"/><line style="stroke: #000000; stroke-width: 1.5;" x1="636" x2="645" y1="77" y2="68"/><line style="stroke: #000000; stroke-width: 1.5;" x1="353" x2="636" y1="77" y2="77"/><line style="stroke: #000000; stroke-width: 1.5;" x1="636" x2="636" y1="77" y2="589"/><text fill="#000000" font-family="sans-serif" font-size="14" font-weight="bold" lengthAdjust="spacingAndGlyphs" textLength="92" x="449.5" y="92.9951">Drill Cluster</text><!--cluster DrillServer1--><polygon fill="#FFFFFF" filter="url(#fa1hnqrym7w1f)" points="385,133,395,123,614,123,614,231,604,241,385,241,385,133" style="stroke: #000000; stroke-width: 1.5;"/><line style="stroke: #000000; stroke-width: 1.5;" x1="604" x2="613" y1="133" y2="124"/><line style="stroke: #000000; stroke-width: 1.5;" x1="385" x2="604" y1="133" y2="133"/><line style="stroke: #000000; stroke-width: 1.5;" x1="604" x2="604" y1="133" y2="241"/><text fill="#000000" font-family="sans-serif" font-size="14" font-weight="bold" lengthAdjust="spacingAndGlyphs" textLength="115" x="438" y="148.9951">Drill Server #1</text><!--cluster DrillServer2--><polygon fill="#FFFFFF" filter="url(#fa1hnqrym7w1f)" points="385,291,395,281,614,281,614,389,604,399,385,399,385,291" style="stroke: #000000; stroke-width: 1.5;"/><line style="stroke: #000000; stroke-width: 1.5;" x1="604" x2="613" y1="291" y2="282"/><line style="stroke: #000000; stroke-width: 1.5;" x1="385" x2="604" y1="291" y2="291"/><line style="stroke: #000000; stroke-width: 1.5;" x1="604" x2="604" y1="291" y2="399"/><text fill="#000000" font-family="sans-serif" font-size="14" font-weight="bold" lengthAdjust="spacingAndGlyphs" textLength="115" x="438" y="306.9951">Drill Server #2</text><!--cluster DrillServer3--><polygon fill="#FFFFFF" filter="url(#fa1hnqrym7w1f)" points="385,449,395,439,614,439,614,547,604,557,385,557,385,449" style="stroke: #000000; stroke-width: 1.5;"/><line style="stroke: #000000; stroke-width: 1.5;" x1="604" x2="613" y1="449" y2="440"/><line style="stroke: #000000; stroke-width: 1.5;" x1="385" x2="604" y1="449" y2="449"/><line style="stroke: #000000; stroke-width: 1.5;" x1="604" x2="604" y1="449" y2="557"/><text fill="#000000" font-family="sans-serif" font-size="14" font-weight="bold" lengthAdjust="spacingAndGlyphs" textLength="115" x="438" y="464.9951">Drill Server #3</text><!--cluster RabbitMQCluster--><polygon fill="#FFFFFF" filter="url(#fa1hnqrym7w1f)" points="46,103,56,93,329,93,329,237,319,247,46,247,46,103" style="stroke: #000000; stroke-width: 1.5;"/><line style="stroke: #000000; stroke-width: 1.5;" x1="319" x2="328" y1="103" y2="94"/><line style="stroke: #000000; stroke-width: 1.5;" x1="46" x2="319" y1="103" y2="103"/><line style="stroke: #000000; stroke-width: 1.5;" x1="319" x2="319" y1="103" y2="247"/><text fill="#000000" font-family="sans-serif" font-size="14" font-weight="bold" lengthAdjust="spacingAndGlyphs" textLength="136" x="115.5" y="118.9951">RabbitMQ Cluster</text><!--cluster RabbitMQServer1--><polygon fill="#FFFFFF" filter="url(#fa1hnqrym7w1f)" points="70,151,80,141,305,141,305,213,295,223,70,223,70,151" style="stroke: #000000; stroke-width: 1.5;"/><line style="stroke: #000000; stroke-width: 1.5;" x1="295" x2="304" y1="151" y2="142"/><line style="stroke: #000000; stroke-width: 1.5;" x1="70" x2="295" y1="151" y2="151"/><line style="stroke: #000000; stroke-width: 1.5;" x1="295" x2="295" y1="151" y2="223"/><text fill="#000000" font-family="sans-serif" font-size="14" font-weight="bold" lengthAdjust="spacingAndGlyphs" textLength="159" x="104" y="166.9951">RabbitMQ Server #1</text><!--entity ZooKeeperService1--><polygon fill="#FEFECE" filter="url(#fa1hnqrym7w1f)" points="1102.5,181,1112.5,171,1299.5,171,1299.5,207.2969,1289.5,217.2969,1102.5,217.2969,1102.5,181" style="stroke: #000000; stroke-width: 1.5;"/><line style="stroke: #000000; stroke-width: 1.5;" x1="1289.5" x2="1298.5" y1="181" y2="172"/><line style="stroke: #000000; stroke-width: 1.5;" x1="1102.5" x2="1289.5" y1="181" y2="181"/><line style="stroke: #000000; stroke-width: 1.5;" x1="1289.5" x2="1289.5" y1="181" y2="217.2969"/><text fill="#000000" font-family="sans-serif" font-size="14" lengthAdjust="spacingAndGlyphs" textLength="157" x="1117.5" y="203.9951">ZooKeeper Service #1</text><!--entity ZooKeeperService2--><polygon fill="#FEFECE" filter="url(#fa1hnqrym7w1f)" points="1102.5,339,1112.5,329,1299.5,329,1299.5,365.2969,1289.5,375.2969,1102.5,375.2969,1102.5,339" style="stroke: #000000; stroke-width: 1.5;"/><line style="stroke: #000000; stroke-width: 1.5;" x1="1289.5" x2="1298.5" y1="339" y2="330"/><line style="stroke: #000000; stroke-width: 1.5;" x1="1102.5" x2="1289.5" y1="339" y2="339"/><line style="stroke: #000000; stroke-width: 1.5;" x1="1289.5" x2="1289.5" y1="339" y2="375.2969"/><text fill="#000000" font-family="sans-serif" font-size="14" lengthAdjust="spacingAndGlyphs" textLength="157" x="1117.5" y="361.9951">ZooKeeper Service #2</text><!--entity ZooKeeperService3--><polygon fill="#FEFECE" filter="url(#fa1hnqrym7w1f)" points="1102.5,497,1112.5,487,1299.5,487,1299.5,523.2969,1289.5,533.2969,1102.5,533.2969,1102.5,497" style="stroke: #000000; stroke-width: 1.5;"/><line style="stroke: #000000; stroke-width: 1.5;" x1="1289.5" x2="1298.5" y1="497" y2="488"/><line style="stroke: #000000; stroke-width: 1.5;" x1="1102.5" x2="1289.5" y1="497" y2="497"/><line style="stroke: #000000; stroke-width: 1.5;" x1="1289.5" x2="1289.5" y1="497" y2="533.2969"/><text fill="#000000" font-family="sans-serif" font-size="14" lengthAdjust="spacingAndGlyphs" textLength="157" x="1117.5" y="519.9951">ZooKeeper Service #3</text><!--entity KuduDBMaster--><path d="M780,181.5 C780,171.5 844,171.5 844,171.5 C844,171.5 908,171.5 908,181.5 L908,206.7969 C908,216.7969 844,216.7969 844,216.7969 C844,216.7969 780,216.7969 780,206.7969 L780,181.5 " fill="#FEFECE" filter="url(#fa1hnqrym7w1f)" style="stroke: #000000; stroke-width: 1.5;"/><path d="M780,181.5 C780,191.5 844,191.5 844,191.5 C844,191.5 908,191.5 908,181.5 " fill="none" style="stroke: #000000; stroke-width: 1.5;"/><text fill="#000000" font-family="sans-serif" font-size="14" lengthAdjust="spacingAndGlyphs" textLength="108" x="790" y="208.4951">KuduDB Master</text><!--entity KuduDBTablet1--><path d="M778.5,339.5 C778.5,329.5 853,329.5 853,329.5 C853,329.5 927.5,329.5 927.5,339.5 L927.5,364.7969 C927.5,374.7969 853,374.7969 853,374.7969 C853,374.7969 778.5,374.7969 778.5,364.7969 L778.5,339.5 " fill="#FEFECE" filter="url(#fa1hnqrym7w1f)" style="stroke: #000000; stroke-width: 1.5;"/><path d="M778.5,339.5 C778.5,349.5 853,349.5 853,349.5 C853,349.5 927.5,349.5 927.5,339.5 " fill="none" style="stroke: #000000; stroke-width: 1.5;"/><text fill="#000000" font-family="sans-serif" font-size="14" lengthAdjust="spacingAndGlyphs" textLength="129" x="788.5" y="366.4951">KuduDB Tablet #1</text><!--entity KuduDBTablet2--><path d="M778.5,497.5 C778.5,487.5 853,487.5 853,487.5 C853,487.5 927.5,487.5 927.5,497.5 L927.5,522.7969 C927.5,532.7969 853,532.7969 853,532.7969 C853,532.7969 778.5,532.7969 778.5,522.7969 L778.5,497.5 " fill="#FEFECE" filter="url(#fa1hnqrym7w1f)" style="stroke: #000000; stroke-width: 1.5;"/><path d="M778.5,497.5 C778.5,507.5 853,507.5 853,507.5 C853,507.5 927.5,507.5 927.5,497.5 " fill="none" style="stroke: #000000; stroke-width: 1.5;"/><text fill="#000000" font-family="sans-serif" font-size="14" lengthAdjust="spacingAndGlyphs" textLength="129" x="788.5" y="524.4951">KuduDB Tablet #2</text><!--entity DrillbitService1--><polygon fill="#FEFECE" filter="url(#fa1hnqrym7w1f)" points="428.5,181,438.5,171,589.5,171,589.5,207.2969,579.5,217.2969,428.5,217.2969,428.5,181" style="stroke: #000000; stroke-width: 1.5;"/><line style="stroke: #000000; stroke-width: 1.5;" x1="579.5" x2="588.5" y1="181" y2="172"/><line style="stroke: #000000; stroke-width: 1.5;" x1="428.5" x2="579.5" y1="181" y2="181"/><line style="stroke: #000000; stroke-width: 1.5;" x1="579.5" x2="579.5" y1="181" y2="217.2969"/><text fill="#000000" font-family="sans-serif" font-size="14" lengthAdjust="spacingAndGlyphs" textLength="121" x="443.5" y="203.9951">Drillbit Service #1</text><!--entity DrillbitService2--><polygon fill="#FEFECE" filter="url(#fa1hnqrym7w1f)" points="428.5,339,438.5,329,589.5,329,589.5,365.2969,579.5,375.2969,428.5,375.2969,428.5,339" style="stroke: #000000; stroke-width: 1.5;"/><line style="stroke: #000000; stroke-width: 1.5;" x1="579.5" x2="588.5" y1="339" y2="330"/><line style="stroke: #000000; stroke-width: 1.5;" x1="428.5" x2="579.5" y1="339" y2="339"/><line style="stroke: #000000; stroke-width: 1.5;" x1="579.5" x2="579.5" y1="339" y2="375.2969"/><text fill="#000000" font-family="sans-serif" font-size="14" lengthAdjust="spacingAndGlyphs" textLength="121" x="443.5" y="361.9951">Drillbit Service #2</text><!--entity DrillbitService3--><polygon fill="#FEFECE" filter="url(#fa1hnqrym7w1f)" points="428.5,497,438.5,487,589.5,487,589.5,523.2969,579.5,533.2969,428.5,533.2969,428.5,497" style="stroke: #000000; stroke-width: 1.5;"/><line style="stroke: #000000; stroke-width: 1.5;" x1="579.5" x2="588.5" y1="497" y2="488"/><line style="stroke: #000000; stroke-width: 1.5;" x1="428.5" x2="579.5" y1="497" y2="497"/><line style="stroke: #000000; stroke-width: 1.5;" x1="579.5" x2="579.5" y1="497" y2="533.2969"/><text fill="#000000" font-family="sans-serif" font-size="14" lengthAdjust="spacingAndGlyphs" textLength="121" x="443.5" y="519.9951">Drillbit Service #3</text><!--entity RabbitMQService--><path d="M121.5,181 L252.5,181 C257.5,181 257.5,194.1484 257.5,194.1484 C257.5,194.1484 257.5,207.2969 252.5,207.2969 L121.5,207.2969 C116.5,207.2969 116.5,194.1484 116.5,194.1484 C116.5,194.1484 116.5,181 121.5,181 " fill="#FEFECE" filter="url(#fa1hnqrym7w1f)" style="stroke: #A80036; stroke-width: 1.5;"/><path d="M252.5,181 C247.5,181 247.5,194.1484 247.5,194.1484 C247.5,207.2969 252.5,207.2969 252.5,207.2969 " fill="none" style="stroke: #A80036; stroke-width: 1.5;"/><text fill="#000000" font-family="sans-serif" font-size="14" lengthAdjust="spacingAndGlyphs" textLength="121" x="121.5" y="198.9951">RabbitMQ Service</text><!--link ZooKeeperServer1 to ZooKeeperServer2--><!--link ZooKeeperServer2 to ZooKeeperServer3--><!--link KuduDBMasterServer to KuduDBNodeServer1--><!--link KuduDBNodeServer1 to KuduDBNodeServer2--><!--link DrillServer1 to DrillServer2--><!--link DrillServer2 to DrillServer3--><!--
@startuml devices_network
    cloud "AWS" as AWSNetwork {
        node "ZooKeeper Cluster" as ZooKeeperCluster {
            node "ZooKeeper Server #1" as ZooKeeperServer1 {
                node "ZooKeeper Service #1" as ZooKeeperService1
            }
            node "ZooKeeper Server #2" as ZooKeeperServer2 {
                node "ZooKeeper Service #2" as ZooKeeperService2
            }
            node "ZooKeeper Server #3" as ZooKeeperServer3 {
                node "ZooKeeper Service #3" as ZooKeeperService3
            }
            ZooKeeperServer1 -[hidden]- ZooKeeperServer2
            ZooKeeperServer2 -[hidden]- ZooKeeperServer3
        }
        node "KuduDB Cluster" as KuduDBCluster {
            node "KuduDB Master Server" as KuduDBMasterServer {
                database "KuduDB Master" as KuduDBMaster
            }
            node "KuduDB Node Server #1" as KuduDBNodeServer1 {
                database "KuduDB Tablet #1" as KuduDBTablet1
            }
            node "KuduDB Node Server #2" as KuduDBNodeServer2 {
                database "KuduDB Tablet #2" as KuduDBTablet2
            }
            KuduDBMasterServer -[hidden]- KuduDBNodeServer1
            KuduDBNodeServer1 -[hidden]- KuduDBNodeServer2
        }
        node "Drill Cluster" as DrillCluster {
            node "Drill Server #1" as DrillServer1 {
                node "Drillbit Service #1" as DrillbitService1
            }
            node "Drill Server #2" as DrillServer2 {
                node "Drillbit Service #2" as DrillbitService2
            }
            node "Drill Server #3" as DrillServer3 {
                node "Drillbit Service #3" as DrillbitService3
            }
            DrillServer1 -[hidden]- DrillServer2
            DrillServer2 -[hidden]- DrillServer3
        }
        node "RabbitMQ Cluster" as RabbitMQCluster {
            node "RabbitMQ Server #1" as RabbitMQServer1 {
                queue "RabbitMQ Service" as RabbitMQService
            }
        }
    }

@enduml

PlantUML version 1.2019.06(Fri May 24 20:10:25 EEST 2019)
(GPL source distribution)
Java Runtime: Java(TM) SE Runtime Environment
JVM: Java HotSpot(TM) 64-Bit Server VM
Java Version: 1.8.0_201-b09
Operating System: Linux
OS Version: 4.15.0-47-generic
Default Encoding: UTF-8
Language: en
Country: US
--></g></svg>