<?xml version="1.0" encoding="UTF-8" standalone="no"?><svg xmlns="http://www.w3.org/2000/svg" xmlns:xlink="http://www.w3.org/1999/xlink" contentScriptType="application/ecmascript" contentStyleType="text/css" height="809px" preserveAspectRatio="none" style="width:982px;height:809px;" version="1.1" viewBox="0 0 982 809" width="982px" zoomAndPan="magnify"><defs><filter height="300%" id="f187gvlhujpwbz" width="300%" x="-1" y="-1"><feGaussianBlur result="blurOut" stdDeviation="2.0"/><feColorMatrix in="blurOut" result="blurOut2" type="matrix" values="0 0 0 0 0 0 0 0 0 0 0 0 0 0 0 0 0 0 .4 0"/><feOffset dx="4.0" dy="4.0" in="blurOut2" result="blurOut3"/><feBlend in="SourceGraphic" in2="blurOut3" mode="normal"/></filter></defs><g><!--cluster VCServer--><polygon fill="#FFFFFF" filter="url(#f187gvlhujpwbz)" points="170,34,180,24,493,24,493,116,483,126,170,126,170,34" style="stroke: #000000; stroke-width: 1.5;"/><line style="stroke: #000000; stroke-width: 1.5;" x1="483" x2="492" y1="34" y2="25"/><line style="stroke: #000000; stroke-width: 1.5;" x1="170" x2="483" y1="34" y2="34"/><line style="stroke: #000000; stroke-width: 1.5;" x1="483" x2="483" y1="34" y2="126"/><text fill="#000000" font-family="sans-serif" font-size="14" font-weight="bold" lengthAdjust="spacingAndGlyphs" textLength="182" x="236.5" y="49.9951">Version Control Server</text><!--cluster PackageServer--><polygon fill="#FFFFFF" filter="url(#f187gvlhujpwbz)" points="561,288,571,278,949,278,949,370,939,380,561,380,561,288" style="stroke: #000000; stroke-width: 1.5;"/><line style="stroke: #000000; stroke-width: 1.5;" x1="939" x2="948" y1="288" y2="279"/><line style="stroke: #000000; stroke-width: 1.5;" x1="561" x2="939" y1="288" y2="288"/><line style="stroke: #000000; stroke-width: 1.5;" x1="939" x2="939" y1="288" y2="380"/><text fill="#000000" font-family="sans-serif" font-size="14" font-weight="bold" lengthAdjust="spacingAndGlyphs" textLength="197" x="652.5" y="303.9951">Package Manager Server</text><!--cluster CICDServer--><polygon fill="#FFFFFF" filter="url(#f187gvlhujpwbz)" points="361,288,371,278,537,278,537,370,527,380,361,380,361,288" style="stroke: #000000; stroke-width: 1.5;"/><line style="stroke: #000000; stroke-width: 1.5;" x1="527" x2="536" y1="288" y2="279"/><line style="stroke: #000000; stroke-width: 1.5;" x1="361" x2="527" y1="288" y2="288"/><line style="stroke: #000000; stroke-width: 1.5;" x1="527" x2="527" y1="288" y2="380"/><text fill="#000000" font-family="sans-serif" font-size="14" font-weight="bold" lengthAdjust="spacingAndGlyphs" textLength="100" x="395" y="303.9951">CI/CD Server</text><!--cluster Producer--><polygon fill="#FFFFFF" filter="url(#f187gvlhujpwbz)" points="22,423,32,413,416,413,416,650,406,660,22,660,22,423" style="stroke: #000000; stroke-width: 1.5;"/><line style="stroke: #000000; stroke-width: 1.5;" x1="406" x2="415" y1="423" y2="414"/><line style="stroke: #000000; stroke-width: 1.5;" x1="22" x2="406" y1="423" y2="423"/><line style="stroke: #000000; stroke-width: 1.5;" x1="406" x2="406" y1="423" y2="660"/><text fill="#000000" font-family="sans-serif" font-size="14" font-weight="bold" lengthAdjust="spacingAndGlyphs" textLength="73" x="178.5" y="438.9951">Producer</text><!--cluster Consumer--><polygon fill="#FFFFFF" filter="url(#f187gvlhujpwbz)" points="577,562,587,552,960,552,960,787,950,797,577,797,577,562" style="stroke: #000000; stroke-width: 1.5;"/><line style="stroke: #000000; stroke-width: 1.5;" x1="950" x2="959" y1="562" y2="553"/><line style="stroke: #000000; stroke-width: 1.5;" x1="577" x2="950" y1="562" y2="562"/><line style="stroke: #000000; stroke-width: 1.5;" x1="950" x2="950" y1="562" y2="797"/><text fill="#000000" font-family="sans-serif" font-size="14" font-weight="bold" lengthAdjust="spacingAndGlyphs" textLength="81" x="724" y="577.9951">Consumer</text><!--entity VCRepo--><path d="M186.5,74.5 C186.5,64.5 245,64.5 245,64.5 C245,64.5 303.5,64.5 303.5,74.5 L303.5,99.7969 C303.5,109.7969 245,109.7969 245,109.7969 C245,109.7969 186.5,109.7969 186.5,99.7969 L186.5,74.5 " fill="#FEFECE" filter="url(#f187gvlhujpwbz)" style="stroke: #000000; stroke-width: 1.5;"/><path d="M186.5,74.5 C186.5,84.5 245,84.5 245,84.5 C245,84.5 303.5,84.5 303.5,74.5 " fill="none" style="stroke: #000000; stroke-width: 1.5;"/><text fill="#000000" font-family="sans-serif" font-size="14" lengthAdjust="spacingAndGlyphs" textLength="97" x="196.5" y="101.4951">VC Repository</text><!--entity VCService--><polygon fill="#FEFECE" filter="url(#f187gvlhujpwbz)" points="363.5,74,373.5,64,476.5,64,476.5,100.2969,466.5,110.2969,363.5,110.2969,363.5,74" style="stroke: #000000; stroke-width: 1.5;"/><line style="stroke: #000000; stroke-width: 1.5;" x1="466.5" x2="475.5" y1="74" y2="65"/><line style="stroke: #000000; stroke-width: 1.5;" x1="363.5" x2="466.5" y1="74" y2="74"/><line style="stroke: #000000; stroke-width: 1.5;" x1="466.5" x2="466.5" y1="74" y2="110.2969"/><text fill="#000000" font-family="sans-serif" font-size="14" lengthAdjust="spacingAndGlyphs" textLength="73" x="378.5" y="96.9951">VC Service</text><!--entity PackageService--><polygon fill="#FEFECE" filter="url(#f187gvlhujpwbz)" points="577.5,328,587.5,318,794.5,318,794.5,354.2969,784.5,364.2969,577.5,364.2969,577.5,328" style="stroke: #000000; stroke-width: 1.5;"/><line style="stroke: #000000; stroke-width: 1.5;" x1="784.5" x2="793.5" y1="328" y2="319"/><line style="stroke: #000000; stroke-width: 1.5;" x1="577.5" x2="784.5" y1="328" y2="328"/><line style="stroke: #000000; stroke-width: 1.5;" x1="784.5" x2="784.5" y1="328" y2="364.2969"/><text fill="#000000" font-family="sans-serif" font-size="14" lengthAdjust="spacingAndGlyphs" textLength="177" x="592.5" y="350.9951">Package Manager Service</text><!--entity PackagePackage--><path d="M854.5,328.5 C854.5,318.5 894,318.5 894,318.5 C894,318.5 933.5,318.5 933.5,328.5 L933.5,353.7969 C933.5,363.7969 894,363.7969 894,363.7969 C894,363.7969 854.5,363.7969 854.5,353.7969 L854.5,328.5 " fill="#FEFECE" filter="url(#f187gvlhujpwbz)" style="stroke: #000000; stroke-width: 1.5;"/><path d="M854.5,328.5 C854.5,338.5 894,338.5 894,338.5 C894,338.5 933.5,338.5 933.5,328.5 " fill="none" style="stroke: #000000; stroke-width: 1.5;"/><text fill="#000000" font-family="sans-serif" font-size="14" lengthAdjust="spacingAndGlyphs" textLength="59" x="864.5" y="355.4951">Package</text><!--entity CICDService--><polygon fill="#FEFECE" filter="url(#f187gvlhujpwbz)" points="383.5,328,393.5,318,516.5,318,516.5,354.2969,506.5,364.2969,383.5,364.2969,383.5,328" style="stroke: #000000; stroke-width: 1.5;"/><line style="stroke: #000000; stroke-width: 1.5;" x1="506.5" x2="515.5" y1="328" y2="319"/><line style="stroke: #000000; stroke-width: 1.5;" x1="383.5" x2="506.5" y1="328" y2="328"/><line style="stroke: #000000; stroke-width: 1.5;" x1="506.5" x2="506.5" y1="328" y2="364.2969"/><text fill="#000000" font-family="sans-serif" font-size="14" lengthAdjust="spacingAndGlyphs" textLength="93" x="398.5" y="350.9951">CI/CD Service</text><!--entity VCClient--><polygon fill="#FEFECE" filter="url(#f187gvlhujpwbz)" points="48,463,58,453,150,453,150,489.2969,140,499.2969,48,499.2969,48,463" style="stroke: #000000; stroke-width: 1.5;"/><line style="stroke: #000000; stroke-width: 1.5;" x1="140" x2="149" y1="463" y2="454"/><line style="stroke: #000000; stroke-width: 1.5;" x1="48" x2="140" y1="463" y2="463"/><line style="stroke: #000000; stroke-width: 1.5;" x1="140" x2="140" y1="463" y2="499.2969"/><text fill="#000000" font-family="sans-serif" font-size="14" lengthAdjust="spacingAndGlyphs" textLength="62" x="63" y="485.9951">VC Client</text><!--entity VC_CLI--><ellipse cx="67" cy="615" fill="#FEFECE" filter="url(#f187gvlhujpwbz)" rx="8" ry="8" style="stroke: #A80036; stroke-width: 2.0;"/><text fill="#000000" font-family="sans-serif" font-size="14" lengthAdjust="spacingAndGlyphs" textLength="43" x="45.5" y="644.9951">VC CLI</text><!--entity Sources--><polygon fill="#FEFECE" filter="url(#f187gvlhujpwbz)" points="195,458,195,494.2969,295,494.2969,295,468,285,458,195,458" style="stroke: #000000; stroke-width: 1.5;"/><path d="M285,458 L285,468 L295,468 " fill="#FEFECE" style="stroke: #000000; stroke-width: 1.5;"/><text fill="#000000" font-family="sans-serif" font-size="14" lengthAdjust="spacingAndGlyphs" textLength="80" x="205" y="480.9951">Source files</text><!--entity CICDConf--><polygon fill="#FEFECE" filter="url(#f187gvlhujpwbz)" points="130.5,597,130.5,633.2969,237.5,633.2969,237.5,607,227.5,597,130.5,597" style="stroke: #000000; stroke-width: 1.5;"/><path d="M227.5,597 L227.5,607 L237.5,607 " fill="#FEFECE" style="stroke: #000000; stroke-width: 1.5;"/><text fill="#000000" font-family="sans-serif" font-size="14" lengthAdjust="spacingAndGlyphs" textLength="87" x="140.5" y="619.9951">CI/CD Config</text><!--entity PackageConfig--><polygon fill="#FEFECE" filter="url(#f187gvlhujpwbz)" points="272.5,597,272.5,633.2969,399.5,633.2969,399.5,607,389.5,597,272.5,597" style="stroke: #000000; stroke-width: 1.5;"/><path d="M389.5,597 L389.5,607 L399.5,607 " fill="#FEFECE" style="stroke: #000000; stroke-width: 1.5;"/><text fill="#000000" font-family="sans-serif" font-size="14" lengthAdjust="spacingAndGlyphs" textLength="107" x="282.5" y="619.9951">Package Config</text><!--entity PackageClientC--><polygon fill="#FEFECE" filter="url(#f187gvlhujpwbz)" points="593,602,603,592,799,592,799,628.2969,789,638.2969,593,638.2969,593,602" style="stroke: #000000; stroke-width: 1.5;"/><line style="stroke: #000000; stroke-width: 1.5;" x1="789" x2="798" y1="602" y2="593"/><line style="stroke: #000000; stroke-width: 1.5;" x1="593" x2="789" y1="602" y2="602"/><line style="stroke: #000000; stroke-width: 1.5;" x1="789" x2="789" y1="602" y2="638.2969"/><text fill="#000000" font-family="sans-serif" font-size="14" lengthAdjust="spacingAndGlyphs" textLength="166" x="608" y="624.9951">Package Manager Client</text><!--entity Package_CLI_C--><ellipse cx="674" cy="752" fill="#FEFECE" filter="url(#f187gvlhujpwbz)" rx="8" ry="8" style="stroke: #A80036; stroke-width: 2.0;"/><text fill="#000000" font-family="sans-serif" font-size="14" lengthAdjust="spacingAndGlyphs" textLength="147" x="600.5" y="781.9951">Package Manager CLI</text><!--entity PackageRunner--><polygon fill="#FEFECE" filter="url(#f187gvlhujpwbz)" points="790,739,800,729,944,729,944,765.2969,934,775.2969,790,775.2969,790,739" style="stroke: #000000; stroke-width: 1.5;"/><line style="stroke: #000000; stroke-width: 1.5;" x1="934" x2="943" y1="739" y2="730"/><line style="stroke: #000000; stroke-width: 1.5;" x1="790" x2="934" y1="739" y2="739"/><line style="stroke: #000000; stroke-width: 1.5;" x1="934" x2="934" y1="739" y2="775.2969"/><text fill="#000000" font-family="sans-serif" font-size="14" lengthAdjust="spacingAndGlyphs" textLength="114" x="805" y="761.9951">Package Runner</text><!--entity Binaries--><polygon fill="#FEFECE" filter="url(#f187gvlhujpwbz)" points="850.5,597,850.5,633.2969,925.5,633.2969,925.5,607,915.5,597,850.5,597" style="stroke: #000000; stroke-width: 1.5;"/><path d="M915.5,597 L915.5,607 L925.5,607 " fill="#FEFECE" style="stroke: #000000; stroke-width: 1.5;"/><text fill="#000000" font-family="sans-serif" font-size="14" lengthAdjust="spacingAndGlyphs" textLength="55" x="860.5" y="619.9951">Binaries</text><!--entity VCServiceAPI--><ellipse cx="446" cy="202" fill="#FEFECE" filter="url(#f187gvlhujpwbz)" rx="8" ry="8" style="stroke: #A80036; stroke-width: 2.0;"/><text fill="#000000" font-family="sans-serif" font-size="14" lengthAdjust="spacingAndGlyphs" textLength="98" x="397" y="231.9951">VC Service API</text><!--entity VCInterface--><ellipse cx="336" cy="341" fill="#FEFECE" filter="url(#f187gvlhujpwbz)" rx="8" ry="8" style="stroke: #A80036; stroke-width: 2.0;"/><text fill="#000000" font-family="sans-serif" font-size="14" lengthAdjust="spacingAndGlyphs" textLength="83" x="294.5" y="370.9951">VC Interface</text><!--entity PackageInterface--><ellipse cx="686" cy="476" fill="#FEFECE" filter="url(#f187gvlhujpwbz)" rx="8" ry="8" style="stroke: #A80036; stroke-width: 2.0;"/><text fill="#000000" font-family="sans-serif" font-size="14" lengthAdjust="spacingAndGlyphs" textLength="187" x="592.5" y="505.9951">Package Manager Interface</text><!--entity CICDInterface--><ellipse cx="491" cy="476" fill="#FEFECE" filter="url(#f187gvlhujpwbz)" rx="8" ry="8" style="stroke: #A80036; stroke-width: 2.0;"/><text fill="#000000" font-family="sans-serif" font-size="14" lengthAdjust="spacingAndGlyphs" textLength="103" x="439.5" y="505.9951">CI/CD Interface</text><!--link VCRepo to VCService--><path d="M308.769,87 C326.676,87 346.018,87 363.471,87 " fill="none" id="VCRepo-VCService" style="stroke: #A80036; stroke-width: 1.0;"/><polygon fill="#A80036" points="303.759,87,312.759,91,308.759,87,312.759,83,303.759,87" style="stroke: #A80036; stroke-width: 1.0;"/><text fill="#000000" font-family="sans-serif" font-size="13" lengthAdjust="spacingAndGlyphs" textLength="23" x="322" y="80.0669">use</text><!--link VCService to VCServiceAPI--><path d="M425.075,110.056 C430.897,135.362 440.15,175.576 444.106,192.767 " fill="none" id="VCService-VCServiceAPI" style="stroke: #A80036; stroke-width: 1.0;"/><!--link VCService to VCInterface--><path d="M404.637,110.113 C393.761,126.723 379.628,150.404 371,173 C348.703,231.392 339.384,306.978 336.797,331.746 " fill="none" id="VCService-VCInterface" style="stroke: #A80036; stroke-width: 1.0;"/><!--link PackageService to PackagePackage--><path d="M794.569,341 C813.685,341 832.594,341 848.707,341 " fill="none" id="PackageService-PackagePackage" style="stroke: #A80036; stroke-width: 1.0;"/><polygon fill="#A80036" points="854.061,341,845.061,337,849.061,341,845.061,345,854.061,341" style="stroke: #A80036; stroke-width: 1.0;"/><text fill="#000000" font-family="sans-serif" font-size="13" lengthAdjust="spacingAndGlyphs" textLength="23" x="813" y="334.0669">use</text><!--link PackageService to PackageInterface--><path d="M686,364.261 C686,394.432 686,446.838 686,466.884 " fill="none" id="PackageService-PackageInterface" style="stroke: #A80036; stroke-width: 1.0;"/><!--link CICDService to CICDInterface--><path d="M456.862,364.261 C466.163,394.432 482.319,446.838 488.498,466.884 " fill="none" id="CICDService-CICDInterface" style="stroke: #A80036; stroke-width: 1.0;"/><!--link VCServiceAPI to CICDService--><path d="M446.538,221.418 C447.268,246.437 448.572,291.106 449.355,317.901 " fill="none" id="VCServiceAPI-CICDService" style="stroke: #A80036; stroke-width: 1.0;"/><path d="M437.8745,214.4845 A9,9 0 0 0 454.7818 213.9892" fill="none" style="stroke: #A80036; stroke-width: 1.5;"/><!--link VCInterface to CICDService--><path d="M355.45,341 C364.756,341 374.062,341 383.368,341 " fill="none" id="VCInterface-CICDService" style="stroke: #A80036; stroke-width: 1.0;"/><path d="M348.4302,349.4572 A9,9 0 0 0 348.4302 332.5428" fill="none" style="stroke: #A80036; stroke-width: 1.5;"/><!--link CICDService to PackageInterface--><path d="M491.905,364.071 C514.299,375.99 542.274,391.077 567,405 C603.184,425.375 644.895,450.232 668.079,464.173 " fill="none" id="CICDService-PackageInterface" style="stroke: #A80036; stroke-width: 1.0;"/><path d="M678.54,460.6016 A9,9 0 0 0 669.8092 475.0886" fill="none" style="stroke: #A80036; stroke-width: 1.5;"/><!--link VCClient to VC_CLI--><path d="M93.8586,499.011 C86.6151,530.023 73.7494,585.104 68.9107,605.82 " fill="none" id="VCClient-VC_CLI" style="stroke: #A80036; stroke-width: 1.0;"/><!--link VCRepo to Sources--><path d="M245,122.787 C245,203.031 245,398.735 245,457.827 " fill="none" id="VCRepo-Sources" style="stroke: #A80036; stroke-width: 1.0;"/><polygon fill="#FFFFFF" points="245,109.636,241,115.636,245,121.636,249,115.636,245,109.636" style="stroke: #A80036; stroke-width: 1.0;"/><text fill="#000000" font-family="sans-serif" font-size="13" lengthAdjust="spacingAndGlyphs" textLength="23" x="218.9094" y="129.7799">0..*</text><!--link Sources to CICDConf--><path d="M232.064,506.053 C219.817,533.558 201.839,573.936 191.698,596.711 " fill="none" id="Sources-CICDConf" style="stroke: #A80036; stroke-width: 1.0;"/><polygon fill="#A80036" points="237.398,494.074,231.3031,497.9278,232.5163,505.0361,238.6112,501.1823,237.398,494.074" style="stroke: #A80036; stroke-width: 1.0;"/><!--link Sources to PackageConfig--><path d="M263.558,504.94 C281.837,532.458 309.183,573.626 324.516,596.711 " fill="none" id="Sources-PackageConfig" style="stroke: #A80036; stroke-width: 1.0;"/><polygon fill="#A80036" points="256.341,494.074,256.3289,501.2851,262.9807,504.0697,262.9927,496.8587,256.341,494.074" style="stroke: #A80036; stroke-width: 1.0;"/><!--link VCInterface to VCClient--><path d="M316.996,347.142 C286.11,356.007 223.768,376.047 177,405 C155.496,418.313 134.348,437.806 119.51,452.843 " fill="none" id="VCInterface-VCClient" style="stroke: #A80036; stroke-width: 1.0;"/><path d="M321.6253,337.0675 A9,9 0 0 0 326.1753 353.3585" fill="none" style="stroke: #A80036; stroke-width: 1.5;"/><!--link CICDInterface to CICDConf--><path d="M472.244,484.716 C457.201,490.73 435.461,499.034 416,505 C345.609,526.581 319.328,508.188 255,544 C231.104,557.303 209.659,580.85 196.742,596.928 " fill="none" id="CICDInterface-CICDConf" style="stroke: #A80036; stroke-width: 1.0;"/><path d="M475.8557,474.1261 A9,9 0 0 0 482.2087 489.8022" fill="none" style="stroke: #A80036; stroke-width: 1.5;"/><!--link PackageInterface to PackageConfig--><path d="M667.402,484.28 C613.586,505.345 456.653,566.773 379.646,596.916 " fill="none" id="PackageInterface-PackageConfig" style="stroke: #A80036; stroke-width: 1.0;"/><path d="M671.0482,473.7703 A9,9 0 0 0 677.2128 489.5214" fill="none" style="stroke: #A80036; stroke-width: 1.5;"/><!--link PackageInterface to PackageClientC--><path d="M687.344,495.418 C689.171,520.437 692.431,565.106 694.387,591.901 " fill="none" id="PackageInterface-PackageClientC" style="stroke: #A80036; stroke-width: 1.0;"/><path d="M678.3855,488.8462 A9,9 0 0 0 695.255 487.6138" fill="none" style="stroke: #A80036; stroke-width: 1.5;"/><!--link PackageClientC to Package_CLI_C--><path d="M692.367,638.293 C687.388,668.848 678.681,722.2759 675.349,742.7204 " fill="none" id="PackageClientC-Package_CLI_C" style="stroke: #A80036; stroke-width: 1.0;"/><!--link PackageClientC to PackageRunner--><path d="M724.237,638.293 C752.788,660.833 797.105,695.82 828.786,720.8314 " fill="none" id="PackageClientC-PackageRunner" style="stroke: #A80036; stroke-width: 1.0;"/><polygon fill="#A80036" points="839.005,728.8988,836.7744,722.0414,829.5865,721.4629,831.8171,728.3204,839.005,728.8988" style="stroke: #A80036; stroke-width: 1.0;"/><!--link PackagePackage to Binaries--><path d="M893.225,377.137 C891.924,436.12 889.348,552.893 888.38,596.784 " fill="none" id="PackagePackage-Binaries" style="stroke: #A80036; stroke-width: 1.0;"/><polygon fill="#FFFFFF" points="893.519,363.799,889.3881,369.7096,893.2553,375.7961,897.3862,369.8855,893.519,363.799" style="stroke: #A80036; stroke-width: 1.0;"/><text fill="#000000" font-family="sans-serif" font-size="13" lengthAdjust="spacingAndGlyphs" textLength="23" x="867.2991" y="383.9867">0..*</text><!--link Binaries to PackageRunner--><path d="M884.549,638.188 C880.659,663.189 874.373,703.6 870.475,728.6625 " fill="none" id="Binaries-PackageRunner" style="stroke: #A80036; stroke-width: 1.0;"/><polygon fill="#A80036" points="885.34,633.098,880.004,641.3761,884.5713,638.0386,887.9089,642.6059,885.34,633.098" style="stroke: #A80036; stroke-width: 1.0;"/><text fill="#000000" font-family="sans-serif" font-size="13" lengthAdjust="spacingAndGlyphs" textLength="21" x="879" y="689.0669">run</text><!--
@startuml anonymous_boxes
    
    node "Version Control Server" as VCServer {
        database "VC Repository" as VCRepo
        node "VC Service" as VCService
        VCRepo <- VCService: use
    }
    interface "VC Service API" as VCServiceAPI
    interface "VC Interface" as VCInterface
    VCService - - VCServiceAPI
    VCService - - VCInterface
    
    node "Package Manager Server" as PackageServer {
        node "Package Manager Service" as PackageService
        database "Package" as PackagePackage
        PackageService -> PackagePackage: use
    }
    interface "Package Manager Interface" as PackageInterface
    PackageService - - PackageInterface

    node "CI/CD Server" as CICDServer {
        node "CI/CD Service" as CICDService
    }
    interface "CI/CD Interface" as CICDInterface
    CICDService - - CICDInterface
    VCServiceAPI )- - CICDService
    VCInterface )- CICDService
    CICDService - -( PackageInterface
    
    node "Producer" as Producer {
        node "VC Client" as VCClient
        interface "VC CLI" as VC_CLI
        VCClient - - VC_CLI

        file "Source files" as Sources
        file "CI/CD Config" as CICDConf
        file "Package Config" as PackageConfig
        VCRepo "0..*" o- - Sources
        Sources *- - CICDConf
        Sources *- - PackageConfig
        VCInterface )- - VCClient
        CICDInterface )- - CICDConf
        PackageInterface )- - PackageConfig
    }

    node "Consumer" as Consumer {
        node "Package Manager Client" as PackageClientC
        interface "Package Manager CLI" as Package_CLI_C
        PackageInterface )- - PackageClientC
        PackageClientC - - Package_CLI_C

        node "Package Runner" as PackageRunner
        PackageClientC - -* PackageRunner

        file "Binaries" as Binaries
        PackagePackage "0..*" o- - Binaries
        Binaries <- - PackageRunner: run
    }
@enduml

PlantUML version 1.2019.03(Sun Mar 10 13:04:44 EET 2019)
(GPL source distribution)
Java Runtime: Java(TM) SE Runtime Environment
JVM: Java HotSpot(TM) 64-Bit Server VM
Java Version: 1.8.0_201-b09
Operating System: Linux
OS Version: 4.15.0-47-generic
Default Encoding: UTF-8
Language: en
Country: US
--></g></svg>