<?xml version="1.0" encoding="UTF-8" standalone="no"?><svg xmlns="http://www.w3.org/2000/svg" xmlns:xlink="http://www.w3.org/1999/xlink" contentScriptType="application/ecmascript" contentStyleType="text/css" height="523px" preserveAspectRatio="none" style="width:240px;height:523px;" version="1.1" viewBox="0 0 240 523" width="240px" zoomAndPan="magnify"><defs><filter height="300%" id="fubsc439qdamf" width="300%" x="-1" y="-1"><feGaussianBlur result="blurOut" stdDeviation="2.0"/><feColorMatrix in="blurOut" result="blurOut2" type="matrix" values="0 0 0 0 0 0 0 0 0 0 0 0 0 0 0 0 0 0 .4 0"/><feOffset dx="4.0" dy="4.0" in="blurOut2" result="blurOut3"/><feBlend in="SourceGraphic" in2="blurOut3" mode="normal"/></filter></defs><g><text fill="#000000" font-family="sans-serif" font-size="18" lengthAdjust="spacingAndGlyphs" textLength="201" x="18.5" y="26.708">Anonymous Build Flow</text><ellipse cx="94" cy="40.9531" fill="#000000" filter="url(#fubsc439qdamf)" rx="10" ry="10" style="stroke: none; stroke-width: 1.0;"/><polygon fill="#FEFECE" filter="url(#fubsc439qdamf)" points="82.5,312.9648,115.5,312.9648,105.5,346.9336,72.5,346.9336" style="stroke: #A80036; stroke-width: 1.5;"/><text fill="#000000" font-family="sans-serif" font-size="12" lengthAdjust="spacingAndGlyphs" textLength="23" x="82.5" y="334.1035">info</text><polygon fill="#FEFECE" filter="url(#fubsc439qdamf)" points="65,264.5625,123,264.5625,135,276.5625,123,288.5625,65,288.5625,53,276.5625,65,264.5625" style="stroke: #A80036; stroke-width: 1.5;"/><text fill="#000000" font-family="sans-serif" font-size="11" lengthAdjust="spacingAndGlyphs" textLength="42" x="98" y="298.7729">passed</text><text fill="#000000" font-family="sans-serif" font-size="11" lengthAdjust="spacingAndGlyphs" textLength="58" x="65" y="280.3706">publishing</text><text fill="#000000" font-family="sans-serif" font-size="11" lengthAdjust="spacingAndGlyphs" textLength="31" x="135" y="273.9683">failed</text><ellipse cx="186" cy="276.5625" fill="#FEFECE" filter="url(#fubsc439qdamf)" rx="10" ry="10" style="stroke: #A80036; stroke-width: 1.5;"/><path d="M186.1094,272.7344 L184.5,277.0781 L187.7188,277.0781 L186.1094,272.7344 Z M185.4375,271.5625 L186.7813,271.5625 L190.1094,280.3125 L188.875,280.3125 L188.0781,278.0625 L184.1406,278.0625 L183.3438,280.3125 L182.0938,280.3125 L185.4375,271.5625 Z "/><polygon fill="#FEFECE" filter="url(#fubsc439qdamf)" points="67,216.1602,121,216.1602,133,228.1602,121,240.1602,67,240.1602,55,228.1602,67,216.1602" style="stroke: #A80036; stroke-width: 1.5;"/><text fill="#000000" font-family="sans-serif" font-size="11" lengthAdjust="spacingAndGlyphs" textLength="42" x="98" y="250.3706">passed</text><text fill="#000000" font-family="sans-serif" font-size="11" lengthAdjust="spacingAndGlyphs" textLength="54" x="67" y="231.9683">compiling</text><text fill="#000000" font-family="sans-serif" font-size="11" lengthAdjust="spacingAndGlyphs" textLength="31" x="133" y="225.5659">failed</text><ellipse cx="184" cy="228.1602" fill="#FEFECE" filter="url(#fubsc439qdamf)" rx="10" ry="10" style="stroke: #A80036; stroke-width: 1.5;"/><path d="M184.1094,224.332 L182.5,228.6758 L185.7188,228.6758 L184.1094,224.332 Z M183.4375,223.1602 L184.7813,223.1602 L188.1094,231.9102 L186.875,231.9102 L186.0781,229.6602 L182.1406,229.6602 L181.3438,231.9102 L180.0938,231.9102 L183.4375,223.1602 Z "/><polygon fill="#FEFECE" filter="url(#fubsc439qdamf)" points="32,167.7578,156,167.7578,168,179.7578,156,191.7578,32,191.7578,20,179.7578,32,167.7578" style="stroke: #A80036; stroke-width: 1.5;"/><text fill="#000000" font-family="sans-serif" font-size="11" lengthAdjust="spacingAndGlyphs" textLength="42" x="98" y="201.9683">passed</text><text fill="#000000" font-family="sans-serif" font-size="11" lengthAdjust="spacingAndGlyphs" textLength="124" x="32" y="183.5659">documentation export</text><text fill="#000000" font-family="sans-serif" font-size="11" lengthAdjust="spacingAndGlyphs" textLength="31" x="168" y="177.1636">failed</text><ellipse cx="219" cy="179.7578" fill="#FEFECE" filter="url(#fubsc439qdamf)" rx="10" ry="10" style="stroke: #A80036; stroke-width: 1.5;"/><path d="M219.1094,175.9297 L217.5,180.2734 L220.7188,180.2734 L219.1094,175.9297 Z M218.4375,174.7578 L219.7813,174.7578 L223.1094,183.5078 L221.875,183.5078 L221.0781,181.2578 L217.1406,181.2578 L216.3438,183.5078 L215.0938,183.5078 L218.4375,174.7578 Z "/><polygon fill="#FEFECE" filter="url(#fubsc439qdamf)" points="50.5,119.3555,137.5,119.3555,149.5,131.3555,137.5,143.3555,50.5,143.3555,38.5,131.3555,50.5,119.3555" style="stroke: #A80036; stroke-width: 1.5;"/><text fill="#000000" font-family="sans-serif" font-size="11" lengthAdjust="spacingAndGlyphs" textLength="42" x="98" y="153.5659">passed</text><text fill="#000000" font-family="sans-serif" font-size="11" lengthAdjust="spacingAndGlyphs" textLength="87" x="50.5" y="135.1636">tests execution</text><text fill="#000000" font-family="sans-serif" font-size="11" lengthAdjust="spacingAndGlyphs" textLength="31" x="149.5" y="128.7612">failed</text><ellipse cx="200.5" cy="131.3555" fill="#FEFECE" filter="url(#fubsc439qdamf)" rx="10" ry="10" style="stroke: #A80036; stroke-width: 1.5;"/><path d="M200.6094,127.5273 L199,131.8711 L202.2188,131.8711 L200.6094,127.5273 Z M199.9375,126.3555 L201.2813,126.3555 L204.6094,135.1055 L203.375,135.1055 L202.5781,132.8555 L198.6406,132.8555 L197.8438,135.1055 L196.5938,135.1055 L199.9375,126.3555 Z "/><polygon fill="#FEFECE" filter="url(#fubsc439qdamf)" points="53,70.9531,135,70.9531,147,82.9531,135,94.9531,53,94.9531,41,82.9531,53,70.9531" style="stroke: #A80036; stroke-width: 1.5;"/><text fill="#000000" font-family="sans-serif" font-size="11" lengthAdjust="spacingAndGlyphs" textLength="42" x="98" y="105.1636">passed</text><text fill="#000000" font-family="sans-serif" font-size="11" lengthAdjust="spacingAndGlyphs" textLength="82" x="53" y="86.7612">static analysis</text><text fill="#000000" font-family="sans-serif" font-size="11" lengthAdjust="spacingAndGlyphs" textLength="31" x="147" y="80.3589">failed</text><ellipse cx="198" cy="82.9531" fill="#FEFECE" filter="url(#fubsc439qdamf)" rx="10" ry="10" style="stroke: #A80036; stroke-width: 1.5;"/><path d="M198.1094,79.125 L196.5,83.4688 L199.7188,83.4688 L198.1094,79.125 Z M197.4375,77.9531 L198.7813,77.9531 L202.1094,86.7031 L200.875,86.7031 L200.0781,84.4531 L196.1406,84.4531 L195.3438,86.7031 L194.0938,86.7031 L197.4375,77.9531 Z "/><ellipse cx="94" cy="376.9336" fill="#FFFFFF" filter="url(#fubsc439qdamf)" rx="10" ry="10" style="stroke: #000000; stroke-width: 1.5;"/><line style="stroke: #000000; stroke-width: 2.5;" x1="87.8128" x2="100.1872" y1="370.7464" y2="383.1208"/><line style="stroke: #000000; stroke-width: 2.5;" x1="100.1872" x2="87.8128" y1="370.7464" y2="383.1208"/><ellipse cx="94" cy="406.9336" fill="#FEFECE" filter="url(#fubsc439qdamf)" rx="10" ry="10" style="stroke: #A80036; stroke-width: 1.5;"/><path d="M94.1094,403.1055 L92.5,407.4492 L95.7188,407.4492 L94.1094,403.1055 Z M93.4375,401.9336 L94.7813,401.9336 L98.1094,410.6836 L96.875,410.6836 L96.0781,408.4336 L92.1406,408.4336 L91.3438,410.6836 L90.0938,410.6836 L93.4375,401.9336 Z "/><polygon fill="#FEFECE" filter="url(#fubsc439qdamf)" points="78.5,436.9336,119.5,436.9336,109.5,470.9023,68.5,470.9023" style="stroke: #A80036; stroke-width: 1.5;"/><text fill="#000000" font-family="sans-serif" font-size="12" lengthAdjust="spacingAndGlyphs" textLength="31" x="78.5" y="458.0723">error</text><ellipse cx="94" cy="501.9023" fill="#FFFFFF" filter="url(#fubsc439qdamf)" rx="11" ry="11" style="stroke: #000000; stroke-width: 1.0;"/><ellipse cx="94" cy="501.9023" fill="#000000" rx="6" ry="6" style="stroke: #7F7F7F; stroke-width: 1.0;"/><line style="stroke: #008000; stroke-width: 1.5;" x1="94" x2="94" y1="288.5625" y2="312.9648"/><polygon fill="#008000" points="90,302.9648,94,312.9648,98,302.9648,94,306.9648" style="stroke: #008000; stroke-width: 1.0;"/><line style="stroke: #A80036; stroke-width: 1.5;" x1="135" x2="176" y1="276.5625" y2="276.5625"/><polygon fill="#A80036" points="166,272.5625,176,276.5625,166,280.5625,170,276.5625" style="stroke: #A80036; stroke-width: 1.0;"/><line style="stroke: #A80036; stroke-width: 1.5;" x1="94" x2="94" y1="346.9336" y2="366.9336"/><polygon fill="#A80036" points="90,356.9336,94,366.9336,98,356.9336,94,360.9336" style="stroke: #A80036; stroke-width: 1.0;"/><line style="stroke: #008000; stroke-width: 1.5;" x1="94" x2="94" y1="240.1602" y2="264.5625"/><polygon fill="#008000" points="90,254.5625,94,264.5625,98,254.5625,94,258.5625" style="stroke: #008000; stroke-width: 1.0;"/><line style="stroke: #A80036; stroke-width: 1.5;" x1="133" x2="174" y1="228.1602" y2="228.1602"/><polygon fill="#A80036" points="164,224.1602,174,228.1602,164,232.1602,168,228.1602" style="stroke: #A80036; stroke-width: 1.0;"/><line style="stroke: #008000; stroke-width: 1.5;" x1="94" x2="94" y1="191.7578" y2="216.1602"/><polygon fill="#008000" points="90,206.1602,94,216.1602,98,206.1602,94,210.1602" style="stroke: #008000; stroke-width: 1.0;"/><line style="stroke: #A80036; stroke-width: 1.5;" x1="168" x2="209" y1="179.7578" y2="179.7578"/><polygon fill="#A80036" points="199,175.7578,209,179.7578,199,183.7578,203,179.7578" style="stroke: #A80036; stroke-width: 1.0;"/><line style="stroke: #008000; stroke-width: 1.5;" x1="94" x2="94" y1="143.3555" y2="167.7578"/><polygon fill="#008000" points="90,157.7578,94,167.7578,98,157.7578,94,161.7578" style="stroke: #008000; stroke-width: 1.0;"/><line style="stroke: #A80036; stroke-width: 1.5;" x1="149.5" x2="190.5" y1="131.3555" y2="131.3555"/><polygon fill="#A80036" points="180.5,127.3555,190.5,131.3555,180.5,135.3555,184.5,131.3555" style="stroke: #A80036; stroke-width: 1.0;"/><line style="stroke: #008000; stroke-width: 1.5;" x1="94" x2="94" y1="94.9531" y2="119.3555"/><polygon fill="#008000" points="90,109.3555,94,119.3555,98,109.3555,94,113.3555" style="stroke: #008000; stroke-width: 1.0;"/><line style="stroke: #A80036; stroke-width: 1.5;" x1="147" x2="188" y1="82.9531" y2="82.9531"/><polygon fill="#A80036" points="178,78.9531,188,82.9531,178,86.9531,182,82.9531" style="stroke: #A80036; stroke-width: 1.0;"/><line style="stroke: #A80036; stroke-width: 1.5;" x1="94" x2="94" y1="50.9531" y2="70.9531"/><polygon fill="#A80036" points="90,60.9531,94,70.9531,98,60.9531,94,64.9531" style="stroke: #A80036; stroke-width: 1.0;"/><line style="stroke: #A80036; stroke-width: 1.5;" x1="94" x2="94" y1="416.9336" y2="436.9336"/><polygon fill="#A80036" points="90,426.9336,94,436.9336,98,426.9336,94,430.9336" style="stroke: #A80036; stroke-width: 1.0;"/><line style="stroke: #A80036; stroke-width: 1.5;" x1="94" x2="94" y1="470.9023" y2="490.9023"/><polygon fill="#A80036" points="90,480.9023,94,490.9023,98,480.9023,94,484.9023" style="stroke: #A80036; stroke-width: 1.0;"/><!--
@startuml anonymous_build_flow
    title Anonymous Build Flow
    start
        if (static analysis) then (passed)
            -[#green]->
            if (tests execution) then (passed)
                -[#green]->
                if (documentation export) then (passed)
                    -[#green]->
                    if (compiling) then (passed)
                        -[#green]->
                        if (publishing) then (passed)
                            -[#green]->
                            :info/
                        else (failed)
                            (A)
                        endif
                    else (failed)
                        (A)
                    endif
                else (failed)
                    (A)
                endif
            else (failed)
                (A)
            endif
        else (failed)
            (A)
        endif
    end

    (A)
    :error/
    stop
@enduml

PlantUML version 1.2019.03(Sun Mar 10 13:04:44 EET 2019)
(GPL source distribution)
Java Runtime: Java(TM) SE Runtime Environment
JVM: Java HotSpot(TM) 64-Bit Server VM
Java Version: 1.8.0_201-b09
Operating System: Linux
OS Version: 4.15.0-47-generic
Default Encoding: UTF-8
Language: en
Country: US
--></g></svg>