<?xml version="1.0" encoding="UTF-8" standalone="no"?><svg xmlns="http://www.w3.org/2000/svg" xmlns:xlink="http://www.w3.org/1999/xlink" contentScriptType="application/ecmascript" contentStyleType="text/css" height="1070px" preserveAspectRatio="none" style="width:252px;height:1070px;" version="1.1" viewBox="0 0 252 1070" width="252px" zoomAndPan="magnify"><defs><filter height="300%" id="f17c8boorlehoz" width="300%" x="-1" y="-1"><feGaussianBlur result="blurOut" stdDeviation="2.0"/><feColorMatrix in="blurOut" result="blurOut2" type="matrix" values="0 0 0 0 0 0 0 0 0 0 0 0 0 0 0 0 0 0 .4 0"/><feOffset dx="4.0" dy="4.0" in="blurOut2" result="blurOut3"/><feBlend in="SourceGraphic" in2="blurOut3" mode="normal"/></filter></defs><g><ellipse cx="108.5" cy="20" fill="#000000" filter="url(#f17c8boorlehoz)" rx="10" ry="10" style="stroke: none; stroke-width: 1.0;"/><path d="M61.5,50 L56.5,66.9844 L61.5,83.9688 M155.5,50 L160.5,66.9844 L155.5,83.9688 " fill="#FEFECE" filter="url(#f17c8boorlehoz)" style="stroke: #A80036; stroke-width: 1.5;"/><text fill="#000000" font-family="sans-serif" font-size="12" lengthAdjust="spacingAndGlyphs" textLength="84" x="66.5" y="71.1387">6,7,8,9,10,11</text><polygon fill="#FEFECE" filter="url(#f17c8boorlehoz)" points="88,191.9688,139,191.9688,129,225.9375,78,225.9375" style="stroke: #A80036; stroke-width: 1.5;"/><text fill="#000000" font-family="sans-serif" font-size="12" lengthAdjust="spacingAndGlyphs" textLength="41" x="88" y="213.1074">stdout</text><polygon fill="#FEFECE" filter="url(#f17c8boorlehoz)" points="88,289.9375,139,289.9375,129,323.9063,78,323.9063" style="stroke: #A80036; stroke-width: 1.5;"/><text fill="#000000" font-family="sans-serif" font-size="12" lengthAdjust="spacingAndGlyphs" textLength="41" x="88" y="311.0762">stdout</text><polygon fill="#FEFECE" filter="url(#f17c8boorlehoz)" points="88,387.9063,139,387.9063,129,421.875,78,421.875" style="stroke: #A80036; stroke-width: 1.5;"/><text fill="#000000" font-family="sans-serif" font-size="12" lengthAdjust="spacingAndGlyphs" textLength="41" x="88" y="409.0449">stdout</text><polygon fill="#FEFECE" filter="url(#f17c8boorlehoz)" points="88,485.875,139,485.875,129,519.8438,78,519.8438" style="stroke: #A80036; stroke-width: 1.5;"/><text fill="#000000" font-family="sans-serif" font-size="12" lengthAdjust="spacingAndGlyphs" textLength="41" x="88" y="507.0137">stdout</text><polygon fill="#FEFECE" filter="url(#f17c8boorlehoz)" points="88,583.8438,139,583.8438,129,617.8125,78,617.8125" style="stroke: #A80036; stroke-width: 1.5;"/><text fill="#000000" font-family="sans-serif" font-size="12" lengthAdjust="spacingAndGlyphs" textLength="41" x="88" y="604.9824">stdout</text><polygon fill="#FEFECE" filter="url(#f17c8boorlehoz)" points="88,681.8125,139,681.8125,129,715.7813,78,715.7813" style="stroke: #A80036; stroke-width: 1.5;"/><text fill="#000000" font-family="sans-serif" font-size="12" lengthAdjust="spacingAndGlyphs" textLength="41" x="88" y="702.9512">stdout</text><polygon fill="#FEFECE" filter="url(#f17c8boorlehoz)" points="88,779.7813,139,779.7813,129,813.75,78,813.75" style="stroke: #A80036; stroke-width: 1.5;"/><text fill="#000000" font-family="sans-serif" font-size="12" lengthAdjust="spacingAndGlyphs" textLength="41" x="88" y="800.9199">stdout</text><polygon fill="#FEFECE" filter="url(#f17c8boorlehoz)" points="88,877.75,139,877.75,129,911.7188,78,911.7188" style="stroke: #A80036; stroke-width: 1.5;"/><text fill="#000000" font-family="sans-serif" font-size="12" lengthAdjust="spacingAndGlyphs" textLength="41" x="88" y="898.8887">stdout</text><polygon fill="#FEFECE" filter="url(#f17c8boorlehoz)" points="69,833.75,148,833.75,160,845.75,148,857.75,69,857.75,57,845.75,69,833.75" style="stroke: #A80036; stroke-width: 1.5;"/><text fill="#000000" font-family="sans-serif" font-size="11" lengthAdjust="spacingAndGlyphs" textLength="79" x="69" y="849.5581">npm run build</text><ellipse cx="190" cy="845.75" fill="#FEFECE" filter="url(#f17c8boorlehoz)" rx="10" ry="10" style="stroke: #A80036; stroke-width: 1.5;"/><path d="M190.1094,841.9219 L188.5,846.2656 L191.7188,846.2656 L190.1094,841.9219 Z M189.4375,840.75 L190.7813,840.75 L194.1094,849.5 L192.875,849.5 L192.0781,847.25 L188.1406,847.25 L187.3438,849.5 L186.0938,849.5 L189.4375,840.75 Z "/><polygon fill="#FEFECE" filter="url(#f17c8boorlehoz)" points="67.5,735.7813,149.5,735.7813,161.5,747.7813,149.5,759.7813,67.5,759.7813,55.5,747.7813,67.5,735.7813" style="stroke: #A80036; stroke-width: 1.5;"/><text fill="#000000" font-family="sans-serif" font-size="11" lengthAdjust="spacingAndGlyphs" textLength="82" x="67.5" y="751.5894">npm run jsdoc</text><ellipse cx="191.5" cy="747.7813" fill="#FEFECE" filter="url(#f17c8boorlehoz)" rx="10" ry="10" style="stroke: #A80036; stroke-width: 1.5;"/><path d="M191.6094,743.9531 L190,748.2969 L193.2188,748.2969 L191.6094,743.9531 Z M190.9375,742.7813 L192.2813,742.7813 L195.6094,751.5313 L194.375,751.5313 L193.5781,749.2813 L189.6406,749.2813 L188.8438,751.5313 L187.5938,751.5313 L190.9375,742.7813 Z "/><polygon fill="#FEFECE" filter="url(#f17c8boorlehoz)" points="57,637.8125,160,637.8125,172,649.8125,160,661.8125,57,661.8125,45,649.8125,57,637.8125" style="stroke: #A80036; stroke-width: 1.5;"/><text fill="#000000" font-family="sans-serif" font-size="11" lengthAdjust="spacingAndGlyphs" textLength="103" x="57" y="653.6206">npm run coveralls</text><ellipse cx="202" cy="649.8125" fill="#FEFECE" filter="url(#f17c8boorlehoz)" rx="10" ry="10" style="stroke: #A80036; stroke-width: 1.5;"/><path d="M202.1094,645.9844 L200.5,650.3281 L203.7188,650.3281 L202.1094,645.9844 Z M201.4375,644.8125 L202.7813,644.8125 L206.1094,653.5625 L204.875,653.5625 L204.0781,651.3125 L200.1406,651.3125 L199.3438,653.5625 L198.0938,653.5625 L201.4375,644.8125 Z "/><polygon fill="#FEFECE" filter="url(#f17c8boorlehoz)" points="72,539.8438,145,539.8438,157,551.8438,145,563.8438,72,563.8438,60,551.8438,72,539.8438" style="stroke: #A80036; stroke-width: 1.5;"/><text fill="#000000" font-family="sans-serif" font-size="11" lengthAdjust="spacingAndGlyphs" textLength="73" x="72" y="555.6519">npm run jest</text><ellipse cx="187" cy="551.8438" fill="#FEFECE" filter="url(#f17c8boorlehoz)" rx="10" ry="10" style="stroke: #A80036; stroke-width: 1.5;"/><path d="M187.1094,548.0156 L185.5,552.3594 L188.7188,552.3594 L187.1094,548.0156 Z M186.4375,546.8438 L187.7813,546.8438 L191.1094,555.5938 L189.875,555.5938 L189.0781,553.3438 L185.1406,553.3438 L184.3438,555.5938 L183.0938,555.5938 L186.4375,546.8438 Z "/><polygon fill="#FEFECE" filter="url(#f17c8boorlehoz)" points="74,441.875,143,441.875,155,453.875,143,465.875,74,465.875,62,453.875,74,441.875" style="stroke: #A80036; stroke-width: 1.5;"/><text fill="#000000" font-family="sans-serif" font-size="11" lengthAdjust="spacingAndGlyphs" textLength="69" x="74" y="457.6831">npm run lint</text><ellipse cx="185" cy="453.875" fill="#FEFECE" filter="url(#f17c8boorlehoz)" rx="10" ry="10" style="stroke: #A80036; stroke-width: 1.5;"/><path d="M185.1094,450.0469 L183.5,454.3906 L186.7188,454.3906 L185.1094,450.0469 Z M184.4375,448.875 L185.7813,448.875 L189.1094,457.625 L187.875,457.625 L187.0781,455.375 L183.1406,455.375 L182.3438,457.625 L181.0938,457.625 L184.4375,448.875 Z "/><polygon fill="#FEFECE" filter="url(#f17c8boorlehoz)" points="92.5,343.9063,124.5,343.9063,136.5,355.9063,124.5,367.9063,92.5,367.9063,80.5,355.9063,92.5,343.9063" style="stroke: #A80036; stroke-width: 1.5;"/><text fill="#000000" font-family="sans-serif" font-size="11" lengthAdjust="spacingAndGlyphs" textLength="32" x="92.5" y="359.7144">npm i</text><ellipse cx="166.5" cy="355.9063" fill="#FEFECE" filter="url(#f17c8boorlehoz)" rx="10" ry="10" style="stroke: #A80036; stroke-width: 1.5;"/><path d="M166.6094,352.0781 L165,356.4219 L168.2188,356.4219 L166.6094,352.0781 Z M165.9375,350.9063 L167.2813,350.9063 L170.6094,359.6563 L169.375,359.6563 L168.5781,357.4063 L164.6406,357.4063 L163.8438,359.6563 L162.5938,359.6563 L165.9375,350.9063 Z "/><polygon fill="#FEFECE" filter="url(#f17c8boorlehoz)" points="84,245.9375,133,245.9375,145,257.9375,133,269.9375,84,269.9375,72,257.9375,84,245.9375" style="stroke: #A80036; stroke-width: 1.5;"/><text fill="#000000" font-family="sans-serif" font-size="11" lengthAdjust="spacingAndGlyphs" textLength="49" x="84" y="261.7456">nvm use</text><ellipse cx="175" cy="257.9375" fill="#FEFECE" filter="url(#f17c8boorlehoz)" rx="10" ry="10" style="stroke: #A80036; stroke-width: 1.5;"/><path d="M175.1094,254.1094 L173.5,258.4531 L176.7188,258.4531 L175.1094,254.1094 Z M174.4375,252.9375 L175.7813,252.9375 L179.1094,261.6875 L177.875,261.6875 L177.0781,259.4375 L173.1406,259.4375 L172.3438,261.6875 L171.0938,261.6875 L174.4375,252.9375 Z "/><polygon fill="#FEFECE" filter="url(#f17c8boorlehoz)" points="93,147.9688,124,147.9688,136,159.9688,124,171.9688,93,171.9688,81,159.9688,93,147.9688" style="stroke: #A80036; stroke-width: 1.5;"/><text fill="#000000" font-family="sans-serif" font-size="11" lengthAdjust="spacingAndGlyphs" textLength="31" x="93" y="163.7769">nvm i</text><ellipse cx="166" cy="159.9688" fill="#FEFECE" filter="url(#f17c8boorlehoz)" rx="10" ry="10" style="stroke: #A80036; stroke-width: 1.5;"/><path d="M166.1094,156.1406 L164.5,160.4844 L167.7188,160.4844 L166.1094,156.1406 Z M165.4375,154.9688 L166.7813,154.9688 L170.1094,163.7188 L168.875,163.7188 L168.0781,161.4688 L164.1406,161.4688 L163.3438,163.7188 L162.0938,163.7188 L165.4375,154.9688 Z "/><polygon fill="#FEFECE" filter="url(#f17c8boorlehoz)" points="62,103.9688,155,103.9688,167,115.9688,155,127.9688,62,127.9688,50,115.9688,62,103.9688" style="stroke: #A80036; stroke-width: 1.5;"/><text fill="#000000" font-family="sans-serif" font-size="11" lengthAdjust="spacingAndGlyphs" textLength="93" x="62" y="119.7769">for each version</text><ellipse cx="24" cy="158.9688" fill="#FFFFFF" filter="url(#f17c8boorlehoz)" rx="11" ry="11" style="stroke: #000000; stroke-width: 1.0;"/><ellipse cx="24" cy="158.9688" fill="#000000" rx="6" ry="6" style="stroke: #7F7F7F; stroke-width: 1.0;"/><ellipse cx="108.5" cy="953.7188" fill="#FEFECE" filter="url(#f17c8boorlehoz)" rx="10" ry="10" style="stroke: #A80036; stroke-width: 1.5;"/><path d="M108.6094,949.8906 L107,954.2344 L110.2188,954.2344 L108.6094,949.8906 Z M107.9375,948.7188 L109.2813,948.7188 L112.6094,957.4688 L111.375,957.4688 L110.5781,955.2188 L106.6406,955.2188 L105.8438,957.4688 L104.5938,957.4688 L107.9375,948.7188 Z "/><polygon fill="#FEFECE" filter="url(#f17c8boorlehoz)" points="89.5,983.7188,137.5,983.7188,127.5,1017.6875,79.5,1017.6875" style="stroke: #A80036; stroke-width: 1.5;"/><text fill="#000000" font-family="sans-serif" font-size="12" lengthAdjust="spacingAndGlyphs" textLength="38" x="89.5" y="1004.8574">stderr</text><ellipse cx="108.5" cy="1048.6875" fill="#FFFFFF" filter="url(#f17c8boorlehoz)" rx="11" ry="11" style="stroke: #000000; stroke-width: 1.0;"/><ellipse cx="108.5" cy="1048.6875" fill="#000000" rx="6" ry="6" style="stroke: #7F7F7F; stroke-width: 1.0;"/><line style="stroke: #A80036; stroke-width: 1.5;" x1="108.5" x2="108.5" y1="30" y2="50"/><polygon fill="#A80036" points="104.5,40,108.5,50,112.5,40,108.5,44" style="stroke: #A80036; stroke-width: 1.0;"/><line style="stroke: #008000; stroke-width: 1.5;" x1="108.5" x2="108.5" y1="857.75" y2="877.75"/><polygon fill="#008000" points="104.5,867.75,108.5,877.75,112.5,867.75,108.5,871.75" style="stroke: #008000; stroke-width: 1.0;"/><line style="stroke: #A80036; stroke-width: 1.5;" x1="160" x2="180" y1="845.75" y2="845.75"/><polygon fill="#A80036" points="170,841.75,180,845.75,170,849.75,174,845.75" style="stroke: #A80036; stroke-width: 1.0;"/><line style="stroke: #A80036; stroke-width: 1.5;" x1="108.5" x2="108.5" y1="911.7188" y2="921.7188"/><line style="stroke: #A80036; stroke-width: 1.5;" x1="108.5" x2="226" y1="921.7188" y2="921.7188"/><polygon fill="#A80036" points="222,612.3438,226,602.3438,230,612.3438,226,608.3438" style="stroke: #A80036; stroke-width: 1.5;"/><line style="stroke: #A80036; stroke-width: 1.5;" x1="226" x2="226" y1="115.9688" y2="921.7188"/><line style="stroke: #A80036; stroke-width: 1.5;" x1="226" x2="167" y1="115.9688" y2="115.9688"/><polygon fill="#A80036" points="177,111.9688,167,115.9688,177,119.9688,173,115.9688" style="stroke: #A80036; stroke-width: 1.0;"/><line style="stroke: #A80036; stroke-width: 1.5;" x1="108.5" x2="108.5" y1="813.75" y2="833.75"/><polygon fill="#A80036" points="104.5,823.75,108.5,833.75,112.5,823.75,108.5,827.75" style="stroke: #A80036; stroke-width: 1.0;"/><line style="stroke: #008000; stroke-width: 1.5;" x1="108.5" x2="108.5" y1="759.7813" y2="779.7813"/><polygon fill="#008000" points="104.5,769.7813,108.5,779.7813,112.5,769.7813,108.5,773.7813" style="stroke: #008000; stroke-width: 1.0;"/><line style="stroke: #A80036; stroke-width: 1.5;" x1="161.5" x2="181.5" y1="747.7813" y2="747.7813"/><polygon fill="#A80036" points="171.5,743.7813,181.5,747.7813,171.5,751.7813,175.5,747.7813" style="stroke: #A80036; stroke-width: 1.0;"/><line style="stroke: #A80036; stroke-width: 1.5;" x1="108.5" x2="108.5" y1="715.7813" y2="735.7813"/><polygon fill="#A80036" points="104.5,725.7813,108.5,735.7813,112.5,725.7813,108.5,729.7813" style="stroke: #A80036; stroke-width: 1.0;"/><line style="stroke: #008000; stroke-width: 1.5;" x1="108.5" x2="108.5" y1="661.8125" y2="681.8125"/><polygon fill="#008000" points="104.5,671.8125,108.5,681.8125,112.5,671.8125,108.5,675.8125" style="stroke: #008000; stroke-width: 1.0;"/><line style="stroke: #A80036; stroke-width: 1.5;" x1="172" x2="192" y1="649.8125" y2="649.8125"/><polygon fill="#A80036" points="182,645.8125,192,649.8125,182,653.8125,186,649.8125" style="stroke: #A80036; stroke-width: 1.0;"/><line style="stroke: #A80036; stroke-width: 1.5;" x1="108.5" x2="108.5" y1="617.8125" y2="637.8125"/><polygon fill="#A80036" points="104.5,627.8125,108.5,637.8125,112.5,627.8125,108.5,631.8125" style="stroke: #A80036; stroke-width: 1.0;"/><line style="stroke: #008000; stroke-width: 1.5;" x1="108.5" x2="108.5" y1="563.8438" y2="583.8438"/><polygon fill="#008000" points="104.5,573.8438,108.5,583.8438,112.5,573.8438,108.5,577.8438" style="stroke: #008000; stroke-width: 1.0;"/><line style="stroke: #A80036; stroke-width: 1.5;" x1="157" x2="177" y1="551.8438" y2="551.8438"/><polygon fill="#A80036" points="167,547.8438,177,551.8438,167,555.8438,171,551.8438" style="stroke: #A80036; stroke-width: 1.0;"/><line style="stroke: #A80036; stroke-width: 1.5;" x1="108.5" x2="108.5" y1="519.8438" y2="539.8438"/><polygon fill="#A80036" points="104.5,529.8438,108.5,539.8438,112.5,529.8438,108.5,533.8438" style="stroke: #A80036; stroke-width: 1.0;"/><line style="stroke: #008000; stroke-width: 1.5;" x1="108.5" x2="108.5" y1="465.875" y2="485.875"/><polygon fill="#008000" points="104.5,475.875,108.5,485.875,112.5,475.875,108.5,479.875" style="stroke: #008000; stroke-width: 1.0;"/><line style="stroke: #A80036; stroke-width: 1.5;" x1="155" x2="175" y1="453.875" y2="453.875"/><polygon fill="#A80036" points="165,449.875,175,453.875,165,457.875,169,453.875" style="stroke: #A80036; stroke-width: 1.0;"/><line style="stroke: #A80036; stroke-width: 1.5;" x1="108.5" x2="108.5" y1="421.875" y2="441.875"/><polygon fill="#A80036" points="104.5,431.875,108.5,441.875,112.5,431.875,108.5,435.875" style="stroke: #A80036; stroke-width: 1.0;"/><line style="stroke: #008000; stroke-width: 1.5;" x1="108.5" x2="108.5" y1="367.9063" y2="387.9063"/><polygon fill="#008000" points="104.5,377.9063,108.5,387.9063,112.5,377.9063,108.5,381.9063" style="stroke: #008000; stroke-width: 1.0;"/><line style="stroke: #A80036; stroke-width: 1.5;" x1="136.5" x2="156.5" y1="355.9063" y2="355.9063"/><polygon fill="#A80036" points="146.5,351.9063,156.5,355.9063,146.5,359.9063,150.5,355.9063" style="stroke: #A80036; stroke-width: 1.0;"/><line style="stroke: #A80036; stroke-width: 1.5;" x1="108.5" x2="108.5" y1="323.9063" y2="343.9063"/><polygon fill="#A80036" points="104.5,333.9063,108.5,343.9063,112.5,333.9063,108.5,337.9063" style="stroke: #A80036; stroke-width: 1.0;"/><line style="stroke: #008000; stroke-width: 1.5;" x1="108.5" x2="108.5" y1="269.9375" y2="289.9375"/><polygon fill="#008000" points="104.5,279.9375,108.5,289.9375,112.5,279.9375,108.5,283.9375" style="stroke: #008000; stroke-width: 1.0;"/><line style="stroke: #A80036; stroke-width: 1.5;" x1="145" x2="165" y1="257.9375" y2="257.9375"/><polygon fill="#A80036" points="155,253.9375,165,257.9375,155,261.9375,159,257.9375" style="stroke: #A80036; stroke-width: 1.0;"/><line style="stroke: #A80036; stroke-width: 1.5;" x1="108.5" x2="108.5" y1="225.9375" y2="245.9375"/><polygon fill="#A80036" points="104.5,235.9375,108.5,245.9375,112.5,235.9375,108.5,239.9375" style="stroke: #A80036; stroke-width: 1.0;"/><line style="stroke: #008000; stroke-width: 1.5;" x1="108.5" x2="108.5" y1="171.9688" y2="191.9688"/><polygon fill="#008000" points="104.5,181.9688,108.5,191.9688,112.5,181.9688,108.5,185.9688" style="stroke: #008000; stroke-width: 1.0;"/><line style="stroke: #A80036; stroke-width: 1.5;" x1="136" x2="156" y1="159.9688" y2="159.9688"/><polygon fill="#A80036" points="146,155.9688,156,159.9688,146,163.9688,150,159.9688" style="stroke: #A80036; stroke-width: 1.0;"/><line style="stroke: #A80036; stroke-width: 1.5;" x1="108.5" x2="108.5" y1="127.9688" y2="147.9688"/><polygon fill="#A80036" points="104.5,137.9688,108.5,147.9688,112.5,137.9688,108.5,141.9688" style="stroke: #A80036; stroke-width: 1.0;"/><line style="stroke: #A80036; stroke-width: 1.5;" x1="50" x2="24" y1="115.9688" y2="115.9688"/><line style="stroke: #A80036; stroke-width: 1.5;" x1="24" x2="24" y1="115.9688" y2="147.9688"/><polygon fill="#A80036" points="20,137.9688,24,147.9688,28,137.9688,24,141.9688" style="stroke: #A80036; stroke-width: 1.0;"/><line style="stroke: #A80036; stroke-width: 1.5;" x1="108.5" x2="108.5" y1="83.9688" y2="103.9688"/><polygon fill="#A80036" points="104.5,93.9688,108.5,103.9688,112.5,93.9688,108.5,97.9688" style="stroke: #A80036; stroke-width: 1.0;"/><line style="stroke: #A80036; stroke-width: 1.5;" x1="108.5" x2="108.5" y1="963.7188" y2="983.7188"/><polygon fill="#A80036" points="104.5,973.7188,108.5,983.7188,112.5,973.7188,108.5,977.7188" style="stroke: #A80036; stroke-width: 1.0;"/><line style="stroke: #A80036; stroke-width: 1.5;" x1="108.5" x2="108.5" y1="1017.6875" y2="1037.6875"/><polygon fill="#A80036" points="104.5,1027.6875,108.5,1037.6875,112.5,1027.6875,108.5,1031.6875" style="stroke: #A80036; stroke-width: 1.0;"/><!--
@startuml build_flow
    start
        :6,7,8,9,10,11}
        while (for each version)
            if (nvm i) then
                -[#green]->
                :stdout/
                if (nvm use) then
                    -[#green]->
                    :stdout/
                    if (npm i) then
                        -[#green]->
                        :stdout/
                        if (npm run lint) then
                            -[#green]->
                            :stdout/
                            if (npm run jest) then
                                -[#green]->
                                :stdout/
                                if (npm run coveralls) then
                                    -[#green]->
                                    :stdout/
                                    if (npm run jsdoc) then
                                        -[#green]->
                                        :stdout/
                                        if (npm run build) then
                                            -[#green]->
                                            :stdout/
                                        else
                                            (A)
                                        endif
                                    else
                                        (A)
                                    endif
                                else
                                    (A)
                                endif
                            else
                                (A)
                            endif
                        else
                            (A)
                        endif
                    else
                        (A)
                    endif
                else
                    (A)
                endif
            else
                (A)
            endif
        endwhile
    stop
    detach
    (A)
    :stderr/
    stop
@enduml

PlantUML version 1.2019.03(Sun Mar 10 13:04:44 EET 2019)
(GPL source distribution)
Java Runtime: Java(TM) SE Runtime Environment
JVM: Java HotSpot(TM) 64-Bit Server VM
Java Version: 1.8.0_201-b09
Operating System: Linux
OS Version: 4.15.0-47-generic
Default Encoding: UTF-8
Language: en
Country: US
--></g></svg>