<?xml version="1.0" encoding="UTF-8" standalone="no"?><svg xmlns="http://www.w3.org/2000/svg" xmlns:xlink="http://www.w3.org/1999/xlink" contentScriptType="application/ecmascript" contentStyleType="text/css" height="479px" preserveAspectRatio="none" style="width:284px;height:479px;" version="1.1" viewBox="0 0 284 479" width="284px" zoomAndPan="magnify"><defs><filter height="300%" id="fhanthn0cite8" width="300%" x="-1" y="-1"><feGaussianBlur result="blurOut" stdDeviation="2.0"/><feColorMatrix in="blurOut" result="blurOut2" type="matrix" values="0 0 0 0 0 0 0 0 0 0 0 0 0 0 0 0 0 0 .4 0"/><feOffset dx="4.0" dy="4.0" in="blurOut2" result="blurOut3"/><feBlend in="SourceGraphic" in2="blurOut3" mode="normal"/></filter></defs><g><rect fill="#FEFECE" filter="url(#fhanthn0cite8)" height="50.2656" rx="12.5" ry="12.5" style="stroke: #A80036; stroke-width: 1.5;" width="124" x="6" y="88"/><line style="stroke: #A80036; stroke-width: 1.5;" x1="6" x2="130" y1="114.2969" y2="114.2969"/><text fill="#000000" font-family="sans-serif" font-size="14" lengthAdjust="spacingAndGlyphs" textLength="72" x="32" y="105.9951">nvm install</text><text fill="#000000" font-family="sans-serif" font-size="12" lengthAdjust="spacingAndGlyphs" textLength="104" x="11" y="130.4355">6, 7, 8, 9, 10, 11</text><rect fill="#000000" filter="url(#fhanthn0cite8)" height="8" style="stroke: none; stroke-width: 1.0;" width="80" x="28" y="219"/><ellipse cx="68" cy="18" fill="#000000" filter="url(#fhanthn0cite8)" rx="10" ry="10" style="stroke: none; stroke-width: 1.0;"/><rect fill="#FEFECE" filter="url(#fhanthn0cite8)" height="50" rx="12.5" ry="12.5" style="stroke: #A80036; stroke-width: 1.5;" width="129" x="143.5" y="198"/><line style="stroke: #A80036; stroke-width: 1.5;" x1="143.5" x2="272.5" y1="224.2969" y2="224.2969"/><text fill="#000000" font-family="sans-serif" font-size="14" lengthAdjust="spacingAndGlyphs" textLength="109" x="153.5" y="215.9951">nvm install error</text><rect fill="#FEFECE" filter="url(#fhanthn0cite8)" height="50" rx="12.5" ry="12.5" style="stroke: #A80036; stroke-width: 1.5;" width="58" x="39" y="308"/><line style="stroke: #A80036; stroke-width: 1.5;" x1="39" x2="97" y1="334.2969" y2="334.2969"/><text fill="#000000" font-family="sans-serif" font-size="14" lengthAdjust="spacingAndGlyphs" textLength="38" x="49" y="325.9951">npm i</text><rect fill="#FEFECE" filter="url(#fhanthn0cite8)" height="50" rx="12.5" ry="12.5" style="stroke: #A80036; stroke-width: 1.5;" width="95" x="143.5" y="418"/><line style="stroke: #A80036; stroke-width: 1.5;" x1="143.5" x2="238.5" y1="444.2969" y2="444.2969"/><text fill="#000000" font-family="sans-serif" font-size="14" lengthAdjust="spacingAndGlyphs" textLength="75" x="153.5" y="435.9951">npm i error</text><rect fill="#000000" filter="url(#fhanthn0cite8)" height="8" style="stroke: none; stroke-width: 1.0;" width="80" x="28" y="439"/><!--link *start to nvm_install--><path d="M68,28.257 C68,40.856 68,63.981 68,82.743 " fill="none" id="*start-nvm_install" style="stroke: #A80036; stroke-width: 1.0;"/><polygon fill="#A80036" points="68,87.907,72,78.907,68,82.907,64,78.907,68,87.907" style="stroke: #A80036; stroke-width: 1.0;"/><!--link nvm_install to nvm_result--><path d="M68,138.237 C68,162.175 68,197.461 68,213.503 " fill="none" id="nvm_install-nvm_result" style="stroke: #A80036; stroke-width: 1.0;"/><polygon fill="#A80036" points="68,218.803,72,209.803,68,213.803,64,209.803,68,218.803" style="stroke: #A80036; stroke-width: 1.0;"/><!--link nvm_result to nvm_error--><path d="M108.195,223 C118.155,223 128.115,223 138.075,223 " fill="none" id="nvm_result-nvm_error" style="stroke: #A80036; stroke-width: 1.0;"/><polygon fill="#A80036" points="143.283,223,134.283,219,138.283,223,134.283,227,143.283,223" style="stroke: #A80036; stroke-width: 1.0;"/><!--link nvm_result to npm_i--><path d="M68,227.116 C68,238.075 68,275.643 68,302.686 " fill="none" id="nvm_result-npm_i" style="stroke: #A80036; stroke-width: 1.0;"/><polygon fill="#A80036" points="68,307.943,72,298.943,68,302.943,64,298.943,68,307.943" style="stroke: #A80036; stroke-width: 1.0;"/><!--link npm_i to npm_i_result--><path d="M68,358.237 C68,382.1752 68,417.4607 68,433.5035 " fill="none" id="npm_i-npm_i_result" style="stroke: #A80036; stroke-width: 1.0;"/><polygon fill="#A80036" points="68,438.8035,72,429.8035,68,433.8035,64,429.8035,68,438.8035" style="stroke: #A80036; stroke-width: 1.0;"/><!--link npm_i_result to npm_i_error--><path d="M108.359,443 C118.256,443 128.152,443 138.048,443 " fill="none" id="npm_i_result-npm_i_error" style="stroke: #A80036; stroke-width: 1.0;"/><polygon fill="#A80036" points="143.223,443,134.223,439,138.223,443,134.223,447,143.223,443" style="stroke: #A80036; stroke-width: 1.0;"/><!--
@startuml build_states
    state "nvm install" as nvm_install
    nvm_install: 6, 7, 8, 9, 10, 11
    state nvm_result <<fork>>
    [*] - -> nvm_install
    nvm_install - -> nvm_result
    state "nvm install error" as nvm_error
    nvm_result -> nvm_error

    state "npm i" as npm_i
    state "npm i error" as npm_i_error
    state npm_i_result <<fork>>
    nvm_result - -> npm_i
    npm_i - -> npm_i_result
    npm_i_result -> npm_i_error


@enduml

PlantUML version 1.2019.03(Sun Mar 10 13:04:44 EET 2019)
(GPL source distribution)
Java Runtime: Java(TM) SE Runtime Environment
JVM: Java HotSpot(TM) 64-Bit Server VM
Java Version: 1.8.0_201-b09
Operating System: Linux
OS Version: 4.15.0-47-generic
Default Encoding: UTF-8
Language: en
Country: US
--></g></svg>