<?xml version="1.0" encoding="UTF-8" standalone="no"?><svg xmlns="http://www.w3.org/2000/svg" xmlns:xlink="http://www.w3.org/1999/xlink" contentScriptType="application/ecmascript" contentStyleType="text/css" height="1012px" preserveAspectRatio="none" style="width:665px;height:1012px;" version="1.1" viewBox="0 0 665 1012" width="665px" zoomAndPan="magnify"><defs><filter height="300%" id="fmhm603q633in" width="300%" x="-1" y="-1"><feGaussianBlur result="blurOut" stdDeviation="2.0"/><feColorMatrix in="blurOut" result="blurOut2" type="matrix" values="0 0 0 0 0 0 0 0 0 0 0 0 0 0 0 0 0 0 .4 0"/><feOffset dx="4.0" dy="4.0" in="blurOut2" result="blurOut3"/><feBlend in="SourceGraphic" in2="blurOut3" mode="normal"/></filter></defs><g><!--cluster Internet/Intranet--><path d="M71,31 C71,28 73,26 76,26 C79,26 81,28 81,31 C81,28 83,26 86,26 C89,26 91,28 91,31 C91,28 93,26 96,26 C99,26 101,28 101,31 C101,28 103,26 106,26 C109,26 111,28 111,31 C111,28 113,26 116,26 C119,26 121,28 121,31 C121,28 123,26 126,26 C129,26 131,28 131,31 C131,28 133,26 136,26 C139,26 141,28 141,31 C141,28 143,26 146,26 C149,26 151,28 151,31 C151,28 153,26 156,26 C159,26 161,28 161,31 C161,28 163,26 166,26 C169,26 171,28 171,31 C171,28 173,26 176,26 C179,26 181,28 181,31 C181,28 183,26 186,26 C189,26 191,28 191,31 C191,28 193,26 196,26 C199,26 201,28 201,31 C201,28 203,26 206,26 C209,26 211,28 211,31 C211,28 213,26 216,26 C219,26 221,28 221,31 C221,28 223,26 226,26 C229,26 231,28 231,31 C231,28 233,26 236,26 C239,26 241,28 241,31 C241,28 243,26 246,26 C249,26 251,28 251,31 C251,28 253,26 256,26 C259,26 261,28 261,31 C261,28 263,26 266,26 C269,26 271,28 271,31 C271,28 273,26 276,26 C279,26 281,28 281,31 C281,28 283,26 286,26 C289,26 291,28 291,31 C291,28 293,26 296,26 C299,26 301,28 301,31 C301,28 303,26 306,26 C309,26 311,28 311,31 C311,28 313,26 316,26 C319,26 321,28 321,31 C321,28 323,26 326,26 C329,26 331,28 331,31 C331,28 333,26 336,26 C339,26 341,28 341,31 C341,28 343,26 346,26 C349,26 351,28 351,31 C351,28 353,26 356,26 C359,26 361,28 361,31 C361,28 363,26 366,26 C369,26 371,28 371,31 C371,28 373,26 376,26 C379,26 381,28 381,31 C381,28 383,26 386,26 C389,26 391,28 391,31 C391,28 393,26 396,26 C399,26 401,28 401,31 C401,28 403,26 406,26 C409,26 411,28 411,31 C411,28 413,26 416,26 C419,26 421,28 421,31 C421,28 423,26 426,26 C429,26 431,28 431,31 C431,28 433,26 436,26 C439,26 441,28 441,31 C441,28 443,26 446,26 C449,26 451,28 451,31 C451,28 453,26 456,26 C459,26 461,28 461,31 C461,28 463,26 466,26 C469,26 471,28 471,31 C471,28 473,26 476,26 C479,26 481,28 481,31 C481,28 483,26 486,26 C489,26 491,28 491,31 C491,28 493,26 496,26 C499,26 501,28 501,31 C501,28 503,26 506,26 C509,26 511,28 511,31 C511,28 513,26 516,26 C519,26 521,28 521,31 C521,28 523,26 526,26 C529,26 531,28 531,31 C531,28 533,26 536,26 C539,26 541,28 541,31 C541,28 543,26 546,26 C549,26 551,28 551,31 C551,28 553,26 556,26 C559,26 561,28 561,31 C561,28 563,26 566,26 C569,26 571,28 571,31 C571,28 573,26 576,26 C579,26 581,28 581,31 C581,28 583,26 586,26 C589,26 591,28 591,31 C591,28 593,26 596,26 C599,26 601,28 601,31 C601,28 603,26 606,26 C609,26 611,28 611,31 C611,28 613,26 616,26 C619,26 621,28 621,31 C621,28 623,26 626,26 C629,26 631,28 631,31 C634,31 636,33 636,36 C636,39 634,41 631,41 C634,41 636,43 636,46 C636,49 634,51 631,51 C634,51 636,53 636,56 C636,59 634,61 631,61 C634,61 636,63 636,66 C636,69 634,71 631,71 C634,71 636,73 636,76 C636,79 634,81 631,81 C634,81 636,83 636,86 C636,89 634,91 631,91 C634,91 636,93 636,96 C636,99 634,101 631,101 C634,101 636,103 636,106 C636,109 634,111 631,111 C634,111 636,113 636,116 C636,119 634,121 631,121 C634,121 636,123 636,126 C636,129 634,131 631,131 C634,131 636,133 636,136 C636,139 634,141 631,141 C634,141 636,143 636,146 C636,149 634,151 631,151 C634,151 636,153 636,156 C636,159 634,161 631,161 C634,161 636,163 636,166 C636,169 634,171 631,171 C634,171 636,173 636,176 C636,179 634,181 631,181 C634,181 636,183 636,186 C636,189 634,191 631,191 C634,191 636,193 636,196 C636,199 634,201 631,201 C634,201 636,203 636,206 C636,209 634,211 631,211 C634,211 636,213 636,216 C636,219 634,221 631,221 C634,221 636,223 636,226 C636,229 634,231 631,231 C634,231 636,233 636,236 C636,239 634,241 631,241 C634,241 636,243 636,246 C636,249 634,251 631,251 C634,251 636,253 636,256 C636,259 634,261 631,261 C634,261 636,263 636,266 C636,269 634,271 631,271 C634,271 636,273 636,276 C636,279 634,281 631,281 C634,281 636,283 636,286 C636,289 634,291 631,291 C634,291 636,293 636,296 C636,299 634,301 631,301 C634,301 636,303 636,306 C636,309 634,311 631,311 C634,311 636,313 636,316 C636,319 634,321 631,321 C634,321 636,323 636,326 C636,329 634,331 631,331 C634,331 636,333 636,336 C636,339 634,341 631,341 C634,341 636,343 636,346 C636,349 634,351 631,351 C634,351 636,353 636,356 C636,359 634,361 631,361 C634,361 636,363 636,366 C636,369 634,371 631,371 C634,371 636,373 636,376 C636,379 634,381 631,381 C634,381 636,383 636,386 C636,389 634,391 631,391 C634,391 636,393 636,396 C636,399 634,401 631,401 C634,401 636,403 636,406 C636,409 634,411 631,411 C634,411 636,413 636,416 C636,419 634,421 631,421 C634,421 636,423 636,426 C636,429 634,431 631,431 C634,431 636,433 636,436 C636,439 634,441 631,441 C634,441 636,443 636,446 C636,449 634,451 631,451 C634,451 636,453 636,456 C636,459 634,461 631,461 C634,461 636,463 636,466 C636,469 634,471 631,471 C634,471 636,473 636,476 C636,479 634,481 631,481 C634,481 636,483 636,486 C636,489 634,491 631,491 C634,491 636,493 636,496 C636,499 634,501 631,501 C634,501 636,503 636,506 C636,509 634,511 631,511 C634,511 636,513 636,516 C636,519 634,521 631,521 C634,521 636,523 636,526 C636,529 634,531 631,531 C634,531 636,533 636,536 C636,539 634,541 631,541 C634,541 636,543 636,546 C636,549 634,551 631,551 C634,551 636,553 636,556 C636,559 634,561 631,561 C634,561 636,563 636,566 C636,569 634,571 631,571 C634,571 636,573 636,576 C636,579 634,581 631,581 C631,584 628,586 626,586 C623,586 621,584 621,581 C621,584 618,586 616,586 C613,586 611,584 611,581 C611,584 608,586 606,586 C603,586 601,584 601,581 C601,584 598,586 596,586 C593,586 591,584 591,581 C591,584 588,586 586,586 C583,586 581,584 581,581 C581,584 578,586 576,586 C573,586 571,584 571,581 C571,584 568,586 566,586 C563,586 561,584 561,581 C561,584 558,586 556,586 C553,586 551,584 551,581 C551,584 548,586 546,586 C543,586 541,584 541,581 C541,584 538,586 536,586 C533,586 531,584 531,581 C531,584 528,586 526,586 C523,586 521,584 521,581 C521,584 518,586 516,586 C513,586 511,584 511,581 C511,584 508,586 506,586 C503,586 501,584 501,581 C501,584 498,586 496,586 C493,586 491,584 491,581 C491,584 488,586 486,586 C483,586 481,584 481,581 C481,584 478,586 476,586 C473,586 471,584 471,581 C471,584 468,586 466,586 C463,586 461,584 461,581 C461,584 458,586 456,586 C453,586 451,584 451,581 C451,584 448,586 446,586 C443,586 441,584 441,581 C441,584 438,586 436,586 C433,586 431,584 431,581 C431,584 428,586 426,586 C423,586 421,584 421,581 C421,584 418,586 416,586 C413,586 411,584 411,581 C411,584 408,586 406,586 C403,586 401,584 401,581 C401,584 398,586 396,586 C393,586 391,584 391,581 C391,584 388,586 386,586 C383,586 381,584 381,581 C381,584 378,586 376,586 C373,586 371,584 371,581 C371,584 368,586 366,586 C363,586 361,584 361,581 C361,584 358,586 356,586 C353,586 351,584 351,581 C351,584 348,586 346,586 C343,586 341,584 341,581 C341,584 338,586 336,586 C333,586 331,584 331,581 C331,584 328,586 326,586 C323,586 321,584 321,581 C321,584 318,586 316,586 C313,586 311,584 311,581 C311,584 308,586 306,586 C303,586 301,584 301,581 C301,584 298,586 296,586 C293,586 291,584 291,581 C291,584 288,586 286,586 C283,586 281,584 281,581 C281,584 278,586 276,586 C273,586 271,584 271,581 C271,584 268,586 266,586 C263,586 261,584 261,581 C261,584 258,586 256,586 C253,586 251,584 251,581 C251,584 248,586 246,586 C243,586 241,584 241,581 C241,584 238,586 236,586 C233,586 231,584 231,581 C231,584 228,586 226,586 C223,586 221,584 221,581 C221,584 218,586 216,586 C213,586 211,584 211,581 C211,584 208,586 206,586 C203,586 201,584 201,581 C201,584 198,586 196,586 C193,586 191,584 191,581 C191,584 188,586 186,586 C183,586 181,584 181,581 C181,584 178,586 176,586 C173,586 171,584 171,581 C171,584 168,586 166,586 C163,586 161,584 161,581 C161,584 158,586 156,586 C153,586 151,584 151,581 C151,584 148,586 146,586 C143,586 141,584 141,581 C141,584 138,586 136,586 C133,586 131,584 131,581 C131,584 128,586 126,586 C123,586 121,584 121,581 C121,584 118,586 116,586 C113,586 111,584 111,581 C111,584 108,586 106,586 C103,586 101,584 101,581 C101,584 98,586 96,586 C93,586 91,584 91,581 C91,584 88,586 86,586 C83,586 81,584 81,581 C81,584 78,586 76,586 C73,586 71,584 71,581 C68,581 66,579 66,576 C66,573 68,571 71,571 C68,571 66,569 66,566 C66,563 68,561 71,561 C68,561 66,559 66,556 C66,553 68,551 71,551 C68,551 66,549 66,546 C66,543 68,541 71,541 C68,541 66,539 66,536 C66,533 68,531 71,531 C68,531 66,529 66,526 C66,523 68,521 71,521 C68,521 66,519 66,516 C66,513 68,511 71,511 C68,511 66,509 66,506 C66,503 68,501 71,501 C68,501 66,499 66,496 C66,493 68,491 71,491 C68,491 66,489 66,486 C66,483 68,481 71,481 C68,481 66,479 66,476 C66,473 68,471 71,471 C68,471 66,469 66,466 C66,463 68,461 71,461 C68,461 66,459 66,456 C66,453 68,451 71,451 C68,451 66,449 66,446 C66,443 68,441 71,441 C68,441 66,439 66,436 C66,433 68,431 71,431 C68,431 66,429 66,426 C66,423 68,421 71,421 C68,421 66,419 66,416 C66,413 68,411 71,411 C68,411 66,409 66,406 C66,403 68,401 71,401 C68,401 66,399 66,396 C66,393 68,391 71,391 C68,391 66,389 66,386 C66,383 68,381 71,381 C68,381 66,379 66,376 C66,373 68,371 71,371 C68,371 66,369 66,366 C66,363 68,361 71,361 C68,361 66,359 66,356 C66,353 68,351 71,351 C68,351 66,349 66,346 C66,343 68,341 71,341 C68,341 66,339 66,336 C66,333 68,331 71,331 C68,331 66,329 66,326 C66,323 68,321 71,321 C68,321 66,319 66,316 C66,313 68,311 71,311 C68,311 66,309 66,306 C66,303 68,301 71,301 C68,301 66,299 66,296 C66,293 68,291 71,291 C68,291 66,289 66,286 C66,283 68,281 71,281 C68,281 66,279 66,276 C66,273 68,271 71,271 C68,271 66,269 66,266 C66,263 68,261 71,261 C68,261 66,259 66,256 C66,253 68,251 71,251 C68,251 66,249 66,246 C66,243 68,241 71,241 C68,241 66,239 66,236 C66,233 68,231 71,231 C68,231 66,229 66,226 C66,223 68,221 71,221 C68,221 66,219 66,216 C66,213 68,211 71,211 C68,211 66,209 66,206 C66,203 68,201 71,201 C68,201 66,199 66,196 C66,193 68,191 71,191 C68,191 66,189 66,186 C66,183 68,181 71,181 C68,181 66,179 66,176 C66,173 68,171 71,171 C68,171 66,169 66,166 C66,163 68,161 71,161 C68,161 66,159 66,156 C66,153 68,151 71,151 C68,151 66,149 66,146 C66,143 68,141 71,141 C68,141 66,139 66,136 C66,133 68,131 71,131 C68,131 66,129 66,126 C66,123 68,121 71,121 C68,121 66,119 66,116 C66,113 68,111 71,111 C68,111 66,109 66,106 C66,103 68,101 71,101 C68,101 66,99 66,96 C66,93 68,91 71,91 C68,91 66,89 66,86 C66,83 68,81 71,81 C68,81 66,79 66,76 C66,73 68,71 71,71 C68,71 66,69 66,66 C66,63 68,61 71,61 C68,61 66,59 66,56 C66,53 68,51 71,51 C68,51 66,49 66,46 C66,43 68,41 71,41 C68,41 66,39 66,36 C66,33 68,31 71,31 " fill="#FFFFFF" style="stroke: #000000; stroke-width: 1.5;"/><text fill="#000000" font-family="sans-serif" font-size="14" font-weight="bold" lengthAdjust="spacingAndGlyphs" textLength="115" x="295" y="51.5332">Internet/Intranet</text><!--cluster gitServer--><polygon fill="#FFFFFF" filter="url(#fmhm603q633in)" points="100,104,110,94,271,94,271,265,261,275,100,275,100,104" style="stroke: #000000; stroke-width: 1.5;"/><line style="stroke: #000000; stroke-width: 1.5;" x1="261" x2="270" y1="104" y2="95"/><line style="stroke: #000000; stroke-width: 1.5;" x1="100" x2="261" y1="104" y2="104"/><line style="stroke: #000000; stroke-width: 1.5;" x1="261" x2="261" y1="104" y2="275"/><text fill="#000000" font-family="sans-serif" font-size="14" font-weight="bold" lengthAdjust="spacingAndGlyphs" textLength="23" x="170" y="121.5332">GIT</text><text fill="#000000" font-family="sans-serif" font-size="14" font-weight="bold" lengthAdjust="spacingAndGlyphs" textLength="47" x="158" y="139.1426">server</text><!--cluster ciServer--><polygon fill="#FFFFFF" filter="url(#fmhm603q633in)" points="92,447,102,437,320,437,320,550,310,560,92,560,92,447" style="stroke: #000000; stroke-width: 1.5;"/><line style="stroke: #000000; stroke-width: 1.5;" x1="310" x2="319" y1="447" y2="438"/><line style="stroke: #000000; stroke-width: 1.5;" x1="92" x2="310" y1="447" y2="447"/><line style="stroke: #000000; stroke-width: 1.5;" x1="310" x2="310" y1="447" y2="560"/><text fill="#000000" font-family="sans-serif" font-size="14" font-weight="bold" lengthAdjust="spacingAndGlyphs" textLength="38" x="183" y="464.5332">CI/CD</text><text fill="#000000" font-family="sans-serif" font-size="14" font-weight="bold" lengthAdjust="spacingAndGlyphs" textLength="47" x="178.5" y="482.1426">server</text><!--cluster npmServer--><polygon fill="#FFFFFF" filter="url(#fmhm603q633in)" points="311,86,321,76,605,76,605,263,595,273,311,273,311,86" style="stroke: #000000; stroke-width: 1.5;"/><line style="stroke: #000000; stroke-width: 1.5;" x1="595" x2="604" y1="86" y2="77"/><line style="stroke: #000000; stroke-width: 1.5;" x1="311" x2="595" y1="86" y2="86"/><line style="stroke: #000000; stroke-width: 1.5;" x1="595" x2="595" y1="86" y2="273"/><text fill="#000000" font-family="sans-serif" font-size="14" font-weight="bold" lengthAdjust="spacingAndGlyphs" textLength="32" x="438" y="103.5332">NPM</text><text fill="#000000" font-family="sans-serif" font-size="14" font-weight="bold" lengthAdjust="spacingAndGlyphs" textLength="47" x="430.5" y="121.1426">server</text><!--cluster cli--><polygon fill="#FFFFFF" filter="url(#fmhm603q633in)" points="467,151,489,151,496,174.6094,573,174.6094,573,241,467,241,467,151" style="stroke: #000000; stroke-width: 1.5;"/><line style="stroke: #000000; stroke-width: 1.5;" x1="467" x2="496" y1="174.6094" y2="174.6094"/><text fill="#000000" font-family="sans-serif" font-size="14" font-weight="bold" lengthAdjust="spacingAndGlyphs" textLength="16" x="471" y="167.5332">cli</text><!--cluster plugins--><polygon fill="#FFFFFF" filter="url(#fmhm603q633in)" points="351,151,409,151,416,174.6094,443,174.6094,443,241,351,241,351,151" style="stroke: #000000; stroke-width: 1.5;"/><line style="stroke: #000000; stroke-width: 1.5;" x1="351" x2="416" y1="174.6094" y2="174.6094"/><text fill="#000000" font-family="sans-serif" font-size="14" font-weight="bold" lengthAdjust="spacingAndGlyphs" textLength="52" x="355" y="167.5332">plugins</text><!--cluster devPC--><polygon fill="#FFFFFF" filter="url(#fmhm603q633in)" points="30,756,40,746,290,746,290,864,280,874,30,874,30,756" style="stroke: #000000; stroke-width: 1.5;"/><line style="stroke: #000000; stroke-width: 1.5;" x1="280" x2="289" y1="756" y2="747"/><line style="stroke: #000000; stroke-width: 1.5;" x1="30" x2="280" y1="756" y2="756"/><line style="stroke: #000000; stroke-width: 1.5;" x1="280" x2="280" y1="756" y2="874"/><text fill="#000000" font-family="sans-serif" font-size="14" font-weight="bold" lengthAdjust="spacingAndGlyphs" textLength="154" x="79" y="773.5332">Leaders' Environment</text><!--cluster userPC--><polygon fill="#FFFFFF" filter="url(#fmhm603q633in)" points="322,772.5,332,762.5,643,762.5,643,990,633,1000,322,1000,322,772.5" style="stroke: #000000; stroke-width: 1.5;"/><line style="stroke: #000000; stroke-width: 1.5;" x1="633" x2="642" y1="772.5" y2="763.5"/><line style="stroke: #000000; stroke-width: 1.5;" x1="322" x2="633" y1="772.5" y2="772.5"/><line style="stroke: #000000; stroke-width: 1.5;" x1="633" x2="633" y1="772.5" y2="1000"/><text fill="#000000" font-family="sans-serif" font-size="14" font-weight="bold" lengthAdjust="spacingAndGlyphs" textLength="179" x="389" y="790.0332">Developers' Environment</text><!--entity BashInterface--><ellipse cx="200" cy="360" fill="#FEFECE" filter="url(#fmhm603q633in)" rx="8" ry="8" style="stroke: #A80036; stroke-width: 2.0;"/><text fill="#000000" font-family="sans-serif" font-size="14" lengthAdjust="spacingAndGlyphs" textLength="143" x="128.5" y="391.5332">Webhooks + Bash + ...</text><!--entity SourceCode--><polygon fill="#FEFECE" filter="url(#fmhm603q633in)" points="143.5,161,143.5,251.4375,246.5,251.4375,246.5,171,236.5,161,143.5,161" style="stroke: #000000; stroke-width: 1.5;"/><path d="M236.5,161 L236.5,171 L246.5,171 " fill="#FEFECE" style="stroke: #000000; stroke-width: 1.5;"/><text fill="#000000" font-family="sans-serif" font-size="14" lengthAdjust="spacingAndGlyphs" textLength="43" x="153.5" y="185.5332">source</text><text fill="#000000" font-family="sans-serif" font-size="14" lengthAdjust="spacingAndGlyphs" textLength="31" x="153.5" y="203.1426">code</text><text fill="#000000" font-family="sans-serif" font-size="14" lengthAdjust="spacingAndGlyphs" textLength="72" x="153.5" y="220.752">(.travis.yml,</text><text fill="#000000" font-family="sans-serif" font-size="14" lengthAdjust="spacingAndGlyphs" textLength="83" x="153.5" y="238.3613">.gitlab-ci.yml)</text><!--entity ciBuildNode--><polygon fill="#FEFECE" filter="url(#fmhm603q633in)" points="108,506,118,496,304,496,304,533.6094,294,543.6094,108,543.6094,108,506" style="stroke: #000000; stroke-width: 1.5;"/><line style="stroke: #000000; stroke-width: 1.5;" x1="294" x2="303" y1="506" y2="497"/><line style="stroke: #000000; stroke-width: 1.5;" x1="108" x2="294" y1="506" y2="506"/><line style="stroke: #000000; stroke-width: 1.5;" x1="294" x2="294" y1="506" y2="543.6094"/><text fill="#000000" font-family="sans-serif" font-size="14" lengthAdjust="spacingAndGlyphs" textLength="156" x="123" y="530.5332">Build Container (Docker)</text><!--entity server.js--><polygon fill="#FEFECE" filter="url(#fmhm603q633in)" points="483,187,483,224.6094,557,224.6094,557,197,547,187,483,187" style="stroke: #000000; stroke-width: 1.5;"/><path d="M547,187 L547,197 L557,197 " fill="#FEFECE" style="stroke: #000000; stroke-width: 1.5;"/><text fill="#000000" font-family="sans-serif" font-size="14" lengthAdjust="spacingAndGlyphs" textLength="54" x="493" y="211.5332">server.js</text><!--entity cmd.js--><polygon fill="#FEFECE" filter="url(#fmhm603q633in)" points="367,187,367,224.6094,427,224.6094,427,197,417,187,367,187" style="stroke: #000000; stroke-width: 1.5;"/><path d="M417,187 L417,197 L427,197 " fill="#FEFECE" style="stroke: #000000; stroke-width: 1.5;"/><text fill="#000000" font-family="sans-serif" font-size="14" lengthAdjust="spacingAndGlyphs" textLength="40" x="377" y="211.5332">cmd.js</text><!--entity CLI Server \n sources--><polygon fill="#FEFECE" filter="url(#fmhm603q633in)" points="178.5,795,178.5,850.2188,265.5,850.2188,265.5,805,255.5,795,178.5,795" style="stroke: #000000; stroke-width: 1.5;"/><path d="M255.5,795 L255.5,805 L265.5,805 " fill="#FEFECE" style="stroke: #000000; stroke-width: 1.5;"/><text fill="#000000" font-family="sans-serif" font-size="14" lengthAdjust="spacingAndGlyphs" textLength="67" x="188.5" y="819.5332">CLI Server</text><text fill="#000000" font-family="sans-serif" font-size="14" lengthAdjust="spacingAndGlyphs" textLength="50" x="188.5" y="837.1426">sources</text><!--entity Plugins \n sources--><polygon fill="#FEFECE" filter="url(#fmhm603q633in)" points="73,795,73,850.2188,143,850.2188,143,805,133,795,73,795" style="stroke: #000000; stroke-width: 1.5;"/><path d="M133,795 L133,805 L143,805 " fill="#FEFECE" style="stroke: #000000; stroke-width: 1.5;"/><text fill="#000000" font-family="sans-serif" font-size="14" lengthAdjust="spacingAndGlyphs" textLength="46" x="83" y="819.5332">Plugins</text><text fill="#000000" font-family="sans-serif" font-size="14" lengthAdjust="spacingAndGlyphs" textLength="50" x="83" y="837.1426">sources</text><!--entity npmClient--><rect fill="#FEFECE" filter="url(#fmhm603q633in)" height="37.6094" style="stroke: #A80036; stroke-width: 1.5;" width="89" x="440.5" y="803.5"/><rect fill="#FEFECE" height="5" style="stroke: #A80036; stroke-width: 1.5;" width="10" x="435.5" y="808.5"/><rect fill="#FEFECE" height="5" style="stroke: #A80036; stroke-width: 1.5;" width="10" x="435.5" y="831.1094"/><text fill="#000000" font-family="sans-serif" font-size="14" lengthAdjust="spacingAndGlyphs" textLength="69" x="450.5" y="828.0332">NPM Client</text><!--entity nodejs--><rect fill="#FEFECE" filter="url(#fmhm603q633in)" height="37.6094" style="stroke: #A80036; stroke-width: 1.5;" width="67" x="338.5" y="803.5"/><rect fill="#FEFECE" height="5" style="stroke: #A80036; stroke-width: 1.5;" width="10" x="333.5" y="808.5"/><rect fill="#FEFECE" height="5" style="stroke: #A80036; stroke-width: 1.5;" width="10" x="333.5" y="831.1094"/><text fill="#000000" font-family="sans-serif" font-size="14" lengthAdjust="spacingAndGlyphs" textLength="47" x="348.5" y="828.0332">Node.js</text><!--entity CLIServer--><rect fill="#FEFECE" filter="url(#fmhm603q633in)" height="37.6094" style="stroke: #A80036; stroke-width: 1.5;" width="87" x="338.5" y="946"/><rect fill="#FEFECE" height="5" style="stroke: #A80036; stroke-width: 1.5;" width="10" x="333.5" y="951"/><rect fill="#FEFECE" height="5" style="stroke: #A80036; stroke-width: 1.5;" width="10" x="333.5" y="973.6094"/><text fill="#000000" font-family="sans-serif" font-size="14" lengthAdjust="spacingAndGlyphs" textLength="67" x="348.5" y="970.5332">CLI Server</text><!--entity Plugin--><rect fill="#FEFECE" filter="url(#fmhm603q633in)" height="37.6094" style="stroke: #A80036; stroke-width: 1.5;" width="143" x="483.5" y="946"/><rect fill="#FEFECE" height="5" style="stroke: #A80036; stroke-width: 1.5;" width="10" x="478.5" y="951"/><rect fill="#FEFECE" height="5" style="stroke: #A80036; stroke-width: 1.5;" width="10" x="478.5" y="973.6094"/><text fill="#000000" font-family="sans-serif" font-size="14" lengthAdjust="spacingAndGlyphs" textLength="123" x="493.5" y="970.5332">Plugable Command</text><!--entity CLI--><ellipse cx="574" cy="822.5" fill="#FEFECE" filter="url(#fmhm603q633in)" rx="8" ry="8" style="stroke: #A80036; stroke-width: 2.0;"/><text fill="#000000" font-family="sans-serif" font-size="14" lengthAdjust="spacingAndGlyphs" textLength="21" x="563.5" y="854.0332">CLI</text><!--entity gitInterface--><ellipse cx="55" cy="661" fill="#FEFECE" filter="url(#fmhm603q633in)" rx="8" ry="8" style="stroke: #A80036; stroke-width: 2.0;"/><text fill="#000000" font-family="sans-serif" font-size="14" lengthAdjust="spacingAndGlyphs" textLength="23" x="43.5" y="692.5332">GIT</text><!--entity npmInterface--><ellipse cx="357" cy="661" fill="#FEFECE" filter="url(#fmhm603q633in)" rx="8" ry="8" style="stroke: #A80036; stroke-width: 2.0;"/><text fill="#000000" font-family="sans-serif" font-size="14" lengthAdjust="spacingAndGlyphs" textLength="29" x="342.5" y="692.5332">NPM</text><!--link SourceCode to BashInterface--><path d="M196.46,251.373 C197.437,281.084 198.672,318.644 199.396,340.627 " fill="none" id="SourceCode-BashInterface" style="stroke: #A80036; stroke-width: 1.0;"/><path d="M208.0825,347.4806 A9,9 0 0 0 191.1772 348.0363" fill="none" style="stroke: #A80036; stroke-width: 1.5;"/><!--link BashInterface to ciBuildNode--><path d="M200.306,369.052 C201.187,392.257 203.756,459.899 205.122,495.873 " fill="none" id="BashInterface-ciBuildNode" style="stroke: #A80036; stroke-width: 1.0;"/><!--link gitServer to gitInterface--><path d="M99.9453,226.0046 C99.8543,226.2309 99.7628,226.4588 99.6709,226.6882 C98.2001,230.3589 96.6112,234.4283 94.9701,238.795 C88.4059,256.262 81.0074,278.488 77,299 C49.851,437.964 53.4608,612.217 54.7063,651.766 " fill="none" id="gitServer-gitInterface" style="stroke: #A80036; stroke-width: 1.0;"/><!--link ciBuildNode to gitInterface--><path d="M180.726,544.265 C149.665,572.858 97.8479,620.557 71.4881,644.822 " fill="none" id="ciBuildNode-gitInterface" style="stroke: #A80036; stroke-width: 1.0;"/><path d="M71.8755,655.9604 A9,9 0 0 0 60.4197 643.516" fill="none" style="stroke: #A80036; stroke-width: 1.5;"/><!--link npmServer to npmInterface--><path d="M331.3958,273.0474 C331.4464,273.3699 331.4969,273.6925 331.5472,274.0153 C331.6478,274.6608 331.7477,275.3069 331.8469,275.9532 C332.2438,278.5387 332.629,281.1294 332.9987,283.7118 C333.7382,288.8766 334.4156,294.0084 335,299 C351.462,439.631 355.993,612.614 356.839,651.837 " fill="none" id="npmServer-npmInterface" style="stroke: #A80036; stroke-width: 1.0;"/><!--link ciBuildNode to npmInterface--><path d="M231.274,544.265 C262.335,572.858 314.152,620.557 340.512,644.822 " fill="none" id="ciBuildNode-npmInterface" style="stroke: #A80036; stroke-width: 1.0;"/><path d="M351.5803,643.516 A9,9 0 0 0 340.1243 655.9603" fill="none" style="stroke: #A80036; stroke-width: 1.5;"/><!--link nodejs to CLIServer--><path d="M373.666,846.903 C375.65,874.778 378.921,920.7353 380.718,945.9891 " fill="none" id="nodejs-CLIServer" style="stroke: #A80036; stroke-width: 1.0; stroke-dasharray: 7.0,7.0;"/><polygon fill="#A80036" points="373.287,841.58,369.9374,850.8418,373.6427,846.5673,377.9172,850.2726,373.287,841.58" style="stroke: #A80036; stroke-width: 1.0;"/><text fill="#000000" font-family="sans-serif" font-size="13" lengthAdjust="spacingAndGlyphs" textLength="53" x="380" y="912.4951">based on</text><!--link npmClient to CLIServer--><path d="M478.49,841.793 C470.944,861.417 457.178,892.876 439,916 C431.305,925.7896 421.338,935.0031 411.897,942.6898 " fill="none" id="npmClient-CLIServer" style="stroke: #A80036; stroke-width: 1.0; stroke-dasharray: 7.0,7.0;"/><polygon fill="#A80036" points="407.89,945.8879,417.419,943.3981,411.7973,942.7681,412.4273,937.1465,407.89,945.8879" style="stroke: #A80036; stroke-width: 1.0;"/><text fill="#000000" font-family="sans-serif" font-size="13" lengthAdjust="spacingAndGlyphs" textLength="21" x="452" y="912.4951">use</text><!--link CLIServer to Plugin--><path d="M425.655,965 C441.667,965 460.299,965 478.351,965 " fill="none" id="CLIServer-Plugin" style="stroke: #A80036; stroke-width: 1.0; stroke-dasharray: 7.0,7.0;"/><polygon fill="#A80036" points="483.425,965,474.425,961,478.425,965,474.425,969,483.425,965" style="stroke: #A80036; stroke-width: 1.0;"/><text fill="#000000" font-family="sans-serif" font-size="13" lengthAdjust="spacingAndGlyphs" textLength="21" x="444" y="958.4951">use</text><!--link npmClient to CLI--><path d="M529.848,822.5 C541.461,822.5 553.074,822.5 564.687,822.5 " fill="none" id="npmClient-CLI" style="stroke: #A80036; stroke-width: 1.0;"/><!--link gitInterface to devPC--><path d="M53.07,680.108 C51.9756,690.3757 50.5091,704.1351 48.9194,719.0501 C48.1246,726.5076 47.2989,734.254 46.4736,741.9973 C46.3705,742.9652 46.2673,743.9331 46.1642,744.9003 C46.1384,745.1421 46.1127,745.3839 46.0869,745.6256 " fill="none" id="gitInterface-devPC" style="stroke: #A80036; stroke-width: 1.0;"/><path d="M45.3977,672.2934 A9,9 0 0 0 62.2169 674.0863" fill="none" style="stroke: #A80036; stroke-width: 1.5;"/><!--link npmInterface to npmClient--><path d="M373.435,677.35 C387.318,690.677 407.377,710.798 423,730 C442.619,754.113 462.236,784.349 473.997,803.303 " fill="none" id="npmInterface-npmClient" style="stroke: #A80036; stroke-width: 1.0;"/><path d="M362.467,678.6019 A9,9 0 0 0 374.1091 666.3315" fill="none" style="stroke: #A80036; stroke-width: 1.5;"/><!--
@startuml
cloud "Internet/Intranet" {
    node "GIT\nserver" as gitServer {
        file "source \n code \n (.travis.yml, \n .gitlab-ci.yml)" as SourceCode
    }
    node "<b>CI/CD</b>\n<b>server</b>" as ciServer {
        node "Build Container (Docker)" as ciBuildNode
    }
    node "NPM\nserver" as npmServer  {
        package cli {
            file "server.js"
        }
        package plugins {
            file "cmd.js"
        }
    }
    interface "Webhooks + Bash + ..." as BashInterface

    SourceCode - -( BashInterface
    BashInterface - - ciBuildNode
}
interface "GIT" as gitInterface
interface "NPM" as npmInterface

gitServer - - gitInterface
ciBuildNode - -( gitInterface
npmServer - - npmInterface
ciBuildNode - -( npmInterface

node "Leaders' Environment" as devPC {
    file "CLI Server \n sources"
    file "Plugins \n sources"
}
node "Developers' Environment" as userPC {
    component "NPM Client" as npmClient
    component "Node.js" as nodejs
    component "CLI Server" as CLIServer
    component "Plugable Command" as Plugin
    interface CLI
    nodejs <.. CLIServer: based on
    npmClient ..> CLIServer: use
    CLIServer .> Plugin: use
    npmClient - CLI
}
gitInterface )- - devPC
npmInterface )- - npmClient
@enduml

PlantUML version 1.2019.03(Sun Mar 10 13:04:44 EET 2019)
(GPL source distribution)
Java Runtime: Java(TM) SE Runtime Environment
JVM: Java HotSpot(TM) Client VM
Java Version: 1.8.0_211-b12
Operating System: Windows 10
OS Version: 10.0
Default Encoding: Cp1251
Language: ru
Country: RU
--></g></svg>