<?xml version="1.0" encoding="UTF-8" standalone="no"?><svg xmlns="http://www.w3.org/2000/svg" xmlns:xlink="http://www.w3.org/1999/xlink" contentScriptType="application/ecmascript" contentStyleType="text/css" height="283px" preserveAspectRatio="none" style="width:341px;height:283px;" version="1.1" viewBox="0 0 341 283" width="341px" zoomAndPan="magnify"><defs><filter height="300%" id="fq31fqxl7i639" width="300%" x="-1" y="-1"><feGaussianBlur result="blurOut" stdDeviation="2.0"/><feColorMatrix in="blurOut" result="blurOut2" type="matrix" values="0 0 0 0 0 0 0 0 0 0 0 0 0 0 0 0 0 0 .4 0"/><feOffset dx="4.0" dy="4.0" in="blurOut2" result="blurOut3"/><feBlend in="SourceGraphic" in2="blurOut3" mode="normal"/></filter></defs><g><!--entity GITServer--><polygon fill="#FEFECE" filter="url(#fq31fqxl7i639)" points="6,126,16,116,115,116,115,153.6094,105,163.6094,6,163.6094,6,126" style="stroke: #000000; stroke-width: 1.5;"/><line style="stroke: #000000; stroke-width: 1.5;" x1="105" x2="114" y1="126" y2="117"/><line style="stroke: #000000; stroke-width: 1.5;" x1="6" x2="105" y1="126" y2="126"/><line style="stroke: #000000; stroke-width: 1.5;" x1="105" x2="105" y1="126" y2="163.6094"/><text fill="#000000" font-family="sans-serif" font-size="14" lengthAdjust="spacingAndGlyphs" textLength="69" x="21" y="150.5332">GIT Server</text><!--entity NPMServer--><polygon fill="#FEFECE" filter="url(#fq31fqxl7i639)" points="204,126,214,116,319,116,319,153.6094,309,163.6094,204,163.6094,204,126" style="stroke: #000000; stroke-width: 1.5;"/><line style="stroke: #000000; stroke-width: 1.5;" x1="309" x2="318" y1="126" y2="117"/><line style="stroke: #000000; stroke-width: 1.5;" x1="204" x2="309" y1="126" y2="126"/><line style="stroke: #000000; stroke-width: 1.5;" x1="309" x2="309" y1="126" y2="163.6094"/><text fill="#000000" font-family="sans-serif" font-size="14" lengthAdjust="spacingAndGlyphs" textLength="75" x="219" y="150.5332">NPM Server</text><!--entity CICDServer--><polygon fill="#FEFECE" filter="url(#fq31fqxl7i639)" points="13,18,23,8,136,8,136,45.6094,126,55.6094,13,55.6094,13,18" style="stroke: #000000; stroke-width: 1.5;"/><line style="stroke: #000000; stroke-width: 1.5;" x1="126" x2="135" y1="18" y2="9"/><line style="stroke: #000000; stroke-width: 1.5;" x1="13" x2="126" y1="18" y2="18"/><line style="stroke: #000000; stroke-width: 1.5;" x1="126" x2="126" y1="18" y2="55.6094"/><text fill="#000000" font-family="sans-serif" font-size="14" lengthAdjust="spacingAndGlyphs" textLength="83" x="28" y="42.5332">CI/CD Server</text><!--entity CoverageServer--><polygon fill="#FEFECE" filter="url(#fq31fqxl7i639)" points="171.5,18,181.5,8,319.5,8,319.5,45.6094,309.5,55.6094,171.5,55.6094,171.5,18" style="stroke: #000000; stroke-width: 1.5;"/><line style="stroke: #000000; stroke-width: 1.5;" x1="309.5" x2="318.5" y1="18" y2="9"/><line style="stroke: #000000; stroke-width: 1.5;" x1="171.5" x2="309.5" y1="18" y2="18"/><line style="stroke: #000000; stroke-width: 1.5;" x1="309.5" x2="309.5" y1="18" y2="55.6094"/><text fill="#000000" font-family="sans-serif" font-size="14" lengthAdjust="spacingAndGlyphs" textLength="108" x="186.5" y="42.5332">Coverage Server</text><!--entity DeveloperPC--><polygon fill="#FEFECE" filter="url(#fq31fqxl7i639)" points="9,234,19,224,140,224,140,261.6094,130,271.6094,9,271.6094,9,234" style="stroke: #000000; stroke-width: 1.5;"/><line style="stroke: #000000; stroke-width: 1.5;" x1="130" x2="139" y1="234" y2="225"/><line style="stroke: #000000; stroke-width: 1.5;" x1="9" x2="130" y1="234" y2="234"/><line style="stroke: #000000; stroke-width: 1.5;" x1="130" x2="130" y1="234" y2="271.6094"/><text fill="#000000" font-family="sans-serif" font-size="14" lengthAdjust="spacingAndGlyphs" textLength="91" x="24" y="258.5332">Producers' PC</text><!--entity UserPC--><polygon fill="#FEFECE" filter="url(#fq31fqxl7i639)" points="175.5,234,185.5,224,313.5,224,313.5,261.6094,303.5,271.6094,175.5,271.6094,175.5,234" style="stroke: #000000; stroke-width: 1.5;"/><line style="stroke: #000000; stroke-width: 1.5;" x1="303.5" x2="312.5" y1="234" y2="225"/><line style="stroke: #000000; stroke-width: 1.5;" x1="175.5" x2="303.5" y1="234" y2="234"/><line style="stroke: #000000; stroke-width: 1.5;" x1="303.5" x2="303.5" y1="234" y2="271.6094"/><text fill="#000000" font-family="sans-serif" font-size="14" lengthAdjust="spacingAndGlyphs" textLength="98" x="190.5" y="258.5332">Consumers' PC</text><!--entity Ethernet--><ellipse cx="159.5" cy="140" fill="#FEFECE" filter="url(#fq31fqxl7i639)" rx="8" ry="8" style="stroke: #A80036; stroke-width: 2.0;"/><text fill="#000000" font-family="sans-serif" font-size="14" lengthAdjust="spacingAndGlyphs" textLength="54" x="132.5" y="171.5332">Ethernet</text><!--link GITServer to Ethernet--><path d="M115.027,140 C123.426,140 131.824,140 140.222,140 " fill="none" id="GITServer-Ethernet" style="stroke: #A80036; stroke-width: 1.0;"/><path d="M147.389,131.5423 A9,9 0 0 0 147.3866 148.4568" fill="none" style="stroke: #A80036; stroke-width: 1.5;"/><text fill="#000000" font-family="sans-serif" font-size="13" lengthAdjust="spacingAndGlyphs" textLength="7" x="122.8244" y="136.47">1</text><!--link CICDServer to Ethernet--><path d="M92.9437,56 C109.076,76.119 132.104,104.836 146.41,122.676 " fill="none" id="CICDServer-Ethernet" style="stroke: #A80036; stroke-width: 1.0;"/><path d="M157.686,123.2182 A9,9 0 0 0 144.4891 133.7985" fill="none" style="stroke: #A80036; stroke-width: 1.5;"/><text fill="#000000" font-family="sans-serif" font-size="13" lengthAdjust="spacingAndGlyphs" textLength="7" x="89.3994" y="76.9809">1</text><!--link CoverageServer to Ethernet--><path d="M226.839,56 C210.517,76.119 187.218,104.836 172.744,122.676 " fill="none" id="CoverageServer-Ethernet" style="stroke: #A80036; stroke-width: 1.0;"/><path d="M174.5701,133.8477 A9,9 0 0 0 161.4345 123.1914" fill="none" style="stroke: #A80036; stroke-width: 1.5;"/><text fill="#000000" font-family="sans-serif" font-size="13" lengthAdjust="spacingAndGlyphs" textLength="7" x="214.7143" y="76.9809">1</text><!--link Ethernet to NPMServer--><path d="M178.832,140 C187.168,140 195.504,140 203.84,140 " fill="none" id="Ethernet-NPMServer" style="stroke: #A80036; stroke-width: 1.0;"/><path d="M171.7422,148.4572 A9,9 0 0 0 171.7422 131.5428" fill="none" style="stroke: #A80036; stroke-width: 1.5;"/><text fill="#000000" font-family="sans-serif" font-size="13" lengthAdjust="spacingAndGlyphs" textLength="7" x="189.0039" y="136.5177">1</text><!--link Ethernet to DeveloperPC--><path d="M146.205,157.58 C131.887,175.4348 109.006,203.9693 92.9503,223.9914 " fill="none" id="Ethernet-DeveloperPC" style="stroke: #A80036; stroke-width: 1.0;"/><path d="M144.3064,146.4288 A9,9 0 0 0 157.5023 157.0102" fill="none" style="stroke: #A80036; stroke-width: 1.5;"/><text fill="#000000" font-family="sans-serif" font-size="13" lengthAdjust="spacingAndGlyphs" textLength="20" x="75.2213" y="212.9839">0..*</text><!--link Ethernet to UserPC--><path d="M172.795,157.58 C187.113,175.4348 209.994,203.9693 226.05,223.9914 " fill="none" id="Ethernet-UserPC" style="stroke: #A80036; stroke-width: 1.0;"/><path d="M161.4977,157.0102 A9,9 0 0 0 174.6936 146.4288" fill="none" style="stroke: #A80036; stroke-width: 1.5;"/><text fill="#000000" font-family="sans-serif" font-size="13" lengthAdjust="spacingAndGlyphs" textLength="20" x="198.4041" y="212.9839">0..*</text><!--
@startuml devices
    node "GIT Server" as GITServer
    node "NPM Server" as NPMServer
    node "CI/CD Server" as CICDServer
    node "Coverage Server" as CoverageServer
    node "Producers' PC" as DeveloperPC
    node "Consumers' PC" as UserPC

    interface "Ethernet" as Ethernet

    GITServer "1" -( Ethernet
    CICDServer "1" - -( Ethernet
    CoverageServer "1" - -( Ethernet
    Ethernet )- "1" NPMServer
    Ethernet )- - "0..*" DeveloperPC
    Ethernet )- - "0..*" UserPC
@enduml

PlantUML version 1.2019.03(Sun Mar 10 13:04:44 EET 2019)
(GPL source distribution)
Java Runtime: Java(TM) SE Runtime Environment
JVM: Java HotSpot(TM) Client VM
Java Version: 1.8.0_211-b12
Operating System: Windows 10
OS Version: 10.0
Default Encoding: Cp1251
Language: ru
Country: RU
--></g></svg>