<?xml version="1.0" encoding="UTF-8" standalone="no"?><svg xmlns="http://www.w3.org/2000/svg" xmlns:xlink="http://www.w3.org/1999/xlink" contentScriptType="application/ecmascript" contentStyleType="text/css" height="329px" preserveAspectRatio="none" style="width:402px;height:329px;" version="1.1" viewBox="0 0 402 329" width="402px" zoomAndPan="magnify"><defs><filter height="300%" id="f1fqob8b1p7p7f" width="300%" x="-1" y="-1"><feGaussianBlur result="blurOut" stdDeviation="2.0"/><feColorMatrix in="blurOut" result="blurOut2" type="matrix" values="0 0 0 0 0 0 0 0 0 0 0 0 0 0 0 0 0 0 .4 0"/><feOffset dx="4.0" dy="4.0" in="blurOut2" result="blurOut3"/><feBlend in="SourceGraphic" in2="blurOut3" mode="normal"/></filter></defs><g><!--cluster Internet--><path d="M25,31 C25,28 27,26 30,26 C33,26 35,28 35,31 C35,28 37,26 40,26 C43,26 45,28 45,31 C45,28 47,26 50,26 C53,26 55,28 55,31 C55,28 57,26 60,26 C63,26 65,28 65,31 C65,28 67,26 70,26 C73,26 75,28 75,31 C75,28 77,26 80,26 C83,26 85,28 85,31 C85,28 87,26 90,26 C93,26 95,28 95,31 C95,28 97,26 100,26 C103,26 105,28 105,31 C105,28 107,26 110,26 C113,26 115,28 115,31 C115,28 117,26 120,26 C123,26 125,28 125,31 C125,28 127,26 130,26 C133,26 135,28 135,31 C135,28 137,26 140,26 C143,26 145,28 145,31 C145,28 147,26 150,26 C153,26 155,28 155,31 C155,28 157,26 160,26 C163,26 165,28 165,31 C165,28 167,26 170,26 C173,26 175,28 175,31 C175,28 177,26 180,26 C183,26 185,28 185,31 C185,28 187,26 190,26 C193,26 195,28 195,31 C195,28 197,26 200,26 C203,26 205,28 205,31 C205,28 207,26 210,26 C213,26 215,28 215,31 C215,28 217,26 220,26 C223,26 225,28 225,31 C225,28 227,26 230,26 C233,26 235,28 235,31 C235,28 237,26 240,26 C243,26 245,28 245,31 C245,28 247,26 250,26 C253,26 255,28 255,31 C255,28 257,26 260,26 C263,26 265,28 265,31 C265,28 267,26 270,26 C273,26 275,28 275,31 C275,28 277,26 280,26 C283,26 285,28 285,31 C285,28 287,26 290,26 C293,26 295,28 295,31 C295,28 297,26 300,26 C303,26 305,28 305,31 C305,28 307,26 310,26 C313,26 315,28 315,31 C315,28 317,26 320,26 C323,26 325,28 325,31 C325,28 327,26 330,26 C333,26 335,28 335,31 C335,28 337,26 340,26 C343,26 345,28 345,31 C345,28 347,26 350,26 C353,26 355,28 355,31 C355,28 357,26 360,26 C363,26 365,28 365,31 C365,28 367,26 370,26 C373,26 375,28 375,31 C375,28 377,26 380,26 C383,26 385,28 385,31 C388,31 390,33 390,36 C390,39 388,41 385,41 C388,41 390,43 390,46 C390,49 388,51 385,51 C388,51 390,53 390,56 C390,59 388,61 385,61 C388,61 390,63 390,66 C390,69 388,71 385,71 C388,71 390,73 390,76 C390,79 388,81 385,81 C388,81 390,83 390,86 C390,89 388,91 385,91 C388,91 390,93 390,96 C390,99 388,101 385,101 C388,101 390,103 390,106 C390,109 388,111 385,111 C388,111 390,113 390,116 C390,119 388,121 385,121 C388,121 390,123 390,126 C390,129 388,131 385,131 C388,131 390,133 390,136 C390,139 388,141 385,141 C388,141 390,143 390,146 C390,149 388,151 385,151 C388,151 390,153 390,156 C390,159 388,161 385,161 C388,161 390,163 390,166 C390,169 388,171 385,171 C388,171 390,173 390,176 C390,179 388,181 385,181 C388,181 390,183 390,186 C390,189 388,191 385,191 C388,191 390,193 390,196 C390,199 388,201 385,201 C388,201 390,203 390,206 C390,209 388,211 385,211 C388,211 390,213 390,216 C390,219 388,221 385,221 C385,224 382,226 380,226 C377,226 375,224 375,221 C375,224 372,226 370,226 C367,226 365,224 365,221 C365,224 362,226 360,226 C357,226 355,224 355,221 C355,224 352,226 350,226 C347,226 345,224 345,221 C345,224 342,226 340,226 C337,226 335,224 335,221 C335,224 332,226 330,226 C327,226 325,224 325,221 C325,224 322,226 320,226 C317,226 315,224 315,221 C315,224 312,226 310,226 C307,226 305,224 305,221 C305,224 302,226 300,226 C297,226 295,224 295,221 C295,224 292,226 290,226 C287,226 285,224 285,221 C285,224 282,226 280,226 C277,226 275,224 275,221 C275,224 272,226 270,226 C267,226 265,224 265,221 C265,224 262,226 260,226 C257,226 255,224 255,221 C255,224 252,226 250,226 C247,226 245,224 245,221 C245,224 242,226 240,226 C237,226 235,224 235,221 C235,224 232,226 230,226 C227,226 225,224 225,221 C225,224 222,226 220,226 C217,226 215,224 215,221 C215,224 212,226 210,226 C207,226 205,224 205,221 C205,224 202,226 200,226 C197,226 195,224 195,221 C195,224 192,226 190,226 C187,226 185,224 185,221 C185,224 182,226 180,226 C177,226 175,224 175,221 C175,224 172,226 170,226 C167,226 165,224 165,221 C165,224 162,226 160,226 C157,226 155,224 155,221 C155,224 152,226 150,226 C147,226 145,224 145,221 C145,224 142,226 140,226 C137,226 135,224 135,221 C135,224 132,226 130,226 C127,226 125,224 125,221 C125,224 122,226 120,226 C117,226 115,224 115,221 C115,224 112,226 110,226 C107,226 105,224 105,221 C105,224 102,226 100,226 C97,226 95,224 95,221 C95,224 92,226 90,226 C87,226 85,224 85,221 C85,224 82,226 80,226 C77,226 75,224 75,221 C75,224 72,226 70,226 C67,226 65,224 65,221 C65,224 62,226 60,226 C57,226 55,224 55,221 C55,224 52,226 50,226 C47,226 45,224 45,221 C45,224 42,226 40,226 C37,226 35,224 35,221 C35,224 32,226 30,226 C27,226 25,224 25,221 C22,221 20,219 20,216 C20,213 22,211 25,211 C22,211 20,209 20,206 C20,203 22,201 25,201 C22,201 20,199 20,196 C20,193 22,191 25,191 C22,191 20,189 20,186 C20,183 22,181 25,181 C22,181 20,179 20,176 C20,173 22,171 25,171 C22,171 20,169 20,166 C20,163 22,161 25,161 C22,161 20,159 20,156 C20,153 22,151 25,151 C22,151 20,149 20,146 C20,143 22,141 25,141 C22,141 20,139 20,136 C20,133 22,131 25,131 C22,131 20,129 20,126 C20,123 22,121 25,121 C22,121 20,119 20,116 C20,113 22,111 25,111 C22,111 20,109 20,106 C20,103 22,101 25,101 C22,101 20,99 20,96 C20,93 22,91 25,91 C22,91 20,89 20,86 C20,83 22,81 25,81 C22,81 20,79 20,76 C20,73 22,71 25,71 C22,71 20,69 20,66 C20,63 22,61 25,61 C22,61 20,59 20,56 C20,53 22,51 25,51 C22,51 20,49 20,46 C20,43 22,41 25,41 C22,41 20,39 20,36 C20,33 22,31 25,31 " fill="#FFFFFF" style="stroke: #000000; stroke-width: 1.5;"/><text fill="#000000" font-family="sans-serif" font-size="14" font-weight="bold" lengthAdjust="spacingAndGlyphs" textLength="63" x="171.5" y="49.9951">Internet</text><!--entity GITServer--><polygon fill="#FEFECE" filter="url(#f1fqob8b1p7p7f)" points="219,69,229,59,337,59,337,95.2969,327,105.2969,219,105.2969,219,69" style="stroke: #000000; stroke-width: 1.5;"/><line style="stroke: #000000; stroke-width: 1.5;" x1="327" x2="336" y1="69" y2="60"/><line style="stroke: #000000; stroke-width: 1.5;" x1="219" x2="327" y1="69" y2="69"/><line style="stroke: #000000; stroke-width: 1.5;" x1="327" x2="327" y1="69" y2="105.2969"/><text fill="#000000" font-family="sans-serif" font-size="14" lengthAdjust="spacingAndGlyphs" textLength="78" x="234" y="91.9951">github.com</text><!--entity NPMServer--><polygon fill="#FEFECE" filter="url(#f1fqob8b1p7p7f)" points="68,69,78,59,184,59,184,95.2969,174,105.2969,68,105.2969,68,69" style="stroke: #000000; stroke-width: 1.5;"/><line style="stroke: #000000; stroke-width: 1.5;" x1="174" x2="183" y1="69" y2="60"/><line style="stroke: #000000; stroke-width: 1.5;" x1="68" x2="174" y1="69" y2="69"/><line style="stroke: #000000; stroke-width: 1.5;" x1="174" x2="174" y1="69" y2="105.2969"/><text fill="#000000" font-family="sans-serif" font-size="14" lengthAdjust="spacingAndGlyphs" textLength="76" x="83" y="91.9951">npmjs.com</text><!--entity CICDServer--><polygon fill="#FEFECE" filter="url(#f1fqob8b1p7p7f)" points="38,175,48,165,164,165,164,201.2969,154,211.2969,38,211.2969,38,175" style="stroke: #000000; stroke-width: 1.5;"/><line style="stroke: #000000; stroke-width: 1.5;" x1="154" x2="163" y1="175" y2="166"/><line style="stroke: #000000; stroke-width: 1.5;" x1="38" x2="154" y1="175" y2="175"/><line style="stroke: #000000; stroke-width: 1.5;" x1="154" x2="154" y1="175" y2="211.2969"/><text fill="#000000" font-family="sans-serif" font-size="14" lengthAdjust="spacingAndGlyphs" textLength="86" x="53" y="197.9951">travis-ci.com</text><!--entity CoverageServer--><polygon fill="#FEFECE" filter="url(#f1fqob8b1p7p7f)" points="252,175,262,165,368,165,368,201.2969,358,211.2969,252,211.2969,252,175" style="stroke: #000000; stroke-width: 1.5;"/><line style="stroke: #000000; stroke-width: 1.5;" x1="358" x2="367" y1="175" y2="166"/><line style="stroke: #000000; stroke-width: 1.5;" x1="252" x2="358" y1="175" y2="175"/><line style="stroke: #000000; stroke-width: 1.5;" x1="358" x2="358" y1="175" y2="211.2969"/><text fill="#000000" font-family="sans-serif" font-size="14" lengthAdjust="spacingAndGlyphs" textLength="76" x="267" y="197.9951">coveralls.io</text><!--entity Ethernet--><ellipse cx="208" cy="188" fill="#FEFECE" filter="url(#f1fqob8b1p7p7f)" rx="8" ry="8" style="stroke: #A80036; stroke-width: 2.0;"/><text fill="#000000" font-family="sans-serif" font-size="14" lengthAdjust="spacingAndGlyphs" textLength="60" x="178" y="217.9951">Ethernet</text><!--entity DeveloperPC--><polygon fill="#FEFECE" filter="url(#f1fqob8b1p7p7f)" points="42,281,52,271,200,271,200,307.2969,190,317.2969,42,317.2969,42,281" style="stroke: #000000; stroke-width: 1.5;"/><line style="stroke: #000000; stroke-width: 1.5;" x1="190" x2="199" y1="281" y2="272"/><line style="stroke: #000000; stroke-width: 1.5;" x1="42" x2="190" y1="281" y2="281"/><line style="stroke: #000000; stroke-width: 1.5;" x1="190" x2="190" y1="281" y2="317.2969"/><text fill="#000000" font-family="sans-serif" font-size="14" lengthAdjust="spacingAndGlyphs" textLength="118" x="57" y="303.9951">CLI Developer PC</text><!--entity UserPC--><polygon fill="#FEFECE" filter="url(#f1fqob8b1p7p7f)" points="235.5,281,245.5,271,354.5,271,354.5,307.2969,344.5,317.2969,235.5,317.2969,235.5,281" style="stroke: #000000; stroke-width: 1.5;"/><line style="stroke: #000000; stroke-width: 1.5;" x1="344.5" x2="353.5" y1="281" y2="272"/><line style="stroke: #000000; stroke-width: 1.5;" x1="235.5" x2="344.5" y1="281" y2="281"/><line style="stroke: #000000; stroke-width: 1.5;" x1="344.5" x2="344.5" y1="281" y2="317.2969"/><text fill="#000000" font-family="sans-serif" font-size="14" lengthAdjust="spacingAndGlyphs" textLength="79" x="250.5" y="303.9951">CLI User PC</text><!--link GITServer to Ethernet--><path d="M263.155,105.056 C250.016,124.576 231.13,152.635 219.218,170.333 " fill="none" id="GITServer-Ethernet" style="stroke: #A80036; stroke-width: 1.0;"/><path d="M222.1327,181.1492 A9,9 0 0 0 208.1011 171.7038" fill="none" style="stroke: #A80036; stroke-width: 1.5;"/><!--link NPMServer to Ethernet--><path d="M143.39,105.056 C158.923,124.756 181.315,153.156 195.245,170.822 " fill="none" id="NPMServer-Ethernet" style="stroke: #A80036; stroke-width: 1.0;"/><path d="M206.4115,171.3266 A9,9 0 0 0 193.1289 181.799" fill="none" style="stroke: #A80036; stroke-width: 1.5;"/><!--link CICDServer to Ethernet--><path d="M164.113,188 C172.32,188 180.526,188 188.733,188 " fill="none" id="CICDServer-Ethernet" style="stroke: #A80036; stroke-width: 1.0;"/><path d="M195.6648,179.5428 A9,9 0 0 0 195.6648 196.4572" fill="none" style="stroke: #A80036; stroke-width: 1.5;"/><!--link Ethernet to CoverageServer--><path d="M227.227,188 C235.477,188 243.727,188 251.978,188 " fill="none" id="Ethernet-CoverageServer" style="stroke: #A80036; stroke-width: 1.0;"/><path d="M220.2422,196.4572 A9,9 0 0 0 220.2422 179.5428" fill="none" style="stroke: #A80036; stroke-width: 1.5;"/><!--link Ethernet to DeveloperPC--><path d="M199.3,206.304 C194.451,215.246 187.989,226.1162 181,235 C170.878,247.8671 158.001,260.6757 146.774,270.9704 " fill="none" id="Ethernet-DeveloperPC" style="stroke: #A80036; stroke-width: 1.0;"/><path d="M195.1101,196.0519 A9,9 0 0 0 210.1061 203.8762" fill="none" style="stroke: #A80036; stroke-width: 1.5;"/><!--link Ethernet to UserPC--><path d="M216.7,206.304 C221.549,215.246 228.011,226.1162 235,235 C245.122,247.8671 257.999,260.6757 269.226,270.9704 " fill="none" id="Ethernet-UserPC" style="stroke: #A80036; stroke-width: 1.0;"/><path d="M205.8939,203.8762 A9,9 0 0 0 220.8899 196.0519" fill="none" style="stroke: #A80036; stroke-width: 1.5;"/><!--
@startuml Devices
    cloud "Internet" as Internet {
        node "github.com" as GITServer
        node "npmjs.com" as NPMServer
        node "travis-ci.com" as CICDServer
        node "coveralls.io" as CoverageServer
        interface "Ethernet" as Ethernet
        GITServer - -( Ethernet
        NPMServer - -( Ethernet
        CICDServer -( Ethernet
        Ethernet )- CoverageServer
    }
    node "CLI Developer PC" as DeveloperPC
    node "CLI User PC" as UserPC
    Ethernet )- - DeveloperPC
    Ethernet )- - UserPC
@enduml

PlantUML version 1.2019.03(Sun Mar 10 13:04:44 EET 2019)
(GPL source distribution)
Java Runtime: Java(TM) SE Runtime Environment
JVM: Java HotSpot(TM) 64-Bit Server VM
Java Version: 1.8.0_201-b09
Operating System: Linux
OS Version: 4.15.0-47-generic
Default Encoding: UTF-8
Language: en
Country: US
--></g></svg>