<?xml version="1.0" encoding="UTF-8" standalone="no"?><svg xmlns="http://www.w3.org/2000/svg" xmlns:xlink="http://www.w3.org/1999/xlink" contentScriptType="application/ecmascript" contentStyleType="text/css" height="278px" preserveAspectRatio="none" style="width:354px;height:278px;" version="1.1" viewBox="0 0 354 278" width="354px" zoomAndPan="magnify"><defs><filter height="300%" id="f1wsixhias73da" width="300%" x="-1" y="-1"><feGaussianBlur result="blurOut" stdDeviation="2.0"/><feColorMatrix in="blurOut" result="blurOut2" type="matrix" values="0 0 0 0 0 0 0 0 0 0 0 0 0 0 0 0 0 0 .4 0"/><feOffset dx="4.0" dy="4.0" in="blurOut2" result="blurOut3"/><feBlend in="SourceGraphic" in2="blurOut3" mode="normal"/></filter></defs><g><!--entity GITServer--><polygon fill="#FEFECE" filter="url(#f1wsixhias73da)" points="10,124,20,114,128,114,128,150.2969,118,160.2969,10,160.2969,10,124" style="stroke: #000000; stroke-width: 1.5;"/><line style="stroke: #000000; stroke-width: 1.5;" x1="118" x2="127" y1="124" y2="115"/><line style="stroke: #000000; stroke-width: 1.5;" x1="10" x2="118" y1="124" y2="124"/><line style="stroke: #000000; stroke-width: 1.5;" x1="118" x2="118" y1="124" y2="160.2969"/><text fill="#000000" font-family="sans-serif" font-size="14" lengthAdjust="spacingAndGlyphs" textLength="78" x="25" y="146.9951">github.com</text><!--entity NPMServer--><polygon fill="#FEFECE" filter="url(#f1wsixhias73da)" points="216,124,226,114,332,114,332,150.2969,322,160.2969,216,160.2969,216,124" style="stroke: #000000; stroke-width: 1.5;"/><line style="stroke: #000000; stroke-width: 1.5;" x1="322" x2="331" y1="124" y2="115"/><line style="stroke: #000000; stroke-width: 1.5;" x1="216" x2="322" y1="124" y2="124"/><line style="stroke: #000000; stroke-width: 1.5;" x1="322" x2="322" y1="124" y2="160.2969"/><text fill="#000000" font-family="sans-serif" font-size="14" lengthAdjust="spacingAndGlyphs" textLength="76" x="231" y="146.9951">npmjs.com</text><!--entity CICDServer--><polygon fill="#FEFECE" filter="url(#f1wsixhias73da)" points="31,18,41,8,157,8,157,44.2969,147,54.2969,31,54.2969,31,18" style="stroke: #000000; stroke-width: 1.5;"/><line style="stroke: #000000; stroke-width: 1.5;" x1="147" x2="156" y1="18" y2="9"/><line style="stroke: #000000; stroke-width: 1.5;" x1="31" x2="147" y1="18" y2="18"/><line style="stroke: #000000; stroke-width: 1.5;" x1="147" x2="147" y1="18" y2="54.2969"/><text fill="#000000" font-family="sans-serif" font-size="14" lengthAdjust="spacingAndGlyphs" textLength="86" x="46" y="40.9951">travis-ci.com</text><!--entity CoverageServer--><polygon fill="#FEFECE" filter="url(#f1wsixhias73da)" points="192,18,202,8,308,8,308,44.2969,298,54.2969,192,54.2969,192,18" style="stroke: #000000; stroke-width: 1.5;"/><line style="stroke: #000000; stroke-width: 1.5;" x1="298" x2="307" y1="18" y2="9"/><line style="stroke: #000000; stroke-width: 1.5;" x1="192" x2="298" y1="18" y2="18"/><line style="stroke: #000000; stroke-width: 1.5;" x1="298" x2="298" y1="18" y2="54.2969"/><text fill="#000000" font-family="sans-serif" font-size="14" lengthAdjust="spacingAndGlyphs" textLength="76" x="207" y="40.9951">coveralls.io</text><!--entity DeveloperPC--><polygon fill="#FEFECE" filter="url(#f1wsixhias73da)" points="6,230,16,220,164,220,164,256.2969,154,266.2969,6,266.2969,6,230" style="stroke: #000000; stroke-width: 1.5;"/><line style="stroke: #000000; stroke-width: 1.5;" x1="154" x2="163" y1="230" y2="221"/><line style="stroke: #000000; stroke-width: 1.5;" x1="6" x2="154" y1="230" y2="230"/><line style="stroke: #000000; stroke-width: 1.5;" x1="154" x2="154" y1="230" y2="266.2969"/><text fill="#000000" font-family="sans-serif" font-size="14" lengthAdjust="spacingAndGlyphs" textLength="118" x="21" y="252.9951">CLI Developer PC</text><!--entity UserPC--><polygon fill="#FEFECE" filter="url(#f1wsixhias73da)" points="199.5,230,209.5,220,318.5,220,318.5,256.2969,308.5,266.2969,199.5,266.2969,199.5,230" style="stroke: #000000; stroke-width: 1.5;"/><line style="stroke: #000000; stroke-width: 1.5;" x1="308.5" x2="317.5" y1="230" y2="221"/><line style="stroke: #000000; stroke-width: 1.5;" x1="199.5" x2="308.5" y1="230" y2="230"/><line style="stroke: #000000; stroke-width: 1.5;" x1="308.5" x2="308.5" y1="230" y2="266.2969"/><text fill="#000000" font-family="sans-serif" font-size="14" lengthAdjust="spacingAndGlyphs" textLength="79" x="214.5" y="252.9951">CLI User PC</text><!--entity Ethernet--><ellipse cx="172" cy="137" fill="#FEFECE" filter="url(#f1wsixhias73da)" rx="8" ry="8" style="stroke: #A80036; stroke-width: 2.0;"/><text fill="#000000" font-family="sans-serif" font-size="14" lengthAdjust="spacingAndGlyphs" textLength="60" x="142" y="166.9951">Ethernet</text><!--link GITServer to Ethernet--><path d="M128.145,137 C136.345,137 144.546,137 152.746,137 " fill="none" id="GITServer-Ethernet" style="stroke: #A80036; stroke-width: 1.0;"/><path d="M159.6708,128.5428 A9,9 0 0 0 159.6708 145.4572" fill="none" style="stroke: #A80036; stroke-width: 1.5;"/><text fill="#000000" font-family="sans-serif" font-size="13" lengthAdjust="spacingAndGlyphs" textLength="8" x="135.8408" y="133.1428">1</text><!--link CICDServer to Ethernet--><path d="M110.542,54.056 C125.317,73.756 146.617,102.156 159.867,119.822 " fill="none" id="CICDServer-Ethernet" style="stroke: #A80036; stroke-width: 1.0;"/><path d="M170.9039,120.4431 A9,9 0 0 0 157.3723 130.5918" fill="none" style="stroke: #A80036; stroke-width: 1.5;"/><text fill="#000000" font-family="sans-serif" font-size="13" lengthAdjust="spacingAndGlyphs" textLength="8" x="105.9124" y="74.3128">1</text><!--link CoverageServer to Ethernet--><path d="M233.458,54.056 C218.683,73.756 197.383,102.156 184.133,119.822 " fill="none" id="CoverageServer-Ethernet" style="stroke: #A80036; stroke-width: 1.0;"/><path d="M186.6277,130.5918 A9,9 0 0 0 173.0961 120.4431" fill="none" style="stroke: #A80036; stroke-width: 1.5;"/><text fill="#000000" font-family="sans-serif" font-size="13" lengthAdjust="spacingAndGlyphs" textLength="8" x="219.9373" y="74.3128">1</text><!--link Ethernet to NPMServer--><path d="M191.227,137 C199.477,137 207.727,137 215.978,137 " fill="none" id="Ethernet-NPMServer" style="stroke: #A80036; stroke-width: 1.0;"/><path d="M184.2422,145.4572 A9,9 0 0 0 184.2422 128.5428" fill="none" style="stroke: #A80036; stroke-width: 1.5;"/><text fill="#000000" font-family="sans-serif" font-size="13" lengthAdjust="spacingAndGlyphs" textLength="8" x="200.0314" y="133.0954">1</text><!--link Ethernet to DeveloperPC--><path d="M158.749,153.84 C144.016,171.4525 120.113,200.0258 103.5303,219.8488 " fill="none" id="Ethernet-DeveloperPC" style="stroke: #A80036; stroke-width: 1.0;"/><path d="M156.7114,143.095 A9,9 0 0 0 169.6842 153.9488" fill="none" style="stroke: #A80036; stroke-width: 1.5;"/><text fill="#000000" font-family="sans-serif" font-size="13" lengthAdjust="spacingAndGlyphs" textLength="23" x="82.3318" y="209.0403">0..*</text><!--link Ethernet to UserPC--><path d="M185.251,153.84 C199.984,171.4525 223.887,200.0258 240.47,219.8488 " fill="none" id="Ethernet-UserPC" style="stroke: #A80036; stroke-width: 1.0;"/><path d="M174.3158,153.9488 A9,9 0 0 0 187.2886 143.095" fill="none" style="stroke: #A80036; stroke-width: 1.5;"/><text fill="#000000" font-family="sans-serif" font-size="13" lengthAdjust="spacingAndGlyphs" textLength="23" x="209.7748" y="209.0403">0..*</text><!--
@startuml devices
    node "github.com" as GITServer
    node "npmjs.com" as NPMServer
    node "travis-ci.com" as CICDServer
    node "coveralls.io" as CoverageServer
    node "CLI Developer PC" as DeveloperPC
    node "CLI User PC" as UserPC

    interface "Ethernet" as Ethernet

    GITServer "1" -( Ethernet
    CICDServer "1" - -( Ethernet
    CoverageServer "1" - -( Ethernet
    Ethernet )- "1" NPMServer
    Ethernet )- - "0..*" DeveloperPC
    Ethernet )- - "0..*" UserPC
@enduml

PlantUML version 1.2019.03(Sun Mar 10 13:04:44 EET 2019)
(GPL source distribution)
Java Runtime: Java(TM) SE Runtime Environment
JVM: Java HotSpot(TM) 64-Bit Server VM
Java Version: 1.8.0_201-b09
Operating System: Linux
OS Version: 4.15.0-47-generic
Default Encoding: UTF-8
Language: en
Country: US
--></g></svg>