<?xml version="1.0" encoding="UTF-8" standalone="no"?><svg xmlns="http://www.w3.org/2000/svg" xmlns:xlink="http://www.w3.org/1999/xlink" contentScriptType="application/ecmascript" contentStyleType="text/css" height="278px" preserveAspectRatio="none" style="width:521px;height:278px;" version="1.1" viewBox="0 0 521 278" width="521px" zoomAndPan="magnify"><defs><filter height="300%" id="f1mwbianb1hs9s" width="300%" x="-1" y="-1"><feGaussianBlur result="blurOut" stdDeviation="2.0"/><feColorMatrix in="blurOut" result="blurOut2" type="matrix" values="0 0 0 0 0 0 0 0 0 0 0 0 0 0 0 0 0 0 .4 0"/><feOffset dx="4.0" dy="4.0" in="blurOut2" result="blurOut3"/><feBlend in="SourceGraphic" in2="blurOut3" mode="normal"/></filter></defs><g><!--entity VCServer--><polygon fill="#FEFECE" filter="url(#f1mwbianb1hs9s)" points="6,124,16,114,200,114,200,150.2969,190,160.2969,6,160.2969,6,124" style="stroke: #000000; stroke-width: 1.5;"/><line style="stroke: #000000; stroke-width: 1.5;" x1="190" x2="199" y1="124" y2="115"/><line style="stroke: #000000; stroke-width: 1.5;" x1="6" x2="190" y1="124" y2="124"/><line style="stroke: #000000; stroke-width: 1.5;" x1="190" x2="190" y1="124" y2="160.2969"/><text fill="#000000" font-family="sans-serif" font-size="14" lengthAdjust="spacingAndGlyphs" textLength="154" x="21" y="146.9951">Version Control Server</text><!--entity PackageServer--><polygon fill="#FEFECE" filter="url(#f1mwbianb1hs9s)" points="288.5,124,298.5,114,499.5,114,499.5,150.2969,489.5,160.2969,288.5,160.2969,288.5,124" style="stroke: #000000; stroke-width: 1.5;"/><line style="stroke: #000000; stroke-width: 1.5;" x1="489.5" x2="498.5" y1="124" y2="115"/><line style="stroke: #000000; stroke-width: 1.5;" x1="288.5" x2="489.5" y1="124" y2="124"/><line style="stroke: #000000; stroke-width: 1.5;" x1="489.5" x2="489.5" y1="124" y2="160.2969"/><text fill="#000000" font-family="sans-serif" font-size="14" lengthAdjust="spacingAndGlyphs" textLength="171" x="303.5" y="146.9951">Package Manager Server</text><!--entity CICDServer--><polygon fill="#FEFECE" filter="url(#f1mwbianb1hs9s)" points="180.5,18,190.5,8,307.5,8,307.5,44.2969,297.5,54.2969,180.5,54.2969,180.5,18" style="stroke: #000000; stroke-width: 1.5;"/><line style="stroke: #000000; stroke-width: 1.5;" x1="297.5" x2="306.5" y1="18" y2="9"/><line style="stroke: #000000; stroke-width: 1.5;" x1="180.5" x2="297.5" y1="18" y2="18"/><line style="stroke: #000000; stroke-width: 1.5;" x1="297.5" x2="297.5" y1="18" y2="54.2969"/><text fill="#000000" font-family="sans-serif" font-size="14" lengthAdjust="spacingAndGlyphs" textLength="87" x="195.5" y="40.9951">CI/CD Server</text><!--entity Developer--><polygon fill="#FEFECE" filter="url(#f1mwbianb1hs9s)" points="121.5,230,131.5,220,224.5,220,224.5,256.2969,214.5,266.2969,121.5,266.2969,121.5,230" style="stroke: #000000; stroke-width: 1.5;"/><line style="stroke: #000000; stroke-width: 1.5;" x1="214.5" x2="223.5" y1="230" y2="221"/><line style="stroke: #000000; stroke-width: 1.5;" x1="121.5" x2="214.5" y1="230" y2="230"/><line style="stroke: #000000; stroke-width: 1.5;" x1="214.5" x2="214.5" y1="230" y2="266.2969"/><text fill="#000000" font-family="sans-serif" font-size="14" lengthAdjust="spacingAndGlyphs" textLength="63" x="136.5" y="252.9951">Producer</text><!--entity User--><polygon fill="#FEFECE" filter="url(#f1mwbianb1hs9s)" points="260,230,270,220,372,220,372,256.2969,362,266.2969,260,266.2969,260,230" style="stroke: #000000; stroke-width: 1.5;"/><line style="stroke: #000000; stroke-width: 1.5;" x1="362" x2="371" y1="230" y2="221"/><line style="stroke: #000000; stroke-width: 1.5;" x1="260" x2="362" y1="230" y2="230"/><line style="stroke: #000000; stroke-width: 1.5;" x1="362" x2="362" y1="230" y2="266.2969"/><text fill="#000000" font-family="sans-serif" font-size="14" lengthAdjust="spacingAndGlyphs" textLength="72" x="275" y="252.9951">Consumer</text><!--entity Ethernet--><ellipse cx="244" cy="137" fill="#FEFECE" filter="url(#f1mwbianb1hs9s)" rx="8" ry="8" style="stroke: #A80036; stroke-width: 2.0;"/><text fill="#000000" font-family="sans-serif" font-size="14" lengthAdjust="spacingAndGlyphs" textLength="60" x="214" y="166.9951">Ethernet</text><!--link VCServer to Ethernet--><path d="M200.213,137 C208.311,137 216.409,137 224.506,137 " fill="none" id="VCServer-Ethernet" style="stroke: #A80036; stroke-width: 1.0;"/><path d="M231.6858,128.5428 A9,9 0 0 0 231.6858 145.4572" fill="none" style="stroke: #A80036; stroke-width: 1.5;"/><!--link CICDServer to Ethernet--><path d="M244,54.056 C244,73.033 244,100.083 244,117.835 " fill="none" id="CICDServer-Ethernet" style="stroke: #A80036; stroke-width: 1.0;"/><path d="M252.4572,124.9018 A9,9 0 0 0 235.5428 124.9018" fill="none" style="stroke: #A80036; stroke-width: 1.5;"/><!--link Ethernet to PackageServer--><path d="M263.266,137 C271.614,137 279.963,137 288.312,137 " fill="none" id="Ethernet-PackageServer" style="stroke: #A80036; stroke-width: 1.0;"/><path d="M256.1602,145.4572 A9,9 0 0 0 256.1602 128.5428" fill="none" style="stroke: #A80036; stroke-width: 1.5;"/><!--link Ethernet to Developer--><path d="M232.523,154.811 C220.455,172.4886 201.409,200.3862 188.122,219.8488 " fill="none" id="Ethernet-Developer" style="stroke: #A80036; stroke-width: 1.0;"/><path d="M229.7088,143.9344 A9,9 0 0 0 243.6779 153.4719" fill="none" style="stroke: #A80036; stroke-width: 1.5;"/><!--link Ethernet to User--><path d="M255.639,154.811 C267.877,172.4886 287.19,200.3862 300.665,219.8488 " fill="none" id="Ethernet-User" style="stroke: #A80036; stroke-width: 1.0;"/><path d="M244.4487,153.5058 A9,9 0 0 0 258.3556 143.8778" fill="none" style="stroke: #A80036; stroke-width: 1.5;"/><!--
@startuml devices
    node "Version Control Server" as VCServer
    node "Package Manager Server" as PackageServer
    node "CI/CD Server" as CICDServer
    node "Producer" as Developer
    node "Consumer" as User

    interface "Ethernet" as Ethernet

    VCServer -( Ethernet
    CICDServer - -( Ethernet
    Ethernet )- PackageServer
    Ethernet )- - Developer
    Ethernet )- - User
@enduml

PlantUML version 1.2019.03(Sun Mar 10 13:04:44 EET 2019)
(GPL source distribution)
Java Runtime: Java(TM) SE Runtime Environment
JVM: Java HotSpot(TM) 64-Bit Server VM
Java Version: 1.8.0_201-b09
Operating System: Linux
OS Version: 4.15.0-47-generic
Default Encoding: UTF-8
Language: en
Country: US
--></g></svg>