<?xml version="1.0" encoding="UTF-8" standalone="no"?><svg xmlns="http://www.w3.org/2000/svg" xmlns:xlink="http://www.w3.org/1999/xlink" contentScriptType="application/ecmascript" contentStyleType="text/css" height="797px" preserveAspectRatio="none" style="width:340px;height:797px;" version="1.1" viewBox="0 0 340 797" width="340px" zoomAndPan="magnify"><defs><filter height="300%" id="f36lvvcfcsjzw" width="300%" x="-1" y="-1"><feGaussianBlur result="blurOut" stdDeviation="2.0"/><feColorMatrix in="blurOut" result="blurOut2" type="matrix" values="0 0 0 0 0 0 0 0 0 0 0 0 0 0 0 0 0 0 .4 0"/><feOffset dx="4.0" dy="4.0" in="blurOut2" result="blurOut3"/><feBlend in="SourceGraphic" in2="blurOut3" mode="normal"/></filter></defs><g><text fill="#000000" font-family="sans-serif" font-size="18" lengthAdjust="spacingAndGlyphs" textLength="161" x="88.5" y="26.708">Named Build Flow</text><ellipse cx="172" cy="40.9531" fill="#000000" filter="url(#f36lvvcfcsjzw)" rx="10" ry="10" style="stroke: none; stroke-width: 1.0;"/><path d="M49,70.9531 L44,87.9375 L49,104.9219 M295,70.9531 L300,87.9375 L295,104.9219 " fill="#FEFECE" filter="url(#f36lvvcfcsjzw)" style="stroke: #A80036; stroke-width: 1.5;"/><text fill="#000000" font-family="sans-serif" font-size="12" lengthAdjust="spacingAndGlyphs" textLength="236" x="54" y="92.0918">Supported Versions: 6,7,8,9,10,11,12</text><polygon fill="#FEFECE" filter="url(#f36lvvcfcsjzw)" points="151.5,604.543,202.5,604.543,192.5,638.5117,141.5,638.5117" style="stroke: #A80036; stroke-width: 1.5;"/><text fill="#000000" font-family="sans-serif" font-size="12" lengthAdjust="spacingAndGlyphs" textLength="41" x="151.5" y="625.6816">stdout</text><polygon fill="#FEFECE" filter="url(#f36lvvcfcsjzw)" points="137,556.1406,207,556.1406,219,568.1406,207,580.1406,137,580.1406,125,568.1406,137,556.1406" style="stroke: #A80036; stroke-width: 1.5;"/><text fill="#000000" font-family="sans-serif" font-size="11" lengthAdjust="spacingAndGlyphs" textLength="42" x="176" y="590.3511">passed</text><text fill="#000000" font-family="sans-serif" font-size="11" lengthAdjust="spacingAndGlyphs" textLength="70" x="137" y="571.9487">npm publish</text><text fill="#000000" font-family="sans-serif" font-size="11" lengthAdjust="spacingAndGlyphs" textLength="31" x="219" y="565.5464">failed</text><ellipse cx="270" cy="568.1406" fill="#FEFECE" filter="url(#f36lvvcfcsjzw)" rx="10" ry="10" style="stroke: #A80036; stroke-width: 1.5;"/><path d="M270.1094,564.3125 L268.5,568.6563 L271.7188,568.6563 L270.1094,564.3125 Z M269.4375,563.1406 L270.7813,563.1406 L274.1094,571.8906 L272.875,571.8906 L272.0781,569.6406 L268.1406,569.6406 L267.3438,571.8906 L266.0938,571.8906 L269.4375,563.1406 Z "/><polygon fill="#FEFECE" filter="url(#f36lvvcfcsjzw)" points="147.5,507.7383,196.5,507.7383,208.5,519.7383,196.5,531.7383,147.5,531.7383,135.5,519.7383,147.5,507.7383" style="stroke: #A80036; stroke-width: 1.5;"/><text fill="#000000" font-family="sans-serif" font-size="11" lengthAdjust="spacingAndGlyphs" textLength="42" x="176" y="541.9487">passed</text><text fill="#000000" font-family="sans-serif" font-size="11" lengthAdjust="spacingAndGlyphs" textLength="49" x="147.5" y="523.5464">webpack</text><text fill="#000000" font-family="sans-serif" font-size="11" lengthAdjust="spacingAndGlyphs" textLength="31" x="208.5" y="517.144">failed</text><ellipse cx="259.5" cy="519.7383" fill="#FEFECE" filter="url(#f36lvvcfcsjzw)" rx="10" ry="10" style="stroke: #A80036; stroke-width: 1.5;"/><path d="M259.6094,515.9102 L258,520.2539 L261.2188,520.2539 L259.6094,515.9102 Z M258.9375,514.7383 L260.2813,514.7383 L263.6094,523.4883 L262.375,523.4883 L261.5781,521.2383 L257.6406,521.2383 L256.8438,523.4883 L255.5938,523.4883 L258.9375,514.7383 Z "/><polygon fill="#FEFECE" filter="url(#f36lvvcfcsjzw)" points="157,459.3359,187,459.3359,199,471.3359,187,483.3359,157,483.3359,145,471.3359,157,459.3359" style="stroke: #A80036; stroke-width: 1.5;"/><text fill="#000000" font-family="sans-serif" font-size="11" lengthAdjust="spacingAndGlyphs" textLength="42" x="176" y="493.5464">passed</text><text fill="#000000" font-family="sans-serif" font-size="11" lengthAdjust="spacingAndGlyphs" textLength="30" x="157" y="475.144">jsdoc</text><text fill="#000000" font-family="sans-serif" font-size="11" lengthAdjust="spacingAndGlyphs" textLength="31" x="199" y="468.7417">failed</text><ellipse cx="250" cy="471.3359" fill="#FEFECE" filter="url(#f36lvvcfcsjzw)" rx="10" ry="10" style="stroke: #A80036; stroke-width: 1.5;"/><path d="M250.1094,467.5078 L248.5,471.8516 L251.7188,471.8516 L250.1094,467.5078 Z M249.4375,466.3359 L250.7813,466.3359 L254.1094,475.0859 L252.875,475.0859 L252.0781,472.8359 L248.1406,472.8359 L247.3438,475.0859 L246.0938,475.0859 L249.4375,466.3359 Z "/><polygon fill="#FEFECE" filter="url(#f36lvvcfcsjzw)" points="146.5,410.9336,197.5,410.9336,209.5,422.9336,197.5,434.9336,146.5,434.9336,134.5,422.9336,146.5,410.9336" style="stroke: #A80036; stroke-width: 1.5;"/><text fill="#000000" font-family="sans-serif" font-size="11" lengthAdjust="spacingAndGlyphs" textLength="42" x="176" y="445.144">passed</text><text fill="#000000" font-family="sans-serif" font-size="11" lengthAdjust="spacingAndGlyphs" textLength="51" x="146.5" y="426.7417">coveralls</text><text fill="#000000" font-family="sans-serif" font-size="11" lengthAdjust="spacingAndGlyphs" textLength="31" x="209.5" y="420.3394">failed</text><ellipse cx="260.5" cy="422.9336" fill="#FEFECE" filter="url(#f36lvvcfcsjzw)" rx="10" ry="10" style="stroke: #A80036; stroke-width: 1.5;"/><path d="M260.6094,419.1055 L259,423.4492 L262.2188,423.4492 L260.6094,419.1055 Z M259.9375,417.9336 L261.2813,417.9336 L264.6094,426.6836 L263.375,426.6836 L262.5781,424.4336 L258.6406,424.4336 L257.8438,426.6836 L256.5938,426.6836 L259.9375,417.9336 Z "/><polygon fill="#FEFECE" filter="url(#f36lvvcfcsjzw)" points="160,362.5313,184,362.5313,196,374.5313,184,386.5313,160,386.5313,148,374.5313,160,362.5313" style="stroke: #A80036; stroke-width: 1.5;"/><text fill="#000000" font-family="sans-serif" font-size="11" lengthAdjust="spacingAndGlyphs" textLength="42" x="176" y="396.7417">passed</text><text fill="#000000" font-family="sans-serif" font-size="11" lengthAdjust="spacingAndGlyphs" textLength="21" x="161.5" y="378.3394">jest</text><text fill="#000000" font-family="sans-serif" font-size="11" lengthAdjust="spacingAndGlyphs" textLength="31" x="196" y="371.937">failed</text><ellipse cx="247" cy="374.5313" fill="#FEFECE" filter="url(#f36lvvcfcsjzw)" rx="10" ry="10" style="stroke: #A80036; stroke-width: 1.5;"/><path d="M247.1094,370.7031 L245.5,375.0469 L248.7188,375.0469 L247.1094,370.7031 Z M246.4375,369.5313 L247.7813,369.5313 L251.1094,378.2813 L249.875,378.2813 L249.0781,376.0313 L245.1406,376.0313 L244.3438,378.2813 L243.0938,378.2813 L246.4375,369.5313 Z "/><polygon fill="#FEFECE" filter="url(#f36lvvcfcsjzw)" points="156.5,314.1289,187.5,314.1289,199.5,326.1289,187.5,338.1289,156.5,338.1289,144.5,326.1289,156.5,314.1289" style="stroke: #A80036; stroke-width: 1.5;"/><text fill="#000000" font-family="sans-serif" font-size="11" lengthAdjust="spacingAndGlyphs" textLength="42" x="176" y="348.3394">passed</text><text fill="#000000" font-family="sans-serif" font-size="11" lengthAdjust="spacingAndGlyphs" textLength="31" x="156.5" y="329.937">eslint</text><text fill="#000000" font-family="sans-serif" font-size="11" lengthAdjust="spacingAndGlyphs" textLength="31" x="199.5" y="323.5347">failed</text><ellipse cx="250.5" cy="326.1289" fill="#FEFECE" filter="url(#f36lvvcfcsjzw)" rx="10" ry="10" style="stroke: #A80036; stroke-width: 1.5;"/><path d="M250.6094,322.3008 L249,326.6445 L252.2188,326.6445 L250.6094,322.3008 Z M249.9375,321.1289 L251.2813,321.1289 L254.6094,329.8789 L253.375,329.8789 L252.5781,327.6289 L248.6406,327.6289 L247.8438,329.8789 L246.5938,329.8789 L249.9375,321.1289 Z "/><polygon fill="#FEFECE" filter="url(#f36lvvcfcsjzw)" points="156,265.7266,188,265.7266,200,277.7266,188,289.7266,156,289.7266,144,277.7266,156,265.7266" style="stroke: #A80036; stroke-width: 1.5;"/><text fill="#000000" font-family="sans-serif" font-size="11" lengthAdjust="spacingAndGlyphs" textLength="42" x="176" y="299.937">passed</text><text fill="#000000" font-family="sans-serif" font-size="11" lengthAdjust="spacingAndGlyphs" textLength="32" x="156" y="281.5347">npm i</text><text fill="#000000" font-family="sans-serif" font-size="11" lengthAdjust="spacingAndGlyphs" textLength="31" x="200" y="275.1323">failed</text><ellipse cx="251" cy="277.7266" fill="#FEFECE" filter="url(#f36lvvcfcsjzw)" rx="10" ry="10" style="stroke: #A80036; stroke-width: 1.5;"/><path d="M251.1094,273.8984 L249.5,278.2422 L252.7188,278.2422 L251.1094,273.8984 Z M250.4375,272.7266 L251.7813,272.7266 L255.1094,281.4766 L253.875,281.4766 L253.0781,279.2266 L249.1406,279.2266 L248.3438,281.4766 L247.0938,281.4766 L250.4375,272.7266 Z "/><polygon fill="#FEFECE" filter="url(#f36lvvcfcsjzw)" points="147.5,217.3242,196.5,217.3242,208.5,229.3242,196.5,241.3242,147.5,241.3242,135.5,229.3242,147.5,217.3242" style="stroke: #A80036; stroke-width: 1.5;"/><text fill="#000000" font-family="sans-serif" font-size="11" lengthAdjust="spacingAndGlyphs" textLength="42" x="176" y="251.5347">passed</text><text fill="#000000" font-family="sans-serif" font-size="11" lengthAdjust="spacingAndGlyphs" textLength="49" x="147.5" y="233.1323">nvm use</text><text fill="#000000" font-family="sans-serif" font-size="11" lengthAdjust="spacingAndGlyphs" textLength="31" x="208.5" y="226.73">failed</text><ellipse cx="259.5" cy="229.3242" fill="#FEFECE" filter="url(#f36lvvcfcsjzw)" rx="10" ry="10" style="stroke: #A80036; stroke-width: 1.5;"/><path d="M259.6094,225.4961 L258,229.8398 L261.2188,229.8398 L259.6094,225.4961 Z M258.9375,224.3242 L260.2813,224.3242 L263.6094,233.0742 L262.375,233.0742 L261.5781,230.8242 L257.6406,230.8242 L256.8438,233.0742 L255.5938,233.0742 L258.9375,224.3242 Z "/><polygon fill="#FEFECE" filter="url(#f36lvvcfcsjzw)" points="156.5,168.9219,187.5,168.9219,199.5,180.9219,187.5,192.9219,156.5,192.9219,144.5,180.9219,156.5,168.9219" style="stroke: #A80036; stroke-width: 1.5;"/><text fill="#000000" font-family="sans-serif" font-size="11" lengthAdjust="spacingAndGlyphs" textLength="42" x="176" y="203.1323">passed</text><text fill="#000000" font-family="sans-serif" font-size="11" lengthAdjust="spacingAndGlyphs" textLength="31" x="156.5" y="184.73">nvm i</text><ellipse cx="229.5" cy="180.9219" fill="#FEFECE" filter="url(#f36lvvcfcsjzw)" rx="10" ry="10" style="stroke: #A80036; stroke-width: 1.5;"/><path d="M229.6094,177.0938 L228,181.4375 L231.2188,181.4375 L229.6094,177.0938 Z M228.9375,175.9219 L230.2813,175.9219 L233.6094,184.6719 L232.375,184.6719 L231.5781,182.4219 L227.6406,182.4219 L226.8438,184.6719 L225.5938,184.6719 L228.9375,175.9219 Z "/><polygon fill="#FEFECE" filter="url(#f36lvvcfcsjzw)" points="125.5,124.9219,218.5,124.9219,230.5,136.9219,218.5,148.9219,125.5,148.9219,113.5,136.9219,125.5,124.9219" style="stroke: #A80036; stroke-width: 1.5;"/><text fill="#000000" font-family="sans-serif" font-size="11" lengthAdjust="spacingAndGlyphs" textLength="93" x="125.5" y="140.73">for each version</text><ellipse cx="24" cy="178.9219" fill="#FFFFFF" filter="url(#f36lvvcfcsjzw)" rx="10" ry="10" style="stroke: #000000; stroke-width: 1.5;"/><line style="stroke: #000000; stroke-width: 2.5;" x1="17.8128" x2="30.1872" y1="172.7347" y2="185.1091"/><line style="stroke: #000000; stroke-width: 2.5;" x1="30.1872" x2="17.8128" y1="172.7347" y2="185.1091"/><ellipse cx="172" cy="680.5117" fill="#FEFECE" filter="url(#f36lvvcfcsjzw)" rx="10" ry="10" style="stroke: #A80036; stroke-width: 1.5;"/><path d="M172.1094,676.6836 L170.5,681.0273 L173.7188,681.0273 L172.1094,676.6836 Z M171.4375,675.5117 L172.7813,675.5117 L176.1094,684.2617 L174.875,684.2617 L174.0781,682.0117 L170.1406,682.0117 L169.3438,684.2617 L168.0938,684.2617 L171.4375,675.5117 Z "/><polygon fill="#FEFECE" filter="url(#f36lvvcfcsjzw)" points="153,710.5117,201,710.5117,191,744.4805,143,744.4805" style="stroke: #A80036; stroke-width: 1.5;"/><text fill="#000000" font-family="sans-serif" font-size="12" lengthAdjust="spacingAndGlyphs" textLength="38" x="153" y="731.6504">stderr</text><ellipse cx="172" cy="775.4805" fill="#FFFFFF" filter="url(#f36lvvcfcsjzw)" rx="11" ry="11" style="stroke: #000000; stroke-width: 1.0;"/><ellipse cx="172" cy="775.4805" fill="#000000" rx="6" ry="6" style="stroke: #7F7F7F; stroke-width: 1.0;"/><line style="stroke: #A80036; stroke-width: 1.5;" x1="172" x2="172" y1="50.9531" y2="70.9531"/><polygon fill="#A80036" points="168,60.9531,172,70.9531,176,60.9531,172,64.9531" style="stroke: #A80036; stroke-width: 1.0;"/><line style="stroke: #008000; stroke-width: 1.5;" x1="172" x2="172" y1="580.1406" y2="604.543"/><polygon fill="#008000" points="168,594.543,172,604.543,176,594.543,172,598.543" style="stroke: #008000; stroke-width: 1.0;"/><line style="stroke: #A80036; stroke-width: 1.5;" x1="219" x2="260" y1="568.1406" y2="568.1406"/><polygon fill="#A80036" points="250,564.1406,260,568.1406,250,572.1406,254,568.1406" style="stroke: #A80036; stroke-width: 1.0;"/><line style="stroke: #A80036; stroke-width: 1.5;" x1="172" x2="172" y1="638.5117" y2="648.5117"/><line style="stroke: #A80036; stroke-width: 1.5;" x1="172" x2="314" y1="648.5117" y2="648.5117"/><polygon fill="#A80036" points="310,511.5273,314,501.5273,318,511.5273,314,507.5273" style="stroke: #A80036; stroke-width: 1.5;"/><line style="stroke: #A80036; stroke-width: 1.5;" x1="314" x2="314" y1="136.9219" y2="648.5117"/><line style="stroke: #A80036; stroke-width: 1.5;" x1="314" x2="230.5" y1="136.9219" y2="136.9219"/><polygon fill="#A80036" points="240.5,132.9219,230.5,136.9219,240.5,140.9219,236.5,136.9219" style="stroke: #A80036; stroke-width: 1.0;"/><line style="stroke: #008000; stroke-width: 1.5;" x1="172" x2="172" y1="531.7383" y2="556.1406"/><polygon fill="#008000" points="168,546.1406,172,556.1406,176,546.1406,172,550.1406" style="stroke: #008000; stroke-width: 1.0;"/><line style="stroke: #A80036; stroke-width: 1.5;" x1="208.5" x2="249.5" y1="519.7383" y2="519.7383"/><polygon fill="#A80036" points="239.5,515.7383,249.5,519.7383,239.5,523.7383,243.5,519.7383" style="stroke: #A80036; stroke-width: 1.0;"/><line style="stroke: #008000; stroke-width: 1.5;" x1="172" x2="172" y1="483.3359" y2="507.7383"/><polygon fill="#008000" points="168,497.7383,172,507.7383,176,497.7383,172,501.7383" style="stroke: #008000; stroke-width: 1.0;"/><line style="stroke: #A80036; stroke-width: 1.5;" x1="199" x2="240" y1="471.3359" y2="471.3359"/><polygon fill="#A80036" points="230,467.3359,240,471.3359,230,475.3359,234,471.3359" style="stroke: #A80036; stroke-width: 1.0;"/><line style="stroke: #008000; stroke-width: 1.5;" x1="172" x2="172" y1="434.9336" y2="459.3359"/><polygon fill="#008000" points="168,449.3359,172,459.3359,176,449.3359,172,453.3359" style="stroke: #008000; stroke-width: 1.0;"/><line style="stroke: #A80036; stroke-width: 1.5;" x1="209.5" x2="250.5" y1="422.9336" y2="422.9336"/><polygon fill="#A80036" points="240.5,418.9336,250.5,422.9336,240.5,426.9336,244.5,422.9336" style="stroke: #A80036; stroke-width: 1.0;"/><line style="stroke: #008000; stroke-width: 1.5;" x1="172" x2="172" y1="386.5313" y2="410.9336"/><polygon fill="#008000" points="168,400.9336,172,410.9336,176,400.9336,172,404.9336" style="stroke: #008000; stroke-width: 1.0;"/><line style="stroke: #A80036; stroke-width: 1.5;" x1="196" x2="237" y1="374.5313" y2="374.5313"/><polygon fill="#A80036" points="227,370.5313,237,374.5313,227,378.5313,231,374.5313" style="stroke: #A80036; stroke-width: 1.0;"/><line style="stroke: #008000; stroke-width: 1.5;" x1="172" x2="172" y1="338.1289" y2="362.5313"/><polygon fill="#008000" points="168,352.5313,172,362.5313,176,352.5313,172,356.5313" style="stroke: #008000; stroke-width: 1.0;"/><line style="stroke: #A80036; stroke-width: 1.5;" x1="199.5" x2="240.5" y1="326.1289" y2="326.1289"/><polygon fill="#A80036" points="230.5,322.1289,240.5,326.1289,230.5,330.1289,234.5,326.1289" style="stroke: #A80036; stroke-width: 1.0;"/><line style="stroke: #008000; stroke-width: 1.5;" x1="172" x2="172" y1="289.7266" y2="314.1289"/><polygon fill="#008000" points="168,304.1289,172,314.1289,176,304.1289,172,308.1289" style="stroke: #008000; stroke-width: 1.0;"/><line style="stroke: #A80036; stroke-width: 1.5;" x1="200" x2="241" y1="277.7266" y2="277.7266"/><polygon fill="#A80036" points="231,273.7266,241,277.7266,231,281.7266,235,277.7266" style="stroke: #A80036; stroke-width: 1.0;"/><line style="stroke: #008000; stroke-width: 1.5;" x1="172" x2="172" y1="241.3242" y2="265.7266"/><polygon fill="#008000" points="168,255.7266,172,265.7266,176,255.7266,172,259.7266" style="stroke: #008000; stroke-width: 1.0;"/><line style="stroke: #A80036; stroke-width: 1.5;" x1="208.5" x2="249.5" y1="229.3242" y2="229.3242"/><polygon fill="#A80036" points="239.5,225.3242,249.5,229.3242,239.5,233.3242,243.5,229.3242" style="stroke: #A80036; stroke-width: 1.0;"/><line style="stroke: #008000; stroke-width: 1.5;" x1="172" x2="172" y1="192.9219" y2="217.3242"/><polygon fill="#008000" points="168,207.3242,172,217.3242,176,207.3242,172,211.3242" style="stroke: #008000; stroke-width: 1.0;"/><line style="stroke: #A80036; stroke-width: 1.5;" x1="199.5" x2="219.5" y1="180.9219" y2="180.9219"/><polygon fill="#A80036" points="209.5,176.9219,219.5,180.9219,209.5,184.9219,213.5,180.9219" style="stroke: #A80036; stroke-width: 1.0;"/><line style="stroke: #A80036; stroke-width: 1.5;" x1="172" x2="172" y1="148.9219" y2="168.9219"/><polygon fill="#A80036" points="168,158.9219,172,168.9219,176,158.9219,172,162.9219" style="stroke: #A80036; stroke-width: 1.0;"/><line style="stroke: #A80036; stroke-width: 1.5;" x1="113.5" x2="24" y1="136.9219" y2="136.9219"/><line style="stroke: #A80036; stroke-width: 1.5;" x1="24" x2="24" y1="136.9219" y2="168.9219"/><polygon fill="#A80036" points="20,158.9219,24,168.9219,28,158.9219,24,162.9219" style="stroke: #A80036; stroke-width: 1.0;"/><line style="stroke: #A80036; stroke-width: 1.5;" x1="172" x2="172" y1="104.9219" y2="124.9219"/><polygon fill="#A80036" points="168,114.9219,172,124.9219,176,114.9219,172,118.9219" style="stroke: #A80036; stroke-width: 1.0;"/><line style="stroke: #A80036; stroke-width: 1.5;" x1="172" x2="172" y1="690.5117" y2="710.5117"/><polygon fill="#A80036" points="168,700.5117,172,710.5117,176,700.5117,172,704.5117" style="stroke: #A80036; stroke-width: 1.0;"/><line style="stroke: #A80036; stroke-width: 1.5;" x1="172" x2="172" y1="744.4805" y2="764.4805"/><polygon fill="#A80036" points="168,754.4805,172,764.4805,176,754.4805,172,758.4805" style="stroke: #A80036; stroke-width: 1.0;"/><!--
@startuml named_build_flow
    title Named Build Flow
    start
        :Supported Versions: 6,7,8,9,10,11,12}
        while (for each version)
            if (nvm i) then (passed)
                -[#green]->
                if (nvm use) then (passed)
                    -[#green]->
                    if (npm i) then (passed)
                        -[#green]->
                        if (eslint) then (passed)
                            -[#green]->
                            if (jest) then (passed)
                                -[#green]->
                                if (coveralls) then (passed)
                                    -[#green]->
                                    if (jsdoc) then (passed)
                                        -[#green]->
                                        if (webpack) then (passed)
                                            -[#green]->
                                            if (npm publish) then (passed)
                                                -[#green]->
                                                :stdout/
                                            else (failed)
                                                (A)
                                            endif
                                        else (failed)
                                            (A)
                                        endif
                                    else (failed)
                                        (A)
                                    endif
                                else (failed)
                                    (A)
                                endif
                            else (failed)
                                (A)
                            endif
                        else (failed)
                            (A)
                        endif
                    else (failed)
                        (A)
                    endif
                else (failed)
                    (A)
                endif
            else
                (A)
            endif
        endwhile
    end
    detach
    (A)
    :stderr/
    stop
@enduml

PlantUML version 1.2019.03(Sun Mar 10 13:04:44 EET 2019)
(GPL source distribution)
Java Runtime: Java(TM) SE Runtime Environment
JVM: Java HotSpot(TM) 64-Bit Server VM
Java Version: 1.8.0_201-b09
Operating System: Linux
OS Version: 4.15.0-47-generic
Default Encoding: UTF-8
Language: en
Country: US
--></g></svg>