<?xml version="1.0" encoding="UTF-8" standalone="no"?><svg xmlns="http://www.w3.org/2000/svg" xmlns:xlink="http://www.w3.org/1999/xlink" contentScriptType="application/ecmascript" contentStyleType="text/css" height="809px" preserveAspectRatio="none" style="width:893px;height:809px;" version="1.1" viewBox="0 0 893 809" width="893px" zoomAndPan="magnify"><defs><filter height="300%" id="f1jmk54ewc884f" width="300%" x="-1" y="-1"><feGaussianBlur result="blurOut" stdDeviation="2.0"/><feColorMatrix in="blurOut" result="blurOut2" type="matrix" values="0 0 0 0 0 0 0 0 0 0 0 0 0 0 0 0 0 0 .4 0"/><feOffset dx="4.0" dy="4.0" in="blurOut2" result="blurOut3"/><feBlend in="SourceGraphic" in2="blurOut3" mode="normal"/></filter></defs><g><!--cluster GITServer--><polygon fill="#FFFFFF" filter="url(#f1jmk54ewc884f)" points="96,34,106,24,427,24,427,116,417,126,96,126,96,34" style="stroke: #000000; stroke-width: 1.5;"/><line style="stroke: #000000; stroke-width: 1.5;" x1="417" x2="426" y1="34" y2="25"/><line style="stroke: #000000; stroke-width: 1.5;" x1="96" x2="417" y1="34" y2="34"/><line style="stroke: #000000; stroke-width: 1.5;" x1="417" x2="417" y1="34" y2="126"/><text fill="#000000" font-family="sans-serif" font-size="14" font-weight="bold" lengthAdjust="spacingAndGlyphs" textLength="88" x="213.5" y="49.9951">github.com</text><!--cluster NPMServer--><polygon fill="#FFFFFF" filter="url(#f1jmk54ewc884f)" points="538,288,548,278,869,278,869,370,859,380,538,380,538,288" style="stroke: #000000; stroke-width: 1.5;"/><line style="stroke: #000000; stroke-width: 1.5;" x1="859" x2="868" y1="288" y2="279"/><line style="stroke: #000000; stroke-width: 1.5;" x1="538" x2="859" y1="288" y2="288"/><line style="stroke: #000000; stroke-width: 1.5;" x1="859" x2="859" y1="288" y2="380"/><text fill="#000000" font-family="sans-serif" font-size="14" font-weight="bold" lengthAdjust="spacingAndGlyphs" textLength="85" x="657" y="303.9951">npmjs.com</text><!--cluster CICDServer--><polygon fill="#FFFFFF" filter="url(#f1jmk54ewc884f)" points="337,288,347,278,514,278,514,370,504,380,337,380,337,288" style="stroke: #000000; stroke-width: 1.5;"/><line style="stroke: #000000; stroke-width: 1.5;" x1="504" x2="513" y1="288" y2="279"/><line style="stroke: #000000; stroke-width: 1.5;" x1="337" x2="504" y1="288" y2="288"/><line style="stroke: #000000; stroke-width: 1.5;" x1="504" x2="504" y1="288" y2="380"/><text fill="#000000" font-family="sans-serif" font-size="14" font-weight="bold" lengthAdjust="spacingAndGlyphs" textLength="101" x="371" y="303.9951">travis-ci.com</text><!--cluster ContainerServer--><polygon fill="#FFFFFF" filter="url(#f1jmk54ewc884f)" points="667,34,677,24,871,24,871,116,861,126,667,126,667,34" style="stroke: #000000; stroke-width: 1.5;"/><line style="stroke: #000000; stroke-width: 1.5;" x1="861" x2="870" y1="34" y2="25"/><line style="stroke: #000000; stroke-width: 1.5;" x1="667" x2="861" y1="34" y2="34"/><line style="stroke: #000000; stroke-width: 1.5;" x1="861" x2="861" y1="34" y2="126"/><text fill="#000000" font-family="sans-serif" font-size="14" font-weight="bold" lengthAdjust="spacingAndGlyphs" textLength="128" x="701" y="49.9951">hub.docker.com</text><!--cluster CoverageServer--><polygon fill="#FFFFFF" filter="url(#f1jmk54ewc884f)" points="451,34,461,24,643,24,643,116,633,126,451,126,451,34" style="stroke: #000000; stroke-width: 1.5;"/><line style="stroke: #000000; stroke-width: 1.5;" x1="633" x2="642" y1="34" y2="25"/><line style="stroke: #000000; stroke-width: 1.5;" x1="451" x2="633" y1="34" y2="34"/><line style="stroke: #000000; stroke-width: 1.5;" x1="633" x2="633" y1="34" y2="126"/><text fill="#000000" font-family="sans-serif" font-size="14" font-weight="bold" lengthAdjust="spacingAndGlyphs" textLength="90" x="498" y="49.9951">coveralls.io</text><!--cluster Producer--><polygon fill="#FFFFFF" filter="url(#f1jmk54ewc884f)" points="22,423,32,413,386,413,386,650,376,660,22,660,22,423" style="stroke: #000000; stroke-width: 1.5;"/><line style="stroke: #000000; stroke-width: 1.5;" x1="376" x2="385" y1="423" y2="414"/><line style="stroke: #000000; stroke-width: 1.5;" x1="22" x2="376" y1="423" y2="423"/><line style="stroke: #000000; stroke-width: 1.5;" x1="376" x2="376" y1="423" y2="660"/><text fill="#000000" font-family="sans-serif" font-size="14" font-weight="bold" lengthAdjust="spacingAndGlyphs" textLength="73" x="163.5" y="438.9951">Producer</text><!--cluster Consumer--><polygon fill="#FFFFFF" filter="url(#f1jmk54ewc884f)" points="558,562,568,552,814,552,814,787,804,797,558,797,558,562" style="stroke: #000000; stroke-width: 1.5;"/><line style="stroke: #000000; stroke-width: 1.5;" x1="804" x2="813" y1="562" y2="553"/><line style="stroke: #000000; stroke-width: 1.5;" x1="558" x2="804" y1="562" y2="562"/><line style="stroke: #000000; stroke-width: 1.5;" x1="804" x2="804" y1="562" y2="797"/><text fill="#000000" font-family="sans-serif" font-size="14" font-weight="bold" lengthAdjust="spacingAndGlyphs" textLength="81" x="641.5" y="577.9951">Consumer</text><!--entity GITRepo--><path d="M112.5,74.5 C112.5,64.5 173,64.5 173,64.5 C173,64.5 233.5,64.5 233.5,74.5 L233.5,99.7969 C233.5,109.7969 173,109.7969 173,109.7969 C173,109.7969 112.5,109.7969 112.5,99.7969 L112.5,74.5 " fill="#FEFECE" filter="url(#f1jmk54ewc884f)" style="stroke: #000000; stroke-width: 1.5;"/><path d="M112.5,74.5 C112.5,84.5 173,84.5 173,84.5 C173,84.5 233.5,84.5 233.5,74.5 " fill="none" style="stroke: #000000; stroke-width: 1.5;"/><text fill="#000000" font-family="sans-serif" font-size="14" lengthAdjust="spacingAndGlyphs" textLength="101" x="122.5" y="101.4951">GIT Repository</text><!--entity GITService--><polygon fill="#FEFECE" filter="url(#f1jmk54ewc884f)" points="293.5,74,303.5,64,410.5,64,410.5,100.2969,400.5,110.2969,293.5,110.2969,293.5,74" style="stroke: #000000; stroke-width: 1.5;"/><line style="stroke: #000000; stroke-width: 1.5;" x1="400.5" x2="409.5" y1="74" y2="65"/><line style="stroke: #000000; stroke-width: 1.5;" x1="293.5" x2="400.5" y1="74" y2="74"/><line style="stroke: #000000; stroke-width: 1.5;" x1="400.5" x2="400.5" y1="74" y2="110.2969"/><text fill="#000000" font-family="sans-serif" font-size="14" lengthAdjust="spacingAndGlyphs" textLength="77" x="308.5" y="96.9951">GIT Service</text><!--entity NPMService--><polygon fill="#FEFECE" filter="url(#f1jmk54ewc884f)" points="554.5,328,564.5,318,679.5,318,679.5,354.2969,669.5,364.2969,554.5,364.2969,554.5,328" style="stroke: #000000; stroke-width: 1.5;"/><line style="stroke: #000000; stroke-width: 1.5;" x1="669.5" x2="678.5" y1="328" y2="319"/><line style="stroke: #000000; stroke-width: 1.5;" x1="554.5" x2="669.5" y1="328" y2="328"/><line style="stroke: #000000; stroke-width: 1.5;" x1="669.5" x2="669.5" y1="328" y2="364.2969"/><text fill="#000000" font-family="sans-serif" font-size="14" lengthAdjust="spacingAndGlyphs" textLength="85" x="569.5" y="350.9951">NPM Service</text><!--entity NPMPackage--><path d="M739,328.5 C739,318.5 796,318.5 796,318.5 C796,318.5 853,318.5 853,328.5 L853,353.7969 C853,363.7969 796,363.7969 796,363.7969 C796,363.7969 739,363.7969 739,353.7969 L739,328.5 " fill="#FEFECE" filter="url(#f1jmk54ewc884f)" style="stroke: #000000; stroke-width: 1.5;"/><path d="M739,328.5 C739,338.5 796,338.5 796,338.5 C796,338.5 853,338.5 853,328.5 " fill="none" style="stroke: #000000; stroke-width: 1.5;"/><text fill="#000000" font-family="sans-serif" font-size="14" lengthAdjust="spacingAndGlyphs" textLength="94" x="749" y="355.4951">NPM Package</text><!--entity CICDService--><polygon fill="#FEFECE" filter="url(#f1jmk54ewc884f)" points="364.5,328,374.5,318,497.5,318,497.5,354.2969,487.5,364.2969,364.5,364.2969,364.5,328" style="stroke: #000000; stroke-width: 1.5;"/><line style="stroke: #000000; stroke-width: 1.5;" x1="487.5" x2="496.5" y1="328" y2="319"/><line style="stroke: #000000; stroke-width: 1.5;" x1="364.5" x2="487.5" y1="328" y2="328"/><line style="stroke: #000000; stroke-width: 1.5;" x1="487.5" x2="487.5" y1="328" y2="364.2969"/><text fill="#000000" font-family="sans-serif" font-size="14" lengthAdjust="spacingAndGlyphs" textLength="93" x="379.5" y="350.9951">CI/CD Service</text><!--entity ContainerService--><polygon fill="#FEFECE" filter="url(#f1jmk54ewc884f)" points="683.5,74,693.5,64,836.5,64,836.5,100.2969,826.5,110.2969,683.5,110.2969,683.5,74" style="stroke: #000000; stroke-width: 1.5;"/><line style="stroke: #000000; stroke-width: 1.5;" x1="826.5" x2="835.5" y1="74" y2="65"/><line style="stroke: #000000; stroke-width: 1.5;" x1="683.5" x2="826.5" y1="74" y2="74"/><line style="stroke: #000000; stroke-width: 1.5;" x1="826.5" x2="826.5" y1="74" y2="110.2969"/><text fill="#000000" font-family="sans-serif" font-size="14" lengthAdjust="spacingAndGlyphs" textLength="113" x="698.5" y="96.9951">Continer Service</text><!--entity CoverageService--><polygon fill="#FEFECE" filter="url(#f1jmk54ewc884f)" points="467,74,477,64,627,64,627,100.2969,617,110.2969,467,110.2969,467,74" style="stroke: #000000; stroke-width: 1.5;"/><line style="stroke: #000000; stroke-width: 1.5;" x1="617" x2="626" y1="74" y2="65"/><line style="stroke: #000000; stroke-width: 1.5;" x1="467" x2="617" y1="74" y2="74"/><line style="stroke: #000000; stroke-width: 1.5;" x1="617" x2="617" y1="74" y2="110.2969"/><text fill="#000000" font-family="sans-serif" font-size="14" lengthAdjust="spacingAndGlyphs" textLength="120" x="482" y="96.9951">Coverage Service</text><!--entity GITClient--><polygon fill="#FEFECE" filter="url(#f1jmk54ewc884f)" points="38,463,48,453,144,453,144,489.2969,134,499.2969,38,499.2969,38,463" style="stroke: #000000; stroke-width: 1.5;"/><line style="stroke: #000000; stroke-width: 1.5;" x1="134" x2="143" y1="463" y2="454"/><line style="stroke: #000000; stroke-width: 1.5;" x1="38" x2="134" y1="463" y2="463"/><line style="stroke: #000000; stroke-width: 1.5;" x1="134" x2="134" y1="463" y2="499.2969"/><text fill="#000000" font-family="sans-serif" font-size="14" lengthAdjust="spacingAndGlyphs" textLength="66" x="53" y="485.9951">GIT Client</text><!--entity GIT_CLI--><ellipse cx="69" cy="615" fill="#FEFECE" filter="url(#f1jmk54ewc884f)" rx="8" ry="8" style="stroke: #A80036; stroke-width: 2.0;"/><text fill="#000000" font-family="sans-serif" font-size="14" lengthAdjust="spacingAndGlyphs" textLength="47" x="45.5" y="644.9951">GIT CLI</text><!--entity Sources--><polygon fill="#FEFECE" filter="url(#f1jmk54ewc884f)" points="179,458,179,494.2969,279,494.2969,279,468,269,458,179,458" style="stroke: #000000; stroke-width: 1.5;"/><path d="M269,458 L269,468 L279,468 " fill="#FEFECE" style="stroke: #000000; stroke-width: 1.5;"/><text fill="#000000" font-family="sans-serif" font-size="14" lengthAdjust="spacingAndGlyphs" textLength="80" x="189" y="480.9951">Source files</text><!--entity CICDConf--><polygon fill="#FEFECE" filter="url(#f1jmk54ewc884f)" points="135.5,597,135.5,633.2969,222.5,633.2969,222.5,607,212.5,597,135.5,597" style="stroke: #000000; stroke-width: 1.5;"/><path d="M212.5,597 L212.5,607 L222.5,607 " fill="#FEFECE" style="stroke: #000000; stroke-width: 1.5;"/><text fill="#000000" font-family="sans-serif" font-size="14" lengthAdjust="spacingAndGlyphs" textLength="67" x="145.5" y="619.9951">.travis.yml</text><!--entity NPMConfig--><polygon fill="#FEFECE" filter="url(#f1jmk54ewc884f)" points="258,597,258,633.2969,370,633.2969,370,607,360,597,258,597" style="stroke: #000000; stroke-width: 1.5;"/><path d="M360,597 L360,607 L370,607 " fill="#FEFECE" style="stroke: #000000; stroke-width: 1.5;"/><text fill="#000000" font-family="sans-serif" font-size="14" lengthAdjust="spacingAndGlyphs" textLength="92" x="268" y="619.9951">package.json</text><!--entity NPMClientC--><polygon fill="#FEFECE" filter="url(#f1jmk54ewc884f)" points="574,602,584,592,688,592,688,628.2969,678,638.2969,574,638.2969,574,602" style="stroke: #000000; stroke-width: 1.5;"/><line style="stroke: #000000; stroke-width: 1.5;" x1="678" x2="687" y1="602" y2="593"/><line style="stroke: #000000; stroke-width: 1.5;" x1="574" x2="678" y1="602" y2="602"/><line style="stroke: #000000; stroke-width: 1.5;" x1="678" x2="678" y1="602" y2="638.2969"/><text fill="#000000" font-family="sans-serif" font-size="14" lengthAdjust="spacingAndGlyphs" textLength="74" x="589" y="624.9951">NPM Client</text><!--entity NPM_CLI_C--><ellipse cx="631" cy="752" fill="#FEFECE" filter="url(#f1jmk54ewc884f)" rx="8" ry="8" style="stroke: #A80036; stroke-width: 2.0;"/><text fill="#000000" font-family="sans-serif" font-size="14" lengthAdjust="spacingAndGlyphs" textLength="55" x="603.5" y="781.9951">NPM CLI</text><!--entity NodeJS--><polygon fill="#FEFECE" filter="url(#f1jmk54ewc884f)" points="703,739,713,729,795,729,795,765.2969,785,775.2969,703,775.2969,703,739" style="stroke: #000000; stroke-width: 1.5;"/><line style="stroke: #000000; stroke-width: 1.5;" x1="785" x2="794" y1="739" y2="730"/><line style="stroke: #000000; stroke-width: 1.5;" x1="703" x2="785" y1="739" y2="739"/><line style="stroke: #000000; stroke-width: 1.5;" x1="785" x2="785" y1="739" y2="775.2969"/><text fill="#000000" font-family="sans-serif" font-size="14" lengthAdjust="spacingAndGlyphs" textLength="52" x="718" y="761.9951">Node.js</text><!--entity Binaries--><polygon fill="#FEFECE" filter="url(#f1jmk54ewc884f)" points="723.5,597,723.5,633.2969,798.5,633.2969,798.5,607,788.5,597,723.5,597" style="stroke: #000000; stroke-width: 1.5;"/><path d="M788.5,597 L788.5,607 L798.5,607 " fill="#FEFECE" style="stroke: #000000; stroke-width: 1.5;"/><text fill="#000000" font-family="sans-serif" font-size="14" lengthAdjust="spacingAndGlyphs" textLength="55" x="733.5" y="619.9951">Binaries</text><!--entity Webhooks--><ellipse cx="409" cy="202" fill="#FEFECE" filter="url(#f1jmk54ewc884f)" rx="8" ry="8" style="stroke: #A80036; stroke-width: 2.0;"/><text fill="#000000" font-family="sans-serif" font-size="14" lengthAdjust="spacingAndGlyphs" textLength="74" x="372" y="231.9951">Webhooks</text><!--entity GITInterface--><ellipse cx="311" cy="341" fill="#FEFECE" filter="url(#f1jmk54ewc884f)" rx="8" ry="8" style="stroke: #A80036; stroke-width: 2.0;"/><text fill="#000000" font-family="sans-serif" font-size="14" lengthAdjust="spacingAndGlyphs" textLength="87" x="267.5" y="370.9951">GIT Interface</text><!--entity NPMInterface--><ellipse cx="575" cy="476" fill="#FEFECE" filter="url(#f1jmk54ewc884f)" rx="8" ry="8" style="stroke: #A80036; stroke-width: 2.0;"/><text fill="#000000" font-family="sans-serif" font-size="14" lengthAdjust="spacingAndGlyphs" textLength="95" x="527.5" y="505.9951">NPM Interface</text><!--entity CICDInterface--><ellipse cx="442" cy="476" fill="#FEFECE" filter="url(#f1jmk54ewc884f)" rx="8" ry="8" style="stroke: #A80036; stroke-width: 2.0;"/><text fill="#000000" font-family="sans-serif" font-size="14" lengthAdjust="spacingAndGlyphs" textLength="65" x="409.5" y="505.9951">Travis API</text><!--entity ContainerInterface--><ellipse cx="704" cy="202" fill="#FEFECE" filter="url(#f1jmk54ewc884f)" rx="8" ry="8" style="stroke: #A80036; stroke-width: 2.0;"/><text fill="#000000" font-family="sans-serif" font-size="14" lengthAdjust="spacingAndGlyphs" textLength="74" x="667" y="231.9951">Docker CLI</text><!--entity CoverageInterface--><ellipse cx="547" cy="202" fill="#FEFECE" filter="url(#f1jmk54ewc884f)" rx="8" ry="8" style="stroke: #A80036; stroke-width: 2.0;"/><text fill="#000000" font-family="sans-serif" font-size="14" lengthAdjust="spacingAndGlyphs" textLength="101" x="496.5" y="231.9951">node-coveralls</text><!--link GITRepo to GITService--><path d="M238.611,87 C256.512,87 275.789,87 293.28,87 " fill="none" id="GITRepo-GITService" style="stroke: #A80036; stroke-width: 1.0;"/><polygon fill="#A80036" points="233.601,87,242.601,91,238.601,87,242.601,83,233.601,87" style="stroke: #A80036; stroke-width: 1.0;"/><text fill="#000000" font-family="sans-serif" font-size="13" lengthAdjust="spacingAndGlyphs" textLength="23" x="252" y="80.0669">use</text><!--link GITService to Webhooks--><path d="M363.125,110.056 C375.891,135.362 396.175,175.576 404.847,192.767 " fill="none" id="GITService-Webhooks" style="stroke: #A80036; stroke-width: 1.0;"/><!--link GITService to GITInterface--><path d="M348.362,110.363 C339.66,163.846 317.954,297.26 312.342,331.754 " fill="none" id="GITService-GITInterface" style="stroke: #A80036; stroke-width: 1.0;"/><!--link NPMService to NPMPackage--><path d="M679.606,341 C697.056,341 716.011,341 733.458,341 " fill="none" id="NPMService-NPMPackage" style="stroke: #A80036; stroke-width: 1.0;"/><polygon fill="#A80036" points="738.821,341,729.821,337,733.821,341,729.821,345,738.821,341" style="stroke: #A80036; stroke-width: 1.0;"/><text fill="#000000" font-family="sans-serif" font-size="13" lengthAdjust="spacingAndGlyphs" textLength="23" x="697.75" y="334.0669">use</text><!--link NPMService to NPMInterface--><path d="M609.97,364.261 C600.442,394.432 583.893,446.838 577.563,466.884 " fill="none" id="NPMService-NPMInterface" style="stroke: #A80036; stroke-width: 1.0;"/><!--link CICDService to CICDInterface--><path d="M432.841,364.261 C435.337,394.432 439.671,446.838 441.329,466.884 " fill="none" id="CICDService-CICDInterface" style="stroke: #A80036; stroke-width: 1.0;"/><!--link Webhooks to CICDService--><path d="M411.903,221.08 C415.91,246.032 423.129,290.985 427.451,317.901 " fill="none" id="Webhooks-CICDService" style="stroke: #A80036; stroke-width: 1.0;"/><path d="M402.4478,215.5402 A9,9 0 0 0 419.1483 212.8583" fill="none" style="stroke: #A80036; stroke-width: 1.5;"/><!--link GITInterface to CICDService--><path d="M330.706,341 C341.954,341 353.203,341 364.452,341 " fill="none" id="GITInterface-CICDService" style="stroke: #A80036; stroke-width: 1.0;"/><path d="M323.4532,349.4572 A9,9 0 0 0 323.4532 332.5428" fill="none" style="stroke: #A80036; stroke-width: 1.5;"/><!--link CICDService to NPMInterface--><path d="M455.102,364.261 C484.451,391.368 533.232,436.423 558.577,459.832 " fill="none" id="CICDService-NPMInterface" style="stroke: #A80036; stroke-width: 1.0;"/><path d="M569.6888,458.5827 A9,9 0 0 0 558.2126 471.0083" fill="none" style="stroke: #A80036; stroke-width: 1.5;"/><!--link ContainerService to ContainerInterface--><path d="M749.07,110.056 C736.529,135.362 716.6,175.576 708.08,192.767 " fill="none" id="ContainerService-ContainerInterface" style="stroke: #A80036; stroke-width: 1.0;"/><!--link ContainerInterface to CICDService--><path d="M685.077,209.274 C653.692,219.976 589.251,243.222 538,270 C511.045,284.083 482.297,303.141 461.394,317.815 " fill="none" id="ContainerInterface-CICDService" style="stroke: #A80036; stroke-width: 1.0;"/><path d="M689.1067,198.9934 A9,9 0 0 0 694.5048 215.0234" fill="none" style="stroke: #A80036; stroke-width: 1.5;"/><!--link CoverageService to CoverageInterface--><path d="M547,110.056 C547,135.362 547,175.576 547,192.767 " fill="none" id="CoverageService-CoverageInterface" style="stroke: #A80036; stroke-width: 1.0;"/><!--link CoverageInterface to CICDService--><path d="M533.367,219.102 C512.633,243.589 473.118,290.257 449.712,317.901 " fill="none" id="CoverageInterface-CICDService" style="stroke: #A80036; stroke-width: 1.0;"/><path d="M531.6475,208.0443 A9,9 0 0 0 544.5564 218.9741" fill="none" style="stroke: #A80036; stroke-width: 1.5;"/><!--link GITClient to GIT_CLI--><path d="M87.4653,499.011 C82.4853,530.023 73.6402,585.104 70.3136,605.82 " fill="none" id="GITClient-GIT_CLI" style="stroke: #A80036; stroke-width: 1.0;"/><!--link GITRepo to Sources--><path d="M178.034,122.787 C189.645,203.031 217.964,398.735 226.515,457.827 " fill="none" id="GITRepo-Sources" style="stroke: #A80036; stroke-width: 1.0;"/><polygon fill="#FFFFFF" points="176.131,109.636,173.0321,116.1473,177.8506,121.5122,180.9495,115.0009,176.131,109.636" style="stroke: #A80036; stroke-width: 1.0;"/><text fill="#000000" font-family="sans-serif" font-size="13" lengthAdjust="spacingAndGlyphs" textLength="23" x="150.8818" y="129.7799">0..*</text><!--link Sources to CICDConf--><path d="M218.26,506.427 C208.225,533.923 193.584,574.039 185.31,596.711 " fill="none" id="Sources-CICDConf" style="stroke: #A80036; stroke-width: 1.0;"/><polygon fill="#A80036" points="222.769,494.074,216.9544,498.339,218.655,505.3467,224.4696,501.0817,222.769,494.074" style="stroke: #A80036; stroke-width: 1.0;"/><!--link Sources to NPMConfig--><path d="M246.564,505.309 C263.636,532.826 289.015,573.73 303.273,596.711 " fill="none" id="Sources-NPMConfig" style="stroke: #A80036; stroke-width: 1.0;"/><polygon fill="#A80036" points="239.593,494.074,239.3574,501.2813,245.9196,504.2707,246.1552,497.0635,239.593,494.074" style="stroke: #A80036; stroke-width: 1.0;"/><!--link GITInterface to GITClient--><path d="M292.099,347.335 C262.471,356.25 204.036,376.091 161,405 C141.169,418.321 122.237,437.813 109.073,452.848 " fill="none" id="GITInterface-GITClient" style="stroke: #A80036; stroke-width: 1.0;"/><path d="M296.6256,337.2024 A9,9 0 0 0 301.369 353.4381" fill="none" style="stroke: #A80036; stroke-width: 1.5;"/><!--link CICDInterface to CICDConf--><path d="M423.915,487.217 C413.147,493 399.073,500.044 386,505 C323.197,528.807 296.994,508.465 240,544 C218.524,557.39 200.447,580.684 189.677,596.698 " fill="none" id="CICDInterface-CICDConf" style="stroke: #A80036; stroke-width: 1.0;"/><path d="M425.9779,476.4303 A9,9 0 0 0 434.1299 491.2507" fill="none" style="stroke: #A80036; stroke-width: 1.5;"/><!--link NPMInterface to NPMConfig--><path d="M556.81,486.548 C513.232,509.422 402.36,567.62 346.792,596.788 " fill="none" id="NPMInterface-NPMConfig" style="stroke: #A80036; stroke-width: 1.0;"/><path d="M559.0551,475.818 A9,9 0 0 0 566.9157 490.795" fill="none" style="stroke: #A80036; stroke-width: 1.5;"/><!--link NPMInterface to NPMClientC--><path d="M582.253,494.744 C592.424,519.627 610.915,564.864 621.967,591.901 " fill="none" id="NPMInterface-NPMClientC" style="stroke: #A80036; stroke-width: 1.0;"/><path d="M571.6714,491.2095 A9,9 0 0 0 587.3282 484.8091" fill="none" style="stroke: #A80036; stroke-width: 1.5;"/><!--link NPMClientC to NPM_CLI_C--><path d="M631,638.293 C631,668.848 631,722.2759 631,742.7204 " fill="none" id="NPMClientC-NPM_CLI_C" style="stroke: #A80036; stroke-width: 1.0;"/><!--link NPMClientC to NodeJS--><path d="M650.485,638.293 C669.616,660.179 699.004,693.802 720.707,718.6313 " fill="none" id="NPMClientC-NodeJS" style="stroke: #A80036; stroke-width: 1.0;"/><polygon fill="#A80036" points="729.486,728.6744,728.5492,721.5244,721.5889,719.6391,722.5257,726.7891,729.486,728.6744" style="stroke: #A80036; stroke-width: 1.0;"/><!--link NPMPackage to Binaries--><path d="M791.527,376.764 C783.953,435.625 768.875,552.8 763.215,596.784 " fill="none" id="NPMPackage-Binaries" style="stroke: #A80036; stroke-width: 1.0;"/><polygon fill="#FFFFFF" points="793.195,363.799,788.4616,369.2391,791.6628,375.7008,796.3961,370.2606,793.195,363.799" style="stroke: #A80036; stroke-width: 1.0;"/><text fill="#000000" font-family="sans-serif" font-size="13" lengthAdjust="spacingAndGlyphs" textLength="23" x="766.3505" y="383.9867">0..*</text><!--link Binaries to NodeJS--><path d="M759.028,638.188 C756.805,663.189 753.213,703.6 750.986,728.6625 " fill="none" id="Binaries-NodeJS" style="stroke: #A80036; stroke-width: 1.0;"/><polygon fill="#A80036" points="759.48,633.098,754.6987,641.7084,759.0372,638.0784,762.6673,642.4169,759.48,633.098" style="stroke: #A80036; stroke-width: 1.0;"/><text fill="#000000" font-family="sans-serif" font-size="13" lengthAdjust="spacingAndGlyphs" textLength="21" x="756" y="689.0669">run</text><!--
@startuml named_boxes
    
    node "github.com" as GITServer {
        database "GIT Repository" as GITRepo
        node "GIT Service" as GITService
        GITRepo <- GITService: use
    }
    interface "Webhooks" as Webhooks
    interface "GIT Interface" as GITInterface
    GITService - - Webhooks
    GITService - - GITInterface
    
    node "npmjs.com" as NPMServer {
        node "NPM Service" as NPMService
        database "NPM Package" as NPMPackage
        NPMService -> NPMPackage: use
    }
    interface "NPM Interface" as NPMInterface
    NPMService - - NPMInterface

    node "travis-ci.com" as CICDServer {
        node "CI/CD Service" as CICDService
    }
    interface "Travis API" as CICDInterface
    CICDService - - CICDInterface
    Webhooks )- - CICDService
    GITInterface )- CICDService
    CICDService - -( NPMInterface

    node "hub.docker.com" as ContainerServer {
        node "Continer Service" as ContainerService
    }
    interface "Docker CLI" as ContainerInterface
    ContainerService - - ContainerInterface
    ContainerInterface )- - CICDService
    
    node "coveralls.io" as CoverageServer {
        node "Coverage Service" as CoverageService
    }
    interface "node-coveralls" as CoverageInterface
    CoverageService - - CoverageInterface
    CoverageInterface )- - CICDService
    
    node "Producer" as Producer {
        node "GIT Client" as GITClient
        interface "GIT CLI" as GIT_CLI
        GITClient - - GIT_CLI


        file "Source files" as Sources
        file ".travis.yml" as CICDConf
        file "package.json" as NPMConfig
        GITRepo "0..*" o- - Sources
        Sources *- - CICDConf
        Sources *- - NPMConfig
        GITInterface )- - GITClient
        CICDInterface )- - CICDConf
        NPMInterface )- - NPMConfig
    }

    node "Consumer" as Consumer {
        node "NPM Client" as NPMClientC
        interface "NPM CLI" as NPM_CLI_C
        NPMInterface )- - NPMClientC
        NPMClientC - - NPM_CLI_C

        node "Node.js" as NodeJS
        NPMClientC - -* NodeJS

        file "Binaries" as Binaries
        NPMPackage "0..*" o- - Binaries
        Binaries <- - NodeJS: run
    }
@enduml

PlantUML version 1.2019.03(Sun Mar 10 13:04:44 EET 2019)
(GPL source distribution)
Java Runtime: Java(TM) SE Runtime Environment
JVM: Java HotSpot(TM) 64-Bit Server VM
Java Version: 1.8.0_201-b09
Operating System: Linux
OS Version: 4.15.0-47-generic
Default Encoding: UTF-8
Language: en
Country: US
--></g></svg>