<?xml version="1.0" encoding="UTF-8" standalone="no"?><svg xmlns="http://www.w3.org/2000/svg" xmlns:xlink="http://www.w3.org/1999/xlink" contentScriptType="application/ecmascript" contentStyleType="text/css" height="547px" preserveAspectRatio="none" style="width:928px;height:547px;" version="1.1" viewBox="0 0 928 547" width="928px" zoomAndPan="magnify"><defs><filter height="300%" id="f19z2fdt8hbhs" width="300%" x="-1" y="-1"><feGaussianBlur result="blurOut" stdDeviation="2.0"/><feColorMatrix in="blurOut" result="blurOut2" type="matrix" values="0 0 0 0 0 0 0 0 0 0 0 0 0 0 0 0 0 0 .4 0"/><feOffset dx="4.0" dy="4.0" in="blurOut2" result="blurOut3"/><feBlend in="SourceGraphic" in2="blurOut3" mode="normal"/></filter></defs><g><!--cluster GITServer--><polygon fill="#FFFFFF" filter="url(#f19z2fdt8hbhs)" points="38,34,48,24,331,24,331,116,321,126,38,126,38,34" style="stroke: #000000; stroke-width: 1.5;"/><line style="stroke: #000000; stroke-width: 1.5;" x1="321" x2="330" y1="34" y2="25"/><line style="stroke: #000000; stroke-width: 1.5;" x1="38" x2="321" y1="34" y2="34"/><line style="stroke: #000000; stroke-width: 1.5;" x1="321" x2="321" y1="34" y2="126"/><text fill="#000000" font-family="sans-serif" font-size="14" font-weight="bold" lengthAdjust="spacingAndGlyphs" textLength="88" x="136.5" y="49.9951">github.com</text><!--cluster NPMServer--><polygon fill="#FFFFFF" filter="url(#f19z2fdt8hbhs)" points="575,34,585,24,906,24,906,116,896,126,575,126,575,34" style="stroke: #000000; stroke-width: 1.5;"/><line style="stroke: #000000; stroke-width: 1.5;" x1="896" x2="905" y1="34" y2="25"/><line style="stroke: #000000; stroke-width: 1.5;" x1="575" x2="896" y1="34" y2="34"/><line style="stroke: #000000; stroke-width: 1.5;" x1="896" x2="896" y1="34" y2="126"/><text fill="#000000" font-family="sans-serif" font-size="14" font-weight="bold" lengthAdjust="spacingAndGlyphs" textLength="85" x="694" y="49.9951">npmjs.com</text><!--cluster CICDServer--><polygon fill="#FFFFFF" filter="url(#f19z2fdt8hbhs)" points="286,169,296,159,463,159,463,251,453,261,286,261,286,169" style="stroke: #000000; stroke-width: 1.5;"/><line style="stroke: #000000; stroke-width: 1.5;" x1="453" x2="462" y1="169" y2="160"/><line style="stroke: #000000; stroke-width: 1.5;" x1="286" x2="453" y1="169" y2="169"/><line style="stroke: #000000; stroke-width: 1.5;" x1="453" x2="453" y1="169" y2="261"/><text fill="#000000" font-family="sans-serif" font-size="14" font-weight="bold" lengthAdjust="spacingAndGlyphs" textLength="101" x="320" y="184.9951">travis-ci.com</text><!--cluster CoverageServer--><polygon fill="#FFFFFF" filter="url(#f19z2fdt8hbhs)" points="444,443,454,433,636,433,636,525,626,535,444,535,444,443" style="stroke: #000000; stroke-width: 1.5;"/><line style="stroke: #000000; stroke-width: 1.5;" x1="626" x2="635" y1="443" y2="434"/><line style="stroke: #000000; stroke-width: 1.5;" x1="444" x2="626" y1="443" y2="443"/><line style="stroke: #000000; stroke-width: 1.5;" x1="626" x2="626" y1="443" y2="535"/><text fill="#000000" font-family="sans-serif" font-size="14" font-weight="bold" lengthAdjust="spacingAndGlyphs" textLength="90" x="491" y="458.9951">coveralls.io</text><!--cluster DeveloperPC--><polygon fill="#FFFFFF" filter="url(#f19z2fdt8hbhs)" points="22,304,32,294,295,294,295,520,285,530,22,530,22,304" style="stroke: #000000; stroke-width: 1.5;"/><line style="stroke: #000000; stroke-width: 1.5;" x1="285" x2="294" y1="304" y2="295"/><line style="stroke: #000000; stroke-width: 1.5;" x1="22" x2="285" y1="304" y2="304"/><line style="stroke: #000000; stroke-width: 1.5;" x1="285" x2="285" y1="304" y2="530"/><text fill="#000000" font-family="sans-serif" font-size="14" font-weight="bold" lengthAdjust="spacingAndGlyphs" textLength="136" x="86.5" y="319.9951">CLI Developer PC</text><!--cluster UserPC--><polygon fill="#FFFFFF" filter="url(#f19z2fdt8hbhs)" points="630,304,640,294,886,294,886,386,876,396,630,396,630,304" style="stroke: #000000; stroke-width: 1.5;"/><line style="stroke: #000000; stroke-width: 1.5;" x1="876" x2="885" y1="304" y2="295"/><line style="stroke: #000000; stroke-width: 1.5;" x1="630" x2="876" y1="304" y2="304"/><line style="stroke: #000000; stroke-width: 1.5;" x1="876" x2="876" y1="304" y2="396"/><text fill="#000000" font-family="sans-serif" font-size="14" font-weight="bold" lengthAdjust="spacingAndGlyphs" textLength="92" x="708" y="319.9951">CLI User PC</text><!--entity GITRepo--><path d="M54,74.5 C54,64.5 96,64.5 96,64.5 C96,64.5 138,64.5 138,74.5 L138,99.7969 C138,109.7969 96,109.7969 96,109.7969 C96,109.7969 54,109.7969 54,99.7969 L54,74.5 " fill="#FEFECE" filter="url(#f19z2fdt8hbhs)" style="stroke: #000000; stroke-width: 1.5;"/><path d="M54,74.5 C54,84.5 96,84.5 96,84.5 C96,84.5 138,84.5 138,74.5 " fill="none" style="stroke: #000000; stroke-width: 1.5;"/><text fill="#000000" font-family="sans-serif" font-size="14" lengthAdjust="spacingAndGlyphs" textLength="64" x="64" y="101.4951">GIT Repo</text><!--entity GITService--><polygon fill="#FEFECE" filter="url(#f19z2fdt8hbhs)" points="197.5,74,207.5,64,314.5,64,314.5,100.2969,304.5,110.2969,197.5,110.2969,197.5,74" style="stroke: #000000; stroke-width: 1.5;"/><line style="stroke: #000000; stroke-width: 1.5;" x1="304.5" x2="313.5" y1="74" y2="65"/><line style="stroke: #000000; stroke-width: 1.5;" x1="197.5" x2="304.5" y1="74" y2="74"/><line style="stroke: #000000; stroke-width: 1.5;" x1="304.5" x2="304.5" y1="74" y2="110.2969"/><text fill="#000000" font-family="sans-serif" font-size="14" lengthAdjust="spacingAndGlyphs" textLength="77" x="212.5" y="96.9951">GIT Service</text><!--entity NPMService--><polygon fill="#FEFECE" filter="url(#f19z2fdt8hbhs)" points="591.5,74,601.5,64,716.5,64,716.5,100.2969,706.5,110.2969,591.5,110.2969,591.5,74" style="stroke: #000000; stroke-width: 1.5;"/><line style="stroke: #000000; stroke-width: 1.5;" x1="706.5" x2="715.5" y1="74" y2="65"/><line style="stroke: #000000; stroke-width: 1.5;" x1="591.5" x2="706.5" y1="74" y2="74"/><line style="stroke: #000000; stroke-width: 1.5;" x1="706.5" x2="706.5" y1="74" y2="110.2969"/><text fill="#000000" font-family="sans-serif" font-size="14" lengthAdjust="spacingAndGlyphs" textLength="85" x="606.5" y="96.9951">NPM Service</text><!--entity NPMPackage--><path d="M776,74.5 C776,64.5 833,64.5 833,64.5 C833,64.5 890,64.5 890,74.5 L890,99.7969 C890,109.7969 833,109.7969 833,109.7969 C833,109.7969 776,109.7969 776,99.7969 L776,74.5 " fill="#FEFECE" filter="url(#f19z2fdt8hbhs)" style="stroke: #000000; stroke-width: 1.5;"/><path d="M776,74.5 C776,84.5 833,84.5 833,84.5 C833,84.5 890,84.5 890,74.5 " fill="none" style="stroke: #000000; stroke-width: 1.5;"/><text fill="#000000" font-family="sans-serif" font-size="14" lengthAdjust="spacingAndGlyphs" textLength="94" x="786" y="101.4951">NPM Package</text><!--entity CICDService--><polygon fill="#FEFECE" filter="url(#f19z2fdt8hbhs)" points="307.5,209,317.5,199,440.5,199,440.5,235.2969,430.5,245.2969,307.5,245.2969,307.5,209" style="stroke: #000000; stroke-width: 1.5;"/><line style="stroke: #000000; stroke-width: 1.5;" x1="430.5" x2="439.5" y1="209" y2="200"/><line style="stroke: #000000; stroke-width: 1.5;" x1="307.5" x2="430.5" y1="209" y2="209"/><line style="stroke: #000000; stroke-width: 1.5;" x1="430.5" x2="430.5" y1="209" y2="245.2969"/><text fill="#000000" font-family="sans-serif" font-size="14" lengthAdjust="spacingAndGlyphs" textLength="93" x="322.5" y="231.9951">CI/CD Service</text><!--entity CoverageService--><polygon fill="#FEFECE" filter="url(#f19z2fdt8hbhs)" points="460,483,470,473,620,473,620,509.2969,610,519.2969,460,519.2969,460,483" style="stroke: #000000; stroke-width: 1.5;"/><line style="stroke: #000000; stroke-width: 1.5;" x1="610" x2="619" y1="483" y2="474"/><line style="stroke: #000000; stroke-width: 1.5;" x1="460" x2="610" y1="483" y2="483"/><line style="stroke: #000000; stroke-width: 1.5;" x1="610" x2="610" y1="483" y2="519.2969"/><text fill="#000000" font-family="sans-serif" font-size="14" lengthAdjust="spacingAndGlyphs" textLength="120" x="475" y="505.9951">Coverage Service</text><!--entity GITClient--><polygon fill="#FEFECE" filter="url(#f19z2fdt8hbhs)" points="173,344,183,334,279,334,279,370.2969,269,380.2969,173,380.2969,173,344" style="stroke: #000000; stroke-width: 1.5;"/><line style="stroke: #000000; stroke-width: 1.5;" x1="269" x2="278" y1="344" y2="335"/><line style="stroke: #000000; stroke-width: 1.5;" x1="173" x2="269" y1="344" y2="344"/><line style="stroke: #000000; stroke-width: 1.5;" x1="269" x2="269" y1="344" y2="380.2969"/><text fill="#000000" font-family="sans-serif" font-size="14" lengthAdjust="spacingAndGlyphs" textLength="66" x="188" y="366.9951">GIT Client</text><!--entity Sources--><polygon fill="#FEFECE" filter="url(#f19z2fdt8hbhs)" points="38,339,38,375.2969,138,375.2969,138,349,128,339,38,339" style="stroke: #000000; stroke-width: 1.5;"/><path d="M128,339 L128,349 L138,349 " fill="#FEFECE" style="stroke: #000000; stroke-width: 1.5;"/><text fill="#000000" font-family="sans-serif" font-size="14" lengthAdjust="spacingAndGlyphs" textLength="80" x="48" y="361.9951">Source files</text><!--entity travis_yml--><polygon fill="#FEFECE" filter="url(#f19z2fdt8hbhs)" points="154.5,478,154.5,514.2969,241.5,514.2969,241.5,488,231.5,478,154.5,478" style="stroke: #000000; stroke-width: 1.5;"/><path d="M231.5,478 L231.5,488 L241.5,488 " fill="#FEFECE" style="stroke: #000000; stroke-width: 1.5;"/><text fill="#000000" font-family="sans-serif" font-size="14" lengthAdjust="spacingAndGlyphs" textLength="67" x="164.5" y="500.9951">.travis.yml</text><!--entity NPMClient--><polygon fill="#FEFECE" filter="url(#f19z2fdt8hbhs)" points="646,344,656,334,760,334,760,370.2969,750,380.2969,646,380.2969,646,344" style="stroke: #000000; stroke-width: 1.5;"/><line style="stroke: #000000; stroke-width: 1.5;" x1="750" x2="759" y1="344" y2="335"/><line style="stroke: #000000; stroke-width: 1.5;" x1="646" x2="750" y1="344" y2="344"/><line style="stroke: #000000; stroke-width: 1.5;" x1="750" x2="750" y1="344" y2="380.2969"/><text fill="#000000" font-family="sans-serif" font-size="14" lengthAdjust="spacingAndGlyphs" textLength="74" x="661" y="366.9951">NPM Client</text><!--entity Binaries--><polygon fill="#FEFECE" filter="url(#f19z2fdt8hbhs)" points="795.5,339,795.5,375.2969,870.5,375.2969,870.5,349,860.5,339,795.5,339" style="stroke: #000000; stroke-width: 1.5;"/><path d="M860.5,339 L860.5,349 L870.5,349 " fill="#FEFECE" style="stroke: #000000; stroke-width: 1.5;"/><text fill="#000000" font-family="sans-serif" font-size="14" lengthAdjust="spacingAndGlyphs" textLength="55" x="805.5" y="361.9951">Binaries</text><!--entity GITWebhooks--><ellipse cx="368" cy="87" fill="#FEFECE" filter="url(#f19z2fdt8hbhs)" rx="8" ry="8" style="stroke: #A80036; stroke-width: 2.0;"/><text fill="#000000" font-family="sans-serif" font-size="14" lengthAdjust="spacingAndGlyphs" textLength="101" x="317.5" y="116.9951">GIT Webhooks</text><!--entity GITInterface--><ellipse cx="256" cy="222" fill="#FEFECE" filter="url(#f19z2fdt8hbhs)" rx="8" ry="8" style="stroke: #A80036; stroke-width: 2.0;"/><text fill="#000000" font-family="sans-serif" font-size="14" lengthAdjust="spacingAndGlyphs" textLength="87" x="212.5" y="251.9951">GIT Interface</text><!--entity NPMInterface--><ellipse cx="654" cy="222" fill="#FEFECE" filter="url(#f19z2fdt8hbhs)" rx="8" ry="8" style="stroke: #A80036; stroke-width: 2.0;"/><text fill="#000000" font-family="sans-serif" font-size="14" lengthAdjust="spacingAndGlyphs" textLength="95" x="606.5" y="251.9951">NPM Interface</text><!--entity CICDInterface--><ellipse cx="374" cy="357" fill="#FEFECE" filter="url(#f19z2fdt8hbhs)" rx="8" ry="8" style="stroke: #A80036; stroke-width: 2.0;"/><text fill="#000000" font-family="sans-serif" font-size="14" lengthAdjust="spacingAndGlyphs" textLength="104" x="322" y="386.9951">Travis Interface</text><!--entity CoverageInterface--><ellipse cx="540" cy="357" fill="#FEFECE" filter="url(#f19z2fdt8hbhs)" rx="8" ry="8" style="stroke: #A80036; stroke-width: 2.0;"/><text fill="#000000" font-family="sans-serif" font-size="14" lengthAdjust="spacingAndGlyphs" textLength="126" x="477" y="386.9951">Coveralls Interface</text><!--link GITRepo to GITService--><path d="M143.227,87 C160.208,87 179.57,87 197.401,87 " fill="none" id="GITRepo-GITService" style="stroke: #A80036; stroke-width: 1.0;"/><polygon fill="#A80036" points="138.038,87,147.038,91,143.038,87,147.038,83,138.038,87" style="stroke: #A80036; stroke-width: 1.0;"/><text fill="#000000" font-family="sans-serif" font-size="13" lengthAdjust="spacingAndGlyphs" textLength="23" x="156.25" y="80.0669">use</text><!--link GITService to GITWebhooks--><path d="M314.625,87 C329.359,87 344.092,87 358.826,87 " fill="none" id="GITService-GITWebhooks" style="stroke: #A80036; stroke-width: 1.0;"/><!--link GITService to GITInterface--><path d="M256,110.261 C256,140.432 256,192.838 256,212.884 " fill="none" id="GITService-GITInterface" style="stroke: #A80036; stroke-width: 1.0;"/><!--link NPMService to NPMPackage--><path d="M716.606,87 C734.056,87 753.011,87 770.458,87 " fill="none" id="NPMService-NPMPackage" style="stroke: #A80036; stroke-width: 1.0;"/><polygon fill="#A80036" points="775.821,87,766.821,83,770.821,87,766.821,91,775.821,87" style="stroke: #A80036; stroke-width: 1.0;"/><text fill="#000000" font-family="sans-serif" font-size="13" lengthAdjust="spacingAndGlyphs" textLength="23" x="734.75" y="80.0669">use</text><!--link NPMService to NPMInterface--><path d="M654,110.261 C654,140.432 654,192.838 654,212.884 " fill="none" id="NPMService-NPMInterface" style="stroke: #A80036; stroke-width: 1.0;"/><!--link CICDService to CICDInterface--><path d="M374,245.261 C374,275.432 374,327.838 374,347.884 " fill="none" id="CICDService-CICDInterface" style="stroke: #A80036; stroke-width: 1.0;"/><!--link GITWebhooks to CICDService--><path d="M368.84,106.615 C369.933,130.852 371.842,173.158 373.006,198.968 " fill="none" id="GITWebhooks-CICDService" style="stroke: #A80036; stroke-width: 1.0;"/><path d="M360.0648,99.7756 A9,9 0 0 0 376.9622 99.0145" fill="none" style="stroke: #A80036; stroke-width: 1.5;"/><!--link GITInterface to CICDService--><path d="M275.407,222 C286.034,222 296.66,222 307.286,222 " fill="none" id="GITInterface-CICDService" style="stroke: #A80036; stroke-width: 1.0;"/><path d="M268.2972,230.4572 A9,9 0 0 0 268.2972 213.5428" fill="none" style="stroke: #A80036; stroke-width: 1.5;"/><!--link CICDService to NPMInterface--><path d="M440.719,222 C505.303,222 569.886,222 634.47,222 " fill="none" id="CICDService-NPMInterface" style="stroke: #A80036; stroke-width: 1.0;"/><path d="M641.7578,213.5428 A9,9 0 0 0 641.7578 230.4572" fill="none" style="stroke: #A80036; stroke-width: 1.5;"/><!--link CoverageInterface to CoverageService--><path d="M540,366.16 C540,386.84 540,441.863 540,472.9006 " fill="none" id="CoverageInterface-CoverageService" style="stroke: #A80036; stroke-width: 1.0;"/><!--link CICDService to CoverageInterface--><path d="M401.785,245.261 C436.413,273.006 494.51,319.553 523.085,342.448 " fill="none" id="CICDService-CoverageInterface" style="stroke: #A80036; stroke-width: 1.0;"/><path d="M533.8336,340.2225 A9,9 0 0 0 523.2563 353.4217" fill="none" style="stroke: #A80036; stroke-width: 1.5;"/><!--link GITRepo to Sources--><path d="M94.9522,123.101 C93.2164,181.25 89.8075,295.449 88.5141,338.776 " fill="none" id="GITRepo-Sources" style="stroke: #A80036; stroke-width: 1.0;"/><polygon fill="#FFFFFF" points="95.3453,109.932,91.1677,115.8098,94.9866,121.9266,99.1642,116.0489,95.3453,109.932" style="stroke: #A80036; stroke-width: 1.0;"/><text fill="#000000" font-family="sans-serif" font-size="13" lengthAdjust="spacingAndGlyphs" textLength="23" x="69.2307" y="129.7761">0..*</text><!--link Sources to travis_yml--><path d="M110.138,385.572 C132.233,413.09 165.501,454.5234 184.118,477.7107 " fill="none" id="Sources-travis_yml" style="stroke: #A80036; stroke-width: 1.0;"/><polygon fill="#A80036" points="101.7092,375.074,102.347,382.2568,109.2226,384.4308,108.5848,377.2479,101.7092,375.074" style="stroke: #A80036; stroke-width: 1.0;"/><!--link GITInterface to GITClient--><path d="M251.875,241.286 C246.421,265.467 236.818,308.041 230.97,333.968 " fill="none" id="GITInterface-GITClient" style="stroke: #A80036; stroke-width: 1.0;"/><path d="M245.1958,232.462 A9,9 0 0 0 261.6958 236.1835" fill="none" style="stroke: #A80036; stroke-width: 1.5;"/><!--link CICDInterface to travis_yml--><path d="M356.46,371.653 C324.191,396.771 255.484,450.254 220.09,477.8049 " fill="none" id="CICDInterface-travis_yml" style="stroke: #A80036; stroke-width: 1.0;"/><path d="M356.9131,360.5831 A9,9 0 0 0 367.3029 373.9304" fill="none" style="stroke: #A80036; stroke-width: 1.5;"/><!--link NPMInterface to NPMClient--><path d="M660.616,240.959 C669.504,265.082 685.288,307.923 694.883,333.968 " fill="none" id="NPMInterface-NPMClient" style="stroke: #A80036; stroke-width: 1.0;"/><path d="M650.1935,237.1323 A9,9 0 0 0 666.0649 231.2844" fill="none" style="stroke: #A80036; stroke-width: 1.5;"/><!--link NPMPackage to Binaries--><path d="M833,123.101 C833,181.25 833,295.449 833,338.776 " fill="none" id="NPMPackage-Binaries" style="stroke: #A80036; stroke-width: 1.0;"/><polygon fill="#FFFFFF" points="833,109.932,829,115.932,833,121.932,837,115.932,833,109.932" style="stroke: #A80036; stroke-width: 1.0;"/><text fill="#000000" font-family="sans-serif" font-size="13" lengthAdjust="spacingAndGlyphs" textLength="23" x="807.0531" y="129.7761">0..*</text><!--
@startuml processes
    
    node "github.com" as GITServer {
        database "GIT Repo" as GITRepo
        node "GIT Service" as GITService
        GITRepo <- GITService: use
    }
    interface "GIT Webhooks" as GITWebhooks
    interface "GIT Interface" as GITInterface
    GITService - GITWebhooks
    GITService - - GITInterface
    
    node "npmjs.com" as NPMServer {
        node "NPM Service" as NPMService
        database "NPM Package" as NPMPackage
        NPMService -> NPMPackage: use
    }
    interface "NPM Interface" as NPMInterface
    NPMService - - NPMInterface

    node "travis-ci.com" as CICDServer {
        node "CI/CD Service" as CICDService
    }
    interface "Travis Interface" as CICDInterface
    CICDService - - CICDInterface
    GITWebhooks )- - CICDService
    GITInterface )- CICDService
    CICDService -( NPMInterface
    
    node "coveralls.io" as CoverageServer {
        node "Coverage Service" as CoverageService
    }
    interface "Coveralls Interface" as CoverageInterface
    CoverageInterface - -CoverageService
    CICDService - -( CoverageInterface
    
    node "CLI Developer PC" as DeveloperPC {
        node "GIT Client" as GITClient
        file "Source files" as Sources
        file ".travis.yml" as travis_yml
        GITRepo "0..*" o- - Sources
        Sources *- - travis_yml
        GITInterface )- - GITClient
        CICDInterface )- - travis_yml
    }

    node "CLI User PC" as UserPC {
        node "NPM Client" as NPMClient
        file "Binaries" as Binaries
        NPMInterface )- - NPMClient
        NPMPackage "0..*" o- - Binaries
    }
@enduml

PlantUML version 1.2019.03(Sun Mar 10 13:04:44 EET 2019)
(GPL source distribution)
Java Runtime: Java(TM) SE Runtime Environment
JVM: Java HotSpot(TM) 64-Bit Server VM
Java Version: 1.8.0_201-b09
Operating System: Linux
OS Version: 4.15.0-47-generic
Default Encoding: UTF-8
Language: en
Country: US
--></g></svg>