<?xml version="1.0" encoding="UTF-8" standalone="no"?><svg xmlns="http://www.w3.org/2000/svg" xmlns:xlink="http://www.w3.org/1999/xlink" contentScriptType="application/ecmascript" contentStyleType="text/css" height="809px" preserveAspectRatio="none" style="width:951px;height:809px;" version="1.1" viewBox="0 0 951 809" width="951px" zoomAndPan="magnify"><defs><filter height="300%" id="fck043r6gol1c" width="300%" x="-1" y="-1"><feGaussianBlur result="blurOut" stdDeviation="2.0"/><feColorMatrix in="blurOut" result="blurOut2" type="matrix" values="0 0 0 0 0 0 0 0 0 0 0 0 0 0 0 0 0 0 .4 0"/><feOffset dx="4.0" dy="4.0" in="blurOut2" result="blurOut3"/><feBlend in="SourceGraphic" in2="blurOut3" mode="normal"/></filter></defs><g><!--cluster GITServer--><polygon fill="#FFFFFF" filter="url(#fck043r6gol1c)" points="167,34,177,24,460,24,460,116,450,126,167,126,167,34" style="stroke: #000000; stroke-width: 1.5;"/><line style="stroke: #000000; stroke-width: 1.5;" x1="450" x2="459" y1="34" y2="25"/><line style="stroke: #000000; stroke-width: 1.5;" x1="167" x2="450" y1="34" y2="34"/><line style="stroke: #000000; stroke-width: 1.5;" x1="450" x2="450" y1="34" y2="126"/><text fill="#000000" font-family="sans-serif" font-size="14" font-weight="bold" lengthAdjust="spacingAndGlyphs" textLength="84" x="267.5" y="49.9951">GIT Server</text><!--cluster NPMServer--><polygon fill="#FFFFFF" filter="url(#fck043r6gol1c)" points="550,288,560,278,881,278,881,370,871,380,550,380,550,288" style="stroke: #000000; stroke-width: 1.5;"/><line style="stroke: #000000; stroke-width: 1.5;" x1="871" x2="880" y1="288" y2="279"/><line style="stroke: #000000; stroke-width: 1.5;" x1="550" x2="871" y1="288" y2="288"/><line style="stroke: #000000; stroke-width: 1.5;" x1="871" x2="871" y1="288" y2="380"/><text fill="#000000" font-family="sans-serif" font-size="14" font-weight="bold" lengthAdjust="spacingAndGlyphs" textLength="92" x="665.5" y="303.9951">NPM Server</text><!--cluster CICDServer--><polygon fill="#FFFFFF" filter="url(#fck043r6gol1c)" points="350,288,360,278,526,278,526,370,516,380,350,380,350,288" style="stroke: #000000; stroke-width: 1.5;"/><line style="stroke: #000000; stroke-width: 1.5;" x1="516" x2="525" y1="288" y2="279"/><line style="stroke: #000000; stroke-width: 1.5;" x1="350" x2="516" y1="288" y2="288"/><line style="stroke: #000000; stroke-width: 1.5;" x1="516" x2="516" y1="288" y2="380"/><text fill="#000000" font-family="sans-serif" font-size="14" font-weight="bold" lengthAdjust="spacingAndGlyphs" textLength="100" x="384" y="303.9951">CI/CD Server</text><!--cluster ContainerServer--><polygon fill="#FFFFFF" filter="url(#fck043r6gol1c)" points="718,34,728,24,929,24,929,116,919,126,718,126,718,34" style="stroke: #000000; stroke-width: 1.5;"/><line style="stroke: #000000; stroke-width: 1.5;" x1="919" x2="928" y1="34" y2="25"/><line style="stroke: #000000; stroke-width: 1.5;" x1="718" x2="919" y1="34" y2="34"/><line style="stroke: #000000; stroke-width: 1.5;" x1="919" x2="919" y1="34" y2="126"/><text fill="#000000" font-family="sans-serif" font-size="14" font-weight="bold" lengthAdjust="spacingAndGlyphs" textLength="135" x="752" y="49.9951">Container Server</text><!--cluster CoverageServer--><polygon fill="#FFFFFF" filter="url(#fck043r6gol1c)" points="484,34,494,24,694,24,694,116,684,126,484,126,484,34" style="stroke: #000000; stroke-width: 1.5;"/><line style="stroke: #000000; stroke-width: 1.5;" x1="684" x2="693" y1="34" y2="25"/><line style="stroke: #000000; stroke-width: 1.5;" x1="484" x2="684" y1="34" y2="34"/><line style="stroke: #000000; stroke-width: 1.5;" x1="684" x2="684" y1="34" y2="126"/><text fill="#000000" font-family="sans-serif" font-size="14" font-weight="bold" lengthAdjust="spacingAndGlyphs" textLength="134" x="518" y="49.9951">Coverage Server</text><!--cluster ProducerPC--><polygon fill="#FFFFFF" filter="url(#fck043r6gol1c)" points="22,423,32,413,392,413,392,650,382,660,22,660,22,423" style="stroke: #000000; stroke-width: 1.5;"/><line style="stroke: #000000; stroke-width: 1.5;" x1="382" x2="391" y1="423" y2="414"/><line style="stroke: #000000; stroke-width: 1.5;" x1="22" x2="382" y1="423" y2="423"/><line style="stroke: #000000; stroke-width: 1.5;" x1="382" x2="382" y1="423" y2="660"/><text fill="#000000" font-family="sans-serif" font-size="14" font-weight="bold" lengthAdjust="spacingAndGlyphs" textLength="112" x="147" y="438.9951">Producers' PC</text><!--cluster ConsumerPC--><polygon fill="#FFFFFF" filter="url(#fck043r6gol1c)" points="582,562,592,552,838,552,838,787,828,797,582,797,582,562" style="stroke: #000000; stroke-width: 1.5;"/><line style="stroke: #000000; stroke-width: 1.5;" x1="828" x2="837" y1="562" y2="553"/><line style="stroke: #000000; stroke-width: 1.5;" x1="582" x2="828" y1="562" y2="562"/><line style="stroke: #000000; stroke-width: 1.5;" x1="828" x2="828" y1="562" y2="797"/><text fill="#000000" font-family="sans-serif" font-size="14" font-weight="bold" lengthAdjust="spacingAndGlyphs" textLength="120" x="646" y="577.9951">Consumers' PC</text><!--entity GITRepo--><path d="M183,74.5 C183,64.5 225,64.5 225,64.5 C225,64.5 267,64.5 267,74.5 L267,99.7969 C267,109.7969 225,109.7969 225,109.7969 C225,109.7969 183,109.7969 183,99.7969 L183,74.5 " fill="#FEFECE" filter="url(#fck043r6gol1c)" style="stroke: #000000; stroke-width: 1.5;"/><path d="M183,74.5 C183,84.5 225,84.5 225,84.5 C225,84.5 267,84.5 267,74.5 " fill="none" style="stroke: #000000; stroke-width: 1.5;"/><text fill="#000000" font-family="sans-serif" font-size="14" lengthAdjust="spacingAndGlyphs" textLength="64" x="193" y="101.4951">GIT Repo</text><!--entity GITService--><polygon fill="#FEFECE" filter="url(#fck043r6gol1c)" points="326.5,74,336.5,64,443.5,64,443.5,100.2969,433.5,110.2969,326.5,110.2969,326.5,74" style="stroke: #000000; stroke-width: 1.5;"/><line style="stroke: #000000; stroke-width: 1.5;" x1="433.5" x2="442.5" y1="74" y2="65"/><line style="stroke: #000000; stroke-width: 1.5;" x1="326.5" x2="433.5" y1="74" y2="74"/><line style="stroke: #000000; stroke-width: 1.5;" x1="433.5" x2="433.5" y1="74" y2="110.2969"/><text fill="#000000" font-family="sans-serif" font-size="14" lengthAdjust="spacingAndGlyphs" textLength="77" x="341.5" y="96.9951">GIT Service</text><!--entity NPMService--><polygon fill="#FEFECE" filter="url(#fck043r6gol1c)" points="566.5,328,576.5,318,691.5,318,691.5,354.2969,681.5,364.2969,566.5,364.2969,566.5,328" style="stroke: #000000; stroke-width: 1.5;"/><line style="stroke: #000000; stroke-width: 1.5;" x1="681.5" x2="690.5" y1="328" y2="319"/><line style="stroke: #000000; stroke-width: 1.5;" x1="566.5" x2="681.5" y1="328" y2="328"/><line style="stroke: #000000; stroke-width: 1.5;" x1="681.5" x2="681.5" y1="328" y2="364.2969"/><text fill="#000000" font-family="sans-serif" font-size="14" lengthAdjust="spacingAndGlyphs" textLength="85" x="581.5" y="350.9951">NPM Service</text><!--entity NPMPackage--><path d="M751,328.5 C751,318.5 808,318.5 808,318.5 C808,318.5 865,318.5 865,328.5 L865,353.7969 C865,363.7969 808,363.7969 808,363.7969 C808,363.7969 751,363.7969 751,353.7969 L751,328.5 " fill="#FEFECE" filter="url(#fck043r6gol1c)" style="stroke: #000000; stroke-width: 1.5;"/><path d="M751,328.5 C751,338.5 808,338.5 808,338.5 C808,338.5 865,338.5 865,328.5 " fill="none" style="stroke: #000000; stroke-width: 1.5;"/><text fill="#000000" font-family="sans-serif" font-size="14" lengthAdjust="spacingAndGlyphs" textLength="94" x="761" y="355.4951">NPM Package</text><!--entity CICDService--><polygon fill="#FEFECE" filter="url(#fck043r6gol1c)" points="376.5,328,386.5,318,509.5,318,509.5,354.2969,499.5,364.2969,376.5,364.2969,376.5,328" style="stroke: #000000; stroke-width: 1.5;"/><line style="stroke: #000000; stroke-width: 1.5;" x1="499.5" x2="508.5" y1="328" y2="319"/><line style="stroke: #000000; stroke-width: 1.5;" x1="376.5" x2="499.5" y1="328" y2="328"/><line style="stroke: #000000; stroke-width: 1.5;" x1="499.5" x2="499.5" y1="328" y2="364.2969"/><text fill="#000000" font-family="sans-serif" font-size="14" lengthAdjust="spacingAndGlyphs" textLength="93" x="391.5" y="350.9951">CI/CD Service</text><!--entity ContainerService--><polygon fill="#FEFECE" filter="url(#fck043r6gol1c)" points="734.5,74,744.5,64,887.5,64,887.5,100.2969,877.5,110.2969,734.5,110.2969,734.5,74" style="stroke: #000000; stroke-width: 1.5;"/><line style="stroke: #000000; stroke-width: 1.5;" x1="877.5" x2="886.5" y1="74" y2="65"/><line style="stroke: #000000; stroke-width: 1.5;" x1="734.5" x2="877.5" y1="74" y2="74"/><line style="stroke: #000000; stroke-width: 1.5;" x1="877.5" x2="877.5" y1="74" y2="110.2969"/><text fill="#000000" font-family="sans-serif" font-size="14" lengthAdjust="spacingAndGlyphs" textLength="113" x="749.5" y="96.9951">Continer Service</text><!--entity CoverageService--><polygon fill="#FEFECE" filter="url(#fck043r6gol1c)" points="515,74,525,64,675,64,675,100.2969,665,110.2969,515,110.2969,515,74" style="stroke: #000000; stroke-width: 1.5;"/><line style="stroke: #000000; stroke-width: 1.5;" x1="665" x2="674" y1="74" y2="65"/><line style="stroke: #000000; stroke-width: 1.5;" x1="515" x2="665" y1="74" y2="74"/><line style="stroke: #000000; stroke-width: 1.5;" x1="665" x2="665" y1="74" y2="110.2969"/><text fill="#000000" font-family="sans-serif" font-size="14" lengthAdjust="spacingAndGlyphs" textLength="120" x="530" y="96.9951">Coverage Service</text><!--entity GITClient--><polygon fill="#FEFECE" filter="url(#fck043r6gol1c)" points="38,463,48,453,144,453,144,489.2969,134,499.2969,38,499.2969,38,463" style="stroke: #000000; stroke-width: 1.5;"/><line style="stroke: #000000; stroke-width: 1.5;" x1="134" x2="143" y1="463" y2="454"/><line style="stroke: #000000; stroke-width: 1.5;" x1="38" x2="134" y1="463" y2="463"/><line style="stroke: #000000; stroke-width: 1.5;" x1="134" x2="134" y1="463" y2="499.2969"/><text fill="#000000" font-family="sans-serif" font-size="14" lengthAdjust="spacingAndGlyphs" textLength="66" x="53" y="485.9951">GIT Client</text><!--entity GIT_CLI--><ellipse cx="69" cy="615" fill="#FEFECE" filter="url(#fck043r6gol1c)" rx="8" ry="8" style="stroke: #A80036; stroke-width: 2.0;"/><text fill="#000000" font-family="sans-serif" font-size="14" lengthAdjust="spacingAndGlyphs" textLength="47" x="45.5" y="644.9951">GIT CLI</text><!--entity Sources--><polygon fill="#FEFECE" filter="url(#fck043r6gol1c)" points="179,458,179,494.2969,279,494.2969,279,468,269,458,179,458" style="stroke: #000000; stroke-width: 1.5;"/><path d="M269,458 L269,468 L279,468 " fill="#FEFECE" style="stroke: #000000; stroke-width: 1.5;"/><text fill="#000000" font-family="sans-serif" font-size="14" lengthAdjust="spacingAndGlyphs" textLength="80" x="189" y="480.9951">Source files</text><!--entity CICDConf--><polygon fill="#FEFECE" filter="url(#fck043r6gol1c)" points="134.5,597,134.5,633.2969,241.5,633.2969,241.5,607,231.5,597,134.5,597" style="stroke: #000000; stroke-width: 1.5;"/><path d="M231.5,597 L231.5,607 L241.5,607 " fill="#FEFECE" style="stroke: #000000; stroke-width: 1.5;"/><text fill="#000000" font-family="sans-serif" font-size="14" lengthAdjust="spacingAndGlyphs" textLength="87" x="144.5" y="619.9951">CI/CD Config</text><!--entity NPMConfig--><polygon fill="#FEFECE" filter="url(#fck043r6gol1c)" points="276.5,597,276.5,633.2969,375.5,633.2969,375.5,607,365.5,597,276.5,597" style="stroke: #000000; stroke-width: 1.5;"/><path d="M365.5,597 L365.5,607 L375.5,607 " fill="#FEFECE" style="stroke: #000000; stroke-width: 1.5;"/><text fill="#000000" font-family="sans-serif" font-size="14" lengthAdjust="spacingAndGlyphs" textLength="79" x="286.5" y="619.9951">NPM Config</text><!--entity NPMClientC--><polygon fill="#FEFECE" filter="url(#fck043r6gol1c)" points="598,602,608,592,712,592,712,628.2969,702,638.2969,598,638.2969,598,602" style="stroke: #000000; stroke-width: 1.5;"/><line style="stroke: #000000; stroke-width: 1.5;" x1="702" x2="711" y1="602" y2="593"/><line style="stroke: #000000; stroke-width: 1.5;" x1="598" x2="702" y1="602" y2="602"/><line style="stroke: #000000; stroke-width: 1.5;" x1="702" x2="702" y1="602" y2="638.2969"/><text fill="#000000" font-family="sans-serif" font-size="14" lengthAdjust="spacingAndGlyphs" textLength="74" x="613" y="624.9951">NPM Client</text><!--entity NPM_CLI_C--><ellipse cx="655" cy="752" fill="#FEFECE" filter="url(#fck043r6gol1c)" rx="8" ry="8" style="stroke: #A80036; stroke-width: 2.0;"/><text fill="#000000" font-family="sans-serif" font-size="14" lengthAdjust="spacingAndGlyphs" textLength="55" x="627.5" y="781.9951">NPM CLI</text><!--entity NodeJS--><polygon fill="#FEFECE" filter="url(#fck043r6gol1c)" points="727,739,737,729,819,729,819,765.2969,809,775.2969,727,775.2969,727,739" style="stroke: #000000; stroke-width: 1.5;"/><line style="stroke: #000000; stroke-width: 1.5;" x1="809" x2="818" y1="739" y2="730"/><line style="stroke: #000000; stroke-width: 1.5;" x1="727" x2="809" y1="739" y2="739"/><line style="stroke: #000000; stroke-width: 1.5;" x1="809" x2="809" y1="739" y2="775.2969"/><text fill="#000000" font-family="sans-serif" font-size="14" lengthAdjust="spacingAndGlyphs" textLength="52" x="742" y="761.9951">Node.js</text><!--entity Binaries--><polygon fill="#FEFECE" filter="url(#fck043r6gol1c)" points="747.5,597,747.5,633.2969,822.5,633.2969,822.5,607,812.5,597,747.5,597" style="stroke: #000000; stroke-width: 1.5;"/><path d="M812.5,597 L812.5,607 L822.5,607 " fill="#FEFECE" style="stroke: #000000; stroke-width: 1.5;"/><text fill="#000000" font-family="sans-serif" font-size="14" lengthAdjust="spacingAndGlyphs" textLength="55" x="757.5" y="619.9951">Binaries</text><!--entity GITServiceAPI--><ellipse cx="428" cy="202" fill="#FEFECE" filter="url(#fck043r6gol1c)" rx="8" ry="8" style="stroke: #A80036; stroke-width: 2.0;"/><text fill="#000000" font-family="sans-serif" font-size="14" lengthAdjust="spacingAndGlyphs" textLength="102" x="377" y="231.9951">GIT Service API</text><!--entity GITInterface--><ellipse cx="316" cy="341" fill="#FEFECE" filter="url(#fck043r6gol1c)" rx="8" ry="8" style="stroke: #A80036; stroke-width: 2.0;"/><text fill="#000000" font-family="sans-serif" font-size="14" lengthAdjust="spacingAndGlyphs" textLength="87" x="272.5" y="370.9951">GIT Interface</text><!--entity NPMInterface--><ellipse cx="619" cy="476" fill="#FEFECE" filter="url(#fck043r6gol1c)" rx="8" ry="8" style="stroke: #A80036; stroke-width: 2.0;"/><text fill="#000000" font-family="sans-serif" font-size="14" lengthAdjust="spacingAndGlyphs" textLength="95" x="571.5" y="505.9951">NPM Interface</text><!--entity CICDInterface--><ellipse cx="467" cy="476" fill="#FEFECE" filter="url(#fck043r6gol1c)" rx="8" ry="8" style="stroke: #A80036; stroke-width: 2.0;"/><text fill="#000000" font-family="sans-serif" font-size="14" lengthAdjust="spacingAndGlyphs" textLength="103" x="415.5" y="505.9951">CI/CD Interface</text><!--entity ContainerInterface--><ellipse cx="785" cy="202" fill="#FEFECE" filter="url(#fck043r6gol1c)" rx="8" ry="8" style="stroke: #A80036; stroke-width: 2.0;"/><text fill="#000000" font-family="sans-serif" font-size="14" lengthAdjust="spacingAndGlyphs" textLength="131" x="719.5" y="231.9951">Container Interface</text><!--entity CoverageInterface--><ellipse cx="595" cy="202" fill="#FEFECE" filter="url(#fck043r6gol1c)" rx="8" ry="8" style="stroke: #A80036; stroke-width: 2.0;"/><text fill="#000000" font-family="sans-serif" font-size="14" lengthAdjust="spacingAndGlyphs" textLength="130" x="530" y="231.9951">Coverage Interface</text><!--link GITRepo to GITService--><path d="M272.227,87 C289.208,87 308.57,87 326.401,87 " fill="none" id="GITRepo-GITService" style="stroke: #A80036; stroke-width: 1.0;"/><polygon fill="#A80036" points="267.038,87,276.038,91,272.038,87,276.038,83,267.038,87" style="stroke: #A80036; stroke-width: 1.0;"/><text fill="#000000" font-family="sans-serif" font-size="13" lengthAdjust="spacingAndGlyphs" textLength="23" x="285.25" y="80.0669">use</text><!--link GITService to GITServiceAPI--><path d="M393.393,110.056 C403.023,135.362 418.325,175.576 424.867,192.767 " fill="none" id="GITService-GITServiceAPI" style="stroke: #A80036; stroke-width: 1.0;"/><!--link GITService to GITInterface--><path d="M374.819,110.347 C367.415,127.271 357.576,151.244 351,173 C332.914,232.831 320.865,307.483 317.188,331.88 " fill="none" id="GITService-GITInterface" style="stroke: #A80036; stroke-width: 1.0;"/><!--link NPMService to NPMPackage--><path d="M691.606,341 C709.056,341 728.011,341 745.458,341 " fill="none" id="NPMService-NPMPackage" style="stroke: #A80036; stroke-width: 1.0;"/><polygon fill="#A80036" points="750.821,341,741.821,337,745.821,341,741.821,345,750.821,341" style="stroke: #A80036; stroke-width: 1.0;"/><text fill="#000000" font-family="sans-serif" font-size="13" lengthAdjust="spacingAndGlyphs" textLength="23" x="709.75" y="334.0669">use</text><!--link NPMService to NPMInterface--><path d="M627.326,364.261 C625.058,394.432 621.117,446.838 619.61,466.884 " fill="none" id="NPMService-NPMInterface" style="stroke: #A80036; stroke-width: 1.0;"/><!--link CICDService to CICDInterface--><path d="M447.017,364.261 C452.461,394.432 461.918,446.838 465.535,466.884 " fill="none" id="CICDService-CICDInterface" style="stroke: #A80036; stroke-width: 1.0;"/><!--link GITServiceAPI to CICDService--><path d="M430.017,221.418 C432.756,246.437 437.647,291.106 440.58,317.901 " fill="none" id="GITServiceAPI-CICDService" style="stroke: #A80036; stroke-width: 1.0;"/><path d="M420.8211,215.1406 A9,9 0 0 0 437.6351 213.2992" fill="none" style="stroke: #A80036; stroke-width: 1.5;"/><!--link GITInterface to CICDService--><path d="M335.781,341 C349.322,341 362.864,341 376.405,341 " fill="none" id="GITInterface-CICDService" style="stroke: #A80036; stroke-width: 1.0;"/><path d="M328.5042,349.4572 A9,9 0 0 0 328.5042 332.5428" fill="none" style="stroke: #A80036; stroke-width: 1.5;"/><!--link CICDService to NPMInterface--><path d="M481.605,364.066 C500.638,375.503 523.61,390.159 543,405 C565.356,422.11 588.864,444.549 603.709,459.353 " fill="none" id="CICDService-NPMInterface" style="stroke: #A80036; stroke-width: 1.0;"/><path d="M614.8421,458.5684 A9,9 0 0 0 602.8312 470.4779" fill="none" style="stroke: #A80036; stroke-width: 1.5;"/><!--link ContainerService to ContainerInterface--><path d="M805.925,110.056 C800.103,135.362 790.85,175.576 786.894,192.767 " fill="none" id="ContainerService-ContainerInterface" style="stroke: #A80036; stroke-width: 1.0;"/><!--link ContainerInterface to CICDService--><path d="M765.978,208.383 C710.487,224.09 552.544,268.838 550,270 C521.732,282.914 492.382,302.638 471.587,317.862 " fill="none" id="ContainerInterface-CICDService" style="stroke: #A80036; stroke-width: 1.0;"/><path d="M770.6385,198.2751 A9,9 0 0 0 775.246 214.5499" fill="none" style="stroke: #A80036; stroke-width: 1.5;"/><!--link CoverageService to CoverageInterface--><path d="M595,110.056 C595,135.362 595,175.576 595,192.767 " fill="none" id="CoverageService-CoverageInterface" style="stroke: #A80036; stroke-width: 1.0;"/><!--link CoverageInterface to CICDService--><path d="M578.195,218.147 C551.333,242.358 498.592,289.894 467.519,317.901 " fill="none" id="CoverageInterface-CICDService" style="stroke: #A80036; stroke-width: 1.0;"/><path d="M577.9987,206.938 A9,9 0 0 0 589.3219 219.5033" fill="none" style="stroke: #A80036; stroke-width: 1.5;"/><!--link GITClient to GIT_CLI--><path d="M87.4653,499.011 C82.4853,530.023 73.6402,585.104 70.3136,605.82 " fill="none" id="GITClient-GIT_CLI" style="stroke: #A80036; stroke-width: 1.0;"/><!--link GITRepo to Sources--><path d="M225.36,122.787 C226.189,203.031 228.212,398.735 228.822,457.827 " fill="none" id="GITRepo-Sources" style="stroke: #A80036; stroke-width: 1.0;"/><polygon fill="#FFFFFF" points="225.224,109.636,221.2862,115.677,225.3479,121.6354,229.2858,115.5944,225.224,109.636" style="stroke: #A80036; stroke-width: 1.0;"/><text fill="#000000" font-family="sans-serif" font-size="13" lengthAdjust="spacingAndGlyphs" textLength="23" x="199.1936" y="129.7799">0..*</text><!--link Sources to CICDConf--><path d="M220.081,506.802 C211.856,534.287 199.928,574.142 193.174,596.711 " fill="none" id="Sources-CICDConf" style="stroke: #A80036; stroke-width: 1.0;"/><polygon fill="#A80036" points="223.89,494.074,218.3377,498.6753,220.4496,505.5702,226.0019,500.9689,223.89,494.074" style="stroke: #A80036; stroke-width: 1.0;"/><!--link Sources to NPMConfig--><path d="M248.782,504.94 C268.266,532.458 297.414,573.626 313.759,596.711 " fill="none" id="Sources-NPMConfig" style="stroke: #A80036; stroke-width: 1.0;"/><polygon fill="#A80036" points="241.089,494.074,241.2912,501.2823,248.0228,503.868,247.8206,496.6598,241.089,494.074" style="stroke: #A80036; stroke-width: 1.0;"/><!--link GITInterface to GITClient--><path d="M296.862,347.085 C266.363,355.758 205.625,375.396 161,405 C141.093,418.206 122.166,437.708 109.025,452.776 " fill="none" id="GITInterface-GITClient" style="stroke: #A80036; stroke-width: 1.0;"/><path d="M301.4294,337.0523 A9,9 0 0 0 305.9257 353.3582" fill="none" style="stroke: #A80036; stroke-width: 1.5;"/><!--link CICDInterface to CICDConf--><path d="M448.163,484.463 C433.075,490.335 411.314,498.572 392,505 C333.552,524.452 312.094,512.765 259,544 C235.576,557.78 214.179,580.986 201.133,596.874 " fill="none" id="CICDInterface-CICDConf" style="stroke: #A80036; stroke-width: 1.0;"/><path d="M451.8832,473.9165 A9,9 0 0 0 458.0642 489.6612" fill="none" style="stroke: #A80036; stroke-width: 1.5;"/><!--link NPMInterface to NPMConfig--><path d="M600.562,485.621 C553.055,507.834 425.783,567.344 362.61,596.882 " fill="none" id="NPMInterface-NPMConfig" style="stroke: #A80036; stroke-width: 1.0;"/><path d="M603.5393,474.8928 A9,9 0 0 0 610.7039 490.2149" fill="none" style="stroke: #A80036; stroke-width: 1.5;"/><!--link NPMInterface to NPMClientC--><path d="M623.751,495.08 C630.308,520.032 642.12,564.985 649.193,591.901 " fill="none" id="NPMInterface-NPMClientC" style="stroke: #A80036; stroke-width: 1.0;"/><path d="M613.7468,490.2865 A9,9 0 0 0 630.1059 485.9877" fill="none" style="stroke: #A80036; stroke-width: 1.5;"/><!--link NPMClientC to NPM_CLI_C--><path d="M655,638.293 C655,668.848 655,722.2759 655,742.7204 " fill="none" id="NPMClientC-NPM_CLI_C" style="stroke: #A80036; stroke-width: 1.0;"/><!--link NPMClientC to NodeJS--><path d="M674.485,638.293 C693.616,660.179 723.004,693.802 744.707,718.6313 " fill="none" id="NPMClientC-NodeJS" style="stroke: #A80036; stroke-width: 1.0;"/><polygon fill="#A80036" points="753.486,728.6744,752.5492,721.5244,745.5889,719.6391,746.5257,726.7891,753.486,728.6744" style="stroke: #A80036; stroke-width: 1.0;"/><!--link NPMPackage to Binaries--><path d="M805.06,376.764 C800.083,435.625 790.175,552.8 786.456,596.784 " fill="none" id="NPMPackage-Binaries" style="stroke: #A80036; stroke-width: 1.0;"/><polygon fill="#FFFFFF" points="806.157,363.799,801.6655,369.4405,805.1456,375.7563,809.6371,370.1148,806.157,363.799" style="stroke: #A80036; stroke-width: 1.0;"/><text fill="#000000" font-family="sans-serif" font-size="13" lengthAdjust="spacingAndGlyphs" textLength="23" x="779.5711" y="383.9867">0..*</text><!--link Binaries to NodeJS--><path d="M783.028,638.188 C780.805,663.189 777.213,703.6 774.986,728.6625 " fill="none" id="Binaries-NodeJS" style="stroke: #A80036; stroke-width: 1.0;"/><polygon fill="#A80036" points="783.48,633.098,778.6987,641.7084,783.0372,638.0784,786.6673,642.4169,783.48,633.098" style="stroke: #A80036; stroke-width: 1.0;"/><text fill="#000000" font-family="sans-serif" font-size="13" lengthAdjust="spacingAndGlyphs" textLength="21" x="780" y="689.0669">run</text><!--
@startuml processes
    
    node "GIT Server" as GITServer {
        database "GIT Repo" as GITRepo
        node "GIT Service" as GITService
        GITRepo <- GITService: use
    }
    interface "GIT Service API" as GITServiceAPI
    interface "GIT Interface" as GITInterface
    GITService - - GITServiceAPI
    GITService - - GITInterface
    
    node "NPM Server" as NPMServer {
        node "NPM Service" as NPMService
        database "NPM Package" as NPMPackage
        NPMService -> NPMPackage: use
    }
    interface "NPM Interface" as NPMInterface
    NPMService - - NPMInterface

    node "CI/CD Server" as CICDServer {
        node "CI/CD Service" as CICDService
    }
    interface "CI/CD Interface" as CICDInterface
    CICDService - - CICDInterface
    GITServiceAPI )- - CICDService
    GITInterface )- CICDService
    CICDService - -( NPMInterface

    node "Container Server" as ContainerServer {
        node "Continer Service" as ContainerService
    }
    interface "Container Interface" as ContainerInterface
    ContainerService - - ContainerInterface
    ContainerInterface )- - CICDService
    
    node "Coverage Server" as CoverageServer {
        node "Coverage Service" as CoverageService
    }
    interface "Coverage Interface" as CoverageInterface
    CoverageService - - CoverageInterface
    CoverageInterface )- - CICDService
    
    node "Producers' PC" as ProducerPC {
        node "GIT Client" as GITClient
        interface "GIT CLI" as GIT_CLI
        GITClient - - GIT_CLI


        file "Source files" as Sources
        file "CI/CD Config" as CICDConf
        file "NPM Config" as NPMConfig
        GITRepo "0..*" o- - Sources
        Sources *- - CICDConf
        Sources *- - NPMConfig
        GITInterface )- - GITClient
        CICDInterface )- - CICDConf
        NPMInterface )- - NPMConfig
    }

    node "Consumers' PC" as ConsumerPC {
        node "NPM Client" as NPMClientC
        interface "NPM CLI" as NPM_CLI_C
        NPMInterface )- - NPMClientC
        NPMClientC - - NPM_CLI_C

        node "Node.js" as NodeJS
        NPMClientC - -* NodeJS

        file "Binaries" as Binaries
        NPMPackage "0..*" o- - Binaries
        Binaries <- - NodeJS: run
    }
@enduml

PlantUML version 1.2019.03(Sun Mar 10 13:04:44 EET 2019)
(GPL source distribution)
Java Runtime: Java(TM) SE Runtime Environment
JVM: Java HotSpot(TM) 64-Bit Server VM
Java Version: 1.8.0_201-b09
Operating System: Linux
OS Version: 4.15.0-47-generic
Default Encoding: UTF-8
Language: en
Country: US
--></g></svg>