<?xml version="1.0" encoding="UTF-8" standalone="no"?><svg xmlns="http://www.w3.org/2000/svg" xmlns:xlink="http://www.w3.org/1999/xlink" contentScriptType="application/ecmascript" contentStyleType="text/css" height="941px" preserveAspectRatio="none" style="width:947px;height:941px;" version="1.1" viewBox="0 0 947 941" width="947px" zoomAndPan="magnify"><defs><filter height="300%" id="fjr485rbmsz2i" width="300%" x="-1" y="-1"><feGaussianBlur result="blurOut" stdDeviation="2.0"/><feColorMatrix in="blurOut" result="blurOut2" type="matrix" values="0 0 0 0 0 0 0 0 0 0 0 0 0 0 0 0 0 0 .4 0"/><feOffset dx="4.0" dy="4.0" in="blurOut2" result="blurOut3"/><feBlend in="SourceGraphic" in2="blurOut3" mode="normal"/></filter></defs><g><!--cluster GITServer--><polygon fill="#FFFFFF" filter="url(#fjr485rbmsz2i)" points="28,34,38,24,313,24,313,119,303,129,28,129,28,34" style="stroke: #000000; stroke-width: 1.5;"/><line style="stroke: #000000; stroke-width: 1.5;" x1="303" x2="312" y1="34" y2="25"/><line style="stroke: #000000; stroke-width: 1.5;" x1="28" x2="303" y1="34" y2="34"/><line style="stroke: #000000; stroke-width: 1.5;" x1="303" x2="303" y1="34" y2="129"/><text fill="#000000" font-family="sans-serif" font-size="14" font-weight="bold" lengthAdjust="spacingAndGlyphs" textLength="75" x="129" y="51.5332">GIT Server</text><!--cluster NPMServer--><polygon fill="#FFFFFF" filter="url(#fjr485rbmsz2i)" points="581,431,591,421,899,421,899,516,889,526,581,526,581,431" style="stroke: #000000; stroke-width: 1.5;"/><line style="stroke: #000000; stroke-width: 1.5;" x1="889" x2="898" y1="431" y2="422"/><line style="stroke: #000000; stroke-width: 1.5;" x1="581" x2="889" y1="431" y2="431"/><line style="stroke: #000000; stroke-width: 1.5;" x1="889" x2="889" y1="431" y2="526"/><text fill="#000000" font-family="sans-serif" font-size="14" font-weight="bold" lengthAdjust="spacingAndGlyphs" textLength="84" x="694" y="448.5332">NPM Server</text><!--cluster CICDServer--><polygon fill="#FFFFFF" filter="url(#fjr485rbmsz2i)" points="420,293,430,283,586,283,586,378,576,388,420,388,420,293" style="stroke: #000000; stroke-width: 1.5;"/><line style="stroke: #000000; stroke-width: 1.5;" x1="576" x2="585" y1="293" y2="284"/><line style="stroke: #000000; stroke-width: 1.5;" x1="420" x2="576" y1="293" y2="293"/><line style="stroke: #000000; stroke-width: 1.5;" x1="576" x2="576" y1="293" y2="388"/><text fill="#000000" font-family="sans-serif" font-size="14" font-weight="bold" lengthAdjust="spacingAndGlyphs" textLength="90" x="454" y="310.5332">CI/CD Server</text><!--cluster ContainerServer--><polygon fill="#FFFFFF" filter="url(#fjr485rbmsz2i)" points="411,34,421,24,608,24,608,119,598,129,411,129,411,34" style="stroke: #000000; stroke-width: 1.5;"/><line style="stroke: #000000; stroke-width: 1.5;" x1="598" x2="607" y1="34" y2="25"/><line style="stroke: #000000; stroke-width: 1.5;" x1="411" x2="598" y1="34" y2="34"/><line style="stroke: #000000; stroke-width: 1.5;" x1="598" x2="598" y1="34" y2="129"/><text fill="#000000" font-family="sans-serif" font-size="14" font-weight="bold" lengthAdjust="spacingAndGlyphs" textLength="121" x="445" y="51.5332">Container Server</text><!--cluster CoverageServer--><polygon fill="#FFFFFF" filter="url(#fjr485rbmsz2i)" points="610,293,620,283,807,283,807,378,797,388,610,388,610,293" style="stroke: #000000; stroke-width: 1.5;"/><line style="stroke: #000000; stroke-width: 1.5;" x1="797" x2="806" y1="293" y2="284"/><line style="stroke: #000000; stroke-width: 1.5;" x1="610" x2="797" y1="293" y2="293"/><line style="stroke: #000000; stroke-width: 1.5;" x1="797" x2="797" y1="293" y2="388"/><text fill="#000000" font-family="sans-serif" font-size="14" font-weight="bold" lengthAdjust="spacingAndGlyphs" textLength="121" x="644" y="310.5332">Coverage Server</text><!--cluster ProducerPC--><polygon fill="#FFFFFF" filter="url(#fjr485rbmsz2i)" points="22,431,32,421,431,421,431,643,421,653,22,653,22,431" style="stroke: #000000; stroke-width: 1.5;"/><line style="stroke: #000000; stroke-width: 1.5;" x1="421" x2="430" y1="431" y2="422"/><line style="stroke: #000000; stroke-width: 1.5;" x1="22" x2="421" y1="431" y2="431"/><line style="stroke: #000000; stroke-width: 1.5;" x1="421" x2="421" y1="431" y2="653"/><text fill="#000000" font-family="sans-serif" font-size="14" font-weight="bold" lengthAdjust="spacingAndGlyphs" textLength="99" x="173" y="448.5332">Producers' PC</text><!--cluster ConsumerPC--><polygon fill="#FFFFFF" filter="url(#fjr485rbmsz2i)" points="628,696,638,686,876,686,876,919,866,929,628,929,628,696" style="stroke: #000000; stroke-width: 1.5;"/><line style="stroke: #000000; stroke-width: 1.5;" x1="866" x2="875" y1="696" y2="687"/><line style="stroke: #000000; stroke-width: 1.5;" x1="628" x2="866" y1="696" y2="696"/><line style="stroke: #000000; stroke-width: 1.5;" x1="866" x2="866" y1="696" y2="929"/><text fill="#000000" font-family="sans-serif" font-size="14" font-weight="bold" lengthAdjust="spacingAndGlyphs" textLength="106" x="695" y="713.5332">Consumers' PC</text><!--entity GITRepo--><path d="M44.5,75.5 C44.5,65.5 85,65.5 85,65.5 C85,65.5 125.5,65.5 125.5,75.5 L125.5,102.1094 C125.5,112.1094 85,112.1094 85,112.1094 C85,112.1094 44.5,112.1094 44.5,102.1094 L44.5,75.5 " fill="#FEFECE" filter="url(#fjr485rbmsz2i)" style="stroke: #000000; stroke-width: 1.5;"/><path d="M44.5,75.5 C44.5,85.5 85,85.5 85,85.5 C85,85.5 125.5,85.5 125.5,75.5 " fill="none" style="stroke: #000000; stroke-width: 1.5;"/><text fill="#000000" font-family="sans-serif" font-size="14" lengthAdjust="spacingAndGlyphs" textLength="61" x="54.5" y="104.0332">GIT Repo</text><!--entity GITService--><polygon fill="#FEFECE" filter="url(#fjr485rbmsz2i)" points="183,75,193,65,297,65,297,102.6094,287,112.6094,183,112.6094,183,75" style="stroke: #000000; stroke-width: 1.5;"/><line style="stroke: #000000; stroke-width: 1.5;" x1="287" x2="296" y1="75" y2="66"/><line style="stroke: #000000; stroke-width: 1.5;" x1="183" x2="287" y1="75" y2="75"/><line style="stroke: #000000; stroke-width: 1.5;" x1="287" x2="287" y1="75" y2="112.6094"/><text fill="#000000" font-family="sans-serif" font-size="14" lengthAdjust="spacingAndGlyphs" textLength="74" x="198" y="99.5332">GIT Service</text><!--entity NPMService--><polygon fill="#FEFECE" filter="url(#fjr485rbmsz2i)" points="597,472,607,462,717,462,717,499.6094,707,509.6094,597,509.6094,597,472" style="stroke: #000000; stroke-width: 1.5;"/><line style="stroke: #000000; stroke-width: 1.5;" x1="707" x2="716" y1="472" y2="463"/><line style="stroke: #000000; stroke-width: 1.5;" x1="597" x2="707" y1="472" y2="472"/><line style="stroke: #000000; stroke-width: 1.5;" x1="707" x2="707" y1="472" y2="509.6094"/><text fill="#000000" font-family="sans-serif" font-size="14" lengthAdjust="spacingAndGlyphs" textLength="80" x="612" y="496.5332">NPM Service</text><!--entity NPMPackage--><path d="M775,472.5 C775,462.5 829,462.5 829,462.5 C829,462.5 883,462.5 883,472.5 L883,499.1094 C883,509.1094 829,509.1094 829,509.1094 C829,509.1094 775,509.1094 775,499.1094 L775,472.5 " fill="#FEFECE" filter="url(#fjr485rbmsz2i)" style="stroke: #000000; stroke-width: 1.5;"/><path d="M775,472.5 C775,482.5 829,482.5 829,482.5 C829,482.5 883,482.5 883,472.5 " fill="none" style="stroke: #000000; stroke-width: 1.5;"/><text fill="#000000" font-family="sans-serif" font-size="14" lengthAdjust="spacingAndGlyphs" textLength="88" x="785" y="501.0332">NPM Package</text><!--entity CICDService--><polygon fill="#FEFECE" filter="url(#fjr485rbmsz2i)" points="442,334,452,324,570,324,570,361.6094,560,371.6094,442,371.6094,442,334" style="stroke: #000000; stroke-width: 1.5;"/><line style="stroke: #000000; stroke-width: 1.5;" x1="560" x2="569" y1="334" y2="325"/><line style="stroke: #000000; stroke-width: 1.5;" x1="442" x2="560" y1="334" y2="334"/><line style="stroke: #000000; stroke-width: 1.5;" x1="560" x2="560" y1="334" y2="371.6094"/><text fill="#000000" font-family="sans-serif" font-size="14" lengthAdjust="spacingAndGlyphs" textLength="88" x="457" y="358.5332">CI/CD Service</text><!--entity ContainerService--><polygon fill="#FEFECE" filter="url(#fjr485rbmsz2i)" points="436.5,75,446.5,65,581.5,65,581.5,102.6094,571.5,112.6094,436.5,112.6094,436.5,75" style="stroke: #000000; stroke-width: 1.5;"/><line style="stroke: #000000; stroke-width: 1.5;" x1="571.5" x2="580.5" y1="75" y2="66"/><line style="stroke: #000000; stroke-width: 1.5;" x1="436.5" x2="571.5" y1="75" y2="75"/><line style="stroke: #000000; stroke-width: 1.5;" x1="571.5" x2="571.5" y1="75" y2="112.6094"/><text fill="#000000" font-family="sans-serif" font-size="14" lengthAdjust="spacingAndGlyphs" textLength="105" x="451.5" y="99.5332">Continer Service</text><!--entity CoverageService--><polygon fill="#FEFECE" filter="url(#fjr485rbmsz2i)" points="634.5,334,644.5,324,787.5,324,787.5,361.6094,777.5,371.6094,634.5,371.6094,634.5,334" style="stroke: #000000; stroke-width: 1.5;"/><line style="stroke: #000000; stroke-width: 1.5;" x1="777.5" x2="786.5" y1="334" y2="325"/><line style="stroke: #000000; stroke-width: 1.5;" x1="634.5" x2="777.5" y1="334" y2="334"/><line style="stroke: #000000; stroke-width: 1.5;" x1="777.5" x2="777.5" y1="334" y2="371.6094"/><text fill="#000000" font-family="sans-serif" font-size="14" lengthAdjust="spacingAndGlyphs" textLength="113" x="649.5" y="358.5332">Coverage Service</text><!--entity GITClient--><polygon fill="#FEFECE" filter="url(#fjr485rbmsz2i)" points="167.5,472,177.5,462,270.5,462,270.5,499.6094,260.5,509.6094,167.5,509.6094,167.5,472" style="stroke: #000000; stroke-width: 1.5;"/><line style="stroke: #000000; stroke-width: 1.5;" x1="260.5" x2="269.5" y1="472" y2="463"/><line style="stroke: #000000; stroke-width: 1.5;" x1="167.5" x2="260.5" y1="472" y2="472"/><line style="stroke: #000000; stroke-width: 1.5;" x1="260.5" x2="260.5" y1="472" y2="509.6094"/><text fill="#000000" font-family="sans-serif" font-size="14" lengthAdjust="spacingAndGlyphs" textLength="63" x="182.5" y="496.5332">GIT Client</text><!--entity GIT_CLI--><ellipse cx="141" cy="607" fill="#FEFECE" filter="url(#fjr485rbmsz2i)" rx="8" ry="8" style="stroke: #A80036; stroke-width: 2.0;"/><text fill="#000000" font-family="sans-serif" font-size="14" lengthAdjust="spacingAndGlyphs" textLength="48" x="117" y="638.5332">GIT CLI</text><!--entity NPMClientP--><polygon fill="#FEFECE" filter="url(#fjr485rbmsz2i)" points="305.5,472,315.5,462,414.5,462,414.5,499.6094,404.5,509.6094,305.5,509.6094,305.5,472" style="stroke: #000000; stroke-width: 1.5;"/><line style="stroke: #000000; stroke-width: 1.5;" x1="404.5" x2="413.5" y1="472" y2="463"/><line style="stroke: #000000; stroke-width: 1.5;" x1="305.5" x2="404.5" y1="472" y2="472"/><line style="stroke: #000000; stroke-width: 1.5;" x1="404.5" x2="404.5" y1="472" y2="509.6094"/><text fill="#000000" font-family="sans-serif" font-size="14" lengthAdjust="spacingAndGlyphs" textLength="69" x="320.5" y="496.5332">NPM Client</text><!--entity NPM_CLI_P--><ellipse cx="243" cy="607" fill="#FEFECE" filter="url(#fjr485rbmsz2i)" rx="8" ry="8" style="stroke: #A80036; stroke-width: 2.0;"/><text fill="#000000" font-family="sans-serif" font-size="14" lengthAdjust="spacingAndGlyphs" textLength="54" x="216" y="638.5332">NPM CLI</text><!--entity Sources--><polygon fill="#FEFECE" filter="url(#fjr485rbmsz2i)" points="38,467,38,504.6094,132,504.6094,132,477,122,467,38,467" style="stroke: #000000; stroke-width: 1.5;"/><path d="M122,467 L122,477 L132,477 " fill="#FEFECE" style="stroke: #000000; stroke-width: 1.5;"/><text fill="#000000" font-family="sans-serif" font-size="14" lengthAdjust="spacingAndGlyphs" textLength="74" x="48" y="491.5332">Source files</text><!--entity CICDConf--><polygon fill="#FEFECE" filter="url(#fjr485rbmsz2i)" points="313,588,313,625.6094,415,625.6094,415,598,405,588,313,588" style="stroke: #000000; stroke-width: 1.5;"/><path d="M405,588 L405,598 L415,598 " fill="#FEFECE" style="stroke: #000000; stroke-width: 1.5;"/><text fill="#000000" font-family="sans-serif" font-size="14" lengthAdjust="spacingAndGlyphs" textLength="82" x="323" y="612.5332">CI/CD Config</text><!--entity NPMClientC--><polygon fill="#FEFECE" filter="url(#fjr485rbmsz2i)" points="644.5,737,654.5,727,753.5,727,753.5,764.6094,743.5,774.6094,644.5,774.6094,644.5,737" style="stroke: #000000; stroke-width: 1.5;"/><line style="stroke: #000000; stroke-width: 1.5;" x1="743.5" x2="752.5" y1="737" y2="728"/><line style="stroke: #000000; stroke-width: 1.5;" x1="644.5" x2="743.5" y1="737" y2="737"/><line style="stroke: #000000; stroke-width: 1.5;" x1="743.5" x2="743.5" y1="737" y2="774.6094"/><text fill="#000000" font-family="sans-serif" font-size="14" lengthAdjust="spacingAndGlyphs" textLength="69" x="659.5" y="761.5332">NPM Client</text><!--entity NPM_CLI_C--><ellipse cx="699" cy="883" fill="#FEFECE" filter="url(#fjr485rbmsz2i)" rx="8" ry="8" style="stroke: #A80036; stroke-width: 2.0;"/><text fill="#000000" font-family="sans-serif" font-size="14" lengthAdjust="spacingAndGlyphs" textLength="54" x="672" y="914.5332">NPM CLI</text><!--entity NodeJS--><polygon fill="#FEFECE" filter="url(#fjr485rbmsz2i)" points="770.5,869,780.5,859,857.5,859,857.5,896.6094,847.5,906.6094,770.5,906.6094,770.5,869" style="stroke: #000000; stroke-width: 1.5;"/><line style="stroke: #000000; stroke-width: 1.5;" x1="847.5" x2="856.5" y1="869" y2="860"/><line style="stroke: #000000; stroke-width: 1.5;" x1="770.5" x2="847.5" y1="869" y2="869"/><line style="stroke: #000000; stroke-width: 1.5;" x1="847.5" x2="847.5" y1="869" y2="906.6094"/><text fill="#000000" font-family="sans-serif" font-size="14" lengthAdjust="spacingAndGlyphs" textLength="47" x="785.5" y="893.5332">Node.js</text><!--entity Binaries--><polygon fill="#FEFECE" filter="url(#fjr485rbmsz2i)" points="788.5,732,788.5,769.6094,859.5,769.6094,859.5,742,849.5,732,788.5,732" style="stroke: #000000; stroke-width: 1.5;"/><path d="M849.5,732 L849.5,742 L859.5,742 " fill="#FEFECE" style="stroke: #000000; stroke-width: 1.5;"/><text fill="#000000" font-family="sans-serif" font-size="14" lengthAdjust="spacingAndGlyphs" textLength="51" x="798.5" y="756.5332">Binaries</text><!--entity GITServiceAPI--><ellipse cx="349" cy="206" fill="#FEFECE" filter="url(#fjr485rbmsz2i)" rx="8" ry="8" style="stroke: #A80036; stroke-width: 2.0;"/><text fill="#000000" font-family="sans-serif" font-size="14" lengthAdjust="spacingAndGlyphs" textLength="99" x="299.5" y="237.5332">GIT Service API</text><!--entity GITInterface--><ellipse cx="239" cy="348" fill="#FEFECE" filter="url(#fjr485rbmsz2i)" rx="8" ry="8" style="stroke: #A80036; stroke-width: 2.0;"/><text fill="#000000" font-family="sans-serif" font-size="14" lengthAdjust="spacingAndGlyphs" textLength="82" x="198" y="379.5332">GIT Interface</text><!--entity NPMInterface--><ellipse cx="692" cy="607" fill="#FEFECE" filter="url(#fjr485rbmsz2i)" rx="8" ry="8" style="stroke: #A80036; stroke-width: 2.0;"/><text fill="#000000" font-family="sans-serif" font-size="14" lengthAdjust="spacingAndGlyphs" textLength="88" x="648" y="638.5332">NPM Interface</text><!--entity CICDInterface--><ellipse cx="506" cy="486" fill="#FEFECE" filter="url(#fjr485rbmsz2i)" rx="8" ry="8" style="stroke: #A80036; stroke-width: 2.0;"/><text fill="#000000" font-family="sans-serif" font-size="14" lengthAdjust="spacingAndGlyphs" textLength="96" x="458" y="517.5332">CI/CD Interface</text><!--entity ContainerInterface--><ellipse cx="509" cy="206" fill="#FEFECE" filter="url(#fjr485rbmsz2i)" rx="8" ry="8" style="stroke: #A80036; stroke-width: 2.0;"/><text fill="#000000" font-family="sans-serif" font-size="14" lengthAdjust="spacingAndGlyphs" textLength="121" x="448.5" y="237.5332">Container Interface</text><!--entity CoverageInterface--><ellipse cx="832" cy="348" fill="#FEFECE" filter="url(#fjr485rbmsz2i)" rx="8" ry="8" style="stroke: #A80036; stroke-width: 2.0;"/><text fill="#000000" font-family="sans-serif" font-size="14" lengthAdjust="spacingAndGlyphs" textLength="118" x="773" y="379.5332">Coveralls Interface</text><!--link GITRepo to GITService--><path d="M130.725,89 C147.089,89 165.738,89 182.941,89 " fill="none" id="GITRepo-GITService" style="stroke: #A80036; stroke-width: 1.0;"/><polygon fill="#A80036" points="125.724,89,134.724,93,130.724,89,134.724,85,125.724,89" style="stroke: #A80036; stroke-width: 1.0;"/><text fill="#000000" font-family="sans-serif" font-size="13" lengthAdjust="spacingAndGlyphs" textLength="21" x="143.75" y="82.4951">use</text><!--link GITService to GITServiceAPI--><path d="M262.058,113.272 C286.567,139.131 324.841,179.511 341.18,196.75 " fill="none" id="GITService-GITServiceAPI" style="stroke: #A80036; stroke-width: 1.0;"/><!--link GITService to GITInterface--><path d="M239.909,113.26 C239.696,168.121 239.169,303.608 239.033,338.629 " fill="none" id="GITService-GITInterface" style="stroke: #A80036; stroke-width: 1.0;"/><!--link NPMService to NPMPackage--><path d="M717.157,486 C734.189,486 752.712,486 769.693,486 " fill="none" id="NPMService-NPMPackage" style="stroke: #A80036; stroke-width: 1.0;"/><polygon fill="#A80036" points="774.91,486,765.91,482,769.91,486,765.91,490,774.91,486" style="stroke: #A80036; stroke-width: 1.0;"/><text fill="#000000" font-family="sans-serif" font-size="13" lengthAdjust="spacingAndGlyphs" textLength="21" x="735.5" y="479.4951">use</text><!--link NPMService to NPMInterface--><path d="M663.831,510.227 C671.749,537.147 684.379,580.087 689.61,597.874 " fill="none" id="NPMService-NPMInterface" style="stroke: #A80036; stroke-width: 1.0;"/><!--link CICDService to CICDInterface--><path d="M506,372.071 C506,402.99 506,456.343 506,476.742 " fill="none" id="CICDService-CICDInterface" style="stroke: #A80036; stroke-width: 1.0;"/><!--link GITServiceAPI to CICDService--><path d="M365.951,222.116 C393.398,246.591 447.748,295.056 480.077,323.884 " fill="none" id="GITServiceAPI-CICDService" style="stroke: #A80036; stroke-width: 1.0;"/><path d="M355.0192,223.6986 A9,9 0 0 0 366.2774 211.0751" fill="none" style="stroke: #A80036; stroke-width: 1.5;"/><!--link GITInterface to CICDService--><path d="M258.338,348 C319.487,348 380.635,348 441.783,348 " fill="none" id="GITInterface-CICDService" style="stroke: #A80036; stroke-width: 1.0;"/><path d="M251.2042,356.4572 A9,9 0 0 0 251.2042 339.5428" fill="none" style="stroke: #A80036; stroke-width: 1.5;"/><!--link CICDService to NPMInterface--><path d="M551.15,372.043 C571.12,381.148 595.204,390.689 618,396 C648.464,403.097 877.56,390.224 899,413 C935.861,452.158 930.16,490.17 899,534 C854.974,595.926 753.679,605.052 711.249,606.07 " fill="none" id="CICDService-NPMInterface" style="stroke: #A80036; stroke-width: 1.0;"/><path d="M704.323,614.6029 A9,9 0 0 0 704.137 597.6894" fill="none" style="stroke: #A80036; stroke-width: 1.5;"/><!--link ContainerService to ContainerInterface--><path d="M509,113.272 C509,139.131 509,179.511 509,196.75 " fill="none" id="ContainerService-ContainerInterface" style="stroke: #A80036; stroke-width: 1.0;"/><!--link ContainerInterface to CICDService--><path d="M508.605,225.411 C508.063,250.732 507.086,296.298 506.495,323.884 " fill="none" id="ContainerInterface-CICDService" style="stroke: #A80036; stroke-width: 1.0;"/><path d="M500.2997,218.2342 A9,9 0 0 0 517.2103 218.5967" fill="none" style="stroke: #A80036; stroke-width: 1.5;"/><!--link CoverageService to CoverageInterface--><path d="M787.57,348 C799.372,348 811.174,348 822.975,348 " fill="none" id="CoverageService-CoverageInterface" style="stroke: #A80036; stroke-width: 1.0;"/><!--link CoverageInterface to CICDService--><path d="M829.589,328.659 C825.471,305.433 814.59,268.034 786.5,255.5 C725.213,228.153 699.41,235.019 635.5,255.5 C593.666,268.906 553.842,301.342 529.669,323.998 " fill="none" id="CoverageInterface-CICDService" style="stroke: #A80036; stroke-width: 1.0;"/><path d="M839.016,334.4448 A9,9 0 0 0 822.291 336.9698" fill="none" style="stroke: #A80036; stroke-width: 1.5;"/><!--link GITClient to GIT_CLI--><path d="M203.776,510.227 C186.13,537.147 157.985,580.087 146.326,597.874 " fill="none" id="GITClient-GIT_CLI" style="stroke: #A80036; stroke-width: 1.0;"/><!--link NPMClientP to NPMInterface--><path d="M390.689,510.032 C403.036,518.482 417.716,527.548 432,534 C525.055,576.03 648.167,598.689 682.665,604.49 " fill="none" id="NPMClientP-NPMInterface" style="stroke: #A80036; stroke-width: 1.0;"/><!--link NPMClientP to NPM_CLI_P--><path d="M337.163,510.227 C310.696,537.147 268.477,580.087 250.989,597.874 " fill="none" id="NPMClientP-NPM_CLI_P" style="stroke: #A80036; stroke-width: 1.0;"/><!--link GITRepo to Sources--><path d="M85,125.85 C85,207.604 85,405.477 85,466.662 " fill="none" id="GITRepo-Sources" style="stroke: #A80036; stroke-width: 1.0;"/><polygon fill="#FFFFFF" points="85,112.656,81,118.656,85,124.656,89,118.656,85,112.656" style="stroke: #A80036; stroke-width: 1.0;"/><text fill="#000000" font-family="sans-serif" font-size="13" lengthAdjust="spacingAndGlyphs" textLength="20" x="62.6875" y="133.5574">0..*</text><!--link Sources to CICDConf--><path d="M116.519,513.06 C126.742,520.596 138.438,528.312 150,534 C210.316,563.671 231.699,554.388 295,577 C304.178,580.278 313.9,584.125 323.06,587.925 " fill="none" id="Sources-CICDConf" style="stroke: #A80036; stroke-width: 1.0;"/><polygon fill="#A80036" points="106.081,505.059,108.4094,511.8838,115.6048,512.3595,113.2764,505.5346,106.081,505.059" style="stroke: #A80036; stroke-width: 1.0;"/><!--link GITInterface to GITClient--><path d="M236.335,367.12 C232.746,391.525 226.356,434.977 222.418,461.761 " fill="none" id="GITInterface-GITClient" style="stroke: #A80036; stroke-width: 1.0;"/><path d="M228.9938,358.9144 A9,9 0 0 0 245.7281 361.3764" fill="none" style="stroke: #A80036; stroke-width: 1.5;"/><!--link CICDInterface to CICDConf--><path d="M488.841,501.379 C462.906,523.114 413.756,564.303 385.48,587.999 " fill="none" id="CICDInterface-CICDConf" style="stroke: #A80036; stroke-width: 1.0;"/><path d="M488.8915,490.3032 A9,9 0 0 0 499.756 503.2671" fill="none" style="stroke: #A80036; stroke-width: 1.5;"/><!--link NPMInterface to NPMClientC--><path d="M692.898,626.212 C694.164,651.907 696.476,698.795 697.862,726.905 " fill="none" id="NPMInterface-NPMClientC" style="stroke: #A80036; stroke-width: 1.0;"/><path d="M684.1007,619.5322 A9,9 0 0 0 700.9947 618.6987" fill="none" style="stroke: #A80036; stroke-width: 1.5;"/><!--link NPMClientC to NPM_CLI_C--><path d="M699,775.241 C699,804.893 699,854.6486 699,873.9798 " fill="none" id="NPMClientC-NPM_CLI_C" style="stroke: #A80036; stroke-width: 1.0;"/><!--link NPMClientC to NodeJS--><path d="M719.56,775.241 C737.712,795.761 764.382,825.91 784.754,848.9396 " fill="none" id="NPMClientC-NodeJS" style="stroke: #A80036; stroke-width: 1.0;"/><polygon fill="#A80036" points="793.618,858.9598,792.6386,851.8155,785.6671,849.9718,786.6466,857.1161,793.618,858.9598" style="stroke: #A80036; stroke-width: 1.0;"/><!--link NPMPackage to Binaries--><path d="M828.312,523.205 C827.226,580.287 825.158,689.11 824.342,731.991 " fill="none" id="NPMPackage-Binaries" style="stroke: #A80036; stroke-width: 1.0;"/><polygon fill="#FFFFFF" points="828.565,509.879,824.4517,515.8019,828.3369,521.8768,832.4502,515.954,828.565,509.879" style="stroke: #A80036; stroke-width: 1.0;"/><text fill="#000000" font-family="sans-serif" font-size="13" lengthAdjust="spacingAndGlyphs" textLength="20" x="806.2823" y="530.4288">0..*</text><!--link Binaries to NodeJS--><path d="M822.215,775.203 C820.399,798.816 817.599,835.208 815.783,858.8148 " fill="none" id="Binaries-NodeJS" style="stroke: #A80036; stroke-width: 1.0;"/><polygon fill="#A80036" points="822.61,770.076,817.9327,778.7433,822.2272,775.0613,825.9092,779.3558,822.61,770.076" style="stroke: #A80036; stroke-width: 1.0;"/><text fill="#000000" font-family="sans-serif" font-size="13" lengthAdjust="spacingAndGlyphs" textLength="18" x="820" y="819.4951">run</text><!--
@startuml processes
    
    node "GIT Server" as GITServer {
        database "GIT Repo" as GITRepo
        node "GIT Service" as GITService
        GITRepo <- GITService: use
    }
    interface "GIT Service API" as GITServiceAPI
    interface "GIT Interface" as GITInterface
    GITService - - GITServiceAPI
    GITService - - GITInterface
    
    node "NPM Server" as NPMServer {
        node "NPM Service" as NPMService
        database "NPM Package" as NPMPackage
        NPMService -> NPMPackage: use
    }
    interface "NPM Interface" as NPMInterface
    NPMService - - NPMInterface

    node "CI/CD Server" as CICDServer {
        node "CI/CD Service" as CICDService
    }
    interface "CI/CD Interface" as CICDInterface
    CICDService - - CICDInterface
    GITServiceAPI )- - CICDService
    GITInterface )- CICDService
    CICDService -( NPMInterface

    node "Container Server" as ContainerServer {
        node "Continer Service" as ContainerService
    }
    interface "Container Interface" as ContainerInterface
    ContainerService - - ContainerInterface
    ContainerInterface )- - CICDService
    
    node "Coverage Server" as CoverageServer {
        node "Coverage Service" as CoverageService
    }
    interface "Coveralls Interface" as CoverageInterface
    CoverageService - CoverageInterface
    CoverageInterface )- CICDService
    
    node "Producers' PC" as ProducerPC {
        node "GIT Client" as GITClient
        interface "GIT CLI" as GIT_CLI
        GITClient - - GIT_CLI

        node "NPM Client" as NPMClientP
        interface "NPM CLI" as NPM_CLI_P
        NPMClientP - - NPMInterface 
        NPMClientP - - NPM_CLI_P

        file "Source files" as Sources
        file "CI/CD Config" as CICDConf
        GITRepo "0..*" o- - Sources
        Sources *- - CICDConf
        GITInterface )- - GITClient
        CICDInterface )- - CICDConf
    }

    node "Consumers' PC" as ConsumerPC {
        node "NPM Client" as NPMClientC
        interface "NPM CLI" as NPM_CLI_C
        NPMInterface )- - NPMClientC
        NPMClientC - - NPM_CLI_C

        node "Node.js" as NodeJS
        NPMClientC - -* NodeJS

        file "Binaries" as Binaries
        NPMPackage "0..*" o- - Binaries
        Binaries <- - NodeJS: run
    }
@enduml

PlantUML version 1.2019.03(Sun Mar 10 13:04:44 EET 2019)
(GPL source distribution)
Java Runtime: Java(TM) SE Runtime Environment
JVM: Java HotSpot(TM) Client VM
Java Version: 1.8.0_211-b12
Operating System: Windows 10
OS Version: 10.0
Default Encoding: Cp1251
Language: ru
Country: RU
--></g></svg>