<?xml version="1.0" encoding="UTF-8" standalone="no"?><svg xmlns="http://www.w3.org/2000/svg" xmlns:xlink="http://www.w3.org/1999/xlink" contentScriptType="application/ecmascript" contentStyleType="text/css" height="397px" preserveAspectRatio="none" style="width:190px;height:397px;" version="1.1" viewBox="0 0 190 397" width="190px" zoomAndPan="magnify"><defs><filter height="300%" id="funkmjilbsaez" width="300%" x="-1" y="-1"><feGaussianBlur result="blurOut" stdDeviation="2.0"/><feColorMatrix in="blurOut" result="blurOut2" type="matrix" values="0 0 0 0 0 0 0 0 0 0 0 0 0 0 0 0 0 0 .4 0"/><feOffset dx="4.0" dy="4.0" in="blurOut2" result="blurOut3"/><feBlend in="SourceGraphic" in2="blurOut3" mode="normal"/></filter></defs><g><text fill="#000000" font-family="sans-serif" font-size="18" lengthAdjust="spacingAndGlyphs" textLength="152" x="24" y="16.708">Devices Network</text><!--cluster Internet--><path d="M40.9457,56.2442 C46.2659,41.0785 58.987,40.629 67.9039,52.6819 C73.5731,37.7904 87.5481,33.2452 97.8258,48.0361 C106.16,38.4194 119.0685,39.6949 123.6094,52.4148 C135.5189,39.7406 153.1368,40.4815 158,59.9531 C160.534,59.8336 161.1076,61.3666 160.4672,63.4724 C167.6784,68.4854 169.8443,76.4541 160.3995,81.4042 C171.6451,88.567 171.0723,96.5129 161.2725,104.4721 C171.1333,109.5301 172.0285,118.2147 164.1335,125.6693 C172.4564,131.9139 171.8019,141.5314 161.9387,145.7925 C172.4603,150.7637 172.7278,160.4255 163.9532,167.2116 C171.2553,171.3301 173.8583,179.1618 165.048,184.3119 C176.5246,188.6978 178.333,198.88 167.7806,206.0367 C176.6789,213.3701 173.9576,222.0622 164.1789,226.0312 C174.2919,232.4641 173.8469,239.7889 165.5948,247.4367 C174.195,254.1147 174.9628,264.8354 163.2791,269.3719 C171.7409,277.05 172.8271,284.7869 160.8815,290.1051 C170.5297,295.4474 169.0171,304.5325 159.9669,308.9683 C170.2866,314.9782 170.5183,325.385 159.4023,330.8416 C168.5678,343.1551 166.4828,352.571 151,356.9531 C151.4874,356.7095 151.8426,356.8919 151.826,357.4637 C146.9885,372.6198 137.4354,374.4493 125.663,364.769 C121.0962,381.4166 108.0375,383.1743 96.3082,372.4507 C83.1962,385.1599 73.7881,382.5896 66.7866,366.2424 C50.7172,376.8884 30.7293,373.9504 30,349.9531 C32.0371,349.2341 33.3262,350.5007 33.1919,352.5014 C22.814,346.4709 21.6876,337.5509 32.4494,330.7971 C23.2511,325.9126 23.0517,317.472 30.4639,310.9277 C19.9303,304.2997 18.8365,298.0792 29.0467,290.0435 C16.8181,283.0348 19.226,274.8719 28.9364,267.7548 C19.0982,263.7297 17.2226,256.4283 24.1426,248.2785 C16.0489,241.3873 16.8512,232.5345 26.0936,227.2519 C16.8637,223.0614 15.0801,215.5731 22.6823,208.3456 C11.832,199.5114 16.3289,191.3614 26.555,186.2154 C15.4977,179.3326 17.9324,171.7709 26.5474,164.8812 C16.2378,156.417 17.8786,149.155 28.8891,142.9694 C17.8529,137.4391 18.1589,131.2801 26.7986,123.6236 C17.5069,116.0236 17.9585,106.2187 30.2416,102.064 C21.5641,97.6814 20.9255,89.4909 29.1786,84.1061 C16.7069,71.6588 21.057,58.2666 37,52.9531 C39.8783,51.6975 41.2062,53.7368 40.9457,56.2442 " fill="#FFFFFF" style="stroke: #000000; stroke-width: 1.5;"/><text fill="#000000" font-family="sans-serif" font-size="14" font-weight="bold" lengthAdjust="spacingAndGlyphs" textLength="63" x="62.5" y="70.9482">Internet</text><!--entity PackageServer--><path d="M46,89.9531 C46,79.9531 94,79.9531 94,79.9531 C94,79.9531 142,79.9531 142,89.9531 L142,115.25 C142,125.25 94,125.25 94,125.25 C94,125.25 46,125.25 46,115.25 L46,89.9531 " fill="#FEFECE" filter="url(#funkmjilbsaez)" style="stroke: #000000; stroke-width: 1.5;"/><path d="M46,89.9531 C46,99.9531 94,99.9531 94,99.9531 C94,99.9531 142,99.9531 142,89.9531 " fill="none" style="stroke: #000000; stroke-width: 1.5;"/><text fill="#000000" font-family="sans-serif" font-size="14" lengthAdjust="spacingAndGlyphs" textLength="76" x="56" y="116.9482">npmjs.com</text><!--entity HostNode--><polygon fill="#FEFECE" filter="url(#funkmjilbsaez)" points="38,312.9531,48,302.9531,150,302.9531,150,339.25,140,349.25,38,349.25,38,312.9531" style="stroke: #000000; stroke-width: 1.5;"/><line style="stroke: #000000; stroke-width: 1.5;" x1="140" x2="149" y1="312.9531" y2="303.9531"/><line style="stroke: #000000; stroke-width: 1.5;" x1="38" x2="140" y1="312.9531" y2="312.9531"/><line style="stroke: #000000; stroke-width: 1.5;" x1="140" x2="140" y1="312.9531" y2="349.25"/><text fill="#000000" font-family="sans-serif" font-size="14" lengthAdjust="spacingAndGlyphs" textLength="72" x="53" y="335.9482">Host node</text><!--entity Ethernet--><ellipse cx="94" cy="213.9531" fill="#FEFECE" filter="url(#funkmjilbsaez)" rx="8" ry="8" style="stroke: #A80036; stroke-width: 2.0;"/><text fill="#000000" font-family="sans-serif" font-size="14" lengthAdjust="spacingAndGlyphs" textLength="60" x="64" y="243.9482">Ethernet</text><!--link PackageServer to Ethernet--><path d="M94,125.0871 C94,145.4151 94,175.5001 94,194.6621 " fill="none" id="PackageServer-Ethernet" style="stroke: #A80036; stroke-width: 1.0;"/><path d="M102.4572,201.6839 A9,9 0 0 0 85.5428 201.6839" fill="none" style="stroke: #A80036; stroke-width: 1.5;"/><!--link Ethernet to HostNode--><path d="M94,233.2851 C94,252.3591 94,282.2403 94,302.666 " fill="none" id="Ethernet-HostNode" style="stroke: #A80036; stroke-width: 1.0;"/><path d="M85.5428,226.2993 A9,9 0 0 0 102.4572 226.2993" fill="none" style="stroke: #A80036; stroke-width: 1.5;"/><!--
@startuml devices_network
    title Devices Network

    cloud "Internet" as Internet {
        database "npmjs.com" as PackageServer
        node "Host node" as HostNode
        interface "Ethernet" as Ethernet
        PackageServer - -( Ethernet
        Ethernet )- - HostNode
    }
@enduml

PlantUML version 1.2019.06(Fri May 24 20:10:25 EEST 2019)
(GPL source distribution)
Java Runtime: Java(TM) SE Runtime Environment
JVM: Java HotSpot(TM) 64-Bit Server VM
Java Version: 1.8.0_201-b09
Operating System: Linux
OS Version: 4.15.0-51-generic
Default Encoding: UTF-8
Language: en
Country: US
--></g></svg>