<?xml version="1.0" encoding="UTF-8" standalone="no"?><svg xmlns="http://www.w3.org/2000/svg" xmlns:xlink="http://www.w3.org/1999/xlink" contentScriptType="application/ecmascript" contentStyleType="text/css" height="346px" preserveAspectRatio="none" style="width:302px;height:346px;" version="1.1" viewBox="0 0 302 346" width="302px" zoomAndPan="magnify"><defs><filter height="300%" id="fej78r73nno7u" width="300%" x="-1" y="-1"><feGaussianBlur result="blurOut" stdDeviation="2.0"/><feColorMatrix in="blurOut" result="blurOut2" type="matrix" values="0 0 0 0 0 0 0 0 0 0 0 0 0 0 0 0 0 0 .4 0"/><feOffset dx="4.0" dy="4.0" in="blurOut2" result="blurOut3"/><feBlend in="SourceGraphic" in2="blurOut3" mode="normal"/></filter></defs><g><text fill="#000000" font-family="sans-serif" font-size="18" lengthAdjust="spacingAndGlyphs" textLength="137" x="81.5" y="26.708">Help Command</text><ellipse cx="150" cy="40.9531" fill="#000000" filter="url(#fej78r73nno7u)" rx="10" ry="10" style="stroke: none; stroke-width: 1.0;"/><polygon fill="#FEFECE" filter="url(#fej78r73nno7u)" points="137,70.9531,173,70.9531,163,104.9219,127,104.9219" style="stroke: #A80036; stroke-width: 1.5;"/><text fill="#000000" font-family="sans-serif" font-size="12" lengthAdjust="spacingAndGlyphs" textLength="0" x="141" y="92.0918"/><a href="./Environment.svg" target="_top" xlink:actuate="onRequest" xlink:show="new" xlink:title="./Environment.svg" xlink:type="simple"><text fill="#0000FF" font-family="sans-serif" font-size="12" lengthAdjust="spacingAndGlyphs" text-decoration="underline" textLength="18" x="141" y="92.0918">idk</text></a><text fill="#000000" font-family="sans-serif" font-size="12" lengthAdjust="spacingAndGlyphs" textLength="0" x="163" y="92.0918"/><rect fill="#FEFECE" filter="url(#fej78r73nno7u)" height="33.9688" style="stroke: #A80036; stroke-width: 1.5;" width="235" x="32.5" y="124.9219"/><text fill="#000000" font-family="sans-serif" font-size="12" lengthAdjust="spacingAndGlyphs" textLength="215" x="42.5" y="146.0605">const commands = idk.commands</text><rect fill="#FEFECE" filter="url(#fej78r73nno7u)" height="89.8438" style="stroke: #A80036; stroke-width: 1.5;" width="208" x="46" y="222.8906"/><line style="stroke: #A80036; stroke-width: 1.5;" x1="51" x2="51" y1="222.8906" y2="312.7344"/><line style="stroke: #A80036; stroke-width: 1.5;" x1="249" x2="249" y1="222.8906" y2="312.7344"/><text fill="#000000" font-family="sans-serif" font-size="12" lengthAdjust="spacingAndGlyphs" textLength="45" x="56" y="244.0293">require</text><text fill="#000000" font-family="sans-serif" font-size="12" lengthAdjust="spacingAndGlyphs" textLength="172" x="72" y="257.998">.ensure(commands[i].path)</text><text fill="#000000" font-family="sans-serif" font-size="12" lengthAdjust="spacingAndGlyphs" textLength="137" x="72" y="271.9668">.then((command)=&gt;{</text><text fill="#000000" font-family="sans-serif" font-size="12" lengthAdjust="spacingAndGlyphs" textLength="102" x="88" y="285.9355">command.help()</text><text fill="#000000" font-family="sans-serif" font-size="12" lengthAdjust="spacingAndGlyphs" textLength="17" x="72" y="299.9043">});</text><polygon fill="#FEFECE" filter="url(#fej78r73nno7u)" points="48,178.8906,252,178.8906,264,190.8906,252,202.8906,48,202.8906,36,190.8906,48,178.8906" style="stroke: #A80036; stroke-width: 1.5;"/><text fill="#000000" font-family="sans-serif" font-size="11" lengthAdjust="spacingAndGlyphs" textLength="204" x="48" y="194.6987">let i = 0; i &lt; commands.length; i++</text><ellipse cx="24" cy="232.8906" fill="#FFFFFF" filter="url(#fej78r73nno7u)" rx="10" ry="10" style="stroke: #000000; stroke-width: 1.5;"/><line style="stroke: #000000; stroke-width: 2.5;" x1="17.8128" x2="30.1872" y1="226.7034" y2="239.0778"/><line style="stroke: #000000; stroke-width: 2.5;" x1="30.1872" x2="17.8128" y1="226.7034" y2="239.0778"/><line style="stroke: #A80036; stroke-width: 1.5;" x1="150" x2="150" y1="50.9531" y2="70.9531"/><polygon fill="#A80036" points="146,60.9531,150,70.9531,154,60.9531,150,64.9531" style="stroke: #A80036; stroke-width: 1.0;"/><line style="stroke: #A80036; stroke-width: 1.5;" x1="150" x2="150" y1="104.9219" y2="124.9219"/><polygon fill="#A80036" points="146,114.9219,150,124.9219,154,114.9219,150,118.9219" style="stroke: #A80036; stroke-width: 1.0;"/><line style="stroke: #A80036; stroke-width: 1.5;" x1="150" x2="150" y1="202.8906" y2="222.8906"/><polygon fill="#A80036" points="146,212.8906,150,222.8906,154,212.8906,150,216.8906" style="stroke: #A80036; stroke-width: 1.0;"/><line style="stroke: #A80036; stroke-width: 1.5;" x1="150" x2="150" y1="312.7344" y2="322.7344"/><line style="stroke: #A80036; stroke-width: 1.5;" x1="150" x2="276" y1="322.7344" y2="322.7344"/><polygon fill="#A80036" points="272,265.8125,276,255.8125,280,265.8125,276,261.8125" style="stroke: #A80036; stroke-width: 1.5;"/><line style="stroke: #A80036; stroke-width: 1.5;" x1="276" x2="276" y1="190.8906" y2="322.7344"/><line style="stroke: #A80036; stroke-width: 1.5;" x1="276" x2="264" y1="190.8906" y2="190.8906"/><polygon fill="#A80036" points="274,186.8906,264,190.8906,274,194.8906,270,190.8906" style="stroke: #A80036; stroke-width: 1.0;"/><line style="stroke: #A80036; stroke-width: 1.5;" x1="36" x2="24" y1="190.8906" y2="190.8906"/><line style="stroke: #A80036; stroke-width: 1.5;" x1="24" x2="24" y1="190.8906" y2="222.8906"/><polygon fill="#A80036" points="20,212.8906,24,222.8906,28,212.8906,24,216.8906" style="stroke: #A80036; stroke-width: 1.0;"/><line style="stroke: #A80036; stroke-width: 1.5;" x1="150" x2="150" y1="158.8906" y2="178.8906"/><polygon fill="#A80036" points="146,168.8906,150,178.8906,154,168.8906,150,172.8906" style="stroke: #A80036; stroke-width: 1.0;"/><!--
@startuml HelpCommand
    title Help Command

    start
        : [[./Environment.svg idk]] /
        :const commands = idk.commands]
        while (let i = 0; i < commands.length; i++)
            :require
                .ensure(commands[i].path)
                .then((command)=>{
                    command.help()
                });|
        endwhile
    end
@enduml

PlantUML version 1.2019.09(Mon Aug 26 19:19:51 EEST 2019)
(GPL source distribution)
Java Runtime: Java(TM) SE Runtime Environment
JVM: Java HotSpot(TM) 64-Bit Server VM
Java Version: 1.8.0_201-b09
Operating System: Linux
OS Version: 4.15.0-55-generic
Default Encoding: UTF-8
Language: en
Country: US
--></g></svg>