<?xml version="1.0" encoding="UTF-8" standalone="no"?><svg xmlns="http://www.w3.org/2000/svg" xmlns:xlink="http://www.w3.org/1999/xlink" contentScriptType="application/ecmascript" contentStyleType="text/css" height="1001px" preserveAspectRatio="none" style="width:1649px;height:1001px;" version="1.1" viewBox="0 0 1649 1001" width="1649px" zoomAndPan="magnify"><defs><filter height="300%" id="fp764uhent8gu" width="300%" x="-1" y="-1"><feGaussianBlur result="blurOut" stdDeviation="2.0"/><feColorMatrix in="blurOut" result="blurOut2" type="matrix" values="0 0 0 0 0 0 0 0 0 0 0 0 0 0 0 0 0 0 .4 0"/><feOffset dx="4.0" dy="4.0" in="blurOut2" result="blurOut3"/><feBlend in="SourceGraphic" in2="blurOut3" mode="normal"/></filter></defs><g><text fill="#000000" font-family="sans-serif" font-size="18" lengthAdjust="spacingAndGlyphs" textLength="135" x="767" y="16.708">IDK Application</text><!--cluster NodeJS--><polygon fill="#FFFFFF" filter="url(#fp764uhent8gu)" points="30,63.4531,40,53.4531,1627,53.4531,1627,979.9531,1617,989.9531,30,989.9531,30,63.4531" style="stroke: #000000; stroke-width: 1.5;"/><line style="stroke: #000000; stroke-width: 1.5;" x1="1617" x2="1626" y1="63.4531" y2="54.4531"/><line style="stroke: #000000; stroke-width: 1.5;" x1="30" x2="1617" y1="63.4531" y2="63.4531"/><line style="stroke: #000000; stroke-width: 1.5;" x1="1617" x2="1617" y1="63.4531" y2="989.9531"/><text fill="#000000" font-family="sans-serif" font-size="14" font-weight="bold" lengthAdjust="spacingAndGlyphs" textLength="128" x="760.5" y="79.4482">Node.js Runtime</text><!--cluster idkPackage--><polygon fill="#FFFFFF" filter="url(#fp764uhent8gu)" points="159,109.4531,330,109.4531,337,131.75,1595,131.75,1595,957.9531,159,957.9531,159,109.4531" style="stroke: #000000; stroke-width: 1.5;"/><line style="stroke: #000000; stroke-width: 1.5;" x1="159" x2="337" y1="131.75" y2="131.75"/><text fill="#000000" font-family="sans-serif" font-size="14" font-weight="bold" lengthAdjust="spacingAndGlyphs" textLength="165" x="163" y="124.4482">@imazzine/idk@0.0.0</text><!--cluster node_modules--><rect fill="#FFFFFF" filter="url(#fp764uhent8gu)" height="737.5" style="stroke: #000000; stroke-width: 1.5;" width="1248" x="323" y="152.4531"/><path d="M447,153.4531 L447,161.75 L437,171.75 L323,171.75 " fill="none" style="stroke: #000000; stroke-width: 1.5;"/><text fill="#000000" font-family="sans-serif" font-size="14" font-weight="bold" lengthAdjust="spacingAndGlyphs" textLength="114" x="326" y="166.4482">node_modules</text><!--cluster CommanderPackage--><polygon fill="#FFFFFF" filter="url(#fp764uhent8gu)" points="641,203.4531,804,203.4531,811,225.75,814,225.75,814,428.9531,641,428.9531,641,203.4531" style="stroke: #000000; stroke-width: 1.5;"/><line style="stroke: #000000; stroke-width: 1.5;" x1="641" x2="811" y1="225.75" y2="225.75"/><text fill="#000000" font-family="sans-serif" font-size="14" font-weight="bold" lengthAdjust="spacingAndGlyphs" textLength="157" x="645" y="218.4482">commander@2.20.0</text><!--cluster HelpPackage--><polygon fill="#FFFFFF" filter="url(#fp764uhent8gu)" points="402,468.9531,612,468.9531,619,491.25,622,491.25,622,571.9531,402,571.9531,402,468.9531" style="stroke: #000000; stroke-width: 1.5;"/><line style="stroke: #000000; stroke-width: 1.5;" x1="402" x2="619" y1="491.25" y2="491.25"/><text fill="#000000" font-family="sans-serif" font-size="14" font-weight="bold" lengthAdjust="spacingAndGlyphs" textLength="204" x="406" y="483.9482">@imazzine/idk.help@0.0.0</text><!--cluster VersionPackage--><polygon fill="#FFFFFF" filter="url(#fp764uhent8gu)" points="414,611.9531,649,611.9531,656,634.25,659,634.25,659,714.9531,414,714.9531,414,611.9531" style="stroke: #000000; stroke-width: 1.5;"/><line style="stroke: #000000; stroke-width: 1.5;" x1="414" x2="656" y1="634.25" y2="634.25"/><text fill="#000000" font-family="sans-serif" font-size="14" font-weight="bold" lengthAdjust="spacingAndGlyphs" textLength="229" x="418" y="626.9482">@imazzine/idk.version@0.0.0</text><!--cluster CommandsPackage--><polygon fill="#FFFFFF" filter="url(#fp764uhent8gu)" points="355,754.9531,616,754.9531,623,777.25,626,777.25,626,857.9531,355,857.9531,355,754.9531" style="stroke: #000000; stroke-width: 1.5;"/><line style="stroke: #000000; stroke-width: 1.5;" x1="355" x2="623" y1="777.25" y2="777.25"/><text fill="#000000" font-family="sans-serif" font-size="14" font-weight="bold" lengthAdjust="spacingAndGlyphs" textLength="255" x="359" y="769.9482">@imazzine/idk.commands@0.0.0</text><!--cluster ProjectsPackage--><polygon fill="#FFFFFF" filter="url(#fp764uhent8gu)" points="783,468.9531,1024,468.9531,1031,491.25,1034,491.25,1034,571.9531,783,571.9531,783,468.9531" style="stroke: #000000; stroke-width: 1.5;"/><line style="stroke: #000000; stroke-width: 1.5;" x1="783" x2="1031" y1="491.25" y2="491.25"/><text fill="#000000" font-family="sans-serif" font-size="14" font-weight="bold" lengthAdjust="spacingAndGlyphs" textLength="235" x="787" y="483.9482">@imazzine/idk.projects@0.0.0</text><!--cluster ListPackage--><polygon fill="#FFFFFF" filter="url(#fp764uhent8gu)" points="722,611.9531,921,611.9531,928,634.25,931,634.25,931,714.9531,722,714.9531,722,611.9531" style="stroke: #000000; stroke-width: 1.5;"/><line style="stroke: #000000; stroke-width: 1.5;" x1="722" x2="928" y1="634.25" y2="634.25"/><text fill="#000000" font-family="sans-serif" font-size="14" font-weight="bold" lengthAdjust="spacingAndGlyphs" textLength="193" x="726" y="626.9482">@imazzine/idk.list@0.0.0</text><!--cluster LintPackage--><polygon fill="#FFFFFF" filter="url(#fp764uhent8gu)" points="666,754.9531,866,754.9531,873,777.25,876,777.25,876,857.9531,666,857.9531,666,754.9531" style="stroke: #000000; stroke-width: 1.5;"/><line style="stroke: #000000; stroke-width: 1.5;" x1="666" x2="873" y1="777.25" y2="777.25"/><text fill="#000000" font-family="sans-serif" font-size="14" font-weight="bold" lengthAdjust="spacingAndGlyphs" textLength="194" x="670" y="769.9482">@imazzine/idk.lint@0.0.0</text><!--cluster TestPackage--><polygon fill="#FFFFFF" filter="url(#fp764uhent8gu)" points="1074,468.9531,1281,468.9531,1288,491.25,1291,491.25,1291,571.9531,1074,571.9531,1074,468.9531" style="stroke: #000000; stroke-width: 1.5;"/><line style="stroke: #000000; stroke-width: 1.5;" x1="1074" x2="1288" y1="491.25" y2="491.25"/><text fill="#000000" font-family="sans-serif" font-size="14" font-weight="bold" lengthAdjust="spacingAndGlyphs" textLength="201" x="1078" y="483.9482">@imazzine/idk.test@0.0.0</text><!--cluster DocumentPackage--><polygon fill="#FFFFFF" filter="url(#fp764uhent8gu)" points="996,611.9531,1251,611.9531,1258,634.25,1261,634.25,1261,714.9531,996,714.9531,996,611.9531" style="stroke: #000000; stroke-width: 1.5;"/><line style="stroke: #000000; stroke-width: 1.5;" x1="996" x2="1258" y1="634.25" y2="634.25"/><text fill="#000000" font-family="sans-serif" font-size="14" font-weight="bold" lengthAdjust="spacingAndGlyphs" textLength="249" x="1000" y="626.9482">@imazzine/idk.document@0.0.0</text><!--cluster CompilePackage--><polygon fill="#FFFFFF" filter="url(#fp764uhent8gu)" points="916,754.9531,1153,754.9531,1160,777.25,1163,777.25,1163,857.9531,916,857.9531,916,754.9531" style="stroke: #000000; stroke-width: 1.5;"/><line style="stroke: #000000; stroke-width: 1.5;" x1="916" x2="1160" y1="777.25" y2="777.25"/><text fill="#000000" font-family="sans-serif" font-size="14" font-weight="bold" lengthAdjust="spacingAndGlyphs" textLength="231" x="920" y="769.9482">@imazzine/idk.compile@0.0.0</text><!--cluster BuildPackage--><polygon fill="#FFFFFF" filter="url(#fp764uhent8gu)" points="1323,476.9531,1537,476.9531,1544,499.25,1547,499.25,1547,563.9531,1323,563.9531,1323,476.9531" style="stroke: #000000; stroke-width: 1.5;"/><line style="stroke: #000000; stroke-width: 1.5;" x1="1323" x2="1544" y1="499.25" y2="499.25"/><text fill="#000000" font-family="sans-serif" font-size="14" font-weight="bold" lengthAdjust="spacingAndGlyphs" textLength="208" x="1327" y="491.9482">@imazzine/idk.build@0.0.0</text><!--entity Environment--><a href="./Environment.svg" target="_top" xlink:actuate="onRequest" xlink:show="new" xlink:title="./Environment.svg" xlink:type="simple"><path d="M73.5,251.9531 C73.5,241.9531 108,241.9531 108,241.9531 C108,241.9531 142.5,241.9531 142.5,251.9531 L142.5,277.25 C142.5,287.25 108,287.25 108,287.25 C108,287.25 73.5,287.25 73.5,277.25 L73.5,251.9531 " fill="#FEFECE" filter="url(#fp764uhent8gu)" style="stroke: #000000; stroke-width: 1.5;"/><path d="M73.5,251.9531 C73.5,261.9531 108,261.9531 108,261.9531 C108,261.9531 142.5,261.9531 142.5,251.9531 " fill="none" style="stroke: #000000; stroke-width: 1.5;"/><text fill="#000000" font-family="sans-serif" font-size="14" lengthAdjust="spacingAndGlyphs" textLength="49" x="83.5" y="278.9482">env.idk</text></a><!--entity IDKCommandInterface--><a href="./IDKCommandInterface.svg" target="_top" xlink:actuate="onRequest" xlink:show="new" xlink:title="./IDKCommandInterface.svg" xlink:type="simple"><ellipse cx="1225" cy="923.9531" fill="#C9FFC7" filter="url(#fp764uhent8gu)" rx="8" ry="8" style="stroke: #A80036; stroke-width: 2.0;"/><text fill="#000000" font-family="sans-serif" font-size="14" lengthAdjust="spacingAndGlyphs" textLength="98" x="1176" y="953.9482">IDK Command</text></a><!--entity ConfigurationDB--><path d="M185,660.4531 C185,650.4531 241,650.4531 241,650.4531 C241,650.4531 297,650.4531 297,660.4531 L297,685.75 C297,695.75 241,695.75 241,695.75 C241,695.75 185,695.75 185,685.75 L185,660.4531 " fill="#FEFECE" filter="url(#fp764uhent8gu)" style="stroke: #000000; stroke-width: 1.5;"/><path d="M185,660.4531 C185,670.4531 241,670.4531 241,670.4531 C241,670.4531 297,670.4531 297,660.4531 " fill="none" style="stroke: #000000; stroke-width: 1.5;"/><text fill="#000000" font-family="sans-serif" font-size="14" lengthAdjust="spacingAndGlyphs" textLength="92" x="195" y="687.4482">package.json</text><!--entity ConfigurationAPI--><a href="./ConfigurationAPI.svg" target="_top" xlink:actuate="onRequest" xlink:show="new" xlink:title="./ConfigurationAPI.svg" xlink:type="simple"><ellipse cx="241" cy="815.9531" fill="#FFC7FD" filter="url(#fp764uhent8gu)" rx="8" ry="8" style="stroke: #A80036; stroke-width: 2.0;"/><text fill="#000000" font-family="sans-serif" font-size="14" lengthAdjust="spacingAndGlyphs" textLength="117" x="182.5" y="845.9482">Configuration API</text></a><!--entity process--><a href="https://nodejs.org/dist/latest-v10.x/docs/api/process.html" target="_top" xlink:actuate="onRequest" xlink:show="new" xlink:title="https://nodejs.org/dist/latest-v10.x/docs/api/process.html" xlink:type="simple"><ellipse cx="184" cy="923.9531" fill="#FFC7FD" filter="url(#fp764uhent8gu)" rx="8" ry="8" style="stroke: #A80036; stroke-width: 2.0;"/><text fill="#000000" font-family="sans-serif" font-size="14" lengthAdjust="spacingAndGlyphs" textLength="56" x="156" y="953.9482">process</text></a><!--entity IDKExecutor--><a href="./IDKExecutor.svg" target="_top" xlink:actuate="onRequest" xlink:show="new" xlink:title="./IDKExecutor.svg" xlink:type="simple"><rect fill="#FEFECE" filter="url(#fp764uhent8gu)" height="36.2969" style="stroke: #A80036; stroke-width: 1.5;" width="108" x="228" y="905.9531"/><rect fill="#FEFECE" height="5" style="stroke: #A80036; stroke-width: 1.5;" width="10" x="223" y="910.9531"/><rect fill="#FEFECE" height="5" style="stroke: #A80036; stroke-width: 1.5;" width="10" x="223" y="932.25"/><text fill="#000000" font-family="sans-serif" font-size="14" lengthAdjust="spacingAndGlyphs" textLength="88" x="238" y="928.9482">IDK Executor</text></a><!--entity CommanderComponent--><a href="https://www.npmjs.com/package/commander" target="_top" xlink:actuate="onRequest" xlink:show="new" xlink:title="https://www.npmjs.com/package/commander" xlink:type="simple"><rect fill="#FEFECE" filter="url(#fp764uhent8gu)" height="36.2969" style="stroke: #A80036; stroke-width: 1.5;" width="105" x="665.5" y="246.4531"/><rect fill="#FEFECE" height="5" style="stroke: #A80036; stroke-width: 1.5;" width="10" x="660.5" y="251.4531"/><rect fill="#FEFECE" height="5" style="stroke: #A80036; stroke-width: 1.5;" width="10" x="660.5" y="272.75"/><text fill="#000000" font-family="sans-serif" font-size="14" lengthAdjust="spacingAndGlyphs" textLength="85" x="675.5" y="269.4482">Commander</text></a><!--entity CommandAPI--><a href="http://tj.github.io/commander.js/#Command" target="_top" xlink:actuate="onRequest" xlink:show="new" xlink:title="http://tj.github.io/commander.js/#Command" xlink:type="simple"><ellipse cx="721" cy="375.9531" fill="#FFC7FD" filter="url(#fp764uhent8gu)" rx="8" ry="8" style="stroke: #A80036; stroke-width: 2.0;"/><text fill="#000000" font-family="sans-serif" font-size="14" lengthAdjust="spacingAndGlyphs" textLength="96" x="673" y="405.9482">Command API</text></a><!--entity HelpCommand--><a href="./HelpCommand.svg" target="_top" xlink:actuate="onRequest" xlink:show="new" xlink:title="./HelpCommand.svg" xlink:type="simple"><rect fill="#FEFECE" filter="url(#fp764uhent8gu)" height="36.2969" style="stroke: #A80036; stroke-width: 1.5;" width="126" x="472" y="511.9531"/><rect fill="#FEFECE" height="5" style="stroke: #A80036; stroke-width: 1.5;" width="10" x="467" y="516.9531"/><rect fill="#FEFECE" height="5" style="stroke: #A80036; stroke-width: 1.5;" width="10" x="467" y="538.25"/><text fill="#000000" font-family="sans-serif" font-size="14" lengthAdjust="spacingAndGlyphs" textLength="106" x="482" y="534.9482">Help Command</text></a><!--entity VersionCommand--><a href="./VersionCommand.svg" target="_top" xlink:actuate="onRequest" xlink:show="new" xlink:title="./VersionCommand.svg" xlink:type="simple"><rect fill="#FEFECE" filter="url(#fp764uhent8gu)" height="36.2969" style="stroke: #A80036; stroke-width: 1.5;" width="147" x="487.5" y="654.9531"/><rect fill="#FEFECE" height="5" style="stroke: #A80036; stroke-width: 1.5;" width="10" x="482.5" y="659.9531"/><rect fill="#FEFECE" height="5" style="stroke: #A80036; stroke-width: 1.5;" width="10" x="482.5" y="681.25"/><text fill="#000000" font-family="sans-serif" font-size="14" lengthAdjust="spacingAndGlyphs" textLength="127" x="497.5" y="677.9482">Version Command</text></a><!--entity CommandsCommand--><a href="./CommandsCommand.svg" target="_top" xlink:actuate="onRequest" xlink:show="new" xlink:title="./CommandsCommand.svg" xlink:type="simple"><rect fill="#FEFECE" filter="url(#fp764uhent8gu)" height="36.2969" style="stroke: #A80036; stroke-width: 1.5;" width="174" x="379" y="797.9531"/><rect fill="#FEFECE" height="5" style="stroke: #A80036; stroke-width: 1.5;" width="10" x="374" y="802.9531"/><rect fill="#FEFECE" height="5" style="stroke: #A80036; stroke-width: 1.5;" width="10" x="374" y="824.25"/><text fill="#000000" font-family="sans-serif" font-size="14" lengthAdjust="spacingAndGlyphs" textLength="154" x="389" y="820.9482">Commands Command</text></a><!--entity ProjectsCommand--><a href="./ProjectsCommand.svg" target="_top" xlink:actuate="onRequest" xlink:show="new" xlink:title="./ProjectsCommand.svg" xlink:type="simple"><rect fill="#FEFECE" filter="url(#fp764uhent8gu)" height="36.2969" style="stroke: #A80036; stroke-width: 1.5;" width="151" x="807.5" y="511.9531"/><rect fill="#FEFECE" height="5" style="stroke: #A80036; stroke-width: 1.5;" width="10" x="802.5" y="516.9531"/><rect fill="#FEFECE" height="5" style="stroke: #A80036; stroke-width: 1.5;" width="10" x="802.5" y="538.25"/><text fill="#000000" font-family="sans-serif" font-size="14" lengthAdjust="spacingAndGlyphs" textLength="131" x="817.5" y="534.9482">Projects Command</text></a><!--entity ListCommand--><a href="./ListCommand.svg" target="_top" xlink:actuate="onRequest" xlink:show="new" xlink:title="./ListCommand.svg" xlink:type="simple"><rect fill="#FEFECE" filter="url(#fp764uhent8gu)" height="36.2969" style="stroke: #A80036; stroke-width: 1.5;" width="118" x="758" y="654.9531"/><rect fill="#FEFECE" height="5" style="stroke: #A80036; stroke-width: 1.5;" width="10" x="753" y="659.9531"/><rect fill="#FEFECE" height="5" style="stroke: #A80036; stroke-width: 1.5;" width="10" x="753" y="681.25"/><text fill="#000000" font-family="sans-serif" font-size="14" lengthAdjust="spacingAndGlyphs" textLength="98" x="768" y="677.9482">List Command</text></a><!--entity LintCommand--><a href="./LintCommand.svg" target="_top" xlink:actuate="onRequest" xlink:show="new" xlink:title="./LintCommand.svg" xlink:type="simple"><rect fill="#FEFECE" filter="url(#fp764uhent8gu)" height="36.2969" style="stroke: #A80036; stroke-width: 1.5;" width="119" x="702.5" y="797.9531"/><rect fill="#FEFECE" height="5" style="stroke: #A80036; stroke-width: 1.5;" width="10" x="697.5" y="802.9531"/><rect fill="#FEFECE" height="5" style="stroke: #A80036; stroke-width: 1.5;" width="10" x="697.5" y="824.25"/><text fill="#000000" font-family="sans-serif" font-size="14" lengthAdjust="spacingAndGlyphs" textLength="99" x="712.5" y="820.9482">Lint Command</text></a><!--entity TestCommand--><a href="./TestCommand.svg" target="_top" xlink:actuate="onRequest" xlink:show="new" xlink:title="./TestCommand.svg" xlink:type="simple"><rect fill="#FEFECE" filter="url(#fp764uhent8gu)" height="36.2969" style="stroke: #A80036; stroke-width: 1.5;" width="126" x="1098" y="511.9531"/><rect fill="#FEFECE" height="5" style="stroke: #A80036; stroke-width: 1.5;" width="10" x="1093" y="516.9531"/><rect fill="#FEFECE" height="5" style="stroke: #A80036; stroke-width: 1.5;" width="10" x="1093" y="538.25"/><text fill="#000000" font-family="sans-serif" font-size="14" lengthAdjust="spacingAndGlyphs" textLength="106" x="1108" y="534.9482">Test Command</text></a><!--entity DocumentCommand--><a href="./DocumentCommand.svg" target="_top" xlink:actuate="onRequest" xlink:show="new" xlink:title="./DocumentCommand.svg" xlink:type="simple"><rect fill="#FEFECE" filter="url(#fp764uhent8gu)" height="36.2969" style="stroke: #A80036; stroke-width: 1.5;" width="168" x="1035" y="654.9531"/><rect fill="#FEFECE" height="5" style="stroke: #A80036; stroke-width: 1.5;" width="10" x="1030" y="659.9531"/><rect fill="#FEFECE" height="5" style="stroke: #A80036; stroke-width: 1.5;" width="10" x="1030" y="681.25"/><text fill="#000000" font-family="sans-serif" font-size="14" lengthAdjust="spacingAndGlyphs" textLength="148" x="1045" y="677.9482">Document Command</text></a><!--entity CompileCommand--><a href="./CompileCommand.svg" target="_top" xlink:actuate="onRequest" xlink:show="new" xlink:title="./CompileCommand.svg" xlink:type="simple"><rect fill="#FEFECE" filter="url(#fp764uhent8gu)" height="36.2969" style="stroke: #A80036; stroke-width: 1.5;" width="151" x="953.5" y="797.9531"/><rect fill="#FEFECE" height="5" style="stroke: #A80036; stroke-width: 1.5;" width="10" x="948.5" y="802.9531"/><rect fill="#FEFECE" height="5" style="stroke: #A80036; stroke-width: 1.5;" width="10" x="948.5" y="824.25"/><text fill="#000000" font-family="sans-serif" font-size="14" lengthAdjust="spacingAndGlyphs" textLength="131" x="963.5" y="820.9482">Compile Command</text></a><!--entity BuildCommand--><a href="./BuildCommand.svg" target="_top" xlink:actuate="onRequest" xlink:show="new" xlink:title="./BuildCommand.svg" xlink:type="simple"><rect fill="#FEFECE" filter="url(#fp764uhent8gu)" height="36.2969" style="stroke: #A80036; stroke-width: 1.5;" width="129" x="1342.5" y="511.9531"/><rect fill="#FEFECE" height="5" style="stroke: #A80036; stroke-width: 1.5;" width="10" x="1337.5" y="516.9531"/><rect fill="#FEFECE" height="5" style="stroke: #A80036; stroke-width: 1.5;" width="10" x="1337.5" y="538.25"/><text fill="#000000" font-family="sans-serif" font-size="14" lengthAdjust="spacingAndGlyphs" textLength="109" x="1352.5" y="534.9482">Build Command</text></a><!--link NodeJS to Environment--><path d="M38.5469,264.4531 C50.1224,264.4531 61.6979,264.4531 73.2734,264.4531 " fill="none" id="NodeJS-Environment" style="stroke: #A80036; stroke-width: 1.0;"/><polygon fill="#A80036" points="38.5469,264.4531,44.5469,268.4531,50.5469,264.4531,44.5469,260.4531,38.5469,264.4531" style="stroke: #A80036; stroke-width: 1.0;"/><text fill="#000000" font-family="sans-serif" font-size="13" lengthAdjust="spacingAndGlyphs" textLength="8" x="30.5469" y="261.52">1</text><text fill="#000000" font-family="sans-serif" font-size="13" lengthAdjust="spacingAndGlyphs" textLength="8" x="57.286" y="259.9562">1</text><!--link CommanderComponent to CommandAPI--><path d="M718.469,282.5621 C719.125,306.5021 720.29,349.0511 720.777,366.8121 " fill="none" id="CommanderComponent-CommandAPI" style="stroke: #A80036; stroke-width: 1.0;"/><!--link CommandAPI to HelpCommand--><path d="M703.656,391.1271 C669.398,419.1221 593.167,481.4191 556.079,511.7271 " fill="none" id="CommandAPI-HelpCommand" style="stroke: #A80036; stroke-width: 1.0;"/><path d="M704.0409,379.8902 A9,9 0 0 0 714.744 392.9876" fill="none" style="stroke: #A80036; stroke-width: 1.5;"/><!--link HelpCommand to IDKCommandInterface--><path d="M595.182,547.9771 C646.688,561.6691 723.062,579.9051 791,587.9531 C804.187,589.5151 1259.69,586.4851 1269,595.9531 C1292.5,619.8531 1255.15,893.7021 1253,897.9531 C1248.82,906.2091 1240.66,912.9981 1234.23,917.4071 " fill="none" id="HelpCommand-IDKCommandInterface" style="stroke: #A80036; stroke-width: 1.0;"/><!--link CommanderPackage to HelpPackage--><!--link CommandAPI to VersionCommand--><path d="M709.908,393.9461 C700.194,409.1291 685.957,432.1271 675,452.9531 C644.343,511.2211 645.197,529.9721 614,587.9531 C601.172,611.7931 584.145,637.9861 572.893,654.6781 " fill="none" id="CommandAPI-VersionCommand" style="stroke: #A80036; stroke-width: 1.0;"/><path d="M706.7847,383.1951 A9,9 0 0 0 720.993 392.3725" fill="none" style="stroke: #A80036; stroke-width: 1.5;"/><!--link VersionCommand to IDKCommandInterface--><path d="M603.312,691.0811 C639.47,704.7881 693.229,722.9891 742,730.9531 C753.763,732.8741 1162.09,731.0411 1171,738.9531 C1224.35,786.3131 1157.4,836.1331 1193,897.9531 C1198.28,907.1171 1208.36,914.1249 1215.8,918.3573 " fill="none" id="VersionCommand-IDKCommandInterface" style="stroke: #A80036; stroke-width: 1.0;"/><!--link HelpPackage to VersionPackage--><!--link CommandAPI to CommandsCommand--><path d="M711.453,394.2781 C701.332,410.6901 683.679,434.3551 661,444.9531 C645.795,452.0591 370.71,440.9291 359,452.9531 C355.397,456.6531 357.936,727.5411 360,730.9531 C363.91,737.4181 368.734,734.7311 375,738.9531 C401.801,757.0101 429.955,781.5041 447.723,797.7471 " fill="none" id="CommandAPI-CommandsCommand" style="stroke: #A80036; stroke-width: 1.0;"/><path d="M707.9035,383.5772 A9,9 0 0 0 722.5154 392.0973" fill="none" style="stroke: #A80036; stroke-width: 1.5;"/><!--link CommandsCommand to IDKCommandInterface--><path d="M478.896,834.0391 C494.801,853.5881 523.837,884.6161 557,897.9531 C620.796,923.6092 1138.99,923.1882 1215.56,922.9844 " fill="none" id="CommandsCommand-IDKCommandInterface" style="stroke: #A80036; stroke-width: 1.0;"/><!--link VersionPackage to CommandsPackage--><!--link CommandAPI to ProjectsCommand--><path d="M737.321,392.2671 C767.784,420.8491 833.081,482.1161 864.869,511.9411 " fill="none" id="CommandAPI-ProjectsCommand" style="stroke: #A80036; stroke-width: 1.0;"/><path d="M726.1688,393.3992 A9,9 0 0 0 737.7412 381.0631" fill="none" style="stroke: #A80036; stroke-width: 1.5;"/><!--link ProjectsCommand to IDKCommandInterface--><path d="M900.048,548.0231 C914.962,561.6941 937.952,579.8751 962,587.9531 C980.227,594.0761 1294.56,582.2011 1308,595.9531 C1354.9,643.9531 1348.03,844.0881 1308,897.9531 C1290.59,921.386 1251.9,923.6604 1234.18,923.3876 " fill="none" id="ProjectsCommand-IDKCommandInterface" style="stroke: #A80036; stroke-width: 1.0;"/><!--link CommanderPackage to ProjectsPackage--><!--link CommandAPI to ListCommand--><path d="M720.174,395.4381 C719.174,433.2531 720.408,521.4841 749,587.9531 C760.344,614.3241 782.417,639.1781 798.343,654.9081 " fill="none" id="CommandAPI-ListCommand" style="stroke: #A80036; stroke-width: 1.0;"/><path d="M711.9832,387.7973 A9,9 0 0 0 728.8869 388.4014" fill="none" style="stroke: #A80036; stroke-width: 1.5;"/><!--link ListCommand to IDKCommandInterface--><path d="M829.892,690.9531 C841.358,704.5821 859.456,722.7401 880,730.9531 C896.358,737.4931 1183.78,727.3041 1197,738.9531 C1223.78,762.5641 1225.19,882.5361 1225.07,914.8995 " fill="none" id="ListCommand-IDKCommandInterface" style="stroke: #A80036; stroke-width: 1.0;"/><!--link ProjectsPackage to ListPackage--><!--link CommandAPI to LintCommand--><path d="M711.446,394.2611 C701.318,410.6601 683.661,434.3161 661,444.9531 C647.566,451.2591 404.335,442.3041 394,452.9531 C350.936,497.3271 361.225,688.3051 406,730.9531 C415.178,739.6951 621.838,735.3841 634,738.9531 C675.165,751.0331 716.765,779.4031 740.926,797.8571 " fill="none" id="CommandAPI-LintCommand" style="stroke: #A80036; stroke-width: 1.0;"/><path d="M707.9008,383.5624 A9,9 0 0 0 722.5061 392.0937" fill="none" style="stroke: #A80036; stroke-width: 1.5;"/><!--link LintCommand to IDKCommandInterface--><path d="M769.834,834.1301 C779.675,853.4561 798.537,883.9711 825,897.9531 C860.605,916.7657 1158.92,921.9978 1215.69,922.8269 " fill="none" id="LintCommand-IDKCommandInterface" style="stroke: #A80036; stroke-width: 1.0;"/><!--link ListPackage to LintPackage--><!--link CommandAPI to TestCommand--><path d="M740.206,379.2151 C791.128,385.6911 933.134,406.8721 1042,452.9531 C1078.35,468.3371 1116.04,494.4311 1139.02,511.6791 " fill="none" id="CommandAPI-TestCommand" style="stroke: #A80036; stroke-width: 1.0;"/><path d="M732.0474,386.7347 A9,9 0 0 0 734.1109 369.9466" fill="none" style="stroke: #A80036; stroke-width: 1.5;"/><!--link TestCommand to IDKCommandInterface--><path d="M1175.28,548.0061 C1187.69,561.4721 1206.92,579.3731 1228,587.9531 C1240.07,592.8661 1336.11,586.4301 1345,595.9531 C1390.81,645.0001 1387.34,845.8831 1345,897.9531 C1330.97,915.2071 1259.87,920.9516 1234.23,922.4792 " fill="none" id="TestCommand-IDKCommandInterface" style="stroke: #A80036; stroke-width: 1.0;"/><!--link CommanderPackage to TestPackage--><!--link CommandAPI to DocumentCommand--><path d="M726.659,394.9011 C742.6,445.3371 786.981,584.8841 791,587.9531 C804.088,597.9491 922.953,592.2511 939,595.9531 C993.703,608.5741 1052.91,636.6401 1087.93,654.9061 " fill="none" id="CommandAPI-DocumentCommand" style="stroke: #A80036; stroke-width: 1.0;"/><path d="M716.4223,390.5663 A9,9 0 0 0 732.5516 385.4726" fill="none" style="stroke: #A80036; stroke-width: 1.5;"/><!--link DocumentCommand to IDKCommandInterface--><path d="M1141.48,691.1041 C1158.67,703.5581 1183.36,720.0681 1207,730.9531 C1218.37,736.1871 1226.51,728.9241 1234,738.9531 C1275.33,794.3071 1240.51,887.2431 1228.62,914.9346 " fill="none" id="DocumentCommand-IDKCommandInterface" style="stroke: #A80036; stroke-width: 1.0;"/><!--link TestPackage to DocumentPackage--><!--link CommandAPI to CompileCommand--><path d="M714.673,394.8681 C695.06,454.0001 642.367,644.1201 742,730.9531 C753.913,741.3361 868.768,734.7451 884,738.9531 C929.34,751.4781 976.658,779.5721 1004.448,797.8701 " fill="none" id="CommandAPI-CompileCommand" style="stroke: #A80036; stroke-width: 1.0;"/><path d="M709.0047,385.307 A9,9 0 0 0 725.0091 390.7804" fill="none" style="stroke: #A80036; stroke-width: 1.5;"/><!--link CompileCommand to IDKCommandInterface--><path d="M1040.84,834.1071 C1054.71,852.8181 1079.45,882.2001 1108,897.9531 C1144.37,918.0225 1195.32,921.9922 1215.87,922.7687 " fill="none" id="CompileCommand-IDKCommandInterface" style="stroke: #A80036; stroke-width: 1.0;"/><!--link DocumentPackage to CompilePackage--><!--link CommandAPI to BuildCommand--><path d="M740.382,378.2531 C828.692,384.3621 1193.2,411.6751 1299,452.9531 C1334.03,466.6191 1368.5,493.9661 1388.75,511.8561 " fill="none" id="CommandAPI-BuildCommand" style="stroke: #A80036; stroke-width: 1.0;"/><path d="M732.702,386.2051 A9,9 0 0 0 733.8521 369.3298" fill="none" style="stroke: #A80036; stroke-width: 1.5;"/><!--link BuildCommand to IDKCommandInterface--><path d="M1411.58,548.0231 C1425.99,605.9481 1464.1,797.0031 1370,897.9531 C1351.45,917.854 1263.39,921.9455 1234.33,922.7585 " fill="none" id="BuildCommand-IDKCommandInterface" style="stroke: #A80036; stroke-width: 1.0;"/><!--link ConfigurationDB to ConfigurationAPI--><path d="M241,695.6751 C241,727.5021 241,785.3431 241,806.7221 " fill="none" id="ConfigurationDB-ConfigurationAPI" style="stroke: #A80036; stroke-width: 1.0;"/><!--link ConfigurationAPI to IDKExecutor--><path d="M247.831,834.6141 C255.471,854.3661 267.764,886.1481 275.336,905.7231 " fill="none" id="ConfigurationAPI-IDKExecutor" style="stroke: #A80036; stroke-width: 1.0;"/><path d="M237.4394,831.1926 A9,9 0 0 0 253.2152 825.0916" fill="none" style="stroke: #A80036; stroke-width: 1.5;"/><!--link IDKExecutor to IDKCommandInterface--><path d="M336.333,923.9531 C626.082,923.9531 915.831,923.9531 1205.58,923.9531 " fill="none" id="IDKExecutor-IDKCommandInterface" style="stroke: #A80036; stroke-width: 1.0;"/><path d="M1212.8118,915.4959 A9,9 0 0 0 1212.8118 932.4104" fill="none" style="stroke: #A80036; stroke-width: 1.5;"/><!--link process to IDKExecutor--><path d="M203.216,923.9531 C211.437,923.9531 219.659,923.9531 227.88,923.9531 " fill="none" id="process-IDKExecutor" style="stroke: #A80036; stroke-width: 1.0;"/><path d="M196.2674,932.4099 A9,9 0 0 0 196.265 915.4955" fill="none" style="stroke: #A80036; stroke-width: 1.5;"/><!--link NodeJS to process--><path d="M38.037,265.5581 C39.5813,269.9541 89,411.5321 89,528.9531 C89,528.9531 89,528.9531 89,673.9531 C89,777.9951 101.7974,809.7641 157,897.9531 C161.61,905.3171 168.942,911.9131 174.803,916.4779 " fill="none" id="NodeJS-process" style="stroke: #A80036; stroke-width: 1.0;"/><!--
@startuml IDKApplication
    title IDK Application

    node "Node.js Runtime" as NodeJS {
        database "env.idk" as Environment [[./Environment.svg]]
        NodeJS "1" *- "1" Environment
        package "@imazzine/idk@0.0.0" as idkPackage {
            interface "IDK Command" as IDKCommandInterface [[./IDKCommandInterface.svg]] #c9ffc7
            frame "node_modules" as node_modules {

                package "commander@2.20.0" as CommanderPackage {
                    component "Commander" as CommanderComponent [[https://www.npmjs.com/package/commander]]
                    interface "Command API" as CommandAPI [[http://tj.github.io/commander.js/#Command]] #ffc7fd
                    CommanderComponent - - CommandAPI
                }

                package "@imazzine/idk.help@0.0.0" as HelpPackage {
                    component "Help Command" as HelpCommand [[./HelpCommand.svg]]
                    CommandAPI )- - HelpCommand
                    HelpCommand - - IDKCommandInterface
                }
                CommanderPackage -[hidden]- HelpPackage

                package "@imazzine/idk.version@0.0.0" as VersionPackage {
                    component "Version Command" as VersionCommand [[./VersionCommand.svg]]
                    CommandAPI )- - VersionCommand
                    VersionCommand - - IDKCommandInterface
                }
                HelpPackage -[hidden]- VersionPackage

                package "@imazzine/idk.commands@0.0.0" as CommandsPackage {
                    component "Commands Command" as CommandsCommand [[./CommandsCommand.svg]]
                    CommandAPI )- - CommandsCommand
                    CommandsCommand - - IDKCommandInterface
                }
                VersionPackage -[hidden]- CommandsPackage

                package "@imazzine/idk.projects@0.0.0" as ProjectsPackage {
                    component "Projects Command" as ProjectsCommand [[./ProjectsCommand.svg]]
                    CommandAPI )- - ProjectsCommand  
                    ProjectsCommand - - IDKCommandInterface
                }
                CommanderPackage -[hidden]- ProjectsPackage

                package "@imazzine/idk.list@0.0.0" as ListPackage {
                    component "List Command" as ListCommand [[./ListCommand.svg]]
                    CommandAPI )- - ListCommand
                    ListCommand - - IDKCommandInterface
                }
                ProjectsPackage -[hidden]- ListPackage

                package "@imazzine/idk.lint@0.0.0" as LintPackage {
                    component "Lint Command" as LintCommand [[./LintCommand.svg]]
                    CommandAPI )- - LintCommand
                    LintCommand - - IDKCommandInterface
                }
                ListPackage -[hidden]- LintPackage

                package "@imazzine/idk.test@0.0.0" as TestPackage {
                    component "Test Command" as TestCommand [[./TestCommand.svg]]
                    CommandAPI )- - TestCommand
                    TestCommand - - IDKCommandInterface
                }
                CommanderPackage -[hidden]- TestPackage

                package "@imazzine/idk.document@0.0.0" as DocumentPackage {
                    component "Document Command" as DocumentCommand [[./DocumentCommand.svg]]
                    CommandAPI )- - DocumentCommand
                    DocumentCommand - - IDKCommandInterface
                }
                TestPackage -[hidden]- DocumentPackage

                package "@imazzine/idk.compile@0.0.0" as CompilePackage {
                    component "Compile Command" as CompileCommand [[./CompileCommand.svg]]
                    CommandAPI )- - CompileCommand
                    CompileCommand - - IDKCommandInterface
                }
                DocumentPackage -[hidden]- CompilePackage

                package "@imazzine/idk.build@0.0.0" as BuildPackage {
                    component "Build Command" as BuildCommand [[./BuildCommand.svg]]
                    CommandAPI )- - BuildCommand
                    BuildCommand - - IDKCommandInterface
                }
            }
            database "package.json" as ConfigurationDB
            interface "Configuration API" as ConfigurationAPI [[./ConfigurationAPI.svg]] #ffc7fd
            ConfigurationDB - - ConfigurationAPI

            interface "process" as process [[https://nodejs.org/dist/latest-v10.x/docs/api/process.html]] #ffc7fd

            component "IDK Executor" as IDKExecutor [[./IDKExecutor.svg]]
            ConfigurationAPI )- - IDKExecutor
            IDKExecutor -( IDKCommandInterface
            process )- IDKExecutor

        }
    }
    NodeJS - - process
@enduml

PlantUML version 1.2019.06(Fri May 24 20:10:25 EEST 2019)
(GPL source distribution)
Java Runtime: Java(TM) SE Runtime Environment
JVM: Java HotSpot(TM) 64-Bit Server VM
Java Version: 1.8.0_201-b09
Operating System: Linux
OS Version: 4.15.0-51-generic
Default Encoding: UTF-8
Language: en
Country: US
--></g></svg>