<?xml version="1.0" encoding="UTF-8" standalone="no"?><svg xmlns="http://www.w3.org/2000/svg" xmlns:xlink="http://www.w3.org/1999/xlink" contentScriptType="application/ecmascript" contentStyleType="text/css" height="967px" preserveAspectRatio="none" style="width:1261px;height:967px;" version="1.1" viewBox="0 0 1261 967" width="1261px" zoomAndPan="magnify"><defs><filter height="300%" id="f139sq3d4rmkfw" width="300%" x="-1" y="-1"><feGaussianBlur result="blurOut" stdDeviation="2.0"/><feColorMatrix in="blurOut" result="blurOut2" type="matrix" values="0 0 0 0 0 0 0 0 0 0 0 0 0 0 0 0 0 0 .4 0"/><feOffset dx="4.0" dy="4.0" in="blurOut2" result="blurOut3"/><feBlend in="SourceGraphic" in2="blurOut3" mode="normal"/></filter></defs><g><text fill="#000000" font-family="sans-serif" font-size="18" lengthAdjust="spacingAndGlyphs" textLength="157" x="558" y="16.708">Services Network</text><!--cluster NPMServer--><polygon fill="#FFFFFF" filter="url(#f139sq3d4rmkfw)" points="22,113.9531,32,103.9531,353,103.9531,353,394.4531,343,404.4531,22,404.4531,22,113.9531" style="stroke: #000000; stroke-width: 1.5;"/><line style="stroke: #000000; stroke-width: 1.5;" x1="343" x2="352" y1="113.9531" y2="104.9531"/><line style="stroke: #000000; stroke-width: 1.5;" x1="22" x2="343" y1="113.9531" y2="113.9531"/><line style="stroke: #000000; stroke-width: 1.5;" x1="343" x2="343" y1="113.9531" y2="404.4531"/><text fill="#000000" font-family="sans-serif" font-size="14" font-weight="bold" lengthAdjust="spacingAndGlyphs" textLength="85" x="141" y="129.9482">npmjs.com</text><!--cluster HostNode--><polygon fill="#FFFFFF" filter="url(#f139sq3d4rmkfw)" points="377,54.9531,387,44.9531,1239,44.9531,1239,945.9531,1229,955.9531,377,955.9531,377,54.9531" style="stroke: #000000; stroke-width: 1.5;"/><line style="stroke: #000000; stroke-width: 1.5;" x1="1229" x2="1238" y1="54.9531" y2="45.9531"/><line style="stroke: #000000; stroke-width: 1.5;" x1="377" x2="1229" y1="54.9531" y2="54.9531"/><line style="stroke: #000000; stroke-width: 1.5;" x1="1229" x2="1229" y1="54.9531" y2="955.9531"/><text fill="#000000" font-family="sans-serif" font-size="14" font-weight="bold" lengthAdjust="spacingAndGlyphs" textLength="81" x="763.5" y="70.9482">Host node</text><!--cluster NPMGlobalScope--><rect fill="#FFFFFF" filter="url(#f139sq3d4rmkfw)" height="318" style="stroke: #000000; stroke-width: 1.5;" width="253" x="596" y="265.9531"/><path d="M748,266.9531 L748,275.25 L738,285.25 L596,285.25 " fill="none" style="stroke: #000000; stroke-width: 1.5;"/><text fill="#000000" font-family="sans-serif" font-size="14" font-weight="bold" lengthAdjust="spacingAndGlyphs" textLength="142" x="599" y="279.9482">NPM Global Scope</text><!--cluster IDKPackage--><polygon fill="#FFFFFF" filter="url(#f139sq3d4rmkfw)" points="628,316.9531,745,316.9531,752,339.25,817,339.25,817,551.9531,628,551.9531,628,316.9531" style="stroke: #000000; stroke-width: 1.5;"/><line style="stroke: #000000; stroke-width: 1.5;" x1="628" x2="752" y1="339.25" y2="339.25"/><text fill="#000000" font-family="sans-serif" font-size="14" font-weight="bold" lengthAdjust="spacingAndGlyphs" textLength="111" x="632" y="331.9482">@imazzine/idk</text><!--cluster NodeJS--><polygon fill="#FFFFFF" filter="url(#f139sq3d4rmkfw)" points="587,110.9531,597,100.9531,791,100.9531,791,198.9531,781,208.9531,587,208.9531,587,110.9531" style="stroke: #000000; stroke-width: 1.5;"/><line style="stroke: #000000; stroke-width: 1.5;" x1="781" x2="790" y1="110.9531" y2="101.9531"/><line style="stroke: #000000; stroke-width: 1.5;" x1="587" x2="781" y1="110.9531" y2="110.9531"/><line style="stroke: #000000; stroke-width: 1.5;" x1="781" x2="781" y1="110.9531" y2="208.9531"/><text fill="#000000" font-family="sans-serif" font-size="14" font-weight="bold" lengthAdjust="spacingAndGlyphs" textLength="128" x="621" y="126.9482">Node.js process</text><!--cluster CommandLine--><rect fill="#FFFFFF" filter="url(#f139sq3d4rmkfw)" height="267" style="stroke: #000000; stroke-width: 1.5;" width="248" x="401" y="616.9531"/><path d="M527,617.9531 L527,626.25 L517,636.25 L401,636.25 " fill="none" style="stroke: #000000; stroke-width: 1.5;"/><text fill="#000000" font-family="sans-serif" font-size="14" font-weight="bold" lengthAdjust="spacingAndGlyphs" textLength="116" x="404" y="630.9482">Command Line</text><!--entity NPMInterface--><ellipse cx="271" cy="379.4531" fill="#FFC7FD" filter="url(#f139sq3d4rmkfw)" rx="8" ry="8" style="stroke: #A80036; stroke-width: 2.0;"/><text fill="#000000" font-family="sans-serif" font-size="14" lengthAdjust="spacingAndGlyphs" textLength="95" x="223.5" y="409.4482">NPM Interface</text><!--entity NPMService--><polygon fill="#FEFECE" filter="url(#f139sq3d4rmkfw)" points="38.5,153.9531,48.5,143.9531,163.5,143.9531,163.5,180.25,153.5,190.25,38.5,190.25,38.5,153.9531" style="stroke: #000000; stroke-width: 1.5;"/><line style="stroke: #000000; stroke-width: 1.5;" x1="153.5" x2="162.5" y1="153.9531" y2="144.9531"/><line style="stroke: #000000; stroke-width: 1.5;" x1="38.5" x2="153.5" y1="153.9531" y2="153.9531"/><line style="stroke: #000000; stroke-width: 1.5;" x1="153.5" x2="153.5" y1="153.9531" y2="190.25"/><text fill="#000000" font-family="sans-serif" font-size="14" lengthAdjust="spacingAndGlyphs" textLength="85" x="53.5" y="176.9482">NPM Service</text><!--entity NPMRegister--><path d="M223.5,154.4531 C223.5,144.4531 280,144.4531 280,144.4531 C280,144.4531 336.5,144.4531 336.5,154.4531 L336.5,179.75 C336.5,189.75 280,189.75 280,189.75 C280,189.75 223.5,189.75 223.5,179.75 L223.5,154.4531 " fill="#FEFECE" filter="url(#f139sq3d4rmkfw)" style="stroke: #000000; stroke-width: 1.5;"/><path d="M223.5,154.4531 C223.5,164.4531 280,164.4531 280,164.4531 C280,164.4531 336.5,164.4531 336.5,154.4531 " fill="none" style="stroke: #000000; stroke-width: 1.5;"/><text fill="#000000" font-family="sans-serif" font-size="14" lengthAdjust="spacingAndGlyphs" textLength="93" x="233.5" y="181.4482">NPM Register</text><!--entity NPMClient--><polygon fill="#FEFECE" filter="url(#f139sq3d4rmkfw)" points="443,366.4531,453,356.4531,557,356.4531,557,392.75,547,402.75,443,402.75,443,366.4531" style="stroke: #000000; stroke-width: 1.5;"/><line style="stroke: #000000; stroke-width: 1.5;" x1="547" x2="556" y1="366.4531" y2="357.4531"/><line style="stroke: #000000; stroke-width: 1.5;" x1="443" x2="547" y1="366.4531" y2="366.4531"/><line style="stroke: #000000; stroke-width: 1.5;" x1="547" x2="547" y1="366.4531" y2="402.75"/><text fill="#000000" font-family="sans-serif" font-size="14" lengthAdjust="spacingAndGlyphs" textLength="74" x="458" y="389.4482">NPM Client</text><!--entity NPMBinAPI--><a href="https://docs.npmjs.com/files/package.json#bin" target="_top" xlink:actuate="onRequest" xlink:show="new" xlink:title="https://docs.npmjs.com/files/package.json#bin" xlink:type="simple"><ellipse cx="500" cy="508.4531" fill="#FFC7FD" filter="url(#f139sq3d4rmkfw)" rx="8" ry="8" style="stroke: #A80036; stroke-width: 2.0;"/><text fill="#000000" font-family="sans-serif" font-size="14" lengthAdjust="spacingAndGlyphs" textLength="21" x="489.5" y="538.4482">bin</text></a><!--entity ConfigurationAPI--><a href="./ConfigurationAPI.svg" target="_top" xlink:actuate="onRequest" xlink:show="new" xlink:title="./ConfigurationAPI.svg" xlink:type="simple"><ellipse cx="571" cy="508.4531" fill="#FFC7FD" filter="url(#f139sq3d4rmkfw)" rx="8" ry="8" style="stroke: #A80036; stroke-width: 2.0;"/><text fill="#000000" font-family="sans-serif" font-size="14" lengthAdjust="spacingAndGlyphs" textLength="117" x="512.5" y="538.4482">Configuration API</text></a><path d="M667.5,770.9531 L667.5,940.2813 A0,0 0 0 0 667.5,940.2813 L1222.5,940.2813 A0,0 0 0 0 1222.5,940.2813 L1222.5,780.9531 L1212.5,770.9531 L775.304,770.9531 L596.209,686.3901 L767.304,770.9531 L667.5,770.9531 A0,0 0 0 0 667.5,770.9531 " fill="#FBFB77" filter="url(#f139sq3d4rmkfw)" style="stroke: #A80036; stroke-width: 1.0;"/><path d="M1212.5,770.9531 L1212.5,780.9531 L1222.5,780.9531 L1212.5,770.9531 " fill="#FBFB77" style="stroke: #A80036; stroke-width: 1.0;"/><text fill="#000000" font-family="Courier New" font-size="13" lengthAdjust="spacingAndGlyphs" textLength="49" x="673.5" y="788.02">idk help</text><text fill="#000000" font-family="Courier New" font-size="13" lengthAdjust="spacingAndGlyphs" textLength="68" x="673.5" y="803.1528">idk version</text><text fill="#000000" font-family="Courier New" font-size="13" lengthAdjust="spacingAndGlyphs" textLength="534" x="673.5" y="818.2856">idk commands &lt;add|configure|remove&gt; &lt;package_path&gt; [set|unset] [key] [value]</text><text fill="#000000" font-family="Courier New" font-size="13" lengthAdjust="spacingAndGlyphs" textLength="503" x="673.5" y="833.4185">idk projects &lt;add|configure|remove&gt; &lt;project_path&gt; [set|unset] [key] [value]</text><text fill="#000000" font-family="Courier New" font-size="13" lengthAdjust="spacingAndGlyphs" textLength="193" x="673.5" y="848.5513">idk list &lt;commands|projects&gt;</text><line style="stroke: #A80036; stroke-width: 1.0;" x1="668.5" x2="1221.5" y1="851.6172" y2="851.6172"/><text fill="#000000" font-family="Courier New" font-size="13" lengthAdjust="spacingAndGlyphs" textLength="41" x="673.5" y="867.6841">idk lint</text><text fill="#000000" font-family="Courier New" font-size="13" lengthAdjust="spacingAndGlyphs" textLength="47" x="673.5" y="882.8169">idk test</text><text fill="#000000" font-family="Courier New" font-size="13" lengthAdjust="spacingAndGlyphs" textLength="87" x="673.5" y="897.9497">idk document</text><text fill="#000000" font-family="Courier New" font-size="13" lengthAdjust="spacingAndGlyphs" textLength="123" x="673.5" y="913.0825">idk compile [mode]</text><text fill="#000000" font-family="Courier New" font-size="13" lengthAdjust="spacingAndGlyphs" textLength="52" x="673.5" y="928.2153">idk build</text><!--entity PACKAGE_JSON--><a href="./ConfigurationAPI.svg" target="_top" xlink:actuate="onRequest" xlink:show="new" xlink:title="./ConfigurationAPI.svg" xlink:type="simple"><rect fill="#FEFECE" filter="url(#f139sq3d4rmkfw)" height="39.2969" style="stroke: #000000; stroke-width: 1.5;" width="122" x="660" y="488.9531"/><polygon fill="#FEFECE" points="765,493.9531,765,507.9531,777,507.9531,777,499.9531,771,493.9531,765,493.9531" style="stroke: #000000; stroke-width: 1.5;"/><line style="stroke: #000000; stroke-width: 1.5;" x1="771" x2="771" y1="493.9531" y2="499.9531"/><line style="stroke: #000000; stroke-width: 1.5;" x1="777" x2="771" y1="499.9531" y2="499.9531"/><text fill="#000000" font-family="sans-serif" font-size="14" lengthAdjust="spacingAndGlyphs" textLength="92" x="670" y="514.9482">package.json</text></a><!--entity IDK_JS--><rect fill="#FEFECE" filter="url(#f139sq3d4rmkfw)" height="39.2969" style="stroke: #000000; stroke-width: 1.5;" width="65" x="671.5" y="359.9531"/><polygon fill="#FEFECE" points="719.5,364.9531,719.5,378.9531,731.5,378.9531,731.5,370.9531,725.5,364.9531,719.5,364.9531" style="stroke: #000000; stroke-width: 1.5;"/><line style="stroke: #000000; stroke-width: 1.5;" x1="725.5" x2="725.5" y1="364.9531" y2="370.9531"/><line style="stroke: #000000; stroke-width: 1.5;" x1="731.5" x2="725.5" y1="370.9531" y2="370.9531"/><text fill="#000000" font-family="sans-serif" font-size="14" lengthAdjust="spacingAndGlyphs" textLength="35" x="681.5" y="385.9482">idk.js</text><!--entity IDKApplication--><a href="./IDKApplication.svg" target="_top" xlink:actuate="onRequest" xlink:show="new" xlink:title="./IDKApplication.svg" xlink:type="simple"><rect fill="#FEFECE" filter="url(#f139sq3d4rmkfw)" height="36.2969" style="stroke: #A80036; stroke-width: 1.5;" width="122" x="643" y="148.9531"/><rect fill="#FEFECE" height="5" style="stroke: #A80036; stroke-width: 1.5;" width="10" x="638" y="153.9531"/><rect fill="#FEFECE" height="5" style="stroke: #A80036; stroke-width: 1.5;" width="10" x="638" y="175.25"/><text fill="#000000" font-family="sans-serif" font-size="14" lengthAdjust="spacingAndGlyphs" textLength="102" x="653" y="171.9482">IDK Application</text></a><!--entity IDKInterface--><ellipse cx="587" cy="680.9531" fill="#C9FFC7" filter="url(#f139sq3d4rmkfw)" rx="8" ry="8" style="stroke: #A80036; stroke-width: 2.0;"/><text fill="#000000" font-family="sans-serif" font-size="14" lengthAdjust="spacingAndGlyphs" textLength="20" x="577" y="710.9482">idk</text><!--entity NPMCli--><a href="https://docs.npmjs.com/cli/install" target="_top" xlink:actuate="onRequest" xlink:show="new" xlink:title="https://docs.npmjs.com/cli/install" xlink:type="simple"><ellipse cx="480" cy="680.9531" fill="#C9FFC7" filter="url(#f139sq3d4rmkfw)" rx="8" ry="8" style="stroke: #A80036; stroke-width: 2.0;"/><text fill="#000000" font-family="sans-serif" font-size="14" lengthAdjust="spacingAndGlyphs" textLength="31" x="464.5" y="710.9482">npm</text></a><path d="M417.5,842.9531 L417.5,868.0859 A0,0 0 0 0 417.5,868.0859 L632.5,868.0859 A0,0 0 0 0 632.5,868.0859 L632.5,852.9531 L622.5,842.9531 L525.941,842.9531 L482.17,690.2731 L517.941,842.9531 L417.5,842.9531 A0,0 0 0 0 417.5,842.9531 " fill="#FBFB77" filter="url(#f139sq3d4rmkfw)" style="stroke: #A80036; stroke-width: 1.0;"/><path d="M622.5,842.9531 L622.5,852.9531 L632.5,852.9531 L622.5,842.9531 " fill="#FBFB77" style="stroke: #A80036; stroke-width: 1.0;"/><text fill="#000000" font-family="Courier New" font-size="13" lengthAdjust="spacingAndGlyphs" textLength="194" x="423.5" y="860.02">npm i -g @imazzine/idk@0.0.0</text><!--link NPMService to NPMRegister--><path d="M163.606,166.9531 C181.239,166.9531 200.408,166.9531 218.006,166.9531 " fill="none" id="NPMService-NPMRegister" style="stroke: #A80036; stroke-width: 1.0;"/><polygon fill="#A80036" points="223.413,166.9531,214.413,162.9531,218.413,166.9531,214.413,170.9531,223.413,166.9531" style="stroke: #A80036; stroke-width: 1.0;"/><text fill="#000000" font-family="sans-serif" font-size="13" lengthAdjust="spacingAndGlyphs" textLength="23" x="182" y="160.02">use</text><!--link NPMService to NPMInterface--><path d="M118.872,190.0821 C156.04,236.1051 240.223,340.3441 264.396,370.2761 " fill="none" id="NPMService-NPMInterface" style="stroke: #A80036; stroke-width: 1.0;"/><!--link IDK_JS to PACKAGE_JSON--><path d="M707.178,404.1951 C710.448,428.6241 715.476,466.1851 718.481,488.6371 " fill="none" id="IDK_JS-PACKAGE_JSON" style="stroke: #A80036; stroke-width: 1.0; stroke-dasharray: 7.0,7.0;"/><polygon fill="#A80036" points="706.508,399.1921,703.7365,408.643,707.1709,404.148,711.6659,407.5824,706.508,399.1921" style="stroke: #A80036; stroke-width: 1.0;"/><text fill="#000000" font-family="sans-serif" font-size="13" lengthAdjust="spacingAndGlyphs" textLength="96" x="714" y="445.52">specifying path</text><!--link NPMRegister to IDKPackage--><path d="M310.469,198.7571 C331.016,217.3311 359.806,239.3801 390,249.9531 C402.696,254.3991 622.487,248.4421 632,257.9531 C636.6625,262.6151 639.2724,272.2803 640.5577,284.2038 C641.2003,290.1656 641.5118,296.6919 641.583,303.4397 C641.6187,306.8136 641.5943,310.2429 641.5212,313.6847 C641.5029,314.5451 641.4816,315.4063 641.4574,316.2677 C641.4514,316.483 641.4451,316.6983 641.4387,316.9137 " fill="none" id="NPMRegister-IDKPackage" style="stroke: #A80036; stroke-width: 1.0;"/><polygon fill="#FFFFFF" points="300.793,189.7131,302.4449,196.7325,309.5596,197.9074,307.9077,190.8881,300.793,189.7131" style="stroke: #A80036; stroke-width: 1.0;"/><text fill="#000000" font-family="sans-serif" font-size="13" lengthAdjust="spacingAndGlyphs" textLength="23" x="280.2905" y="209.8903">1..*</text><!--link IDKApplication to IDK_JS--><path d="M704,190.2631 C704,231.9691 704,321.0281 704,359.7871 " fill="none" id="IDKApplication-IDK_JS" style="stroke: #A80036; stroke-width: 1.0;"/><polygon fill="#A80036" points="704,185.1791,700,194.1791,704,190.1791,708,194.1791,704,185.1791" style="stroke: #A80036; stroke-width: 1.0;"/><text fill="#000000" font-family="sans-serif" font-size="13" lengthAdjust="spacingAndGlyphs" textLength="51" x="705" y="246.02">execute</text><!--link NodeJS to IDK_JS--><path d="M610.5611,208.9652 C610.7973,209.5128 611.0375,210.0615 611.2815,210.6111 C611.7696,211.7102 612.2733,212.8127 612.793,213.9163 C614.8718,218.3307 617.2063,222.7616 619.8184,227.0558 C625.0427,235.6443 631.3778,243.6856 639,249.9531 C649.327,258.4451 658.446,248.5991 668,257.9531 C694.181,283.5861 701.507,327.3921 703.448,354.5321 " fill="none" id="NodeJS-IDK_JS" style="stroke: #A80036; stroke-width: 1.0;"/><polygon fill="#A80036" points="703.768,359.7271,707.2077,350.4984,703.4609,354.7366,699.2228,350.9898,703.768,359.7271" style="stroke: #A80036; stroke-width: 1.0;"/><text fill="#000000" font-family="sans-serif" font-size="13" lengthAdjust="spacingAndGlyphs" textLength="55" x="640" y="246.02">evaluate</text><!--link NPMInterface to NPMClient--><path d="M290.553,379.4531 C341.353,379.4531 392.153,379.4531 442.954,379.4531 " fill="none" id="NPMInterface-NPMClient" style="stroke: #A80036; stroke-width: 1.0;"/><path d="M283.4712,387.9104 A9,9 0 0 0 283.4712 370.9959" fill="none" style="stroke: #A80036; stroke-width: 1.5;"/><!--link NodeJS to NPMClient--><path d="M586.935,176.0014 C586.8551,176.0629 586.7749,176.1248 586.6943,176.1869 C586.372,176.4354 586.0447,176.689 585.7124,176.9476 C584.3834,177.9817 582.9763,179.0953 581.5066,180.283 C578.5671,182.6585 575.377,185.3306 572.0594,188.2576 C558.7887,199.9659 543.477,215.7536 534,232.9531 C511.967,272.9411 504.159,326.7171 501.431,356.4221 " fill="none" id="NodeJS-NPMClient" style="stroke: #A80036; stroke-width: 1.0;"/><polygon fill="#A80036" points="586.935,176.0014,577.363,178.3203,582.9725,179.0508,582.242,184.6603,586.935,176.0014" style="stroke: #A80036; stroke-width: 1.0;"/><text fill="#000000" font-family="sans-serif" font-size="13" lengthAdjust="spacingAndGlyphs" textLength="21" x="535" y="246.02">run</text><!--link NPMClient to NPMBinAPI--><path d="M500,402.5751 C500,431.2861 500,479.9861 500,499.2551 " fill="none" id="NPMClient-NPMBinAPI" style="stroke: #A80036; stroke-width: 1.0;"/><!--link NPMBinAPI to IDKInterface--><path d="M508.953,526.9981 C527.498,563.3431 569.498,645.6541 582.846,671.8121 " fill="none" id="NPMBinAPI-IDKInterface" style="stroke: #A80036; stroke-width: 1.0;"/><path d="M498.0623,524.2633 A9,9 0 0 0 513.1282 516.5745" fill="none" style="stroke: #A80036; stroke-width: 1.5;"/><!--link NPMClient to NPMCli--><path d="M486.545,402.6931 C475.607,422.1541 461.035,451.5911 455,479.4531 C444.415,528.3201 448.102,542.4311 455,591.9531 C459.207,622.1551 471.166,656.5541 476.883,671.8661 " fill="none" id="NPMClient-NPMCli" style="stroke: #A80036; stroke-width: 1.0;"/><!--link NPMClient to ConfigurationAPI--><path d="M512.367,402.5751 C526.349,427.5851 548.811,467.7631 561.49,490.4421 " fill="none" id="NPMClient-ConfigurationAPI" style="stroke: #A80036; stroke-width: 1.0;"/><path d="M572.2967,492.4413 A9,9 0 0 0 557.533 500.6954" fill="none" style="stroke: #A80036; stroke-width: 1.5;"/><!--link PACKAGE_JSON to ConfigurationAPI--><path d="M659.899,508.4531 C633.293,508.4531 606.688,508.4531 580.082,508.4531 " fill="none" id="PACKAGE_JSON-ConfigurationAPI" style="stroke: #A80036; stroke-width: 1.0;"/><!--
@startuml services_network
    skinparam note {
        FontName "Courier New"
    }

    title Services Network

    node "npmjs.com" as NPMServer {
        interface "NPM Interface" as NPMInterface #ffc7fd
        node "NPM Service" as NPMService
        database "NPM Register" as NPMRegister
        NPMService -> NPMRegister: use
        NPMService - - NPMInterface
    }

    node "Host node" as HostNode {

        frame "NPM Global Scope" as NPMGlobalScope {
            package "@imazzine/idk" as IDKPackage {
                artifact "package.json" as PACKAGE_JSON [[./ConfigurationAPI.svg]]
                artifact "idk.js" as IDK_JS
                IDK_JS <.. PACKAGE_JSON: specifying path
            }
        }
        NPMRegister "1..*" o- - IDKPackage

        node "Node.js process" as NodeJS {
            component "IDK Application" as IDKApplication [[./IDKApplication.svg]]
            IDKApplication <- - IDK_JS: execute
        }
        NodeJS - -> IDK_JS: evaluate

        node "NPM Client" as NPMClient
        NPMInterface )- NPMClient
        NodeJS <- - NPMClient: run

        interface "bin" as NPMBinAPI [[https://docs.npmjs.com/files/package.json#bin]] #ffc7fd
        NPMClient - - NPMBinAPI

        frame "Command Line" as CommandLine {
            interface "idk" as IDKInterface #c9ffc7
            NPMBinAPI )- - IDKInterface

            interface "npm" as NPMCli [[https://docs.npmjs.com/cli/install]] #c9ffc7
            NPMClient - - NPMCli

            note as NPM_CLI_LIST
                npm i -g @imazzine/idk@0.0.0
            end note
            NPMCli .. NPM_CLI_LIST
        }

        interface "Configuration API" as ConfigurationAPI [[./ConfigurationAPI.svg]] #ffc7fd
        NPMClient - -( ConfigurationAPI
        PACKAGE_JSON - ConfigurationAPI

        note as IDK_CLI_LIST
            idk help
            idk version
            idk commands <add|configure|remove> <package_path> [set|unset] [key] [value]
            idk projects <add|configure|remove> <project_path> [set|unset] [key] [value]
            idk list <commands|projects>
            - -
            idk lint
            idk test
            idk document
            idk compile [mode]
            idk build
        end note
        IDKInterface .. IDK_CLI_LIST
    }
@enduml

PlantUML version 1.2019.06(Fri May 24 20:10:25 EEST 2019)
(GPL source distribution)
Java Runtime: Java(TM) SE Runtime Environment
JVM: Java HotSpot(TM) 64-Bit Server VM
Java Version: 1.8.0_201-b09
Operating System: Linux
OS Version: 4.15.0-51-generic
Default Encoding: UTF-8
Language: en
Country: US
--></g></svg>