<?xml version="1.0" encoding="UTF-8" standalone="no"?><svg xmlns="http://www.w3.org/2000/svg" xmlns:xlink="http://www.w3.org/1999/xlink" contentScriptType="application/ecmascript" contentStyleType="text/css" height="941px" preserveAspectRatio="none" style="width:1168px;height:941px;" version="1.1" viewBox="0 0 1168 941" width="1168px" zoomAndPan="magnify"><defs><filter height="300%" id="fu93n1jr0n1lg" width="300%" x="-1" y="-1"><feGaussianBlur result="blurOut" stdDeviation="2.0"/><feColorMatrix in="blurOut" result="blurOut2" type="matrix" values="0 0 0 0 0 0 0 0 0 0 0 0 0 0 0 0 0 0 .4 0"/><feOffset dx="4.0" dy="4.0" in="blurOut2" result="blurOut3"/><feBlend in="SourceGraphic" in2="blurOut3" mode="normal"/></filter></defs><g><text fill="#000000" font-family="sans-serif" font-size="18" lengthAdjust="spacingAndGlyphs" textLength="157" x="511.5" y="16.708">Services Network</text><!--cluster NPMServer--><polygon fill="#FFFFFF" filter="url(#fu93n1jr0n1lg)" points="22,113.9531,32,103.9531,353,103.9531,353,437.4531,343,447.4531,22,447.4531,22,113.9531" style="stroke: #000000; stroke-width: 1.5;"/><line style="stroke: #000000; stroke-width: 1.5;" x1="343" x2="352" y1="113.9531" y2="104.9531"/><line style="stroke: #000000; stroke-width: 1.5;" x1="22" x2="343" y1="113.9531" y2="113.9531"/><line style="stroke: #000000; stroke-width: 1.5;" x1="343" x2="343" y1="113.9531" y2="447.4531"/><text fill="#000000" font-family="sans-serif" font-size="14" font-weight="bold" lengthAdjust="spacingAndGlyphs" textLength="85" x="141" y="129.9482">npmjs.com</text><!--cluster HostNode--><polygon fill="#FFFFFF" filter="url(#fu93n1jr0n1lg)" points="377,54.9531,387,44.9531,1146,44.9531,1146,919.9531,1136,929.9531,377,929.9531,377,54.9531" style="stroke: #000000; stroke-width: 1.5;"/><line style="stroke: #000000; stroke-width: 1.5;" x1="1136" x2="1145" y1="54.9531" y2="45.9531"/><line style="stroke: #000000; stroke-width: 1.5;" x1="377" x2="1136" y1="54.9531" y2="54.9531"/><line style="stroke: #000000; stroke-width: 1.5;" x1="1136" x2="1136" y1="54.9531" y2="929.9531"/><text fill="#000000" font-family="sans-serif" font-size="14" font-weight="bold" lengthAdjust="spacingAndGlyphs" textLength="81" x="717" y="70.9482">Host node</text><!--cluster NodeJsGlobalScope--><rect fill="#FFFFFF" filter="url(#fu93n1jr0n1lg)" height="256" style="stroke: #000000; stroke-width: 1.5;" width="311" x="531" y="265.9531"/><path d="M708,266.9531 L708,275.25 L698,285.25 L531,285.25 " fill="none" style="stroke: #000000; stroke-width: 1.5;"/><text fill="#000000" font-family="sans-serif" font-size="14" font-weight="bold" lengthAdjust="spacingAndGlyphs" textLength="167" x="534" y="279.9482">Node.js Global Scope</text><!--cluster rootPackage--><polygon fill="#FFFFFF" filter="url(#fu93n1jr0n1lg)" points="563,316.9531,692,316.9531,699,339.25,810,339.25,810,489.9531,563,489.9531,563,316.9531" style="stroke: #000000; stroke-width: 1.5;"/><line style="stroke: #000000; stroke-width: 1.5;" x1="563" x2="699" y1="339.25" y2="339.25"/><text fill="#000000" font-family="sans-serif" font-size="14" font-weight="bold" lengthAdjust="spacingAndGlyphs" textLength="123" x="567" y="331.9482">imazzine@0.0.0</text><!--cluster cliPackage--><polygon fill="#FFFFFF" filter="url(#fu93n1jr0n1lg)" points="603,367.9531,768,367.9531,775,390.25,778,390.25,778,457.9531,603,457.9531,603,367.9531" style="stroke: #000000; stroke-width: 1.5;"/><line style="stroke: #000000; stroke-width: 1.5;" x1="603" x2="775" y1="390.25" y2="390.25"/><text fill="#000000" font-family="sans-serif" font-size="14" font-weight="bold" lengthAdjust="spacingAndGlyphs" textLength="159" x="607" y="382.9482">@imazzine/cli@0.0.0</text><!--cluster NodeJS--><polygon fill="#FFFFFF" filter="url(#fu93n1jr0n1lg)" points="532,110.9531,542,100.9531,736,100.9531,736,198.9531,726,208.9531,532,208.9531,532,110.9531" style="stroke: #000000; stroke-width: 1.5;"/><line style="stroke: #000000; stroke-width: 1.5;" x1="726" x2="735" y1="110.9531" y2="101.9531"/><line style="stroke: #000000; stroke-width: 1.5;" x1="532" x2="726" y1="110.9531" y2="110.9531"/><line style="stroke: #000000; stroke-width: 1.5;" x1="726" x2="726" y1="110.9531" y2="208.9531"/><text fill="#000000" font-family="sans-serif" font-size="14" font-weight="bold" lengthAdjust="spacingAndGlyphs" textLength="128" x="566" y="126.9482">Node.js process</text><!--cluster CommandLine--><rect fill="#FFFFFF" filter="url(#fu93n1jr0n1lg)" height="225.5" style="stroke: #000000; stroke-width: 1.5;" width="212" x="401" y="673.9531"/><path d="M527,674.9531 L527,683.25 L517,693.25 L401,693.25 " fill="none" style="stroke: #000000; stroke-width: 1.5;"/><text fill="#000000" font-family="sans-serif" font-size="14" font-weight="bold" lengthAdjust="spacingAndGlyphs" textLength="116" x="404" y="687.9482">Command Line</text><!--entity NPMInterface--><ellipse cx="271" cy="422.4531" fill="#FFC7FD" filter="url(#fu93n1jr0n1lg)" rx="8" ry="8" style="stroke: #A80036; stroke-width: 2.0;"/><text fill="#000000" font-family="sans-serif" font-size="14" lengthAdjust="spacingAndGlyphs" textLength="95" x="223.5" y="452.4482">NPM Interface</text><!--entity NPMService--><polygon fill="#FEFECE" filter="url(#fu93n1jr0n1lg)" points="38.5,153.9531,48.5,143.9531,163.5,143.9531,163.5,180.25,153.5,190.25,38.5,190.25,38.5,153.9531" style="stroke: #000000; stroke-width: 1.5;"/><line style="stroke: #000000; stroke-width: 1.5;" x1="153.5" x2="162.5" y1="153.9531" y2="144.9531"/><line style="stroke: #000000; stroke-width: 1.5;" x1="38.5" x2="153.5" y1="153.9531" y2="153.9531"/><line style="stroke: #000000; stroke-width: 1.5;" x1="153.5" x2="153.5" y1="153.9531" y2="190.25"/><text fill="#000000" font-family="sans-serif" font-size="14" lengthAdjust="spacingAndGlyphs" textLength="85" x="53.5" y="176.9482">NPM Service</text><!--entity NPMRegister--><path d="M223.5,154.4531 C223.5,144.4531 280,144.4531 280,144.4531 C280,144.4531 336.5,144.4531 336.5,154.4531 L336.5,179.75 C336.5,189.75 280,189.75 280,189.75 C280,189.75 223.5,189.75 223.5,179.75 L223.5,154.4531 " fill="#FEFECE" filter="url(#fu93n1jr0n1lg)" style="stroke: #000000; stroke-width: 1.5;"/><path d="M223.5,154.4531 C223.5,164.4531 280,164.4531 280,164.4531 C280,164.4531 336.5,164.4531 336.5,154.4531 " fill="none" style="stroke: #000000; stroke-width: 1.5;"/><text fill="#000000" font-family="sans-serif" font-size="14" lengthAdjust="spacingAndGlyphs" textLength="93" x="233.5" y="181.4482">NPM Register</text><!--entity NPMClient--><polygon fill="#FEFECE" filter="url(#fu93n1jr0n1lg)" points="401,409.4531,411,399.4531,515,399.4531,515,435.75,505,445.75,401,445.75,401,409.4531" style="stroke: #000000; stroke-width: 1.5;"/><line style="stroke: #000000; stroke-width: 1.5;" x1="505" x2="514" y1="409.4531" y2="400.4531"/><line style="stroke: #000000; stroke-width: 1.5;" x1="401" x2="505" y1="409.4531" y2="409.4531"/><line style="stroke: #000000; stroke-width: 1.5;" x1="505" x2="505" y1="409.4531" y2="445.75"/><text fill="#000000" font-family="sans-serif" font-size="14" lengthAdjust="spacingAndGlyphs" textLength="74" x="416" y="432.4482">NPM Client</text><!--entity NPMBinAPI--><a href="https://docs.npmjs.com/files/package.json#bin" target="_top" xlink:actuate="onRequest" xlink:show="new" xlink:title="https://docs.npmjs.com/files/package.json#bin" xlink:type="simple"><ellipse cx="545" cy="597.9531" fill="#FFC7FD" filter="url(#fu93n1jr0n1lg)" rx="8" ry="8" style="stroke: #A80036; stroke-width: 2.0;"/><text fill="#000000" font-family="sans-serif" font-size="14" lengthAdjust="spacingAndGlyphs" textLength="21" x="534.5" y="627.9482">bin</text></a><path d="M632,827.9531 L632,913.6172 A0,0 0 0 0 632,913.6172 L1130,913.6172 A0,0 0 0 0 1130,913.6172 L1130,837.9531 L1120,827.9531 L784.576,827.9531 L577.03,742.7321 L776.576,827.9531 L632,827.9531 A0,0 0 0 0 632,827.9531 " fill="#FBFB77" filter="url(#fu93n1jr0n1lg)" style="stroke: #A80036; stroke-width: 1.0;"/><path d="M1120,827.9531 L1120,837.9531 L1130,837.9531 L1120,827.9531 " fill="#FBFB77" style="stroke: #A80036; stroke-width: 1.0;"/><text fill="#000000" font-family="Courier New" font-size="13" lengthAdjust="spacingAndGlyphs" textLength="45" x="638" y="845.02">zz help</text><text fill="#000000" font-family="Courier New" font-size="13" lengthAdjust="spacingAndGlyphs" textLength="64" x="638" y="860.1528">zz version</text><text fill="#000000" font-family="Courier New" font-size="13" lengthAdjust="spacingAndGlyphs" textLength="477" x="638" y="875.2856">zz commands &lt;add|configure|remove&gt; &lt;name&gt; [set|unset] [key] [value]</text><text fill="#000000" font-family="Courier New" font-size="13" lengthAdjust="spacingAndGlyphs" textLength="456" x="638" y="890.4185">zz projects &lt;add|configure|remove&gt; &lt;name&gt; [set|unset] [key] [value]</text><text fill="#000000" font-family="Courier New" font-size="13" lengthAdjust="spacingAndGlyphs" textLength="189" x="638" y="905.5513">zz list &lt;commands|projects&gt;</text><!--entity cliJs--><rect fill="#FEFECE" filter="url(#fu93n1jr0n1lg)" height="39.2969" style="stroke: #000000; stroke-width: 1.5;" width="59" x="619.5" y="402.9531"/><polygon fill="#FEFECE" points="661.5,407.9531,661.5,421.9531,673.5,421.9531,673.5,413.9531,667.5,407.9531,661.5,407.9531" style="stroke: #000000; stroke-width: 1.5;"/><line style="stroke: #000000; stroke-width: 1.5;" x1="667.5" x2="667.5" y1="407.9531" y2="413.9531"/><line style="stroke: #000000; stroke-width: 1.5;" x1="673.5" x2="667.5" y1="413.9531" y2="413.9531"/><text fill="#000000" font-family="sans-serif" font-size="14" lengthAdjust="spacingAndGlyphs" textLength="29" x="629.5" y="428.9482">cli.js</text><!--entity IDKApplication--><a href="./IDKApplication.svg" target="_top" xlink:actuate="onRequest" xlink:show="new" xlink:title="./IDKApplication.svg" xlink:type="simple"><rect fill="#FEFECE" filter="url(#fu93n1jr0n1lg)" height="36.2969" style="stroke: #A80036; stroke-width: 1.5;" width="122" x="588" y="148.9531"/><rect fill="#FEFECE" height="5" style="stroke: #A80036; stroke-width: 1.5;" width="10" x="583" y="153.9531"/><rect fill="#FEFECE" height="5" style="stroke: #A80036; stroke-width: 1.5;" width="10" x="583" y="175.25"/><text fill="#000000" font-family="sans-serif" font-size="14" lengthAdjust="spacingAndGlyphs" textLength="102" x="598" y="171.9482">IDK Application</text></a><!--entity IDKInterface--><ellipse cx="568" cy="737.9531" fill="#C9FFC7" filter="url(#fu93n1jr0n1lg)" rx="8" ry="8" style="stroke: #A80036; stroke-width: 2.0;"/><text fill="#000000" font-family="sans-serif" font-size="14" lengthAdjust="spacingAndGlyphs" textLength="16" x="560" y="767.9482">zz</text><!--entity NPMCli--><a href="https://docs.npmjs.com/cli/install" target="_top" xlink:actuate="onRequest" xlink:show="new" xlink:title="https://docs.npmjs.com/cli/install" xlink:type="simple"><ellipse cx="464" cy="737.9531" fill="#C9FFC7" filter="url(#fu93n1jr0n1lg)" rx="8" ry="8" style="stroke: #A80036; stroke-width: 2.0;"/><text fill="#000000" font-family="sans-serif" font-size="14" lengthAdjust="spacingAndGlyphs" textLength="31" x="448.5" y="767.9482">npm</text></a><path d="M417,858.4531 L417,883.5859 A0,0 0 0 0 417,883.5859 L597,883.5859 A0,0 0 0 0 597,883.5859 L597,868.4531 L587,858.4531 L507.113,858.4531 L466.69,747.1481 L499.113,858.4531 L417,858.4531 A0,0 0 0 0 417,858.4531 " fill="#FBFB77" filter="url(#fu93n1jr0n1lg)" style="stroke: #A80036; stroke-width: 1.0;"/><path d="M587,858.4531 L587,868.4531 L597,868.4531 L587,858.4531 " fill="#FBFB77" style="stroke: #A80036; stroke-width: 1.0;"/><text fill="#000000" font-family="Courier New" font-size="13" lengthAdjust="spacingAndGlyphs" textLength="159" x="423" y="875.52">npm i -g imazzine@0.0.0</text><!--link NPMService to NPMRegister--><path d="M163.606,166.9531 C181.239,166.9531 200.408,166.9531 218.006,166.9531 " fill="none" id="NPMService-&gt;NPMRegister" style="stroke: #A80036; stroke-width: 1.0;"/><polygon fill="#A80036" points="223.413,166.9531,214.413,162.9531,218.413,166.9531,214.413,170.9531,223.413,166.9531" style="stroke: #A80036; stroke-width: 1.0;"/><text fill="#000000" font-family="sans-serif" font-size="13" lengthAdjust="spacingAndGlyphs" textLength="23" x="182" y="160.02">use</text><!--link NPMService to NPMInterface--><path d="M115.789,190.0061 C151.656,243.4901 242.037,378.2641 265.412,413.1201 " fill="none" id="NPMService-NPMInterface" style="stroke: #A80036; stroke-width: 1.0;"/><!--reverse link NPMRegister to rootPackage--><path d="M306.704,199.1361 C324.532,217.5511 349.66,239.2881 377,249.9531 C396.685,257.6321 552.191,242.8811 567,257.9531 C579.537,270.7129 586.1457,287.0944 588.9846,304.5423 C589.3395,306.7233 589.6355,308.9209 589.8768,311.1302 C589.9974,312.2349 590.1044,313.3425 590.1982,314.4524 C590.2451,315.0073 590.2887,315.5628 590.3291,316.1188 " fill="none" id="NPMRegister&lt;-rootPackage" style="stroke: #A80036; stroke-width: 1.0;"/><polygon fill="#FFFFFF" points="297.829,189.6131,298.9929,196.7297,306.0097,198.3925,304.8458,191.2759,297.829,189.6131" style="stroke: #A80036; stroke-width: 1.0;"/><text fill="#000000" font-family="sans-serif" font-size="13" lengthAdjust="spacingAndGlyphs" textLength="23" x="276.5299" y="209.7635">1..*</text><!--reverse link IDKApplication to cliJs--><path d="M649,190.0781 C649,239.2811 649,357.0281 649,402.8041 " fill="none" id="IDKApplication&lt;-cliJs" style="stroke: #A80036; stroke-width: 1.0;"/><polygon fill="#A80036" points="649,184.9791,645,193.9791,649,189.9791,653,193.9791,649,184.9791" style="stroke: #A80036; stroke-width: 1.0;"/><text fill="#000000" font-family="sans-serif" font-size="13" lengthAdjust="spacingAndGlyphs" textLength="51" x="650" y="246.02">execute</text><!--link NodeJS to cliJs--><path d="M555.4278,209.1294 C555.6634,209.6777 555.903,210.2271 556.1465,210.7773 C556.6336,211.8777 557.1365,212.9812 557.6557,214.0855 C559.7323,218.5025 562.0688,222.931 564.6887,227.2156 C569.9286,235.7848 576.3025,243.7784 584,249.9531 C595.435,259.1261 605.874,247.3521 616,257.9531 C652.263,295.9171 653.714,362.1131 651.473,397.5111 " fill="none" id="NodeJS-&gt;cliJs" style="stroke: #A80036; stroke-width: 1.0;"/><polygon fill="#A80036" points="651.087,402.9191,655.7197,394.2278,651.4441,397.9319,647.7401,393.6564,651.087,402.9191" style="stroke: #A80036; stroke-width: 1.0;"/><text fill="#000000" font-family="sans-serif" font-size="13" lengthAdjust="spacingAndGlyphs" textLength="55" x="585" y="246.02">evaluate</text><!--reverse link NPMInterface to NPMClient--><path d="M290.49,422.4531 C327.22,422.4531 363.949,422.4531 400.679,422.4531 " fill="none" id="NPMInterface&lt;-NPMClient" style="stroke: #A80036; stroke-width: 1.0;"/><path d="M283.2092,430.9104 A9,9 0 0 0 283.2092 413.9959" fill="none" style="stroke: #A80036; stroke-width: 1.5;"/><!--reverse link NodeJS to NPMClient--><path d="M531.9906,175.4209 C531.9093,175.4798 531.8277,175.5389 531.7457,175.5984 C531.5818,175.7174 531.4165,175.8377 531.25,175.9592 C530.917,176.2022 530.5788,176.4502 530.2358,176.7032 C528.8635,177.7153 527.4133,178.8067 525.9018,179.973 C522.8789,182.3056 519.6111,184.9379 516.2329,187.8339 C502.72,199.4179 487.4405,215.2221 479,232.9531 C452.675,288.2531 453.518,362.7031 455.947,399.2831 " fill="none" id="NodeJS&lt;-NPMClient" style="stroke: #A80036; stroke-width: 1.0;"/><polygon fill="#A80036" points="531.9906,175.4209,522.3549,177.4588,527.9406,178.3531,527.0463,183.9388,531.9906,175.4209" style="stroke: #A80036; stroke-width: 1.0;"/><text fill="#000000" font-family="sans-serif" font-size="13" lengthAdjust="spacingAndGlyphs" textLength="21" x="480" y="246.02">run</text><!--link NPMClient to NPMBinAPI--><path d="M469.196,445.7801 C488.746,484.7691 528.241,563.5311 540.957,588.8901 " fill="none" id="NPMClient-NPMBinAPI" style="stroke: #A80036; stroke-width: 1.0;"/><!--reverse link NPMBinAPI to IDKInterface--><path d="M548.05,617.2501 C553.118,647.6591 563.072,707.3871 566.666,728.9501 " fill="none" id="NPMBinAPI&lt;-IDKInterface" style="stroke: #A80036; stroke-width: 1.0;"/><path d="M538.5341,611.5992 A9,9 0 0 0 555.2183 608.8176" fill="none" style="stroke: #A80036; stroke-width: 1.5;"/><!--link NPMClient to NPMCli--><path d="M458.422,445.4981 C459.63,508.6341 463.067,688.2031 463.843,728.7491 " fill="none" id="NPMClient-NPMCli" style="stroke: #A80036; stroke-width: 1.0;"/><!--
@startuml services_network
    skinparam note {
        FontName "Courier New"
    }

    title Services Network

    node "npmjs.com" as NPMServer {
        interface "NPM Interface" as NPMInterface #ffc7fd
        node "NPM Service" as NPMService
        database "NPM Register" as NPMRegister
        NPMService -> NPMRegister: use
        NPMService - - NPMInterface
    }

    node "Host node" as HostNode {

        frame "Node.js Global Scope" as NodeJsGlobalScope {
            package "imazzine@0.0.0" as rootPackage {
                package "@imazzine/cli@0.0.0" as cliPackage {
                    artifact "cli.js" as cliJs
                }
            }
        }
        NPMRegister "1..*" o- - rootPackage

        node "Node.js process" as NodeJS {
            component "IDK Application" as IDKApplication [[./IDKApplication.svg]]
            IDKApplication <- - cliJs: execute
        }
        NodeJS - -> cliJs: evaluate

        node "NPM Client" as NPMClient
        NPMInterface )- NPMClient
        NodeJS <- - NPMClient: run

        interface "bin" as NPMBinAPI [[https://docs.npmjs.com/files/package.json#bin]] #ffc7fd
        NPMClient - - NPMBinAPI

        frame "Command Line" as CommandLine {
            interface "zz" as IDKInterface #c9ffc7
            NPMBinAPI )- - IDKInterface

            interface "npm" as NPMCli [[https://docs.npmjs.com/cli/install]] #c9ffc7
            NPMClient - - NPMCli

            note as NPM_CLI_LIST
                npm i -g imazzine@0.0.0
            end note
            NPMCli .. NPM_CLI_LIST
        }

        note as IDK_CLI_LIST
            zz help
            zz version
            zz commands <add|configure|remove> <name> [set|unset] [key] [value]
            zz projects <add|configure|remove> <name> [set|unset] [key] [value]
            zz list <commands|projects>
        end note
        IDKInterface .. IDK_CLI_LIST
    }
@enduml

PlantUML version 1.2019.09(Mon Aug 26 19:19:51 EEST 2019)
(GPL source distribution)
Java Runtime: Java(TM) SE Runtime Environment
JVM: Java HotSpot(TM) 64-Bit Server VM
Java Version: 1.8.0_201-b09
Operating System: Linux
OS Version: 4.15.0-55-generic
Default Encoding: UTF-8
Language: en
Country: US
--></g></svg>