<?xml version="1.0" encoding="UTF-8" standalone="no"?><svg xmlns="http://www.w3.org/2000/svg" xmlns:xlink="http://www.w3.org/1999/xlink" contentScriptType="application/ecmascript" contentStyleType="text/css" height="523px" preserveAspectRatio="none" style="width:189px;height:523px;" version="1.1" viewBox="0 0 189 523" width="189px" zoomAndPan="magnify"><defs><filter height="300%" id="f1ov4xz8i9ql3m" width="300%" x="-1" y="-1"><feGaussianBlur result="blurOut" stdDeviation="2.0"/><feColorMatrix in="blurOut" result="blurOut2" type="matrix" values="0 0 0 0 0 0 0 0 0 0 0 0 0 0 0 0 0 0 .4 0"/><feOffset dx="4.0" dy="4.0" in="blurOut2" result="blurOut3"/><feBlend in="SourceGraphic" in2="blurOut3" mode="normal"/></filter></defs><g><text fill="#000000" font-family="sans-serif" font-size="18" lengthAdjust="spacingAndGlyphs" textLength="92" x="47.5" y="26.708">Build Flow</text><ellipse cx="68.5" cy="40.9531" fill="#000000" filter="url(#f1ov4xz8i9ql3m)" rx="10" ry="10" style="stroke: none; stroke-width: 1.0;"/><polygon fill="#FEFECE" filter="url(#f1ov4xz8i9ql3m)" points="57,312.9648,90,312.9648,80,346.9336,47,346.9336" style="stroke: #A80036; stroke-width: 1.5;"/><text fill="#000000" font-family="sans-serif" font-size="12" lengthAdjust="spacingAndGlyphs" textLength="23" x="57" y="334.1035">info</text><polygon fill="#FEFECE" filter="url(#f1ov4xz8i9ql3m)" points="39.5,264.5625,97.5,264.5625,109.5,276.5625,97.5,288.5625,39.5,288.5625,27.5,276.5625,39.5,264.5625" style="stroke: #A80036; stroke-width: 1.5;"/><text fill="#000000" font-family="sans-serif" font-size="11" lengthAdjust="spacingAndGlyphs" textLength="42" x="72.5" y="298.7729">passed</text><text fill="#000000" font-family="sans-serif" font-size="11" lengthAdjust="spacingAndGlyphs" textLength="58" x="39.5" y="280.3706">publishing</text><text fill="#000000" font-family="sans-serif" font-size="11" lengthAdjust="spacingAndGlyphs" textLength="31" x="109.5" y="273.9683">failed</text><ellipse cx="160.5" cy="276.5625" fill="#FEFECE" filter="url(#f1ov4xz8i9ql3m)" rx="10" ry="10" style="stroke: #A80036; stroke-width: 1.5;"/><path d="M160.6094,272.7344 L159,277.0781 L162.2188,277.0781 L160.6094,272.7344 Z M159.9375,271.5625 L161.2813,271.5625 L164.6094,280.3125 L163.375,280.3125 L162.5781,278.0625 L158.6406,278.0625 L157.8438,280.3125 L156.5938,280.3125 L159.9375,271.5625 Z "/><polygon fill="#FEFECE" filter="url(#f1ov4xz8i9ql3m)" points="41.5,216.1602,95.5,216.1602,107.5,228.1602,95.5,240.1602,41.5,240.1602,29.5,228.1602,41.5,216.1602" style="stroke: #A80036; stroke-width: 1.5;"/><text fill="#000000" font-family="sans-serif" font-size="11" lengthAdjust="spacingAndGlyphs" textLength="42" x="72.5" y="250.3706">passed</text><text fill="#000000" font-family="sans-serif" font-size="11" lengthAdjust="spacingAndGlyphs" textLength="54" x="41.5" y="231.9683">compiling</text><text fill="#000000" font-family="sans-serif" font-size="11" lengthAdjust="spacingAndGlyphs" textLength="31" x="107.5" y="225.5659">failed</text><ellipse cx="158.5" cy="228.1602" fill="#FEFECE" filter="url(#f1ov4xz8i9ql3m)" rx="10" ry="10" style="stroke: #A80036; stroke-width: 1.5;"/><path d="M158.6094,224.332 L157,228.6758 L160.2188,228.6758 L158.6094,224.332 Z M157.9375,223.1602 L159.2813,223.1602 L162.6094,231.9102 L161.375,231.9102 L160.5781,229.6602 L156.6406,229.6602 L155.8438,231.9102 L154.5938,231.9102 L157.9375,223.1602 Z "/><polygon fill="#FEFECE" filter="url(#f1ov4xz8i9ql3m)" points="32,167.7578,105,167.7578,117,179.7578,105,191.7578,32,191.7578,20,179.7578,32,167.7578" style="stroke: #A80036; stroke-width: 1.5;"/><text fill="#000000" font-family="sans-serif" font-size="11" lengthAdjust="spacingAndGlyphs" textLength="42" x="72.5" y="201.9683">passed</text><text fill="#000000" font-family="sans-serif" font-size="11" lengthAdjust="spacingAndGlyphs" textLength="73" x="32" y="183.5659">documenting</text><text fill="#000000" font-family="sans-serif" font-size="11" lengthAdjust="spacingAndGlyphs" textLength="31" x="117" y="177.1636">failed</text><ellipse cx="168" cy="179.7578" fill="#FEFECE" filter="url(#f1ov4xz8i9ql3m)" rx="10" ry="10" style="stroke: #A80036; stroke-width: 1.5;"/><path d="M168.1094,175.9297 L166.5,180.2734 L169.7188,180.2734 L168.1094,175.9297 Z M167.4375,174.7578 L168.7813,174.7578 L172.1094,183.5078 L170.875,183.5078 L170.0781,181.2578 L166.1406,181.2578 L165.3438,183.5078 L164.0938,183.5078 L167.4375,174.7578 Z "/><polygon fill="#FEFECE" filter="url(#f1ov4xz8i9ql3m)" points="49,119.3555,88,119.3555,100,131.3555,88,143.3555,49,143.3555,37,131.3555,49,119.3555" style="stroke: #A80036; stroke-width: 1.5;"/><text fill="#000000" font-family="sans-serif" font-size="11" lengthAdjust="spacingAndGlyphs" textLength="42" x="72.5" y="153.5659">passed</text><text fill="#000000" font-family="sans-serif" font-size="11" lengthAdjust="spacingAndGlyphs" textLength="39" x="49" y="135.1636">testing</text><text fill="#000000" font-family="sans-serif" font-size="11" lengthAdjust="spacingAndGlyphs" textLength="31" x="100" y="128.7612">failed</text><ellipse cx="151" cy="131.3555" fill="#FEFECE" filter="url(#f1ov4xz8i9ql3m)" rx="10" ry="10" style="stroke: #A80036; stroke-width: 1.5;"/><path d="M151.1094,127.5273 L149.5,131.8711 L152.7188,131.8711 L151.1094,127.5273 Z M150.4375,126.3555 L151.7813,126.3555 L155.1094,135.1055 L153.875,135.1055 L153.0781,132.8555 L149.1406,132.8555 L148.3438,135.1055 L147.0938,135.1055 L150.4375,126.3555 Z "/><polygon fill="#FEFECE" filter="url(#f1ov4xz8i9ql3m)" points="41.5,70.9531,95.5,70.9531,107.5,82.9531,95.5,94.9531,41.5,94.9531,29.5,82.9531,41.5,70.9531" style="stroke: #A80036; stroke-width: 1.5;"/><text fill="#000000" font-family="sans-serif" font-size="11" lengthAdjust="spacingAndGlyphs" textLength="42" x="72.5" y="105.1636">passed</text><text fill="#000000" font-family="sans-serif" font-size="11" lengthAdjust="spacingAndGlyphs" textLength="54" x="41.5" y="86.7612">analysing</text><text fill="#000000" font-family="sans-serif" font-size="11" lengthAdjust="spacingAndGlyphs" textLength="31" x="107.5" y="80.3589">failed</text><ellipse cx="158.5" cy="82.9531" fill="#FEFECE" filter="url(#f1ov4xz8i9ql3m)" rx="10" ry="10" style="stroke: #A80036; stroke-width: 1.5;"/><path d="M158.6094,79.125 L157,83.4688 L160.2188,83.4688 L158.6094,79.125 Z M157.9375,77.9531 L159.2813,77.9531 L162.6094,86.7031 L161.375,86.7031 L160.5781,84.4531 L156.6406,84.4531 L155.8438,86.7031 L154.5938,86.7031 L157.9375,77.9531 Z "/><ellipse cx="68.5" cy="376.9336" fill="#FFFFFF" filter="url(#f1ov4xz8i9ql3m)" rx="10" ry="10" style="stroke: #000000; stroke-width: 1.5;"/><line style="stroke: #000000; stroke-width: 2.5;" x1="62.3128" x2="74.6872" y1="370.7464" y2="383.1208"/><line style="stroke: #000000; stroke-width: 2.5;" x1="74.6872" x2="62.3128" y1="370.7464" y2="383.1208"/><ellipse cx="68.5" cy="406.9336" fill="#FEFECE" filter="url(#f1ov4xz8i9ql3m)" rx="10" ry="10" style="stroke: #A80036; stroke-width: 1.5;"/><path d="M68.6094,403.1055 L67,407.4492 L70.2188,407.4492 L68.6094,403.1055 Z M67.9375,401.9336 L69.2813,401.9336 L72.6094,410.6836 L71.375,410.6836 L70.5781,408.4336 L66.6406,408.4336 L65.8438,410.6836 L64.5938,410.6836 L67.9375,401.9336 Z "/><polygon fill="#FEFECE" filter="url(#f1ov4xz8i9ql3m)" points="53,436.9336,94,436.9336,84,470.9023,43,470.9023" style="stroke: #A80036; stroke-width: 1.5;"/><text fill="#000000" font-family="sans-serif" font-size="12" lengthAdjust="spacingAndGlyphs" textLength="31" x="53" y="458.0723">error</text><ellipse cx="68.5" cy="501.9023" fill="#FFFFFF" filter="url(#f1ov4xz8i9ql3m)" rx="11" ry="11" style="stroke: #000000; stroke-width: 1.0;"/><ellipse cx="68.5" cy="501.9023" fill="#000000" rx="6" ry="6" style="stroke: #7F7F7F; stroke-width: 1.0;"/><line style="stroke: #008000; stroke-width: 1.5;" x1="68.5" x2="68.5" y1="288.5625" y2="312.9648"/><polygon fill="#008000" points="64.5,302.9648,68.5,312.9648,72.5,302.9648,68.5,306.9648" style="stroke: #008000; stroke-width: 1.0;"/><line style="stroke: #A80036; stroke-width: 1.5;" x1="109.5" x2="150.5" y1="276.5625" y2="276.5625"/><polygon fill="#A80036" points="140.5,272.5625,150.5,276.5625,140.5,280.5625,144.5,276.5625" style="stroke: #A80036; stroke-width: 1.0;"/><line style="stroke: #A80036; stroke-width: 1.5;" x1="68.5" x2="68.5" y1="346.9336" y2="366.9336"/><polygon fill="#A80036" points="64.5,356.9336,68.5,366.9336,72.5,356.9336,68.5,360.9336" style="stroke: #A80036; stroke-width: 1.0;"/><line style="stroke: #008000; stroke-width: 1.5;" x1="68.5" x2="68.5" y1="240.1602" y2="264.5625"/><polygon fill="#008000" points="64.5,254.5625,68.5,264.5625,72.5,254.5625,68.5,258.5625" style="stroke: #008000; stroke-width: 1.0;"/><line style="stroke: #A80036; stroke-width: 1.5;" x1="107.5" x2="148.5" y1="228.1602" y2="228.1602"/><polygon fill="#A80036" points="138.5,224.1602,148.5,228.1602,138.5,232.1602,142.5,228.1602" style="stroke: #A80036; stroke-width: 1.0;"/><line style="stroke: #008000; stroke-width: 1.5;" x1="68.5" x2="68.5" y1="191.7578" y2="216.1602"/><polygon fill="#008000" points="64.5,206.1602,68.5,216.1602,72.5,206.1602,68.5,210.1602" style="stroke: #008000; stroke-width: 1.0;"/><line style="stroke: #A80036; stroke-width: 1.5;" x1="117" x2="158" y1="179.7578" y2="179.7578"/><polygon fill="#A80036" points="148,175.7578,158,179.7578,148,183.7578,152,179.7578" style="stroke: #A80036; stroke-width: 1.0;"/><line style="stroke: #008000; stroke-width: 1.5;" x1="68.5" x2="68.5" y1="143.3555" y2="167.7578"/><polygon fill="#008000" points="64.5,157.7578,68.5,167.7578,72.5,157.7578,68.5,161.7578" style="stroke: #008000; stroke-width: 1.0;"/><line style="stroke: #A80036; stroke-width: 1.5;" x1="100" x2="141" y1="131.3555" y2="131.3555"/><polygon fill="#A80036" points="131,127.3555,141,131.3555,131,135.3555,135,131.3555" style="stroke: #A80036; stroke-width: 1.0;"/><line style="stroke: #008000; stroke-width: 1.5;" x1="68.5" x2="68.5" y1="94.9531" y2="119.3555"/><polygon fill="#008000" points="64.5,109.3555,68.5,119.3555,72.5,109.3555,68.5,113.3555" style="stroke: #008000; stroke-width: 1.0;"/><line style="stroke: #A80036; stroke-width: 1.5;" x1="107.5" x2="148.5" y1="82.9531" y2="82.9531"/><polygon fill="#A80036" points="138.5,78.9531,148.5,82.9531,138.5,86.9531,142.5,82.9531" style="stroke: #A80036; stroke-width: 1.0;"/><line style="stroke: #A80036; stroke-width: 1.5;" x1="68.5" x2="68.5" y1="50.9531" y2="70.9531"/><polygon fill="#A80036" points="64.5,60.9531,68.5,70.9531,72.5,60.9531,68.5,64.9531" style="stroke: #A80036; stroke-width: 1.0;"/><line style="stroke: #A80036; stroke-width: 1.5;" x1="68.5" x2="68.5" y1="416.9336" y2="436.9336"/><polygon fill="#A80036" points="64.5,426.9336,68.5,436.9336,72.5,426.9336,68.5,430.9336" style="stroke: #A80036; stroke-width: 1.0;"/><line style="stroke: #A80036; stroke-width: 1.5;" x1="68.5" x2="68.5" y1="470.9023" y2="490.9023"/><polygon fill="#A80036" points="64.5,480.9023,68.5,490.9023,72.5,480.9023,68.5,484.9023" style="stroke: #A80036; stroke-width: 1.0;"/><!--
@startuml build_flow
    title Build Flow
    start
        if (analysing) then (passed)
            -[#green]->
            if (testing) then (passed)
                -[#green]->
                if (documenting) then (passed)
                    -[#green]->
                    if (compiling) then (passed)
                        -[#green]->
                        if (publishing) then (passed)
                            -[#green]->
                            :info/
                        else (failed)
                            (A)
                        endif
                    else (failed)
                        (A)
                    endif
                else (failed)
                    (A)
                endif
            else (failed)
                (A)
            endif
        else (failed)
            (A)
        endif
    end

    (A)
    :error/
    stop
@enduml

PlantUML version 1.2019.09(Mon Aug 26 19:19:51 EEST 2019)
(GPL source distribution)
Java Runtime: Java(TM) SE Runtime Environment
JVM: Java HotSpot(TM) 64-Bit Server VM
Java Version: 1.8.0_201-b09
Operating System: Linux
OS Version: 4.15.0-55-generic
Default Encoding: UTF-8
Language: en
Country: US
--></g></svg>