<?xml version="1.0" encoding="UTF-8" standalone="no"?><svg xmlns="http://www.w3.org/2000/svg" xmlns:xlink="http://www.w3.org/1999/xlink" contentScriptType="application/ecmascript" contentStyleType="text/css" height="423px" preserveAspectRatio="none" style="width:536px;height:423px;" version="1.1" viewBox="0 0 536 423" width="536px" zoomAndPan="magnify"><defs><filter height="300%" id="f6diguvciknht" width="300%" x="-1" y="-1"><feGaussianBlur result="blurOut" stdDeviation="2.0"/><feColorMatrix in="blurOut" result="blurOut2" type="matrix" values="0 0 0 0 0 0 0 0 0 0 0 0 0 0 0 0 0 0 .4 0"/><feOffset dx="4.0" dy="4.0" in="blurOut2" result="blurOut3"/><feBlend in="SourceGraphic" in2="blurOut3" mode="normal"/></filter></defs><g><text fill="#000000" font-family="sans-serif" font-size="18" lengthAdjust="spacingAndGlyphs" textLength="152" x="195" y="16.708">Devices Network</text><!--cluster Network--><path d="M38.1443,56.5116 C46.7596,38.8667 60.8807,38.5901 72.9605,52.7149 C85.1522,35.2912 99.0469,39.1923 107.9697,56.053 C114.0236,42.7123 127.9835,40.7556 136.9407,52.7304 C146.4528,36.9712 164.5994,36.0211 173.3159,53.5983 C180.9007,38.9796 196.3656,37.4306 204.4624,53.0713 C212.7233,35.594 225.0715,32.1013 237.5896,48.9644 C246.0893,31.6616 257.1559,31.9835 268.2229,46.4923 C279.8958,33.7956 294.7578,36.378 302.0026,51.81 C312.701,38.9003 322.9263,35.0835 333.6202,51.8148 C342.0069,37.685 356.2575,37.6029 362.9652,53.4578 C373.5619,36.4587 389.357,37.5556 399.8774,53.5431 C412.1139,38.3538 421.7418,41.4177 430.9121,56.6691 C437.8899,40.3577 453.0432,37.1806 462.8602,53.925 C477.2656,36.9709 491.1734,42.5355 500,59.9531 C502.5539,58.5288 505.1683,58.8952 505.2888,62.5081 C522.7222,74.6589 520.7165,85.5956 503.2721,95.6222 C514.7747,103.798 514.7444,116.41 502.5391,123.9727 C521.5548,133.3244 521.9876,144.4637 507.2117,158.4016 C521.2214,168.9193 520.8047,178.6721 505.635,187.6148 C524.6722,195.6851 523.7948,209.1527 509.5737,221.1314 C524.5306,231.4338 521.9443,245.8854 505.5256,252.0845 C521.4791,260.3684 519.6312,271.327 506.6023,280.7014 C523.9836,291.8335 521.0907,306.2124 506.2639,317.0446 C519.7084,326.589 520.0413,334.8796 506.4791,344.6347 C517.9518,363.4376 516.6553,375.8382 493,381.9531 C493.5932,381.61 494.0295,381.9027 494.0981,382.5405 C485.8374,396.0734 476.6554,398.3456 464.7299,386.8388 C456.5442,402.1565 442.9852,403.8081 432.0693,389.8887 C421.6371,404.8832 408.0783,405.5679 398.2403,389.2469 C387.7086,407.5521 375.0364,405.9715 364.2511,389.4947 C353.5083,403.8996 343.0433,406.0508 332.0176,389.7921 C324.8718,403.4262 313.2377,404.1299 303.2408,393.1214 C289.0461,411.6723 275.8692,410.1147 265.3177,389.5859 C257.4119,403.6259 244.215,408.0992 233.7929,392.239 C225.3111,407.8974 210.6494,404.5202 203.5969,390.7714 C193.4217,408.4603 177.1963,402.9918 169.4394,388.2263 C163.143,403.8253 148.3634,404.2017 139.2895,391.1489 C125.6249,405.2495 110.9097,406.3022 102.2394,385.8012 C93.9615,402.877 78.8411,403.0524 70.0381,386.3011 C52.6503,401.2208 36.3347,399.0311 30,374.9531 C33.1141,373.2096 35.2857,373.5373 36.0171,377.4761 C20.8534,371.9231 18.6914,356.2525 30.325,345.8729 C17.2834,337.1384 17.9137,322.5117 32.1807,315.4425 C14.607,306.8048 15.5188,292.0313 31.2449,282.4492 C15.1905,273.141 18.2749,259.6754 31.6573,250.7501 C17.6984,241.3399 17.8506,230.4137 31.032,220.4435 C18.1268,211.1708 18.6856,201.011 30.4612,191.2556 C17.6715,178.5944 19.5094,168.1899 33.9308,158.4025 C19.3033,148.6041 13.9232,139.1248 30.0465,125.6765 C17.458,115.0914 16.3717,101.2066 32.7921,93.0637 C13.9176,76.9685 16.7424,64.9431 37,52.9531 C39.1571,53.4555 39.6794,54.8219 38.1443,56.5116 " fill="#FFFFFF" style="stroke: #000000; stroke-width: 1.5;"/><text fill="#000000" font-family="sans-serif" font-size="14" font-weight="bold" lengthAdjust="spacingAndGlyphs" textLength="67" x="231.5" y="70.9482">Network</text><!--entity VCServer--><path d="M38,195.9531 C38,185.9531 125,185.9531 125,185.9531 C125,185.9531 212,185.9531 212,195.9531 L212,221.25 C212,231.25 125,231.25 125,231.25 C125,231.25 38,231.25 38,221.25 L38,195.9531 " fill="#FEFECE" filter="url(#f6diguvciknht)" style="stroke: #000000; stroke-width: 1.5;"/><path d="M38,195.9531 C38,205.9531 125,205.9531 125,205.9531 C125,205.9531 212,205.9531 212,195.9531 " fill="none" style="stroke: #000000; stroke-width: 1.5;"/><text fill="#000000" font-family="sans-serif" font-size="14" lengthAdjust="spacingAndGlyphs" textLength="154" x="48" y="222.9482">Version Control Server</text><!--entity PackageServer--><path d="M300.5,195.9531 C300.5,185.9531 396,185.9531 396,185.9531 C396,185.9531 491.5,185.9531 491.5,195.9531 L491.5,221.25 C491.5,231.25 396,231.25 396,231.25 C396,231.25 300.5,231.25 300.5,221.25 L300.5,195.9531 " fill="#FEFECE" filter="url(#f6diguvciknht)" style="stroke: #000000; stroke-width: 1.5;"/><path d="M300.5,195.9531 C300.5,205.9531 396,205.9531 396,205.9531 C396,205.9531 491.5,205.9531 491.5,195.9531 " fill="none" style="stroke: #000000; stroke-width: 1.5;"/><text fill="#000000" font-family="sans-serif" font-size="14" lengthAdjust="spacingAndGlyphs" textLength="171" x="310.5" y="222.9482">Package Manager Server</text><!--entity CICDServer--><polygon fill="#FEFECE" filter="url(#f6diguvciknht)" points="192.5,89.9531,202.5,79.9531,319.5,79.9531,319.5,116.25,309.5,126.25,192.5,126.25,192.5,89.9531" style="stroke: #000000; stroke-width: 1.5;"/><line style="stroke: #000000; stroke-width: 1.5;" x1="309.5" x2="318.5" y1="89.9531" y2="80.9531"/><line style="stroke: #000000; stroke-width: 1.5;" x1="192.5" x2="309.5" y1="89.9531" y2="89.9531"/><line style="stroke: #000000; stroke-width: 1.5;" x1="309.5" x2="309.5" y1="89.9531" y2="126.25"/><text fill="#000000" font-family="sans-serif" font-size="14" lengthAdjust="spacingAndGlyphs" textLength="87" x="207.5" y="112.9482">CI/CD Server</text><!--entity Producer--><ellipse cx="204" cy="300.9531" fill="#FEFECE" filter="url(#f6diguvciknht)" rx="8" ry="8" style="stroke: #A80036; stroke-width: 2.0;"/><path d="M204,308.9531 L204,335.9531 M191,316.9531 L217,316.9531 M204,335.9531 L191,350.9531 M204,335.9531 L217,350.9531 " fill="none" filter="url(#f6diguvciknht)" style="stroke: #A80036; stroke-width: 2.0;"/><text fill="#000000" font-family="sans-serif" font-size="14" lengthAdjust="spacingAndGlyphs" textLength="63" x="172.5" y="370.9482">Producer</text><!--entity Consumer--><ellipse cx="307" cy="300.9531" fill="#FEFECE" filter="url(#f6diguvciknht)" rx="8" ry="8" style="stroke: #A80036; stroke-width: 2.0;"/><path d="M307,308.9531 L307,335.9531 M294,316.9531 L320,316.9531 M307,335.9531 L294,350.9531 M307,335.9531 L320,350.9531 " fill="none" filter="url(#f6diguvciknht)" style="stroke: #A80036; stroke-width: 2.0;"/><text fill="#000000" font-family="sans-serif" font-size="14" lengthAdjust="spacingAndGlyphs" textLength="72" x="271" y="370.9482">Consumer</text><!--entity Ethernet--><ellipse cx="256" cy="208.4531" fill="#FEFECE" filter="url(#f6diguvciknht)" rx="8" ry="8" style="stroke: #A80036; stroke-width: 2.0;"/><text fill="#000000" font-family="sans-serif" font-size="14" lengthAdjust="spacingAndGlyphs" textLength="60" x="226" y="238.4482">Ethernet</text><!--link VCServer to Ethernet--><path d="M212.248,208.4531 C220.339,208.4531 228.431,208.4531 236.522,208.4531 " fill="none" id="VCServer-Ethernet" style="stroke: #A80036; stroke-width: 1.0;"/><path d="M243.6928,199.9959 A9,9 0 0 0 243.6928 216.9104" fill="none" style="stroke: #A80036; stroke-width: 1.5;"/><!--link CICDServer to Ethernet--><path d="M256,126.1561 C256,144.8671 256,171.3261 256,188.9181 " fill="none" id="CICDServer-Ethernet" style="stroke: #A80036; stroke-width: 1.0;"/><path d="M264.4572,195.9489 A9,9 0 0 0 247.5428 195.9489" fill="none" style="stroke: #A80036; stroke-width: 1.5;"/><!--link Ethernet to PackageServer--><path d="M275.228,208.4531 C283.594,208.4531 291.96,208.4531 300.326,208.4531 " fill="none" id="Ethernet-PackageServer" style="stroke: #A80036; stroke-width: 1.0;"/><path d="M268.1012,216.9104 A9,9 0 0 0 268.1012 199.9959" fill="none" style="stroke: #A80036; stroke-width: 1.5;"/><!--link Ethernet to Producer--><path d="M248.55,226.9321 C241.482,243.5151 230.597,269.0531 221.356,290.7331 " fill="none" id="Ethernet-Producer" style="stroke: #A80036; stroke-width: 1.0;"/><path d="M243.601,216.9748 A9,9 0 0 0 259.1618 223.6051" fill="none" style="stroke: #A80036; stroke-width: 1.5;"/><!--link Ethernet to Consumer--><path d="M263.307,226.9321 C270.239,243.5151 280.915,269.0531 289.978,290.7331 " fill="none" id="Ethernet-Consumer" style="stroke: #A80036; stroke-width: 1.0;"/><path d="M252.7306,223.5603 A9,9 0 0 0 268.3361 217.0359" fill="none" style="stroke: #A80036; stroke-width: 1.5;"/><!--
@startuml devices_network
    title Devices Network

    cloud "Network" as Network {
        database "Version Control Server" as VCServer
        database "Package Manager Server" as PackageServer
        node "CI/CD Server" as CICDServer
        actor "Producer" as Producer
        actor "Consumer" as Consumer
        interface "Ethernet" as Ethernet
        VCServer -( Ethernet
        CICDServer - -( Ethernet
        Ethernet )- PackageServer
        Ethernet )- - Producer
        Ethernet )- - Consumer
    }
@enduml

PlantUML version 1.2019.06(Fri May 24 20:10:25 EEST 2019)
(GPL source distribution)
Java Runtime: Java(TM) SE Runtime Environment
JVM: Java HotSpot(TM) 64-Bit Server VM
Java Version: 1.8.0_201-b09
Operating System: Linux
OS Version: 4.15.0-47-generic
Default Encoding: UTF-8
Language: en
Country: US
--></g></svg>