<?xml version="1.0" encoding="UTF-8" standalone="no"?><svg xmlns="http://www.w3.org/2000/svg" xmlns:xlink="http://www.w3.org/1999/xlink" contentScriptType="application/ecmascript" contentStyleType="text/css" height="813px" preserveAspectRatio="none" style="width:977px;height:813px;" version="1.1" viewBox="0 0 977 813" width="977px" zoomAndPan="magnify"><defs><filter height="300%" id="fwq30b0b04to0" width="300%" x="-1" y="-1"><feGaussianBlur result="blurOut" stdDeviation="2.0"/><feColorMatrix in="blurOut" result="blurOut2" type="matrix" values="0 0 0 0 0 0 0 0 0 0 0 0 0 0 0 0 0 0 .4 0"/><feOffset dx="4.0" dy="4.0" in="blurOut2" result="blurOut3"/><feBlend in="SourceGraphic" in2="blurOut3" mode="normal"/></filter></defs><g><text fill="#000000" font-family="sans-serif" font-size="18" lengthAdjust="spacingAndGlyphs" textLength="157" x="416" y="16.708">Services Network</text><!--cluster VCServer--><polygon fill="#FFFFFF" filter="url(#fwq30b0b04to0)" points="180,54.9531,190,44.9531,503,44.9531,503,136.9531,493,146.9531,180,146.9531,180,54.9531" style="stroke: #000000; stroke-width: 1.5;"/><line style="stroke: #000000; stroke-width: 1.5;" x1="493" x2="502" y1="54.9531" y2="45.9531"/><line style="stroke: #000000; stroke-width: 1.5;" x1="180" x2="493" y1="54.9531" y2="54.9531"/><line style="stroke: #000000; stroke-width: 1.5;" x1="493" x2="493" y1="54.9531" y2="146.9531"/><text fill="#000000" font-family="sans-serif" font-size="14" font-weight="bold" lengthAdjust="spacingAndGlyphs" textLength="221" x="227" y="70.9482">Version Control (VC) Server</text><!--cluster PackageServer--><polygon fill="#FFFFFF" filter="url(#fwq30b0b04to0)" points="567,308.9531,577,298.9531,955,298.9531,955,390.9531,945,400.9531,567,400.9531,567,308.9531" style="stroke: #000000; stroke-width: 1.5;"/><line style="stroke: #000000; stroke-width: 1.5;" x1="945" x2="954" y1="308.9531" y2="299.9531"/><line style="stroke: #000000; stroke-width: 1.5;" x1="567" x2="945" y1="308.9531" y2="308.9531"/><line style="stroke: #000000; stroke-width: 1.5;" x1="945" x2="945" y1="308.9531" y2="400.9531"/><text fill="#000000" font-family="sans-serif" font-size="14" font-weight="bold" lengthAdjust="spacingAndGlyphs" textLength="197" x="658.5" y="324.9482">Package Manager Server</text><!--cluster CICDServer--><polygon fill="#FFFFFF" filter="url(#fwq30b0b04to0)" points="367,308.9531,377,298.9531,543,298.9531,543,390.9531,533,400.9531,367,400.9531,367,308.9531" style="stroke: #000000; stroke-width: 1.5;"/><line style="stroke: #000000; stroke-width: 1.5;" x1="533" x2="542" y1="308.9531" y2="299.9531"/><line style="stroke: #000000; stroke-width: 1.5;" x1="367" x2="533" y1="308.9531" y2="308.9531"/><line style="stroke: #000000; stroke-width: 1.5;" x1="533" x2="533" y1="308.9531" y2="400.9531"/><text fill="#000000" font-family="sans-serif" font-size="14" font-weight="bold" lengthAdjust="spacingAndGlyphs" textLength="100" x="401" y="324.9482">CI/CD Server</text><!--cluster Producer--><polygon fill="#FFFFFF" filter="url(#fwq30b0b04to0)" points="22,443.9531,32,433.9531,416,433.9531,416,670.9531,406,680.9531,22,680.9531,22,443.9531" style="stroke: #000000; stroke-width: 1.5;"/><line style="stroke: #000000; stroke-width: 1.5;" x1="406" x2="415" y1="443.9531" y2="434.9531"/><line style="stroke: #000000; stroke-width: 1.5;" x1="22" x2="406" y1="443.9531" y2="443.9531"/><line style="stroke: #000000; stroke-width: 1.5;" x1="406" x2="406" y1="443.9531" y2="680.9531"/><text fill="#000000" font-family="sans-serif" font-size="14" font-weight="bold" lengthAdjust="spacingAndGlyphs" textLength="73" x="178.5" y="459.9482">Producer</text><!--cluster Consumer--><polygon fill="#FFFFFF" filter="url(#fwq30b0b04to0)" points="567,582.9531,577,572.9531,953,572.9531,953,791.9531,943,801.9531,567,801.9531,567,582.9531" style="stroke: #000000; stroke-width: 1.5;"/><line style="stroke: #000000; stroke-width: 1.5;" x1="943" x2="952" y1="582.9531" y2="573.9531"/><line style="stroke: #000000; stroke-width: 1.5;" x1="567" x2="943" y1="582.9531" y2="582.9531"/><line style="stroke: #000000; stroke-width: 1.5;" x1="943" x2="943" y1="582.9531" y2="801.9531"/><text fill="#000000" font-family="sans-serif" font-size="14" font-weight="bold" lengthAdjust="spacingAndGlyphs" textLength="81" x="715.5" y="598.9482">Consumer</text><!--entity VCRepo--><path d="M196.5,95.4531 C196.5,85.4531 255,85.4531 255,85.4531 C255,85.4531 313.5,85.4531 313.5,95.4531 L313.5,120.75 C313.5,130.75 255,130.75 255,130.75 C255,130.75 196.5,130.75 196.5,120.75 L196.5,95.4531 " fill="#FEFECE" filter="url(#fwq30b0b04to0)" style="stroke: #000000; stroke-width: 1.5;"/><path d="M196.5,95.4531 C196.5,105.4531 255,105.4531 255,105.4531 C255,105.4531 313.5,105.4531 313.5,95.4531 " fill="none" style="stroke: #000000; stroke-width: 1.5;"/><text fill="#000000" font-family="sans-serif" font-size="14" lengthAdjust="spacingAndGlyphs" textLength="97" x="206.5" y="122.4482">VC Repository</text><!--entity VCService--><polygon fill="#FEFECE" filter="url(#fwq30b0b04to0)" points="373.5,94.9531,383.5,84.9531,486.5,84.9531,486.5,121.25,476.5,131.25,373.5,131.25,373.5,94.9531" style="stroke: #000000; stroke-width: 1.5;"/><line style="stroke: #000000; stroke-width: 1.5;" x1="476.5" x2="485.5" y1="94.9531" y2="85.9531"/><line style="stroke: #000000; stroke-width: 1.5;" x1="373.5" x2="476.5" y1="94.9531" y2="94.9531"/><line style="stroke: #000000; stroke-width: 1.5;" x1="476.5" x2="476.5" y1="94.9531" y2="131.25"/><text fill="#000000" font-family="sans-serif" font-size="14" lengthAdjust="spacingAndGlyphs" textLength="73" x="388.5" y="117.9482">VC Service</text><!--entity PackageService--><polygon fill="#FEFECE" filter="url(#fwq30b0b04to0)" points="583.5,348.9531,593.5,338.9531,800.5,338.9531,800.5,375.25,790.5,385.25,583.5,385.25,583.5,348.9531" style="stroke: #000000; stroke-width: 1.5;"/><line style="stroke: #000000; stroke-width: 1.5;" x1="790.5" x2="799.5" y1="348.9531" y2="339.9531"/><line style="stroke: #000000; stroke-width: 1.5;" x1="583.5" x2="790.5" y1="348.9531" y2="348.9531"/><line style="stroke: #000000; stroke-width: 1.5;" x1="790.5" x2="790.5" y1="348.9531" y2="385.25"/><text fill="#000000" font-family="sans-serif" font-size="14" lengthAdjust="spacingAndGlyphs" textLength="177" x="598.5" y="371.9482">Package Manager Service</text><!--entity PackagePackage--><path d="M860.5,349.4531 C860.5,339.4531 900,339.4531 900,339.4531 C900,339.4531 939.5,339.4531 939.5,349.4531 L939.5,374.75 C939.5,384.75 900,384.75 900,384.75 C900,384.75 860.5,384.75 860.5,374.75 L860.5,349.4531 " fill="#FEFECE" filter="url(#fwq30b0b04to0)" style="stroke: #000000; stroke-width: 1.5;"/><path d="M860.5,349.4531 C860.5,359.4531 900,359.4531 900,359.4531 C900,359.4531 939.5,359.4531 939.5,349.4531 " fill="none" style="stroke: #000000; stroke-width: 1.5;"/><text fill="#000000" font-family="sans-serif" font-size="14" lengthAdjust="spacingAndGlyphs" textLength="59" x="870.5" y="376.4482">Package</text><!--entity CICDService--><polygon fill="#FEFECE" filter="url(#fwq30b0b04to0)" points="389.5,348.9531,399.5,338.9531,522.5,338.9531,522.5,375.25,512.5,385.25,389.5,385.25,389.5,348.9531" style="stroke: #000000; stroke-width: 1.5;"/><line style="stroke: #000000; stroke-width: 1.5;" x1="512.5" x2="521.5" y1="348.9531" y2="339.9531"/><line style="stroke: #000000; stroke-width: 1.5;" x1="389.5" x2="512.5" y1="348.9531" y2="348.9531"/><line style="stroke: #000000; stroke-width: 1.5;" x1="512.5" x2="512.5" y1="348.9531" y2="385.25"/><text fill="#000000" font-family="sans-serif" font-size="14" lengthAdjust="spacingAndGlyphs" textLength="93" x="404.5" y="371.9482">CI/CD Service</text><!--entity VCClient--><polygon fill="#FEFECE" filter="url(#fwq30b0b04to0)" points="45,483.9531,55,473.9531,147,473.9531,147,510.25,137,520.25,45,520.25,45,483.9531" style="stroke: #000000; stroke-width: 1.5;"/><line style="stroke: #000000; stroke-width: 1.5;" x1="137" x2="146" y1="483.9531" y2="474.9531"/><line style="stroke: #000000; stroke-width: 1.5;" x1="45" x2="137" y1="483.9531" y2="483.9531"/><line style="stroke: #000000; stroke-width: 1.5;" x1="137" x2="137" y1="483.9531" y2="520.25"/><text fill="#000000" font-family="sans-serif" font-size="14" lengthAdjust="spacingAndGlyphs" textLength="62" x="60" y="506.9482">VC Client</text><!--entity VC_CLI--><ellipse cx="67" cy="635.9531" fill="#FEFECE" filter="url(#fwq30b0b04to0)" rx="8" ry="8" style="stroke: #A80036; stroke-width: 2.0;"/><text fill="#000000" font-family="sans-serif" font-size="14" lengthAdjust="spacingAndGlyphs" textLength="43" x="45.5" y="665.9482">VC CLI</text><!--entity Sources--><polygon fill="#FEFECE" filter="url(#fwq30b0b04to0)" points="205,478.9531,205,515.25,305,515.25,305,488.9531,295,478.9531,205,478.9531" style="stroke: #000000; stroke-width: 1.5;"/><path d="M295,478.9531 L295,488.9531 L305,488.9531 " fill="#FEFECE" style="stroke: #000000; stroke-width: 1.5;"/><text fill="#000000" font-family="sans-serif" font-size="14" lengthAdjust="spacingAndGlyphs" textLength="80" x="215" y="501.9482">Source files</text><!--entity CICDConf--><polygon fill="#FEFECE" filter="url(#fwq30b0b04to0)" points="130.5,617.9531,130.5,654.25,237.5,654.25,237.5,627.9531,227.5,617.9531,130.5,617.9531" style="stroke: #000000; stroke-width: 1.5;"/><path d="M227.5,617.9531 L227.5,627.9531 L237.5,627.9531 " fill="#FEFECE" style="stroke: #000000; stroke-width: 1.5;"/><text fill="#000000" font-family="sans-serif" font-size="14" lengthAdjust="spacingAndGlyphs" textLength="87" x="140.5" y="640.9482">CI/CD Config</text><!--entity PackageConfig--><polygon fill="#FEFECE" filter="url(#fwq30b0b04to0)" points="272.5,617.9531,272.5,654.25,399.5,654.25,399.5,627.9531,389.5,617.9531,272.5,617.9531" style="stroke: #000000; stroke-width: 1.5;"/><path d="M389.5,617.9531 L389.5,627.9531 L399.5,627.9531 " fill="#FEFECE" style="stroke: #000000; stroke-width: 1.5;"/><text fill="#000000" font-family="sans-serif" font-size="14" lengthAdjust="spacingAndGlyphs" textLength="107" x="282.5" y="640.9482">Package Config</text><!--entity PackageClient--><polygon fill="#FEFECE" filter="url(#fwq30b0b04to0)" points="583,622.9531,593,612.9531,789,612.9531,789,649.25,779,659.25,583,659.25,583,622.9531" style="stroke: #000000; stroke-width: 1.5;"/><line style="stroke: #000000; stroke-width: 1.5;" x1="779" x2="788" y1="622.9531" y2="613.9531"/><line style="stroke: #000000; stroke-width: 1.5;" x1="583" x2="779" y1="622.9531" y2="622.9531"/><line style="stroke: #000000; stroke-width: 1.5;" x1="779" x2="779" y1="622.9531" y2="659.25"/><text fill="#000000" font-family="sans-serif" font-size="14" lengthAdjust="spacingAndGlyphs" textLength="166" x="598" y="645.9482">Package Manager Client</text><!--entity Package_CLI--><ellipse cx="686" cy="756.9531" fill="#FEFECE" filter="url(#fwq30b0b04to0)" rx="8" ry="8" style="stroke: #A80036; stroke-width: 2.0;"/><text fill="#000000" font-family="sans-serif" font-size="14" lengthAdjust="spacingAndGlyphs" textLength="147" x="612.5" y="786.9482">Package Manager CLI</text><!--entity Binaries--><polygon fill="#FEFECE" filter="url(#fwq30b0b04to0)" points="862.5,617.9531,862.5,654.25,937.5,654.25,937.5,627.9531,927.5,617.9531,862.5,617.9531" style="stroke: #000000; stroke-width: 1.5;"/><path d="M927.5,617.9531 L927.5,627.9531 L937.5,627.9531 " fill="#FEFECE" style="stroke: #000000; stroke-width: 1.5;"/><text fill="#000000" font-family="sans-serif" font-size="14" lengthAdjust="spacingAndGlyphs" textLength="55" x="872.5" y="640.9482">Binaries</text><!--entity API--><ellipse cx="900" cy="756.9531" fill="#FEFECE" filter="url(#fwq30b0b04to0)" rx="8" ry="8" style="stroke: #A80036; stroke-width: 2.0;"/><text fill="#000000" font-family="sans-serif" font-size="14" lengthAdjust="spacingAndGlyphs" textLength="21" x="889.5" y="786.9482">API</text><!--entity VCServiceAPI--><ellipse cx="452" cy="222.9531" fill="#FEFECE" filter="url(#fwq30b0b04to0)" rx="8" ry="8" style="stroke: #A80036; stroke-width: 2.0;"/><text fill="#000000" font-family="sans-serif" font-size="14" lengthAdjust="spacingAndGlyphs" textLength="98" x="403" y="252.9482">VC Service API</text><!--entity VCInterface--><ellipse cx="342" cy="361.9531" fill="#FEFECE" filter="url(#fwq30b0b04to0)" rx="8" ry="8" style="stroke: #A80036; stroke-width: 2.0;"/><text fill="#000000" font-family="sans-serif" font-size="14" lengthAdjust="spacingAndGlyphs" textLength="83" x="300.5" y="391.9482">VC Interface</text><!--entity PackageInterface--><ellipse cx="686" cy="496.9531" fill="#FEFECE" filter="url(#fwq30b0b04to0)" rx="8" ry="8" style="stroke: #A80036; stroke-width: 2.0;"/><text fill="#000000" font-family="sans-serif" font-size="14" lengthAdjust="spacingAndGlyphs" textLength="187" x="592.5" y="526.9482">Package Manager Interface</text><!--entity CICDInterface--><ellipse cx="491" cy="496.9531" fill="#FEFECE" filter="url(#fwq30b0b04to0)" rx="8" ry="8" style="stroke: #A80036; stroke-width: 2.0;"/><text fill="#000000" font-family="sans-serif" font-size="14" lengthAdjust="spacingAndGlyphs" textLength="103" x="439.5" y="526.9482">CI/CD Interface</text><!--reverse link VCRepo to VCService--><path d="M318.769,107.9531 C336.676,107.9531 356.018,107.9531 373.471,107.9531 " fill="none" id="VCRepo&lt;-VCService" style="stroke: #A80036; stroke-width: 1.0;"/><polygon fill="#A80036" points="313.759,107.9531,322.759,111.9531,318.759,107.9531,322.759,103.9531,313.759,107.9531" style="stroke: #A80036; stroke-width: 1.0;"/><text fill="#000000" font-family="sans-serif" font-size="13" lengthAdjust="spacingAndGlyphs" textLength="23" x="332" y="101.02">use</text><!--link VCService to VCServiceAPI--><path d="M434.294,131.0091 C439.221,156.3151 447.05,196.5291 450.397,213.7201 " fill="none" id="VCService-VCServiceAPI" style="stroke: #A80036; stroke-width: 1.0;"/><!--link VCService to VCInterface--><path d="M413.058,131.2261 C401.292,147.7261 386.142,171.2001 377,193.9531 C353.696,251.9511 345.03,327.7921 342.704,352.6631 " fill="none" id="VCService-VCInterface" style="stroke: #A80036; stroke-width: 1.0;"/><!--link PackageService to PackagePackage--><path d="M800.569,361.9531 C819.685,361.9531 838.594,361.9531 854.707,361.9531 " fill="none" id="PackageService-&gt;PackagePackage" style="stroke: #A80036; stroke-width: 1.0;"/><polygon fill="#A80036" points="860.061,361.9531,851.061,357.9531,855.061,361.9531,851.061,365.9531,860.061,361.9531" style="stroke: #A80036; stroke-width: 1.0;"/><text fill="#000000" font-family="sans-serif" font-size="13" lengthAdjust="spacingAndGlyphs" textLength="23" x="819" y="355.02">use</text><!--link PackageService to PackageInterface--><path d="M690.996,385.2141 C689.635,415.3851 687.27,467.7911 686.366,487.8371 " fill="none" id="PackageService-PackageInterface" style="stroke: #A80036; stroke-width: 1.0;"/><!--link CICDService to CICDInterface--><path d="M461.858,385.2141 C469.798,415.3851 483.589,467.7911 488.864,487.8371 " fill="none" id="CICDService-CICDInterface" style="stroke: #A80036; stroke-width: 1.0;"/><!--reverse link VCServiceAPI to CICDService--><path d="M452.538,242.3711 C453.268,267.3901 454.572,312.0591 455.355,338.8541 " fill="none" id="VCServiceAPI&lt;-CICDService" style="stroke: #A80036; stroke-width: 1.0;"/><path d="M443.8745,235.4377 A9,9 0 0 0 460.7818 234.9423" fill="none" style="stroke: #A80036; stroke-width: 1.5;"/><!--reverse link VCInterface to CICDService--><path d="M361.45,361.9531 C370.756,361.9531 380.062,361.9531 389.368,361.9531 " fill="none" id="VCInterface&lt;-CICDService" style="stroke: #A80036; stroke-width: 1.0;"/><path d="M354.4302,370.4104 A9,9 0 0 0 354.4302 353.4959" fill="none" style="stroke: #A80036; stroke-width: 1.5;"/><!--link CICDService to PackageInterface--><path d="M495.126,384.9641 C516.424,396.9951 543.21,412.2061 567,425.9531 C602.955,446.7301 644.746,471.4451 668.007,485.2521 " fill="none" id="CICDService-&gt;PackageInterface" style="stroke: #A80036; stroke-width: 1.0;"/><path d="M678.4439,481.615 A9,9 0 0 0 669.8052 496.157" fill="none" style="stroke: #A80036; stroke-width: 1.5;"/><!--link VCClient to VC_CLI--><path d="M91.3406,519.9641 C84.7761,550.9761 73.1166,606.0571 68.7316,626.7731 " fill="none" id="VCClient-VC_CLI" style="stroke: #A80036; stroke-width: 1.0;"/><!--reverse link VCRepo to Sources--><path d="M255,143.7401 C255,223.9841 255,419.6881 255,478.7801 " fill="none" id="VCRepo&lt;-Sources" style="stroke: #A80036; stroke-width: 1.0;"/><polygon fill="#FFFFFF" points="255,130.5891,251,136.5891,255,142.5891,259,136.5891,255,130.5891" style="stroke: #A80036; stroke-width: 1.0;"/><text fill="#000000" font-family="sans-serif" font-size="13" lengthAdjust="spacingAndGlyphs" textLength="23" x="228.9094" y="150.733">0..*</text><!--reverse link Sources to CICDConf--><path d="M240.137,526.6331 C225.879,554.1451 204.817,594.7861 192.96,617.6641 " fill="none" id="Sources&lt;-CICDConf" style="stroke: #A80036; stroke-width: 1.0;"/><polygon fill="#A80036" points="246.151,515.0271,239.8388,518.5137,240.6294,525.6813,246.9416,522.1948,246.151,515.0271" style="stroke: #A80036; stroke-width: 1.0;"/><!--reverse link Sources to PackageConfig--><path d="M271.737,526.2621 C288.006,553.7791 312.19,594.6831 325.778,617.6641 " fill="none" id="Sources&lt;-PackageConfig" style="stroke: #A80036; stroke-width: 1.0;"/><polygon fill="#A80036" points="265.095,515.0271,264.7053,522.2277,271.2021,525.3569,271.5918,518.1563,265.095,515.0271" style="stroke: #A80036; stroke-width: 1.0;"/><!--reverse link VCInterface to VCClient--><path d="M323.291,368.7321 C293.384,378.3641 233.45,399.3031 187,425.9531 C163.142,439.6411 138.562,458.9131 120.972,473.7711 " fill="none" id="VCInterface&lt;-VCClient" style="stroke: #A80036; stroke-width: 1.0;"/><path d="M327.3866,358.5685 A9,9 0 0 0 332.4832 374.6968" fill="none" style="stroke: #A80036; stroke-width: 1.5;"/><!--reverse link CICDInterface to CICDConf--><path d="M472.244,505.6691 C457.201,511.6831 435.461,519.9871 416,525.9531 C345.609,547.5341 319.328,529.1411 255,564.9531 C231.104,578.2561 209.659,601.8031 196.742,617.8811 " fill="none" id="CICDInterface&lt;-CICDConf" style="stroke: #A80036; stroke-width: 1.0;"/><path d="M475.8557,495.0793 A9,9 0 0 0 482.2087 510.7553" fill="none" style="stroke: #A80036; stroke-width: 1.5;"/><!--reverse link PackageInterface to PackageConfig--><path d="M667.402,505.2331 C613.586,526.2981 456.653,587.7261 379.646,617.8691 " fill="none" id="PackageInterface&lt;-PackageConfig" style="stroke: #A80036; stroke-width: 1.0;"/><path d="M671.0482,494.7235 A9,9 0 0 0 677.2128 510.4745" fill="none" style="stroke: #A80036; stroke-width: 1.5;"/><!--reverse link PackageInterface to PackageClient--><path d="M686,516.3711 C686,541.3901 686,586.0591 686,612.8541 " fill="none" id="PackageInterface&lt;-PackageClient" style="stroke: #A80036; stroke-width: 1.0;"/><path d="M677.5428,509.1913 A9,9 0 0 0 694.4572 509.1913" fill="none" style="stroke: #A80036; stroke-width: 1.5;"/><!--link PackageClient to Package_CLI--><path d="M686,659.0571 C686,685.9431 686,729.9603 686,747.9314 " fill="none" id="PackageClient-Package_CLI" style="stroke: #A80036; stroke-width: 1.0;"/><!--reverse link PackagePackage to Binaries--><path d="M900,398.0901 C900,457.0731 900,573.8461 900,617.7371 " fill="none" id="PackagePackage&lt;-Binaries" style="stroke: #A80036; stroke-width: 1.0;"/><polygon fill="#FFFFFF" points="900,384.7521,896,390.7521,900,396.7521,904,390.7521,900,384.7521" style="stroke: #A80036; stroke-width: 1.0;"/><text fill="#000000" font-family="sans-serif" font-size="13" lengthAdjust="spacingAndGlyphs" textLength="23" x="873.9094" y="404.9398">0..*</text><!--link PackageClient to Binaries--><path d="M789.239,635.9531 C813.277,635.9531 837.569,635.9531 857.253,635.9531 " fill="none" id="PackageClient-&gt;Binaries" style="stroke: #A80036; stroke-width: 1.0;"/><polygon fill="#A80036" points="862.416,635.9531,853.416,631.9531,857.416,635.9531,853.416,639.9531,862.416,635.9531" style="stroke: #A80036; stroke-width: 1.0;"/><text fill="#000000" font-family="sans-serif" font-size="13" lengthAdjust="spacingAndGlyphs" textLength="37" x="807.25" y="629.02">install</text><!--link Binaries to API--><path d="M900,654.0031 C900,679.9671 900,728.4326 900,747.7239 " fill="none" id="Binaries-API" style="stroke: #A80036; stroke-width: 1.0;"/><!--
@startuml services_network
    title Services Network

    node "Version Control (VC) Server" as VCServer {
        database "VC Repository" as VCRepo
        node "VC Service" as VCService
        VCRepo <- VCService: use
    }
    interface "VC Service API" as VCServiceAPI
    interface "VC Interface" as VCInterface
    VCService - - VCServiceAPI
    VCService - - VCInterface
    
    node "Package Manager Server" as PackageServer {
        node "Package Manager Service" as PackageService
        database "Package" as PackagePackage
        PackageService -> PackagePackage: use
    }
    interface "Package Manager Interface" as PackageInterface
    PackageService - - PackageInterface

    node "CI/CD Server" as CICDServer {
        node "CI/CD Service" as CICDService
    }
    interface "CI/CD Interface" as CICDInterface
    CICDService - - CICDInterface
    VCServiceAPI )- - CICDService
    VCInterface )- CICDService
    CICDService - -( PackageInterface
    
    node "Producer" as Producer {
        node "VC Client" as VCClient
        interface "VC CLI" as VC_CLI
        VCClient - - VC_CLI

        file "Source files" as Sources
        file "CI/CD Config" as CICDConf
        file "Package Config" as PackageConfig
        VCRepo "0..*" o- - Sources
        Sources *- - CICDConf
        Sources *- - PackageConfig
        VCInterface )- - VCClient
        CICDInterface )- - CICDConf
        PackageInterface )- - PackageConfig
    }

    node "Consumer" as Consumer {
        node "Package Manager Client" as PackageClient
        interface "Package Manager CLI" as Package_CLI
        PackageInterface )- - PackageClient
        PackageClient - - Package_CLI

        file "Binaries" as Binaries
        interface "API" as API
        PackagePackage "0..*" o- - Binaries
        PackageClient -> Binaries: install
        Binaries - - API
    }
@enduml

PlantUML version 1.2019.09(Mon Aug 26 19:19:51 EEST 2019)
(GPL source distribution)
Java Runtime: Java(TM) SE Runtime Environment
JVM: Java HotSpot(TM) 64-Bit Server VM
Java Version: 1.8.0_201-b09
Operating System: Linux
OS Version: 4.15.0-55-generic
Default Encoding: UTF-8
Language: en
Country: US
--></g></svg>